<svg width="36" height="40" viewBox="0 0 36 40" fill="none" xmlns="http://www.w3.org/2000/svg">
<path d="M2.99998 0H24.2412L35.4999 11.215V37.5C35.4999 38.8812 34.38 40 32.9999 40H2.99998C1.61994 40 0.5 38.8812 0.5 37.5V2.49998C0.5 1.11877 1.62007 0 2.99998 0Z" fill="#E2574C"/>
<path d="M35.4637 11.2499H26.75C25.3699 11.2499 24.25 10.13 24.25 8.74992V0.0249023L35.4637 11.2499Z" fill="#B53629"/>
<path d="M26.1222 18.9539C26.541 18.9539 26.746 18.5889 26.746 18.2352C26.746 17.8689 26.5322 17.5151 26.1222 17.5151H23.7372C23.2709 17.5151 23.011 17.9013 23.011 18.3276V24.1889C23.011 24.7114 23.3085 25.0014 23.711 25.0014C24.111 25.0014 24.4098 24.7114 24.4098 24.1889V22.5801H25.8523C26.2998 22.5801 26.5235 22.2139 26.5235 21.8502C26.5235 21.494 26.2998 21.1401 25.8523 21.1401H24.4098V18.9539H26.1222ZM18.0609 17.5151H16.3159C15.8422 17.5151 15.5059 17.8402 15.5059 18.3226V24.1939C15.5059 24.7926 15.9896 24.9801 16.3358 24.9801H18.1671C20.3346 24.9801 21.7658 23.5539 21.7658 21.3526C21.7647 19.0252 20.4172 17.5151 18.0609 17.5151ZM18.1448 23.5327H17.081V18.9627H18.0397C19.491 18.9627 20.1222 19.9365 20.1222 21.2802C20.1222 22.5377 19.5022 23.5327 18.1448 23.5327ZM11.7522 17.5151H10.0235C9.53472 17.5151 9.26221 17.8376 9.26221 18.3276V24.1889C9.26221 24.7114 9.57469 25.0014 9.99465 25.0014C10.4146 25.0014 10.7271 24.7114 10.7271 24.1889V22.4776H11.8108C13.1483 22.4776 14.2521 21.53 14.2521 20.0063C14.2522 18.5152 13.1872 17.5151 11.7522 17.5151ZM11.7235 21.1027H10.7272V18.8914H11.7235C12.3385 18.8914 12.7298 19.3714 12.7298 19.9977C12.7285 20.6227 12.3385 21.1027 11.7235 21.1027Z" fill="white"/>
</svg>
