<svg width="60" height="60" viewBox="0 0 60 60" fill="none" xmlns="http://www.w3.org/2000/svg">
<path d="M11.5526 43.69C11.9944 43.69 12.3526 43.3318 12.3526 42.89C12.3526 42.4481 11.9944 42.09 11.5526 42.09C11.1107 42.09 10.7526 42.4481 10.7526 42.89C10.7526 43.3318 11.1107 43.69 11.5526 43.69Z" fill="#0D4862"/>
<path d="M46.7526 17.1924C47.1948 17.1924 47.5526 16.8342 47.5526 16.3924V15.2604C47.5526 14.8186 47.1948 14.4604 46.7526 14.4604C46.3104 14.4604 45.9526 14.8186 45.9526 15.2604V16.3924C45.9526 16.8342 46.3104 17.1924 46.7526 17.1924Z" fill="#0D4862"/>
<path d="M46.7526 21.7198C47.1948 21.7198 47.5526 21.3616 47.5526 20.9198V19.7878C47.5526 19.346 47.1948 18.9878 46.7526 18.9878C46.3104 18.9878 45.9526 19.346 45.9526 19.7878V20.9198C45.9526 21.3616 46.3104 21.7198 46.7526 21.7198Z" fill="#0D4862"/>
<path d="M43.9228 18.89H45.0548C45.497 18.89 45.8548 18.5318 45.8548 18.09C45.8548 17.6482 45.497 17.29 45.0548 17.29H43.9228C43.4806 17.29 43.1228 17.6482 43.1228 18.09C43.1228 18.5318 43.4806 18.89 43.9228 18.89Z" fill="#0D4862"/>
<path d="M48.4501 18.89H49.5821C50.0243 18.89 50.3821 18.5318 50.3821 18.09C50.3821 17.6482 50.0243 17.29 49.5821 17.29H48.4501C48.0079 17.29 47.6501 17.6482 47.6501 18.09C47.6501 18.5318 48.0079 18.89 48.4501 18.89Z" fill="#0D4862"/>
<path d="M53.0846 33.6208C52.9034 33.3806 52.6002 33.263 52.3042 33.3146C52.2058 33.3322 49.8088 33.7162 47.0816 31.265C43.9394 28.4424 42.3276 27.6424 42.2612 27.6096C42.2396 27.599 42.0554 27.5114 41.6814 27.3738C41.7368 25.8692 41.5482 24.5262 41.0956 23.3928C39.7074 19.922 40.2378 14.3834 40.3332 13.5068C41.209 12.1224 41.9528 10.2056 41.9528 7.69C41.9528 7.3888 41.7818 7.1142 41.513 6.9778C41.2442 6.8426 40.9208 6.8696 40.6762 7.0474C40.5566 7.135 37.6824 9.1814 32.5722 7.7208C26.9292 6.1084 24.455 6.09 24.3526 6.09C24.2502 6.09 21.776 6.1084 16.133 7.7208C11.022 9.1806 8.14858 7.1348 8.03218 7.05C7.78998 6.8684 7.46498 6.8382 7.19458 6.9742C6.92358 7.1098 6.75238 7.3866 6.75238 7.6898C6.75238 10.2054 7.49618 12.1222 8.37198 13.5066C8.46738 14.3832 8.99778 19.9218 7.60958 23.3926C6.20018 26.9168 7.60558 31.436 8.19078 33.0274C7.58378 33.6192 6.75258 34.8716 6.75258 37.2898C6.75258 37.566 6.89638 37.8218 7.13078 37.968C7.36598 38.1144 7.65898 38.1298 7.90738 38.0066C7.93778 37.9922 10.9964 36.5352 16.2394 37.2816C19.9936 37.8178 22.3128 37.9978 23.4658 38.0584C23.29 38.7938 23.1876 39.4506 23.1378 39.8914C22.5144 40.1372 21.6168 40.7442 20.887 42.2418C20.766 42.4894 20.783 42.782 20.9292 43.016C21.0752 43.2496 21.3338 43.3918 21.6096 43.3922C21.633 43.3922 23.9932 43.418 27.0588 45.4958C30.4134 47.768 31.9792 48.5388 32.044 48.5704C32.1096 48.602 33.6816 49.3606 37.537 50.6028C41.062 51.7388 42.5362 53.5814 42.548 53.5962C42.7004 53.795 42.9356 53.9098 43.1832 53.9098C43.2098 53.9098 43.2364 53.9086 43.2628 53.9058C43.5386 53.878 43.7808 53.7098 43.9018 53.4604C44.633 51.9624 44.558 50.8812 44.3674 50.2386C45.326 49.2984 47.5284 46.864 47.7244 44.184C47.9112 41.6352 49.8704 38.3808 50.2682 37.7438C51.2822 37.1074 52.3714 36.0864 53.1682 34.4516C53.2994 34.1814 53.265 33.8612 53.0846 33.6208ZM16.4658 35.6982C12.669 35.156 9.92118 35.6736 8.44158 36.1126C8.70958 34.4848 9.48618 34.02 9.51038 34.0056C9.88938 33.8162 10.055 33.3642 9.88778 32.9748C9.86518 32.922 7.63538 27.6372 9.09558 23.9872C10.137 21.3832 10.219 17.8954 10.1276 15.5954C10.6776 16.0914 11.0878 16.3438 11.1408 16.3758C11.4868 16.5828 11.9346 16.5008 12.183 16.182C12.4314 15.8636 12.404 15.4098 12.1182 15.1242L9.90018 12.9062C9.26038 11.9672 8.66418 10.696 8.44318 9.0608C9.98138 9.6932 12.765 10.348 16.5722 9.2588C21.9526 7.7216 24.3316 7.6896 24.3504 7.6896C24.3738 7.6896 26.7528 7.7216 32.1332 9.2588C35.9418 10.3466 38.7262 9.6932 40.2636 9.06C40.0472 10.68 39.4676 11.939 38.8386 12.8722L36.587 15.1242C36.301 15.4098 36.2738 15.8636 36.5222 16.182C36.769 16.5008 37.2176 16.5828 37.5644 16.3758C37.6176 16.3438 38.0276 16.0914 38.5776 15.5954C38.4862 17.8954 38.5682 21.3832 39.6096 23.9868C39.9362 24.8042 40.093 25.7774 40.094 26.8744C39.1936 26.627 37.9846 26.3428 36.412 26.0642C32.7988 25.4248 31.6284 23.3028 31.583 23.2188C31.4454 22.9492 31.1962 22.8036 30.8634 22.7836C30.5602 22.7868 30.2852 22.9606 30.1524 23.2332C29.3556 24.8668 29.222 26.3532 29.3446 27.5438C29.0906 28.2458 27.7384 31.7942 25.8392 33.5164C24.9544 34.319 24.3634 35.4036 23.9542 36.4786C23.073 36.4444 20.6834 36.3008 16.4658 35.6982ZM49.2416 36.4974L47.115 37.2306C46.733 37.3622 46.5096 37.758 46.5932 38.1532C46.6776 38.5482 47.0472 38.825 47.4456 38.7836C47.4752 38.7812 47.6332 38.7656 47.8832 38.7144C47.1348 40.1762 46.2636 42.2292 46.1292 44.0672C45.9316 46.764 42.9152 49.409 42.8846 49.4352C42.5846 49.6958 42.5408 50.1672 42.755 50.5016C42.7682 50.5226 42.994 50.8906 42.8488 51.6566C41.9504 50.896 40.3934 49.8422 38.0278 49.08C34.338 47.891 32.7888 47.1526 32.7458 47.132C32.7044 47.1116 31.1692 46.3472 27.956 44.171C25.899 42.7768 24.1092 42.1996 22.9568 41.9604C23.4686 41.3748 23.8912 41.326 23.8936 41.3244C24.317 41.3202 24.6632 40.9866 24.685 40.5642C24.6866 40.524 24.9116 36.5182 26.9146 34.7014C28.2802 33.4628 29.36 31.5108 30.0506 30.021C30.1638 30.25 30.2498 30.3842 30.2662 30.4092C30.4858 30.7474 30.9216 30.8702 31.288 30.6916C31.6504 30.5142 31.8248 30.094 31.6926 29.712L30.9606 27.5894C30.8676 26.9152 30.8746 26.0968 31.1192 25.1844C32.006 26.072 33.5786 27.1876 36.1324 27.6398C40.0238 28.3284 41.548 29.0422 41.5566 29.046C41.5714 29.0534 43.073 29.8144 46.0128 32.4554C47.9424 34.1886 49.7902 34.7406 51.0354 34.8918C50.4682 35.6462 49.8284 36.1552 49.2416 36.4974Z" fill="#0D4862"/>
<path d="M17.5526 46.09C16.0088 46.09 14.7526 47.3462 14.7526 48.89C14.7526 50.4338 16.0088 51.69 17.5526 51.69C19.0964 51.69 20.3526 50.4338 20.3526 48.89C20.3526 47.3462 19.0964 46.09 17.5526 46.09ZM17.5526 50.09C16.8908 50.09 16.3526 49.5518 16.3526 48.89C16.3526 48.2282 16.8908 47.69 17.5526 47.69C18.2144 47.69 18.7526 48.2282 18.7526 48.89C18.7526 49.5518 18.2142 50.09 17.5526 50.09Z" fill="#0D4862"/>
<path d="M12.6666 21.3548C12.262 21.181 11.7908 21.37 11.6174 21.7748C11.5128 22.019 9.08618 27.8002 11.6666 32.1018C11.8166 32.3518 12.0814 32.49 12.3534 32.49C12.4932 32.49 12.6354 32.4532 12.7644 32.376C13.1434 32.1486 13.266 31.6572 13.0386 31.2784C10.8816 27.6838 13.066 22.457 13.0886 22.4046C13.2612 21.9982 13.0728 21.5284 12.6666 21.3548Z" fill="#0D4862"/>
<path d="M44.6056 41.331C44.1822 41.1892 43.7338 41.4182 43.5938 41.8368C43.211 42.9836 41.7484 46.3814 40.0992 46.931C39.6804 47.0708 39.4538 47.524 39.5938 47.9432C39.7056 48.2784 40.0172 48.4904 40.3524 48.4904C40.436 48.4904 40.5212 48.4772 40.6056 48.449C43.3072 47.5486 44.9346 42.8732 45.111 42.3432C45.251 41.924 45.0244 41.4708 44.6056 41.331Z" fill="#0D4862"/>
</svg>
