<svg width="90" height="90" viewBox="0 0 90 90" fill="none" xmlns="http://www.w3.org/2000/svg">
<path fill-rule="evenodd" clip-rule="evenodd" d="M45 13.2692C27.4756 13.2692 13.2692 27.4756 13.2692 45C13.2692 62.5244 27.4756 76.7308 45 76.7308C62.5244 76.7308 76.7308 62.5244 76.7308 45C76.7308 27.4756 62.5244 13.2692 45 13.2692ZM7.5 45C7.5 24.2893 24.2893 7.5 45 7.5C65.7107 7.5 82.5 24.2893 82.5 45C82.5 65.7107 65.7107 82.5 45 82.5C24.2893 82.5 7.5 65.7107 7.5 45ZM36.2626 30.3253C37.1699 29.8141 38.2823 29.8316 39.173 30.3711L59.2457 42.529C60.1087 43.0517 60.6359 43.9873 60.6359 44.9963C60.6359 46.0053 60.1087 46.9409 59.2457 47.4636L39.173 59.6215C38.2823 60.161 37.1699 60.1785 36.2626 59.6673C35.3553 59.1561 34.794 58.1955 34.794 57.1541V32.8384C34.794 31.797 35.3553 30.8365 36.2626 30.3253ZM40.5632 37.9581V52.0345L52.1833 44.9963L40.5632 37.9581Z" fill="#5AC7EF"/>
</svg>
