<svg width="40" height="40" viewBox="0 0 40 40" fill="none" xmlns="http://www.w3.org/2000/svg">
<g clip-path="url(#clip0_14_1652)">
<path d="M29.4331 7.55315L32.6678 8.94175C33.35 9.2346 33.989 9.61259 34.5674 10.0651C34.6748 10.1493 34.8024 10.19 34.929 10.19C35.1035 10.19 35.2762 10.1126 35.392 9.96458C35.5919 9.70909 35.5469 9.33987 35.2914 9.13999C34.6333 8.62501 33.9065 8.19509 33.1313 7.86229L29.8966 6.47361C29.2937 6.21491 28.7471 5.85423 28.272 5.40152C27.1875 4.36819 26.5656 2.91654 26.5656 1.41876V0.587428C26.5656 0.262933 26.3027 0 25.9782 0C25.6537 0 25.3907 0.262933 25.3907 0.587428V1.41868C25.3907 3.23634 26.1456 4.99799 27.4615 6.25196C28.0382 6.8014 28.7015 7.23915 29.4331 7.55315Z" fill="#333333"/>
<path d="M39.933 33.4728L39.2502 32.1596C39.2026 32.0681 39.1774 31.9653 39.1774 31.8621V25.2964C39.1774 24.3612 38.7859 23.4749 38.1007 22.8444C38.1009 22.8371 38.1018 22.83 38.1018 22.8226L38.1018 20.8756C39.5823 17.6955 39.2332 13.965 37.1789 11.107C36.9895 10.8433 36.6222 10.7835 36.3591 10.9728C36.0956 11.1621 36.0355 11.5292 36.2249 11.7926C38.0542 14.3378 38.3456 17.6696 36.9853 20.4882C36.9469 20.5679 36.9269 20.6551 36.9269 20.7435V21.8375L31.4273 17.1403V16.4574C31.4273 16.1329 31.1644 15.87 30.8399 15.87C30.5154 15.87 30.2525 16.1329 30.2525 16.4574V24.675C30.2525 25.478 30.1078 26.2788 29.831 27.0317L29.7276 26.8592C29.4219 26.3496 28.934 25.9977 28.354 25.8683C27.7741 25.7392 27.1829 25.8499 26.6895 26.1811C25.8328 26.756 25.506 27.8615 25.9122 28.8099L27.5302 32.5858C27.9484 33.5616 28.5685 34.4236 29.3402 35.1244C29.3402 35.1376 29.3399 35.1508 29.3408 35.1642L29.6027 39.3005C29.6224 39.6116 29.8809 39.8508 30.1885 39.8508C30.2009 39.8508 30.2135 39.8504 30.2261 39.8496C30.5499 39.8291 30.7957 39.55 30.7753 39.2262L30.5729 36.0301C30.7694 36.1446 30.9718 36.2508 31.1799 36.3475L31.8417 36.6552L34.1397 39.7616C34.2549 39.9173 34.4325 39.9997 34.6124 39.9997C34.7338 39.9997 34.8562 39.9621 34.9612 39.8844C35.222 39.6915 35.2771 39.3237 35.0841 39.0629L32.6972 35.8363C32.6388 35.7573 32.5616 35.6944 32.4726 35.6529L31.675 35.2821C30.297 34.6417 29.2086 33.5198 28.61 32.123L26.9921 28.3473C26.8081 27.9178 26.9561 27.417 27.3442 27.1566C27.5677 27.0066 27.8355 26.9563 28.098 27.0149C28.3607 27.0735 28.5817 27.2329 28.7201 27.4636L29.9025 29.4342C30.1485 29.844 30.5981 30.0986 31.0761 30.0986H31.877C32.5514 30.0986 33.1195 29.6155 33.2279 28.9498L33.348 28.2121C33.4002 27.8918 33.1828 27.59 32.8626 27.538C32.5423 27.486 32.2406 27.7031 32.1885 28.0233L32.0684 28.761C32.0531 28.8553 31.9725 28.9237 31.8771 28.9237H31.0761C31.0085 28.9237 30.9447 28.8876 30.9099 28.8297L30.5731 28.2683C31.1318 27.1575 31.4274 25.9184 31.4274 24.6748V22.3371L32.7782 23.951C32.8173 23.9977 32.8341 24.0589 32.8243 24.1191L32.5962 25.52C32.5441 25.8402 32.7613 26.1421 33.0816 26.1942C33.1136 26.1993 33.1453 26.2019 33.1767 26.2019C33.4595 26.2019 33.7089 25.9971 33.7558 25.7088L33.9839 24.3077C34.0485 23.9104 33.9375 23.5055 33.6791 23.1969L31.4274 20.5068V18.6853L37.2458 23.6548C37.7268 24.0655 38.0025 24.6639 38.0025 25.2963V31.862C38.0025 32.153 38.0735 32.4434 38.2077 32.7015L38.8906 34.0147C38.9952 34.2159 39.2 34.3313 39.4122 34.3313C39.5035 34.3313 39.5962 34.3099 39.6827 34.2649C39.9706 34.1153 40.0827 33.7606 39.933 33.4728Z" fill="#333333"/>
<path d="M24.2922 23.9328C23.2261 24.8911 22.6147 26.2623 22.6147 27.6948C22.6147 28.5147 22.8156 29.3292 23.1958 30.0503C23.3011 30.2499 23.5049 30.3639 23.716 30.3639C23.8084 30.3639 23.9021 30.342 23.9895 30.296C24.2764 30.1446 24.3864 29.7893 24.2352 29.5023C23.9436 28.9495 23.7896 28.3245 23.7896 27.6948C23.7896 26.5951 24.2591 25.5424 25.0776 24.8064C25.3189 24.5896 25.3387 24.2181 25.1217 23.9769C24.9051 23.7357 24.5336 23.7159 24.2922 23.9328Z" fill="#333333"/>
<path d="M26.6275 22.7463C26.31 22.8131 26.1068 23.1245 26.1735 23.442C26.2317 23.7187 26.4757 23.9088 26.7477 23.9088C26.7878 23.9088 26.8284 23.9046 26.8692 23.8961C27.3604 23.7928 27.8826 23.7863 28.3777 23.877C28.6963 23.9352 29.0029 23.7243 29.0614 23.4051C29.1199 23.086 28.9087 22.78 28.5896 22.7215C27.9451 22.6033 27.2674 22.6117 26.6275 22.7463Z" fill="#333333"/>
<path d="M14.0218 0C13.6973 0 13.4344 0.262933 13.4344 0.587428V1.41868C13.4344 2.91646 12.8125 4.36803 11.728 5.40144C11.2531 5.85391 10.7065 6.21467 10.1034 6.47353L6.86868 7.86213C4.41182 8.91684 2.54294 10.8769 1.6065 13.3813C0.686037 15.8431 0.790521 18.4991 1.8981 20.8759V22.8229C1.8981 22.8299 1.89888 22.8367 1.89911 22.8436C1.21441 23.4627 0.822556 24.3398 0.822556 25.2661V26.3076C0.822556 26.6321 1.08549 26.895 1.40998 26.895C1.73448 26.895 1.99741 26.6321 1.99741 26.3076V25.2661C1.99741 24.653 2.26473 24.073 2.73091 23.6749L8.57253 18.6855V20.507L6.32088 23.1971C6.06249 23.5057 5.95143 23.9106 6.01604 24.3081L6.77187 28.9502C6.88027 29.6158 7.44843 30.0989 8.1228 30.0989H8.92373C9.40182 30.0989 9.85156 29.8443 10.0973 29.4344L11.2797 27.4641C11.4182 27.2332 11.6391 27.0738 11.9018 27.0152C12.1645 26.9566 12.4321 27.007 12.6557 27.1569C13.0436 27.4173 13.1917 27.9181 13.0077 28.3475L11.3898 32.1234C10.7912 33.5202 9.70274 34.6421 8.32471 35.2826L7.52722 35.6533C7.43817 35.6946 7.36094 35.7577 7.30259 35.8366L4.91567 39.0632C4.72269 39.3241 4.77775 39.6919 5.03856 39.8848C5.1436 39.9626 5.26602 40.0001 5.38742 40C5.56733 40 5.74489 39.9176 5.8601 39.7619L8.15804 36.6556L8.8198 36.348C9.0279 36.2513 9.23029 36.1451 9.42689 36.0305L9.2245 39.2266C9.20398 39.5503 9.44991 39.8294 9.7737 39.8499C9.78631 39.8507 9.79885 39.8511 9.8113 39.8511C10.1188 39.8511 10.3773 39.6119 10.3971 39.3008L10.659 35.1645C10.6599 35.1511 10.6595 35.138 10.6595 35.1247C11.4311 34.4239 12.0514 33.5619 12.4695 32.5861L14.0875 28.8102C14.4938 27.8619 14.167 26.7562 13.3103 26.1814C12.8168 25.8503 12.2255 25.7392 11.6456 25.8687C11.0657 25.9981 10.5778 26.3501 10.2722 26.8597L10.1687 27.0321C9.89189 26.2791 9.74723 25.4783 9.74723 24.6753V16.4577C9.74723 16.1332 9.4843 15.8703 9.1598 15.8703C8.83531 15.8703 8.57237 16.1332 8.57237 16.4577V17.1405L3.07272 21.8378V20.7438C3.07272 20.6554 3.05275 20.5681 3.01437 20.4885C1.99287 18.372 1.88361 15.9941 2.70671 13.7929C3.52981 11.5917 5.17265 9.86879 7.3322 8.94175L10.5668 7.55315C11.2987 7.23899 11.962 6.80124 12.5385 6.25203C13.8545 4.99799 14.6093 3.23641 14.6093 1.41876V0.587428C14.6093 0.262933 14.3463 0 14.0218 0V0ZM9.09009 28.8301C9.05532 28.8881 8.99156 28.9242 8.92389 28.9242H8.12295C8.0274 28.9242 7.94696 28.8557 7.93161 28.7615L7.17578 24.1195C7.16599 24.0592 7.18283 23.998 7.22192 23.9513L8.57269 22.3375V24.6753C8.57269 25.9189 8.8682 27.158 9.42696 28.2688L9.09009 28.8301Z" fill="#333333"/>
<path d="M1.41006 28.2236C1.08557 28.2236 0.822632 28.4866 0.822632 28.8111V31.8785C0.822632 31.971 0.800075 32.0633 0.757389 32.1454L0.0671218 33.4729C-0.0825548 33.7607 0.0295264 34.1154 0.317288 34.2651C0.403835 34.3101 0.496492 34.3315 0.587818 34.3315C0.799918 34.3315 1.00481 34.2161 1.10945 34.0149L1.79972 32.6873C1.92903 32.4385 1.99741 32.1588 1.99741 31.8785V28.8111C1.99749 28.4866 1.73456 28.2236 1.41006 28.2236Z" fill="#333333"/>
<path d="M15.7078 23.9329C15.4666 23.7158 15.0951 23.7357 14.8783 23.977C14.6613 24.2182 14.6811 24.5896 14.9224 24.8065C15.7409 25.5424 16.2103 26.5952 16.2103 27.6948C16.2103 28.3246 16.0563 28.9497 15.7648 29.5024C15.6135 29.7894 15.7236 30.1446 16.0105 30.296C16.0979 30.3421 16.1916 30.3639 16.284 30.3639C16.495 30.3639 16.6989 30.2499 16.8042 30.0503C17.1844 29.3293 17.3853 28.5148 17.3853 27.6948C17.3853 26.2624 16.7739 24.8912 15.7078 23.9329Z" fill="#333333"/>
<path d="M11.4105 22.7214C11.0914 22.7799 10.8802 23.086 10.9387 23.4051C10.9972 23.7242 11.3037 23.9357 11.6223 23.8769C12.1176 23.7862 12.6396 23.7929 13.1309 23.896C13.1717 23.9046 13.2122 23.9087 13.2523 23.9087C13.5243 23.9087 13.7684 23.7187 13.8266 23.442C13.8933 23.1244 13.6901 22.813 13.3726 22.7462C12.7326 22.6117 12.0549 22.6033 11.4105 22.7214Z" fill="#333333"/>
<path d="M20.0624 0C19.7379 0 19.475 0.262933 19.475 0.587428V1.96107C19.475 2.28556 19.7379 2.5485 20.0624 2.5485C20.3869 2.5485 20.6498 2.28556 20.6498 1.96107V0.587428C20.6498 0.262933 20.3869 0 20.0624 0V0Z" fill="#333333"/>
<path d="M20.0624 5.25684C19.7379 5.25684 19.4749 5.51977 19.4749 5.84426V7.21783C19.4749 7.54232 19.7379 7.80525 20.0624 7.80525C20.3869 7.80525 20.6498 7.54232 20.6498 7.21783V5.84426C20.6498 5.51985 20.3869 5.25684 20.0624 5.25684Z" fill="#333333"/>
<path d="M20.0624 10.5137C19.7379 10.5137 19.4749 10.7766 19.4749 11.1011V12.4747C19.4749 12.7992 19.7379 13.0621 20.0624 13.0621C20.3869 13.0621 20.6498 12.7992 20.6498 12.4747V11.1011C20.6498 10.7767 20.3869 10.5137 20.0624 10.5137Z" fill="#333333"/>
<path d="M20.0624 15.7715C19.7379 15.7715 19.4749 16.0344 19.4749 16.3589V17.7326C19.4749 18.057 19.7379 18.32 20.0624 18.32C20.3869 18.32 20.6498 18.057 20.6498 17.7326V16.3589C20.6498 16.0345 20.3869 15.7715 20.0624 15.7715Z" fill="#333333"/>
<path d="M20.0624 21.0283C19.7379 21.0283 19.475 21.2913 19.475 21.6157V22.9893C19.475 23.3138 19.7379 23.5767 20.0624 23.5767C20.3869 23.5767 20.6498 23.3138 20.6498 22.9893V21.6157C20.6498 21.2913 20.3869 21.0283 20.0624 21.0283Z" fill="#333333"/>
<path d="M20.0624 26.2852C19.7379 26.2852 19.475 26.5481 19.475 26.8726V28.2462C19.475 28.5707 19.7379 28.8337 20.0624 28.8337C20.3869 28.8337 20.6498 28.5707 20.6498 28.2462V26.8726C20.6498 26.5481 20.3869 26.2852 20.0624 26.2852Z" fill="#333333"/>
<path d="M20.0624 31.542C19.7379 31.542 19.4749 31.8049 19.4749 32.1294V33.503C19.4749 33.8275 19.7379 34.0904 20.0624 34.0904C20.3869 34.0904 20.6498 33.8275 20.6498 33.503V32.1294C20.6498 31.8049 20.3869 31.542 20.0624 31.542Z" fill="#333333"/>
<path d="M20.0624 36.7998C19.7379 36.7998 19.4749 37.0627 19.4749 37.3872V38.7608C19.4749 39.0853 19.7379 39.3482 20.0624 39.3482C20.3869 39.3482 20.6498 39.0853 20.6498 38.7608V37.3872C20.6498 37.0627 20.3869 36.7998 20.0624 36.7998Z" fill="#333333"/>
</g>
<defs>
<clipPath id="clip0_14_1652">
<rect width="40" height="40" fill="white"/>
</clipPath>
</defs>
</svg>
