<svg width="40" height="40" viewBox="0 0 40 40" fill="none" xmlns="http://www.w3.org/2000/svg">
<path d="M39.459 14.0383C39.5225 13.6896 39.5145 13.3317 39.4354 12.9862C39.3563 12.6407 39.2079 12.3149 38.9991 12.0286C39.0531 11.7302 39.0375 11.4234 38.9535 11.132C38.8695 10.8407 38.7193 10.5727 38.5147 10.3489C38.2329 10.0316 37.8529 9.81798 37.4353 9.74234C35.7359 6.14859 32.4522 3.80859 28.4978 3.80859C26.9354 3.82124 25.3948 4.17732 23.9853 4.85161C22.5758 5.5259 21.3319 6.5019 20.3416 7.71047C20.3001 7.76108 20.2479 7.80186 20.1888 7.82986C20.1297 7.85786 20.0651 7.87239 19.9997 7.87239C19.9343 7.87239 19.8697 7.85786 19.8105 7.82986C19.7514 7.80186 19.6992 7.76108 19.6578 7.71047C18.6675 6.5019 17.4235 5.5259 16.014 4.85161C14.6045 4.17732 13.064 3.82124 11.5015 3.80859C7.54436 3.80859 4.25436 6.14641 2.55499 9.74422C2.14074 9.8212 1.76393 10.034 1.48405 10.3489C1.27946 10.5727 1.12934 10.8407 1.04537 11.1321C0.961408 11.4234 0.945876 11.7302 0.999986 12.0286C0.791176 12.3149 0.642729 12.6407 0.563655 12.9862C0.484581 13.3317 0.476528 13.6896 0.539986 14.0383C0.25704 14.8763 0.300106 15.7902 0.660611 16.598C0.681236 17.473 1.12561 18.4283 1.85061 19.4052C2.1689 20.67 2.59526 21.9052 3.12499 23.097C3.07815 23.1281 3.03327 23.162 2.99061 23.1986C2.80297 23.363 2.66852 23.5795 2.60441 23.8206C2.5403 24.0617 2.54942 24.3165 2.63061 24.5523C3.6428 27.5167 5.55342 29.5664 8.30874 30.6461C8.65717 30.7827 9.01467 30.8986 9.37749 31.0008C14.0003 34.7195 17.7869 35.8161 19.3303 36.1258C19.7737 36.2154 20.2306 36.2154 20.674 36.1258C22.2162 35.8164 26 34.7164 30.6191 31.003C30.9841 30.9002 31.3434 30.7842 31.6937 30.6464C34.4491 29.568 36.3597 27.5183 37.3719 24.5527C37.4531 24.3168 37.4622 24.062 37.3981 23.8209C37.334 23.5799 37.1995 23.3633 37.0119 23.1989C36.9687 23.1617 36.9232 23.1274 36.8756 23.0961C37.4078 21.9002 37.8364 20.6609 38.1569 19.3917C38.8756 18.4195 39.3191 17.4705 39.3397 16.5983C39.6999 15.7903 39.7425 14.8763 39.459 14.0383ZM11.5028 4.74609C12.9279 4.75911 14.3328 5.08531 15.6178 5.70159C16.9029 6.31787 18.0367 7.20917 18.939 8.31234C19.0675 8.46966 19.2293 8.59645 19.4128 8.68351C19.5963 8.77058 19.7969 8.81574 20 8.81574C20.2031 8.81574 20.4036 8.77058 20.5871 8.68351C20.7706 8.59645 20.9325 8.46966 21.0609 8.31234C21.9634 7.20906 23.0975 6.31773 24.3827 5.7015C25.668 5.08526 27.0731 4.7592 28.4984 4.74641C31.9672 4.74641 34.8716 6.75078 36.4566 9.86766C36.3617 9.91079 36.2709 9.96236 36.1853 10.0217C35.4794 10.5139 33.7259 11.4905 32.7434 11.6889C32.595 11.7422 32.4325 11.7408 32.2849 11.6851C32.1374 11.6294 32.0146 11.5229 31.9384 11.3848C31.4578 10.7533 31.3197 8.89203 31.4384 7.93797C31.6162 6.51859 30.7416 5.70328 29.8537 5.54641C29.3868 5.45724 28.9035 5.55641 28.5093 5.82227C28.1152 6.08812 27.8422 6.49909 27.75 6.96547C27.6562 7.36984 27.5672 7.77797 27.4766 8.18828C26.5078 12.5667 25.5078 17.0945 20.8928 20.5664C20.6072 20.7814 20.3106 20.9845 20.0059 21.1789C19.6987 20.9839 19.3969 20.783 19.109 20.5664C14.4928 17.0936 13.4922 12.5667 12.5244 8.18734C12.4337 7.77672 12.3437 7.36891 12.2509 6.96453C12.1591 6.4978 11.8861 6.08645 11.4917 5.82045C11.0974 5.55446 10.6137 5.45548 10.1466 5.54516C9.25874 5.70141 8.38405 6.51734 8.56186 7.93672C8.68155 8.89078 8.54342 10.752 8.06186 11.3836C7.9856 11.5217 7.8627 11.6281 7.71514 11.6838C7.56759 11.7395 7.40502 11.7409 7.25655 11.6877C6.27436 11.4905 4.52092 10.5127 3.8153 10.0205C3.72924 9.96047 3.63805 9.90819 3.5428 9.86422C5.12905 6.74984 8.03374 4.74609 11.5028 4.74609ZM2.27186 18.3555C2.41852 18.4371 2.57189 18.506 2.7303 18.5614C2.84807 18.6013 2.97687 18.5928 3.08837 18.5377C3.19987 18.4827 3.28492 18.3856 3.32483 18.2678C3.36474 18.15 3.35622 18.0212 3.30116 17.9097C3.2461 17.7982 3.14901 17.7132 3.03124 17.6733C2.38053 17.4187 1.85152 16.9253 1.55217 16.2939C1.42344 16.0264 1.34162 15.7388 1.3103 15.4436C1.88941 16.0186 2.57901 16.4704 3.33749 16.7717C3.39491 16.7966 3.45674 16.8097 3.51932 16.8103C3.5819 16.8109 3.64396 16.799 3.70185 16.7752C3.75974 16.7514 3.81229 16.7163 3.85639 16.6719C3.90049 16.6275 3.93525 16.5747 3.95862 16.5166C3.98199 16.4586 3.9935 16.3964 3.99247 16.3339C3.99144 16.2713 3.97789 16.2096 3.95262 16.1523C3.92735 16.095 3.89087 16.0434 3.84534 16.0005C3.7998 15.9576 3.74613 15.9242 3.68749 15.9023C2.78124 15.538 1.72905 14.8358 1.48061 13.9573C1.39661 13.6522 1.41416 13.3279 1.53061 13.0336C2.16106 13.7107 2.93244 14.2412 3.7903 14.5877C3.92499 14.6517 4.05936 14.7152 4.19311 14.7817C4.3045 14.837 4.43329 14.8458 4.55115 14.8061C4.669 14.7664 4.76627 14.6815 4.82155 14.5702C4.87683 14.4588 4.8856 14.33 4.84592 14.2121C4.80624 14.0943 4.72138 13.997 4.60999 13.9417C4.47124 13.873 4.33155 13.8067 4.19155 13.7405C3.41946 13.4378 2.72788 12.9605 2.17092 12.3461C1.9968 12.1608 1.90051 11.9157 1.90197 11.6614C1.90342 11.4071 2.0025 11.1631 2.17874 10.9798C2.30542 10.816 2.48898 10.7056 2.69312 10.6705C2.89726 10.6355 3.10713 10.6783 3.28124 10.7905C4.02249 11.3077 5.89655 12.3714 7.07405 12.608C7.39559 12.6957 7.73664 12.6795 8.0484 12.5616C8.36015 12.4437 8.62662 12.2302 8.80967 11.9517C9.53905 10.9942 9.61499 8.78859 9.49342 7.82047C9.38405 6.94859 9.8653 6.54734 10.3106 6.46859C10.4246 6.44507 10.5422 6.44481 10.6563 6.46783C10.7705 6.49086 10.8788 6.53669 10.9747 6.60258C11.0707 6.66847 11.1524 6.75307 11.2149 6.8513C11.2774 6.94953 11.3194 7.05936 11.3384 7.17422C11.4303 7.57609 11.52 7.98172 11.6103 8.38984C12.5681 12.723 13.6534 17.6342 18.5478 21.3152C18.7275 21.4505 18.9137 21.5817 19.1044 21.7095C15.8284 23.4234 12.147 24.2113 8.45655 23.9886C5.72374 22.1048 3.37499 20.0623 2.27186 18.3555ZM6.4428 23.7123C5.72628 23.5661 5.0303 23.3329 4.3703 23.018C4.2742 22.9714 4.1727 22.9368 4.06811 22.9152C3.79124 22.3067 3.54717 21.6945 3.33467 21.0836C4.30991 22.0293 5.34835 22.9076 6.4428 23.7123ZM20.4881 35.2052C20.1665 35.2697 19.8353 35.2697 19.5137 35.2052C18.2112 34.9439 15.23 34.0861 11.475 31.4108C12.1228 31.4852 12.7744 31.5219 13.4265 31.5208C15.65 31.4878 17.8597 31.1656 20 30.5623C22.1403 31.1657 24.35 31.4879 26.5734 31.5208C27.2202 31.5217 27.8665 31.4853 28.509 31.412C24.7637 34.0773 21.7881 34.9442 20.4881 35.2052ZM36.4828 24.2498C35.5641 26.9408 33.8372 28.7989 31.3503 29.7723C28.4784 30.8973 25.0175 30.7411 21.7612 30.0364C23.6768 29.4143 25.5348 28.6273 27.3144 27.6842C28.6581 26.9586 30.275 25.9948 31.8831 24.903C33.3232 24.8158 34.7346 24.4618 36.0453 23.8589C36.1005 23.8295 36.1635 23.818 36.2256 23.826C36.2876 23.8341 36.3456 23.8612 36.3916 23.9036C36.4406 23.9448 36.4757 24.0003 36.4921 24.0622C36.5084 24.1242 36.5052 24.1898 36.4828 24.2498ZM35.9397 22.9136C35.8324 22.9352 35.7284 22.9704 35.63 23.0183C34.9714 23.3321 34.277 23.5644 33.5622 23.7102C34.6613 22.9017 35.7038 22.019 36.6825 21.0683C36.4666 21.683 36.2187 22.3011 35.9397 22.9133V22.9136ZM38.4491 16.2942C38.1497 16.9256 37.6207 17.419 36.97 17.6736C36.9106 17.6924 36.8555 17.7228 36.808 17.7631C36.7605 17.8035 36.7215 17.8528 36.6933 17.9084C36.6651 17.964 36.6482 18.0246 36.6437 18.0868C36.6392 18.1489 36.6472 18.2114 36.6671 18.2704C36.687 18.3295 36.7185 18.384 36.7598 18.4307C36.801 18.4774 36.8511 18.5154 36.9072 18.5426C36.9633 18.5697 37.0243 18.5854 37.0865 18.5886C37.1488 18.5919 37.211 18.5828 37.2697 18.5617C37.4289 18.5059 37.5831 18.4365 37.7306 18.3545C36.0241 20.9964 31.3437 24.4408 26.8687 26.8595C22.8659 29.023 14.525 32.0711 8.64999 29.772C6.1628 28.7986 4.43749 26.9405 3.51717 24.2498C3.49479 24.1898 3.49155 24.1242 3.50789 24.0622C3.52422 24.0003 3.55934 23.9448 3.60842 23.9036C3.65435 23.861 3.71243 23.8338 3.77455 23.8258C3.83668 23.8178 3.89975 23.8294 3.95499 23.8589C8.41561 26.0623 16.7569 24.8505 21.455 21.3161C26.3478 17.6348 27.4331 12.7236 28.3909 8.39047C28.4812 7.98234 28.5709 7.57797 28.6628 7.17484C28.6817 7.05993 28.7237 6.95003 28.7862 6.85173C28.8486 6.75343 28.9303 6.66876 29.0263 6.6028C29.1223 6.53685 29.2306 6.49096 29.3447 6.4679C29.4589 6.44484 29.5765 6.44507 29.6906 6.46859C30.1359 6.54734 30.6172 6.94859 30.5078 7.82047C30.3862 8.78922 30.4622 10.9942 31.1912 11.9517C31.3745 12.2301 31.6409 12.4434 31.9526 12.5613C32.2643 12.6791 32.6053 12.6955 32.9269 12.608C34.1047 12.3714 35.9787 11.3077 36.72 10.7905C36.8941 10.6788 37.1036 10.6364 37.3074 10.6714C37.5112 10.7065 37.6945 10.8165 37.8212 10.9798C37.9975 11.1631 38.0966 11.4071 38.098 11.6614C38.0995 11.9157 38.0032 12.1608 37.8291 12.3461C37.2721 12.9605 36.5805 13.4378 35.8084 13.7405C35.6684 13.8067 35.5272 13.873 35.39 13.9417C35.3348 13.9691 35.2856 14.0071 35.2451 14.0535C35.2046 14.0999 35.1737 14.1538 35.1541 14.2121C35.1344 14.2705 35.1264 14.3321 35.1306 14.3936C35.1348 14.455 35.1511 14.515 35.1784 14.5702C35.2058 14.6253 35.2438 14.6745 35.2902 14.715C35.3366 14.7555 35.3905 14.7864 35.4488 14.8061C35.5072 14.8257 35.5688 14.8337 35.6303 14.8295C35.6917 14.8253 35.7517 14.8091 35.8069 14.7817C35.9406 14.7152 36.075 14.6517 36.2097 14.5877C37.0674 14.2411 37.8388 13.7108 38.4694 13.0339C38.5855 13.3282 38.6031 13.6522 38.5194 13.9573C38.2694 14.8358 37.2172 15.538 36.3134 15.9023C36.2551 15.9245 36.2018 15.958 36.1566 16.001C36.1114 16.0439 36.0752 16.0955 36.0502 16.1526C36.0252 16.2098 36.0118 16.2713 36.0109 16.3337C36.01 16.3961 36.0215 16.458 36.0448 16.5158C36.0681 16.5737 36.1028 16.6263 36.1467 16.6706C36.1906 16.7149 36.2429 16.75 36.3005 16.7738C36.3582 16.7977 36.42 16.8098 36.4823 16.8094C36.5447 16.809 36.6064 16.7962 36.6637 16.7717C37.4211 16.4708 38.1098 16.0197 38.6884 15.4458C38.6576 15.7401 38.5766 16.0269 38.4491 16.2939V16.2942Z" fill="#333333"/>
</svg>
