<svg width="48" height="48" viewBox="0 0 48 48" fill="none" xmlns="http://www.w3.org/2000/svg">
<g clip-path="url(#clip0_14_365)">
<path d="M46.5736 21.3336C46.5792 21.3272 46.5808 21.3184 46.5864 21.3112C48.6336 19.0121 48.4339 15.4898 46.14 13.4368L46.1336 13.428L46.1256 13.4216C46.3048 13.1629 46.4632 12.8903 46.5992 12.6064C46.6692 12.4716 46.7312 12.3326 46.7848 12.1904C47.0498 11.4901 47.1903 10.7488 47.2 10C47.1965 6.68778 44.5122 4.00355 41.2 4.00002C41.056 4.00002 40.9032 4.00882 40.7504 4.01762C40.6104 4.02802 40.4792 4.04562 40.36 4.06322C40.029 4.10675 39.7024 4.17902 39.384 4.27922L39.3736 4.26642C39.3736 4.26642 39.3656 4.26162 39.3624 4.25762C37.5324 2.20691 34.4783 1.80161 32.1768 3.30402C32.1536 3.31682 32.128 3.31842 32.1056 3.33362C32.0832 3.34882 32.0528 3.37522 32.0256 3.39442C32.0184 3.39922 32.0104 3.40242 32.004 3.40722C31.7331 3.21577 31.4446 3.05049 31.1424 2.91362C29.6773 2.23884 27.9924 2.22856 26.5192 2.88541C25.046 3.54226 23.9276 4.80244 23.4504 6.34322C20.86 3.78696 17.3577 2.36825 13.7186 2.40098C10.0794 2.43371 6.60322 3.91518 4.05919 6.51762C-1.34735 12.0188 -1.34735 20.838 4.05919 26.3392L22.7592 45.2544C23.058 45.5481 23.4883 45.6647 23.8944 45.5621C24.3006 45.4594 24.6238 45.1524 24.7472 44.752C24.7552 44.7576 24.7616 44.7648 24.7696 44.7712C25.9765 45.7 27.6065 45.8616 28.9723 45.1881C30.3381 44.5145 31.2021 43.1229 31.2 41.6C34.2911 41.5961 36.796 39.0912 36.8 36C39.8911 35.9961 42.396 33.4912 42.4 30.4V30.3432C42.4184 30.3432 42.4368 30.3352 42.4552 30.3328C42.4736 30.3304 42.4968 30.3328 42.5192 30.3272C42.5416 30.3216 42.5456 30.3152 42.5608 30.312C45.2396 29.8435 47.1956 27.5195 47.2 24.8C47.1998 24.6178 47.1905 24.4357 47.172 24.2544C47.1143 23.6653 46.9642 23.0889 46.7272 22.5464C46.5878 22.2418 46.4288 21.9465 46.2512 21.6624C46.336 21.5824 46.4112 21.4952 46.4912 21.4104C46.5176 21.3832 46.5488 21.36 46.5736 21.3336ZM23.2 43.4248L5.19999 25.2144C0.406472 20.3375 0.406472 12.5185 5.19999 7.64162C7.4762 5.31251 10.5953 3.99949 13.852 3.99949C17.1087 3.99949 20.2278 5.31251 22.504 7.64162L23.2016 8.34882V43.4248H23.2ZM45.2656 23.2C45.4326 23.5864 45.5387 23.9963 45.58 24.4152V24.4256C45.5929 24.55 45.5996 24.675 45.6 24.8C45.5953 25.866 45.1672 26.8864 44.41 27.6366C43.6527 28.3868 42.6283 28.8053 41.5624 28.8C39.9427 28.7896 38.4919 27.796 37.8968 26.2896C38.9734 26.0581 39.9371 25.4618 40.6248 24.6016C40.9009 24.2566 40.8451 23.753 40.5 23.4768C40.1549 23.2007 39.6513 23.2566 39.3752 23.6016C38.2713 24.9811 36.2583 25.2049 34.8784 24.1016C34.5331 23.8255 34.0293 23.8815 33.7532 24.2268C33.4771 24.5721 33.5331 25.0759 33.8784 25.352C34.5552 25.891 35.3661 26.2353 36.224 26.348C36.8218 28.4669 38.6144 30.033 40.7944 30.3408C40.7944 30.3624 40.8 30.3816 40.8 30.4032C40.7973 32.6113 39.008 34.4006 36.8 34.4032C36.7096 34.4032 36.64 34.3864 36.552 34.3816C36.0712 32.8164 34.9362 31.5362 33.44 30.8712C34.0635 30.0439 34.4005 29.036 34.4 28C34.4 27.5582 34.0418 27.2 33.6 27.2C33.1582 27.2 32.8 27.5582 32.8 28C32.8 29.7673 31.3673 31.2 29.6 31.2C29.1582 31.2 28.8 31.5582 28.8 32C28.8 32.4419 29.1582 32.8 29.6 32.8C30.4687 32.7995 31.3207 32.5616 32.064 32.112C34.0555 32.5492 35.3971 34.4173 35.1751 36.4441C34.9531 38.4709 33.2389 40.0044 31.2 40C30.9687 39.9971 30.7381 39.9752 30.5104 39.9344C29.9676 39.8417 29.4499 39.6371 28.9904 39.3336C28.6223 39.0891 28.1257 39.1892 27.8812 39.5572C27.6366 39.9253 27.7367 40.4219 28.1048 40.6664C28.5614 40.9704 29.0604 41.2052 29.5856 41.3632C29.5928 41.4432 29.6016 41.5184 29.6016 41.6032C29.6038 42.5187 29.0838 43.3552 28.262 43.7584C27.4401 44.1617 26.4603 44.0611 25.7376 43.4992C25.1406 43.0515 24.7924 42.3462 24.8 41.6V8.00002C24.7993 6.63485 25.495 5.36362 26.6451 4.62817C27.7953 3.89273 29.2411 3.79465 30.48 4.36802C30.5918 4.42275 30.7007 4.48309 30.8064 4.54882C30.1715 5.35077 29.7696 6.31202 29.6448 7.32722C29.0771 7.45034 28.5558 7.73125 28.1408 8.13762C27.9328 8.33848 27.8494 8.63593 27.9226 8.91563C27.9958 9.19533 28.2143 9.41377 28.494 9.48698C28.7737 9.56019 29.0711 9.47679 29.272 9.26883C29.9049 8.66417 30.9015 8.66417 31.5344 9.26883C31.7353 9.47679 32.0327 9.56019 32.3124 9.48698C32.5921 9.41377 32.8105 9.19533 32.8838 8.91563C32.957 8.63593 32.8736 8.33848 32.6656 8.13762C32.2754 7.75669 31.7908 7.48662 31.2616 7.35522C31.4074 6.45804 31.8557 5.63771 32.532 5.03042L32.5408 5.02482C33.2691 4.36479 34.2171 3.99948 35.2 4.00002C37.4064 4.00661 39.1934 5.79362 39.2 8.00002C39.2 8.44185 39.5582 8.80002 40 8.80002C40.4418 8.80002 40.8 8.44185 40.8 8.00002C40.7988 7.20747 40.6289 6.42424 40.3016 5.70242C40.3944 5.68402 40.4856 5.66002 40.5808 5.64802C40.676 5.63602 40.7664 5.62002 40.856 5.61442C40.9688 5.60722 41.0872 5.60002 41.2 5.60002C43.6288 5.60311 45.5969 7.57125 45.6 10C45.591 10.5649 45.4826 11.1238 45.28 11.6512C45.244 11.7409 45.2031 11.8285 45.1576 11.9136C45.0514 12.1314 44.9267 12.3396 44.7848 12.536C43.1957 11.78 41.3416 11.826 39.792 12.66C39.1418 12.2298 38.3796 12.0003 37.6 12C37.1582 12 36.8 12.3582 36.8 12.8C36.8 13.2419 37.1582 13.6 37.6 13.6C38.9255 13.6 40 14.6745 40 16C40 16.4419 40.3582 16.8 40.8 16.8C41.2418 16.8 41.6 16.4419 41.6 16C41.5978 15.2494 41.3825 14.5147 40.9792 13.8816C42.3531 13.3747 43.8933 13.6421 45.016 14.5824C45.8405 15.2917 46.3387 16.3077 46.3946 17.3939C46.4505 18.4801 46.0593 19.5418 45.312 20.332C45.202 20.4486 45.0852 20.5587 44.9624 20.6616C44.9056 20.7088 44.8464 20.7544 44.7872 20.7992C44.2812 21.1804 43.692 21.4359 43.068 21.5448C42.6582 21.6141 42.3697 21.9857 42.4041 22.3999C42.4385 22.8141 42.7844 23.1329 43.2 23.1336C43.2445 23.1338 43.2889 23.1301 43.3328 23.1224C43.8853 23.025 44.4199 22.8445 44.9184 22.5872C45.068 22.8368 45.2224 23.1096 45.2656 23.2Z" fill="#0D4862"/>
<path d="M32.8 15.2C29.7088 15.204 27.204 17.7089 27.2 20.8C27.2 21.2418 27.5582 21.6 28 21.6C28.4418 21.6 28.8 21.2418 28.8 20.8C28.8026 18.592 30.592 16.8027 32.8 16.8C33.2418 16.8 33.6 16.4418 33.6 16C33.6 15.5582 33.2418 15.2 32.8 15.2Z" fill="#0D4862"/>
<path d="M13.8496 5.60005C11.0176 5.59638 8.30487 6.73949 6.32959 8.76885C4.42636 10.6951 3.31183 13.2631 3.20479 15.9688C3.19636 16.1812 3.27276 16.3882 3.41714 16.5441C3.56153 16.7001 3.76202 16.7921 3.97439 16.8H4.00879C4.43783 16.8004 4.79077 16.4623 4.80879 16.0336C4.90002 13.7256 5.85078 11.535 7.47439 9.89205C9.14867 8.17052 11.4482 7.19953 13.8496 7.20005C14.2914 7.20005 14.6496 6.84187 14.6496 6.40005C14.6496 5.95822 14.2914 5.60005 13.8496 5.60005Z" fill="#0D4862"/>
<path d="M5.152 18.9832C5.0822 18.6995 4.86328 18.4764 4.58093 18.4012C4.29857 18.3261 3.9977 18.4108 3.7961 18.6223C3.59449 18.8338 3.52422 19.1384 3.6128 19.4168C3.69493 19.7085 3.78933 19.9968 3.896 20.2816C4.01328 20.5935 4.31159 20.8 4.6448 20.8C4.74088 20.7997 4.83617 20.7826 4.9264 20.7496C5.12518 20.6749 5.28612 20.5243 5.37376 20.3308C5.46139 20.1374 5.46853 19.9171 5.3936 19.7184C5.3024 19.4768 5.2224 19.2304 5.152 18.9832Z" fill="#0D4862"/>
</g>
<defs>
<clipPath id="clip0_14_365">
<rect width="48" height="48" fill="white"/>
</clipPath>
</defs>
</svg>
