<svg width="40" height="40" viewBox="0 0 40 40" fill="none" xmlns="http://www.w3.org/2000/svg">
<g clip-path="url(#clip0_14_1673)">
<path d="M31.0635 30.6572C30.7381 30.6572 30.4742 30.9211 30.4742 31.2465C30.4742 31.572 30.7381 31.8358 31.0635 31.8358C31.389 31.8358 31.6528 31.572 31.6528 31.2465C31.6528 30.9211 31.389 30.6572 31.0635 30.6572Z" fill="#333333"/>
<path d="M17.1459 30.6572C16.8204 30.6572 16.5566 30.9211 16.5566 31.2465C16.5566 31.572 16.8204 31.8358 17.1459 31.8358C17.4713 31.8358 17.7352 31.572 17.7352 31.2465C17.7352 30.9211 17.4713 30.6572 17.1459 30.6572Z" fill="#333333"/>
<path d="M33.9255 28.3096C33.7212 28.2298 33.0808 28.196 32.7248 28.21H31.6495V26.4281H33.6876C34.9764 26.4281 36.0249 25.3796 36.0249 24.0907V24.0807C36.0249 23.384 35.7181 22.7579 35.233 22.3293C35.7181 21.9007 36.0249 21.2746 36.0249 20.5779C36.0249 19.289 34.9764 18.2405 33.6876 18.2405H31.6495V16.7013C31.6495 16.3776 31.3872 16.1154 31.0635 16.1154C30.7398 16.1154 30.4776 16.3776 30.4776 16.7013V18.2405H17.7318V16.7013C17.7318 16.3776 17.4695 16.1154 17.1459 16.1154C16.8222 16.1154 16.5599 16.3776 16.5599 16.7013V18.2405H14.5218C13.233 18.2405 12.1845 19.2891 12.1845 20.5779C12.1845 21.1955 12.4256 21.7575 12.8181 22.1757C11.9574 23.3 10.6382 23.9583 9.2 23.9583H8.09586V16.4707L10.913 13.5787C11.1389 13.3469 11.134 12.9759 10.9022 12.7502C10.6704 12.5243 10.2994 12.5292 10.0737 12.7611L8.09594 14.7914V9.8459C8.09594 9.52223 7.83367 9.25996 7.51 9.25996C7.18633 9.25996 6.92406 9.52223 6.92406 9.8459V18.4873L4.78555 16.2925C4.55961 16.0608 4.18875 16.0561 3.95703 16.2817C3.72523 16.5075 3.72039 16.8786 3.94617 17.1103L6.92406 20.1667V23.9584H5.82031C3.305 23.9584 1.25859 21.9121 1.25859 19.3967V14.5592C1.25859 14.0198 1.34367 13.4871 1.51133 12.9762C1.67914 12.4649 1.92609 11.985 2.24484 11.5507C3.03883 10.4702 3.45852 9.18988 3.45852 7.84816V6.4334C3.45852 5.35152 3.88008 4.33426 4.64555 3.56879C5.41094 2.80332 6.4282 2.38184 7.51008 2.38184C9.74375 2.38184 11.5609 4.19941 11.5609 6.4334V7.84816C11.5609 8.50934 11.6655 9.16473 11.8721 9.79652C12.0785 10.4254 12.382 11.0154 12.7747 11.5506C13.4204 12.4292 13.7617 13.4695 13.7617 14.5591V16.0659C13.7617 16.3896 14.024 16.6518 14.3477 16.6518C14.6713 16.6518 14.9336 16.3896 14.9336 16.0659V14.5591C14.9336 13.2181 14.5136 11.9378 13.7193 10.8571C13.4002 10.4221 13.1534 9.94223 12.9858 9.43176C12.818 8.91824 12.7328 8.38543 12.7328 7.84809V6.4334C12.7328 3.55316 10.3899 1.20996 7.51008 1.20996C6.11523 1.20996 4.80359 1.7534 3.81687 2.74012C2.83016 3.72691 2.28672 5.03848 2.28672 6.4334V7.84816C2.28672 8.93848 1.9457 9.97871 1.30031 10.8571C0.908047 11.3918 0.604453 11.9818 0.397969 12.6107C0.191406 13.2398 0.0867969 13.8954 0.0867969 14.5591V19.3966C0.0867969 22.5581 2.65891 25.1302 5.82039 25.1302H6.92406V28.2186C3.07492 28.4025 0 31.5913 0 35.4851V38.2036C0 38.5273 0.262266 38.7896 0.585938 38.7896C0.909609 38.7896 1.17188 38.5273 1.17188 38.2036V35.4851C1.17188 32.2377 3.72148 29.5754 6.92398 29.3926V33.6975C6.92398 34.0212 7.18625 34.2835 7.50992 34.2835C7.83359 34.2835 8.09586 34.0212 8.09586 33.6975V25.1302H9.2C10.2821 25.1302 11.3105 24.8337 12.1938 24.2929C12.2966 25.4874 13.3011 26.4281 14.5218 26.4281H16.5599V28.21H10.2723C9.94859 28.21 9.68633 28.4722 9.68633 28.7959C9.68633 29.1196 9.94859 29.3818 10.2723 29.3818H12.8019C12.5916 29.695 12.4448 30.0575 12.3817 30.4534L12.008 32.7984C11.9487 33.1699 12.0548 33.5471 12.299 33.8332C12.5431 34.1194 12.899 34.2836 13.2752 34.2836H15.8998C15.6129 34.6029 15.382 34.9768 15.2266 35.3925L14.2534 37.9986C14.1402 38.3018 14.2941 38.6393 14.5973 38.7525C14.9004 38.8654 15.2379 38.7118 15.3512 38.4086L16.3245 35.8025C16.6637 34.8939 17.5434 34.2836 18.5131 34.2836H29.6963C30.6661 34.2836 31.5456 34.8939 31.8849 35.8025L32.8582 38.4086C32.9463 38.6443 33.1697 38.7897 33.4072 38.7897C33.4753 38.7897 33.5446 38.7778 33.6121 38.7525C33.9152 38.6393 34.0693 38.3018 33.956 37.9986L32.9827 35.3925C32.8275 34.9767 32.5966 34.6029 32.3097 34.2836H34.9343C35.3105 34.2836 35.6663 34.1194 35.9105 33.8332C36.1546 33.5471 36.2606 33.1699 36.2015 32.7984L35.8277 30.4534C35.8141 30.3681 35.7964 30.2843 35.7753 30.2022C37.5984 31.259 38.8281 33.2306 38.8281 35.4851V38.2036C38.8281 38.5273 39.0904 38.7896 39.4141 38.7896C39.7377 38.7896 40 38.5273 40 38.2036V35.4851C40 31.8825 37.3677 28.8836 33.9255 28.3096ZM13.3563 24.0907V24.0807C13.3563 23.4381 13.8791 22.9153 14.5218 22.9153H29.8796C30.2033 22.9153 30.4655 22.653 30.4655 22.3293C30.4655 22.0057 30.2033 21.7434 29.8796 21.7434H14.5218C13.8791 21.7434 13.3563 21.2206 13.3563 20.5779C13.3563 19.9352 13.8791 19.4124 14.5218 19.4124H33.6876C34.3302 19.4124 34.853 19.9352 34.853 20.5779C34.853 21.2206 34.3302 21.7434 33.6876 21.7434H32.6342C32.3105 21.7434 32.0483 22.0057 32.0483 22.3293C32.0483 22.653 32.3105 22.9153 32.6342 22.9153H33.6876C34.3302 22.9153 34.853 23.4381 34.853 24.0807V24.0907C34.853 24.7334 34.3302 25.2562 33.6876 25.2562H14.5218C13.8791 25.2562 13.3563 24.7334 13.3563 24.0907ZM17.7318 26.4281H30.4776V28.21H17.7318V26.4281ZM34.6705 30.6379L35.0442 32.9829C35.0272 33.0103 35.0894 33.0536 34.9343 33.1116H13.2751C13.2507 33.0905 13.1981 33.1451 13.1652 32.9829L13.5389 30.6378C13.6548 29.91 14.2739 29.3818 15.0109 29.3818C15.0109 29.3818 33.3473 29.4057 33.6487 29.4518C34.1755 29.617 34.5791 30.065 34.6705 30.6379Z" fill="#333333"/>
<path d="M31.0635 11.9846C33.3697 11.9846 35.2458 10.1085 35.2458 7.80238C35.2458 5.49629 33.3696 3.62012 31.0635 3.62012C28.7574 3.62012 26.8812 5.49621 26.8812 7.80238C26.8812 10.1086 28.7574 11.9846 31.0635 11.9846ZM31.0635 4.79199C32.7234 4.79199 34.0739 6.14246 34.0739 7.80238C34.0739 9.4623 32.7234 10.8128 31.0635 10.8128C29.4036 10.8128 28.0531 9.4623 28.0531 7.80238C28.0531 6.14246 29.4036 4.79199 31.0635 4.79199Z" fill="#333333"/>
</g>
<defs>
<clipPath id="clip0_14_1673">
<rect width="40" height="40" fill="white"/>
</clipPath>
</defs>
</svg>
