<svg width="40" height="40" viewBox="0 0 40 40" fill="none" xmlns="http://www.w3.org/2000/svg">
<path d="M39.4591 14.0383C39.5225 13.6896 39.5145 13.3317 39.4354 12.9862C39.3563 12.6407 39.2079 12.3149 38.9991 12.0286C39.0531 11.7302 39.0376 11.4234 38.9535 11.132C38.8695 10.8407 38.7193 10.5727 38.5147 10.3489C38.233 10.0316 37.8529 9.81798 37.4353 9.74234C35.7359 6.14859 32.4522 3.80859 28.4978 3.80859C26.9354 3.82124 25.3948 4.17732 23.9853 4.85161C22.5759 5.5259 21.3319 6.5019 20.3416 7.71047C20.3001 7.76108 20.248 7.80186 20.1888 7.82986C20.1297 7.85786 20.0651 7.87239 19.9997 7.87239C19.9343 7.87239 19.8697 7.85786 19.8105 7.82986C19.7514 7.80186 19.6993 7.76108 19.6578 7.71047C18.6675 6.5019 17.4235 5.5259 16.014 4.85161C14.6045 4.17732 13.064 3.82124 11.5016 3.80859C7.54438 3.80859 4.25438 6.14641 2.555 9.74422C2.14076 9.8212 1.76395 10.034 1.48406 10.3489C1.27948 10.5727 1.12935 10.8407 1.04539 11.1321C0.961424 11.4234 0.945891 11.7302 1 12.0286C0.791191 12.3149 0.642744 12.6407 0.56367 12.9862C0.484596 13.3317 0.476543 13.6896 0.540001 14.0383C0.257055 14.8763 0.300122 15.7902 0.660626 16.598C0.681251 17.473 1.12563 18.4283 1.85063 19.4052C2.16892 20.67 2.59528 21.9052 3.125 23.097C3.07816 23.1281 3.03329 23.162 2.99063 23.1986C2.80298 23.363 2.66854 23.5795 2.60443 23.8206C2.54031 24.0617 2.54943 24.3165 2.63063 24.5523C3.64281 27.5167 5.55344 29.5664 8.30875 30.6461C8.65719 30.7827 9.01469 30.8986 9.3775 31.0008C14.0003 34.7195 17.7869 35.8161 19.3303 36.1258C19.7737 36.2154 20.2306 36.2154 20.6741 36.1258C22.2163 35.8164 26 34.7164 30.6191 31.003C30.9841 30.9002 31.3434 30.7842 31.6938 30.6464C34.4491 29.568 36.3597 27.5183 37.3719 24.5527C37.4531 24.3168 37.4622 24.062 37.3981 23.8209C37.334 23.5799 37.1995 23.3633 37.0119 23.1989C36.9687 23.1617 36.9232 23.1274 36.8756 23.0961C37.4078 21.9002 37.8365 20.6609 38.1569 19.3917C38.8756 18.4195 39.3191 17.4705 39.3397 16.5983C39.6999 15.7903 39.7425 14.8763 39.4591 14.0383ZM11.5028 4.74609C12.9279 4.75911 14.3328 5.08531 15.6179 5.70159C16.9029 6.31787 18.0367 7.20917 18.9391 8.31234C19.0675 8.46966 19.2294 8.59645 19.4128 8.68351C19.5963 8.77058 19.7969 8.81574 20 8.81574C20.2031 8.81574 20.4037 8.77058 20.5872 8.68351C20.7706 8.59645 20.9325 8.46966 21.0609 8.31234C21.9634 7.20906 23.0975 6.31773 24.3828 5.7015C25.668 5.08526 27.0731 4.7592 28.4984 4.74641C31.9672 4.74641 34.8716 6.75078 36.4566 9.86766C36.3617 9.91079 36.2709 9.96236 36.1853 10.0217C35.4794 10.5139 33.7259 11.4905 32.7434 11.6889C32.595 11.7422 32.4325 11.7408 32.285 11.6851C32.1374 11.6294 32.0146 11.5229 31.9384 11.3848C31.4578 10.7533 31.3197 8.89203 31.4384 7.93797C31.6163 6.51859 30.7416 5.70328 29.8538 5.54641C29.3868 5.45724 28.9035 5.55641 28.5093 5.82227C28.1152 6.08812 27.8422 6.49909 27.75 6.96547C27.6563 7.36984 27.5672 7.77797 27.4766 8.18828C26.5078 12.5667 25.5078 17.0945 20.8928 20.5664C20.6072 20.7814 20.3106 20.9845 20.0059 21.1789C19.6988 20.9839 19.3969 20.783 19.1091 20.5664C14.4928 17.0936 13.4922 12.5667 12.5244 8.18734C12.4338 7.77672 12.3438 7.36891 12.2509 6.96453C12.1591 6.4978 11.8861 6.08645 11.4917 5.82045C11.0974 5.55446 10.6137 5.45548 10.1466 5.54516C9.25875 5.70141 8.38406 6.51734 8.56188 7.93672C8.68156 8.89078 8.54344 10.752 8.06188 11.3836C7.98562 11.5217 7.86271 11.6281 7.71516 11.6838C7.56761 11.7395 7.40504 11.7409 7.25656 11.6877C6.27438 11.4905 4.52094 10.5127 3.81531 10.0205C3.72925 9.96047 3.63807 9.90819 3.54281 9.86422C5.12906 6.74984 8.03375 4.74609 11.5028 4.74609ZM2.27188 18.3555C2.41854 18.4371 2.57191 18.506 2.73031 18.5614C2.84809 18.6013 2.97689 18.5928 3.08838 18.5377C3.19988 18.4827 3.28494 18.3856 3.32484 18.2678C3.36475 18.15 3.35624 18.0212 3.30118 17.9097C3.24612 17.7982 3.14902 17.7132 3.03125 17.6733C2.38054 17.4187 1.85153 16.9253 1.55219 16.2939C1.42345 16.0264 1.34164 15.7388 1.31031 15.4436C1.88943 16.0186 2.57902 16.4704 3.3375 16.7717C3.39493 16.7966 3.45675 16.8097 3.51933 16.8103C3.58191 16.8109 3.64398 16.799 3.70187 16.7752C3.75976 16.7514 3.8123 16.7163 3.8564 16.6719C3.9005 16.6275 3.93526 16.5747 3.95863 16.5166C3.98201 16.4586 3.99352 16.3964 3.99249 16.3339C3.99146 16.2713 3.97791 16.2096 3.95264 16.1523C3.92737 16.095 3.89089 16.0434 3.84535 16.0005C3.79981 15.9576 3.74614 15.9242 3.6875 15.9023C2.78125 15.538 1.72906 14.8358 1.48063 13.9573C1.39663 13.6522 1.41418 13.3279 1.53063 13.0336C2.16108 13.7107 2.93245 14.2412 3.79031 14.5877C3.925 14.6517 4.05938 14.7152 4.19313 14.7817C4.30452 14.837 4.43331 14.8458 4.55116 14.8061C4.66902 14.7664 4.76628 14.6815 4.82156 14.5702C4.87684 14.4588 4.88561 14.33 4.84594 14.2121C4.80626 14.0943 4.72139 13.997 4.61 13.9417C4.47125 13.873 4.33156 13.8067 4.19156 13.7405C3.41947 13.4378 2.72789 12.9605 2.17094 12.3461C1.99681 12.1608 1.90053 11.9157 1.90198 11.6614C1.90343 11.4071 2.00252 11.1631 2.17875 10.9798C2.30544 10.816 2.489 10.7056 2.69314 10.6705C2.89728 10.6355 3.10714 10.6783 3.28125 10.7905C4.0225 11.3077 5.89656 12.3714 7.07406 12.608C7.3956 12.6957 7.73666 12.6795 8.04841 12.5616C8.36017 12.4437 8.62664 12.2302 8.80969 11.9517C9.53906 10.9942 9.615 8.78859 9.49344 7.82047C9.38406 6.94859 9.86531 6.54734 10.3106 6.46859C10.4246 6.44507 10.5422 6.44481 10.6564 6.46783C10.7705 6.49086 10.8788 6.53669 10.9748 6.60258C11.0707 6.66847 11.1524 6.75307 11.2149 6.8513C11.2774 6.94953 11.3194 7.05936 11.3384 7.17422C11.4303 7.57609 11.52 7.98172 11.6103 8.38984C12.5681 12.723 13.6534 17.6342 18.5478 21.3152C18.7275 21.4505 18.9138 21.5817 19.1044 21.7095C15.8284 23.4234 12.147 24.2113 8.45656 23.9886C5.72375 22.1048 3.375 20.0623 2.27188 18.3555ZM6.44281 23.7123C5.72629 23.5661 5.03031 23.3329 4.37031 23.018C4.27422 22.9714 4.17271 22.9368 4.06813 22.9152C3.79125 22.3067 3.54719 21.6945 3.33469 21.0836C4.30993 22.0293 5.34837 22.9076 6.44281 23.7123ZM20.4881 35.2052C20.1665 35.2697 19.8353 35.2697 19.5138 35.2052C18.2113 34.9439 15.23 34.0861 11.475 31.4108C12.1228 31.4852 12.7745 31.5219 13.4266 31.5208C15.65 31.4878 17.8597 31.1656 20 30.5623C22.1403 31.1657 24.35 31.4879 26.5734 31.5208C27.2202 31.5217 27.8665 31.4853 28.5091 31.412C24.7638 34.0773 21.7881 34.9442 20.4881 35.2052ZM36.4828 24.2498C35.5641 26.9408 33.8372 28.7989 31.3503 29.7723C28.4784 30.8973 25.0175 30.7411 21.7613 30.0364C23.6768 29.4143 25.5348 28.6273 27.3144 27.6842C28.6581 26.9586 30.275 25.9948 31.8831 24.903C33.3232 24.8158 34.7346 24.4618 36.0453 23.8589C36.1005 23.8295 36.1635 23.818 36.2256 23.826C36.2876 23.8341 36.3456 23.8612 36.3916 23.9036C36.4406 23.9448 36.4758 24.0003 36.4921 24.0622C36.5084 24.1242 36.5052 24.1898 36.4828 24.2498ZM35.9397 22.9136C35.8324 22.9352 35.7284 22.9704 35.63 23.0183C34.9714 23.3321 34.277 23.5644 33.5622 23.7102C34.6613 22.9017 35.7038 22.019 36.6825 21.0683C36.4666 21.683 36.2188 22.3011 35.9397 22.9133V22.9136ZM38.4491 16.2942C38.1497 16.9256 37.6207 17.419 36.97 17.6736C36.9106 17.6924 36.8555 17.7228 36.808 17.7631C36.7605 17.8035 36.7215 17.8528 36.6933 17.9084C36.6651 17.964 36.6482 18.0246 36.6437 18.0868C36.6393 18.1489 36.6472 18.2114 36.6671 18.2704C36.687 18.3295 36.7186 18.384 36.7598 18.4307C36.801 18.4774 36.8511 18.5154 36.9073 18.5426C36.9634 18.5697 37.0243 18.5854 37.0865 18.5886C37.1488 18.5919 37.211 18.5828 37.2697 18.5617C37.4289 18.5059 37.5831 18.4365 37.7306 18.3545C36.0241 20.9964 31.3438 24.4408 26.8688 26.8595C22.8659 29.023 14.525 32.0711 8.65 29.772C6.16281 28.7986 4.4375 26.9405 3.51719 24.2498C3.49481 24.1898 3.49156 24.1242 3.5079 24.0622C3.52424 24.0003 3.55936 23.9448 3.60844 23.9036C3.65437 23.861 3.71245 23.8338 3.77457 23.8258C3.83669 23.8178 3.89977 23.8294 3.955 23.8589C8.41563 26.0623 16.7569 24.8505 21.455 21.3161C26.3478 17.6348 27.4331 12.7236 28.3909 8.39047C28.4813 7.98234 28.5709 7.57797 28.6628 7.17484C28.6818 7.05993 28.7237 6.95003 28.7862 6.85173C28.8486 6.75343 28.9303 6.66876 29.0263 6.6028C29.1223 6.53685 29.2306 6.49096 29.3448 6.4679C29.4589 6.44484 29.5766 6.44507 29.6906 6.46859C30.1359 6.54734 30.6172 6.94859 30.5078 7.82047C30.3863 8.78922 30.4622 10.9942 31.1913 11.9517C31.3745 12.2301 31.641 12.4434 31.9527 12.5613C32.2644 12.6791 32.6053 12.6955 32.9269 12.608C34.1047 12.3714 35.9788 11.3077 36.72 10.7905C36.8941 10.6788 37.1036 10.6364 37.3074 10.6714C37.5112 10.7065 37.6945 10.8165 37.8213 10.9798C37.9975 11.1631 38.0966 11.4071 38.098 11.6614C38.0995 11.9157 38.0032 12.1608 37.8291 12.3461C37.2721 12.9605 36.5805 13.4378 35.8084 13.7405C35.6684 13.8067 35.5272 13.873 35.39 13.9417C35.3349 13.9691 35.2856 14.0071 35.2451 14.0535C35.2047 14.0999 35.1737 14.1538 35.1541 14.2121C35.1344 14.2705 35.1265 14.3321 35.1306 14.3936C35.1348 14.455 35.1511 14.515 35.1784 14.5702C35.2058 14.6253 35.2438 14.6745 35.2902 14.715C35.3366 14.7555 35.3905 14.7864 35.4488 14.8061C35.5072 14.8257 35.5689 14.8337 35.6303 14.8295C35.6917 14.8253 35.7517 14.8091 35.8069 14.7817C35.9406 14.7152 36.075 14.6517 36.2097 14.5877C37.0674 14.2411 37.8388 13.7108 38.4694 13.0339C38.5855 13.3282 38.6031 13.6522 38.5194 13.9573C38.2694 14.8358 37.2172 15.538 36.3134 15.9023C36.2551 15.9245 36.2018 15.958 36.1566 16.001C36.1114 16.0439 36.0752 16.0955 36.0502 16.1526C36.0252 16.2098 36.0118 16.2713 36.0109 16.3337C36.01 16.3961 36.0215 16.458 36.0448 16.5158C36.0682 16.5737 36.1028 16.6263 36.1467 16.6706C36.1906 16.7149 36.2429 16.75 36.3005 16.7738C36.3582 16.7977 36.42 16.8098 36.4824 16.8094C36.5447 16.809 36.6064 16.7962 36.6638 16.7717C37.4211 16.4708 38.1098 16.0197 38.6884 15.4458C38.6576 15.7401 38.5767 16.0269 38.4491 16.2939V16.2942Z" fill="#333333"/>
</svg>
