<svg width="40" height="40" viewBox="0 0 40 40" fill="none" xmlns="http://www.w3.org/2000/svg">
<path d="M12.1003 7.36969C12.2454 7.36969 12.3845 7.31207 12.487 7.20951C12.5896 7.10695 12.6472 6.96785 12.6472 6.82281V5.9625H23.1719V8.755H22.9116C21.3318 8.75682 19.8174 9.38517 18.7003 10.5022C17.5833 11.6192 16.9549 13.1337 16.9531 14.7134C16.9531 14.7853 16.9672 14.8564 16.9947 14.9228C17.0221 14.9891 17.0624 15.0494 17.1132 15.1002C17.164 15.151 17.2243 15.1913 17.2907 15.2188C17.357 15.2462 17.4282 15.2604 17.5 15.2603H29.94C30.085 15.2603 30.2241 15.2027 30.3267 15.1001C30.4293 14.9976 30.4869 14.8585 30.4869 14.7134C30.4851 13.1337 29.8567 11.6191 28.7396 10.5021C27.6225 9.38505 26.1079 8.75674 24.5281 8.755H24.2656V5.41563C24.2657 5.3438 24.2516 5.27267 24.2241 5.2063C24.1966 5.13993 24.1563 5.07962 24.1055 5.02883C24.0548 4.97804 23.9944 4.93776 23.9281 4.91029C23.8617 4.88283 23.7906 4.86871 23.7188 4.86875H12.6472V4.01031C12.6472 3.86527 12.5896 3.72617 12.487 3.62361C12.3845 3.52105 12.2454 3.46344 12.1003 3.46344H5.34375V2.03125C5.34375 1.88621 5.28613 1.74711 5.18357 1.64455C5.08101 1.54199 4.94192 1.48438 4.79688 1.48438C4.65183 1.48438 4.51273 1.54199 4.41018 1.64455C4.30762 1.74711 4.25 1.88621 4.25 2.03125V8.80219C4.25 8.94723 4.30762 9.08633 4.41018 9.18889C4.51273 9.29145 4.65183 9.34906 4.79688 9.34906C4.94192 9.34906 5.08101 9.29145 5.18357 9.18889C5.28613 9.08633 5.34375 8.94723 5.34375 8.80219V7.36969H12.1003ZM29.3625 14.1666H18.0775C18.2133 12.9792 18.7808 11.8831 19.6722 11.087C20.5635 10.2908 21.7164 9.85014 22.9116 9.84875H23.7069H23.7188C23.7188 9.84875 23.7269 9.84875 23.7309 9.84875H24.5281C25.7233 9.85013 26.8762 10.2908 27.7676 11.087C28.659 11.8831 29.2266 12.9791 29.3625 14.1666ZM11.5534 4.55719V6.27594H5.34375V4.55719H11.5534Z" fill="#333333"/>
<path d="M23.7188 16.875C23.6469 16.875 23.5758 16.8891 23.5094 16.9165C23.4431 16.944 23.3827 16.9843 23.332 17.0351C23.2812 17.0859 23.2409 17.1462 23.2134 17.2125C23.186 17.2789 23.1718 17.35 23.1719 17.4219V18.3594C23.1719 18.5044 23.2295 18.6435 23.332 18.7461C23.4346 18.8486 23.5737 18.9063 23.7188 18.9063C23.8638 18.9063 24.0029 18.8486 24.1054 18.7461C24.208 18.6435 24.2656 18.5044 24.2656 18.3594V17.4219C24.2657 17.35 24.2515 17.2789 24.2241 17.2125C24.1966 17.1462 24.1563 17.0859 24.1055 17.0351C24.0548 16.9843 23.9944 16.944 23.9281 16.9165C23.8617 16.8891 23.7906 16.875 23.7188 16.875Z" fill="#333333"/>
<path d="M23.7188 33.8561C23.8638 33.856 24.0028 33.7983 24.1054 33.6958C24.2079 33.5932 24.2655 33.4542 24.2656 33.3092V31.5498C24.2656 31.4048 24.208 31.2657 24.1054 31.1631C24.0029 31.0605 23.8638 31.0029 23.7188 31.0029C23.5737 31.0029 23.4346 31.0605 23.332 31.1631C23.2295 31.2657 23.1719 31.4048 23.1719 31.5498V33.3092C23.1725 33.454 23.2304 33.5927 23.3328 33.6952C23.4352 33.7976 23.5739 33.8554 23.7188 33.8561Z" fill="#333333"/>
<path d="M23.7188 26.0186C23.5739 26.0192 23.4352 26.077 23.3328 26.1795C23.2304 26.2819 23.1725 26.4206 23.1719 26.5654V28.3248C23.1719 28.4698 23.2295 28.6089 23.332 28.7115C23.4346 28.8141 23.5737 28.8717 23.7188 28.8717C23.8638 28.8717 24.0029 28.8141 24.1054 28.7115C24.208 28.6089 24.2656 28.4698 24.2656 28.3248V26.5654C24.2655 26.4204 24.2079 26.2814 24.1054 26.1788C24.0028 26.0763 23.8638 26.0186 23.7188 26.0186Z" fill="#333333"/>
<path d="M24.2653 21.584C24.2653 21.4389 24.2077 21.2998 24.1051 21.1973C24.0026 21.0947 23.8635 21.0371 23.7184 21.0371C23.5734 21.0371 23.4343 21.0947 23.3317 21.1973C23.2292 21.2998 23.1716 21.4389 23.1716 21.584V23.3437C23.1716 23.4887 23.2292 23.6278 23.3317 23.7304C23.4343 23.8329 23.5734 23.8905 23.7184 23.8905C23.8635 23.8905 24.0026 23.8329 24.1051 23.7304C24.2077 23.6278 24.2653 23.4887 24.2653 23.3437V21.584Z" fill="#333333"/>
<path d="M23.7188 35.9863C23.6469 35.9863 23.5758 36.0004 23.5094 36.0279C23.4431 36.0553 23.3827 36.0956 23.332 36.1464C23.2812 36.1972 23.2409 36.2575 23.2134 36.3239C23.186 36.3902 23.1718 36.4614 23.1719 36.5332V37.4707C23.1719 37.6157 23.2295 37.7548 23.332 37.8574C23.4346 37.96 23.5737 38.0176 23.7188 38.0176C23.8638 38.0176 24.0029 37.96 24.1054 37.8574C24.208 37.7548 24.2656 37.6157 24.2656 37.4707V36.5332C24.2657 36.4614 24.2515 36.3902 24.2241 36.3239C24.1966 36.2575 24.1563 36.1972 24.1055 36.1464C24.0548 36.0956 23.9944 36.0553 23.9281 36.0279C23.8617 36.0004 23.7906 35.9863 23.7188 35.9863Z" fill="#333333"/>
<path d="M30.4472 18.1849L30.2034 17.2786C30.1636 17.141 30.0713 17.0245 29.9465 16.9542C29.8217 16.8839 29.6742 16.8653 29.5359 16.9026C29.3975 16.9399 29.2793 17.0299 29.2067 17.1534C29.1341 17.2769 29.1128 17.424 29.1475 17.563L29.3912 18.4693C29.4306 18.6075 29.5228 18.7246 29.6478 18.7954C29.7729 18.8662 29.9208 18.8849 30.0595 18.8475C30.1983 18.8101 30.3167 18.7196 30.3893 18.5955C30.4618 18.4715 30.4826 18.3238 30.4472 18.1846V18.1849Z" fill="#333333"/>
<path d="M33.2125 28.4595L32.725 26.647C32.6847 26.5081 32.5922 26.3902 32.4669 26.318C32.3416 26.2458 32.1932 26.2248 32.0528 26.2595C31.9358 26.2916 31.8326 26.3613 31.7592 26.4579C31.6857 26.5545 31.6461 26.6726 31.6465 26.7939C31.649 26.8404 31.6563 26.8865 31.6684 26.9314L32.1556 28.7439C32.1731 28.8145 32.2046 28.8809 32.2481 28.9393C32.2916 28.9976 32.3463 29.0467 32.409 29.0836C32.4717 29.1205 32.5411 29.1446 32.6132 29.1543C32.6853 29.1641 32.7586 29.1594 32.8289 29.1405C32.8992 29.1216 32.965 29.0888 33.0224 29.0442C33.0799 28.9996 33.1278 28.9439 33.1635 28.8805C33.1992 28.8171 33.2219 28.7472 33.2303 28.6749C33.2386 28.6026 33.2325 28.5294 33.2122 28.4595H33.2125Z" fill="#333333"/>
<path d="M34.5937 33.5971L34.1062 31.7846C34.0667 31.646 33.9748 31.5281 33.8501 31.4559C33.7254 31.3836 33.5774 31.3625 33.4375 31.3971C33.3199 31.4281 33.2159 31.4975 33.1423 31.5943C33.0687 31.6912 33.0296 31.8099 33.0312 31.9315C33.0311 31.978 33.0374 32.0242 33.05 32.069L33.5372 33.8815C33.5771 34.0191 33.6694 34.1355 33.7943 34.2058C33.9191 34.276 34.0665 34.2945 34.2049 34.2573C34.3432 34.2201 34.4614 34.1301 34.5341 34.0066C34.6068 33.8832 34.6282 33.7362 34.5937 33.5971Z" fill="#333333"/>
<path d="M31.775 23.7374C31.8111 23.6751 31.8344 23.6063 31.8435 23.5349C31.8527 23.4635 31.8474 23.3911 31.8281 23.3217L31.3406 21.5092C31.3219 21.4399 31.2898 21.3749 31.246 21.318C31.2022 21.261 31.1476 21.2133 31.0854 21.1774C31.0231 21.1416 30.9545 21.1184 30.8832 21.1091C30.812 21.0998 30.7397 21.1046 30.6703 21.1233C30.601 21.142 30.536 21.1741 30.479 21.2179C30.4221 21.2617 30.3744 21.3163 30.3385 21.3785C30.3027 21.4408 30.2794 21.5095 30.2702 21.5807C30.2609 21.6519 30.2657 21.7243 30.2844 21.7936L30.7719 23.6061C30.7894 23.6763 30.8209 23.7422 30.8645 23.7999C30.9081 23.8575 30.963 23.9058 31.0258 23.9417C31.0885 23.9776 31.1579 24.0004 31.2298 24.0088C31.3016 24.0172 31.3744 24.011 31.4437 23.9905C31.5129 23.9721 31.5777 23.9403 31.6345 23.8969C31.6914 23.8534 31.7391 23.7992 31.775 23.7374Z" fill="#333333"/>
<path d="M35.7325 37.8265L35.4884 36.9202C35.4558 36.7983 35.3819 36.6914 35.2793 36.6179C35.1768 36.5443 35.0519 36.5086 34.9259 36.5168C34.8893 36.5186 34.853 36.5241 34.8175 36.5333C34.8125 36.5349 34.8084 36.5383 34.8034 36.5399C34.7573 36.5539 34.7132 36.5741 34.6725 36.5999C34.6615 36.6068 34.6509 36.6127 34.6412 36.6202C34.6017 36.6485 34.5662 36.6819 34.5356 36.7196C34.5269 36.7308 34.5194 36.7424 34.5115 36.754C34.4859 36.7905 34.4649 36.83 34.449 36.8718C34.444 36.8846 34.4406 36.8974 34.4369 36.9105C34.4248 36.9531 34.4178 36.9969 34.4162 37.0412C34.4162 37.0502 34.4122 37.0583 34.4122 37.0677C34.4122 37.0771 34.4144 37.0799 34.4147 37.0862C34.4164 37.1079 34.4193 37.1295 34.4234 37.1508C34.4249 37.1691 34.4274 37.1872 34.4309 37.2052C34.4309 37.2093 34.4344 37.2124 34.4356 37.2165L34.6762 38.1099C34.7161 38.2475 34.8083 38.364 34.9331 38.4343C35.058 38.5047 35.2054 38.5232 35.3438 38.4859C35.4821 38.4487 35.6003 38.3586 35.6729 38.2351C35.7456 38.1116 35.7668 37.9645 35.7322 37.8255L35.7325 37.8265Z" fill="#333333"/>
<path d="M26.79 18.8957C26.9339 18.8781 27.065 18.8041 27.1544 18.69C27.2438 18.5759 27.2843 18.4309 27.2669 18.287L27.1538 17.356C27.1363 17.212 27.0623 17.0809 26.9481 16.9914C26.8339 16.9019 26.6889 16.8615 26.5449 16.879C26.4009 16.8965 26.2697 16.9705 26.1802 17.0846C26.0908 17.1988 26.0503 17.3439 26.0678 17.4879L26.181 18.4185C26.1972 18.5511 26.2613 18.6731 26.3612 18.7618C26.4611 18.8504 26.5899 18.8995 26.7235 18.8998C26.7457 18.8998 26.7679 18.8984 26.79 18.8957Z" fill="#333333"/>
<path d="M28.6594 34.2653C28.8033 34.2473 28.9343 34.1733 29.0239 34.0592C29.1134 33.9451 29.1543 33.8003 29.1375 33.6562L28.9156 31.8499C28.8994 31.7118 28.831 31.5852 28.7244 31.4958C28.6179 31.4064 28.4813 31.3611 28.3424 31.3691C28.2036 31.377 28.0731 31.4377 27.9775 31.5387C27.8819 31.6397 27.8285 31.7734 27.8281 31.9124C27.8276 31.9354 27.8287 31.9584 27.8313 31.9812L28.05 33.7874C28.0666 33.9201 28.1309 34.0421 28.231 34.1307C28.3311 34.2193 28.4601 34.2684 28.5938 34.2687C28.6157 34.2693 28.6376 34.2681 28.6594 34.2653Z" fill="#333333"/>
<path d="M27.4125 24.0181C27.5564 24.0001 27.6873 23.926 27.7769 23.8119C27.8664 23.6979 27.9073 23.553 27.8906 23.409L27.6687 21.6027C27.6601 21.5315 27.6375 21.4627 27.6023 21.4002C27.5671 21.3377 27.5199 21.2827 27.4635 21.2385C27.407 21.1942 27.3424 21.1615 27.2733 21.1422C27.2042 21.1229 27.132 21.1174 27.0608 21.126C26.9895 21.1346 26.9207 21.1572 26.8582 21.1924C26.7957 21.2276 26.7407 21.2748 26.6965 21.3313C26.6522 21.3877 26.6195 21.4524 26.6002 21.5215C26.5809 21.5906 26.5754 21.6628 26.584 21.734L26.8028 23.5402C26.8194 23.6729 26.8837 23.7949 26.9838 23.8835C27.0839 23.9721 27.2129 24.0212 27.3465 24.0215C27.3686 24.0219 27.3906 24.0208 27.4125 24.0181Z" fill="#333333"/>
<path d="M28.0375 29.1442C28.1809 29.1255 28.3112 29.0511 28.4001 28.937C28.489 28.823 28.5294 28.6784 28.5125 28.5348L28.2938 26.7254C28.2775 26.5869 28.2089 26.4599 28.1021 26.3702C27.9953 26.2806 27.8582 26.2351 27.719 26.2431C27.5798 26.2511 27.4489 26.3119 27.353 26.4132C27.2571 26.5144 27.2035 26.6485 27.2031 26.7879C27.2026 26.8108 27.2037 26.8337 27.2063 26.8564L27.4281 28.6658C27.4435 28.7983 27.5071 28.9207 27.6068 29.0094C27.7065 29.0982 27.8353 29.1473 27.9688 29.1473C27.9938 29.1473 28.0153 29.1442 28.0375 29.1442Z" fill="#333333"/>
<path d="M29.54 36.9718C29.5323 36.8997 29.5103 36.8299 29.4753 36.7665C29.4404 36.703 29.3931 36.6471 29.3364 36.602C29.2797 36.557 29.2145 36.5236 29.1448 36.504C29.0751 36.4843 29.0021 36.4786 28.9302 36.4874C28.8582 36.4962 28.7888 36.5191 28.7258 36.555C28.6628 36.5908 28.6076 36.6388 28.5633 36.6962C28.5191 36.7535 28.4866 36.8191 28.4679 36.8891C28.4492 36.9591 28.4446 37.0322 28.4544 37.104L28.5678 38.0349C28.5839 38.1674 28.648 38.2894 28.7478 38.378C28.8477 38.4665 28.9765 38.5154 29.11 38.5155C29.1324 38.5156 29.1547 38.5142 29.1769 38.5115C29.3209 38.4939 29.452 38.4198 29.5414 38.3056C29.6308 38.1914 29.6712 38.0464 29.6538 37.9024L29.54 36.9718Z" fill="#333333"/>
<path d="M18.0488 18.4683L18.2922 17.562C18.3269 17.423 18.3056 17.2759 18.233 17.1524C18.1604 17.0289 18.0422 16.9389 17.9038 16.9016C17.7655 16.8644 17.618 16.8829 17.4932 16.9532C17.3684 17.0235 17.2761 17.14 17.2363 17.2777L16.9929 18.1839C16.9574 18.3232 16.9782 18.4708 17.0507 18.5948C17.1233 18.7189 17.2417 18.8094 17.3805 18.8468C17.5192 18.8842 17.6671 18.8655 17.7922 18.7947C17.9172 18.724 18.0094 18.6068 18.0488 18.4686V18.4683Z" fill="#333333"/>
<path d="M14.0031 31.3965C13.8632 31.3615 13.7151 31.3823 13.5902 31.4547C13.4654 31.527 13.3736 31.6451 13.3344 31.784L12.8466 33.5965C12.8094 33.7365 12.829 33.8856 12.901 34.0114C12.973 34.1371 13.0917 34.2295 13.2313 34.2683C13.2785 34.2791 13.3266 34.2853 13.375 34.2871C13.4953 34.2863 13.612 34.2461 13.7074 34.1728C13.8028 34.0994 13.8715 33.9969 13.9031 33.8808L14.3906 32.0683C14.4002 32.023 14.4063 31.9771 14.4091 31.9308C14.4095 31.8096 14.37 31.6915 14.2966 31.5949C14.2232 31.4983 14.1201 31.4286 14.0031 31.3965Z" fill="#333333"/>
<path d="M13.025 37.0691C13.025 37.067 13.025 37.0648 13.025 37.0626C13.0247 36.9506 12.9898 36.8414 12.925 36.7501C12.9187 36.741 12.9131 36.7323 12.9062 36.7238C12.8754 36.6852 12.8394 36.6509 12.7993 36.622C12.789 36.6145 12.7778 36.6082 12.7665 36.6013C12.727 36.5762 12.6844 36.5566 12.6397 36.5429C12.6337 36.541 12.629 36.537 12.6231 36.5351C12.5872 36.5259 12.5504 36.5204 12.5134 36.5185C12.4063 36.5122 12.2996 36.5376 12.2068 36.5913C12.1139 36.6451 12.0388 36.725 11.9909 36.821C11.9741 36.8533 11.9608 36.8872 11.9512 36.9223C11.9514 36.9253 11.9514 36.9283 11.9512 36.9313L11.7103 37.8273C11.6901 37.8971 11.684 37.9702 11.6924 38.0424C11.7008 38.1146 11.7235 38.1844 11.7591 38.2477C11.7948 38.311 11.8427 38.3666 11.9001 38.4112C11.9575 38.4558 12.0232 38.4885 12.0934 38.5074C12.1636 38.5263 12.2368 38.531 12.3088 38.5212C12.3808 38.5115 12.4502 38.4875 12.5128 38.4507C12.5755 38.4138 12.6302 38.3649 12.6737 38.3067C12.7172 38.2485 12.7486 38.1822 12.7662 38.1116L13.0097 37.2054C13.0207 37.162 13.0265 37.1174 13.0268 37.0726L13.025 37.0691Z" fill="#333333"/>
<path d="M15.3841 26.2593C15.2441 26.2236 15.0957 26.2442 14.9708 26.3167C14.8458 26.3891 14.7542 26.5076 14.7156 26.6468L14.2281 28.4593C14.1905 28.5994 14.2097 28.7487 14.2818 28.8746C14.3538 29.0005 14.4727 29.0929 14.6125 29.1315C14.6594 29.1439 14.7077 29.1502 14.7563 29.1502C14.8766 29.1494 14.9933 29.1093 15.0886 29.0359C15.184 28.9626 15.2527 28.86 15.2844 28.744L15.7719 26.9315C15.7844 26.8867 15.7908 26.8405 15.7906 26.794C15.7923 26.6722 15.7532 26.5535 15.6795 26.4566C15.6058 26.3596 15.5018 26.2902 15.3841 26.2593Z" fill="#333333"/>
<path d="M16.7687 21.1223C16.6284 21.087 16.4798 21.1077 16.3544 21.18C16.229 21.2524 16.1366 21.3706 16.0969 21.5098L15.6094 23.3223C15.5909 23.3916 15.5862 23.4639 15.5956 23.535C15.6051 23.6062 15.6284 23.6748 15.6644 23.7369C15.7004 23.799 15.7482 23.8534 15.8052 23.897C15.8622 23.9406 15.9272 23.9726 15.9966 23.991C16.0424 24.0044 16.0898 24.0117 16.1375 24.0129H16.1403C16.2603 24.012 16.3766 23.9718 16.4715 23.8984C16.5664 23.8251 16.6346 23.7225 16.6656 23.6066L17.1559 21.7941C17.192 21.6538 17.1717 21.5048 17.0994 21.3792C17.027 21.2537 16.9083 21.1614 16.7687 21.1223Z" fill="#333333"/>
<path d="M20.8957 16.8791C20.8244 16.8703 20.752 16.8756 20.6828 16.8948C20.6135 16.914 20.5488 16.9467 20.4922 16.991C20.4356 17.0352 20.3883 17.0903 20.353 17.1528C20.3178 17.2154 20.2952 17.2844 20.2866 17.3557L20.1732 18.2866C20.1556 18.4306 20.1959 18.5756 20.2853 18.6899C20.3747 18.8041 20.5058 18.8781 20.6497 18.8957C20.6719 18.8984 20.6942 18.8998 20.7166 18.8998C20.8501 18.8996 20.9789 18.8506 21.0788 18.762C21.1787 18.6734 21.2427 18.5513 21.2588 18.4188L21.3725 17.4882C21.39 17.3442 21.3496 17.1992 21.2602 17.085C21.1707 16.9707 21.0396 16.8967 20.8957 16.8791Z" fill="#333333"/>
<path d="M20.3782 21.1253C20.2343 21.1096 20.0899 21.1509 19.976 21.2402C19.8622 21.3296 19.7878 21.46 19.7688 21.6035L19.55 23.4097C19.5325 23.5534 19.5727 23.6982 19.6617 23.8124C19.7508 23.9265 19.8814 24.0007 20.025 24.0188C20.0478 24.0216 20.0708 24.0227 20.0938 24.0222C20.2275 24.0219 20.3564 23.9728 20.4565 23.8842C20.5566 23.7956 20.621 23.6736 20.6375 23.541L20.8563 21.7347C20.8731 21.5906 20.8322 21.4457 20.7427 21.3316C20.6531 21.2175 20.5221 21.1433 20.3782 21.1253Z" fill="#333333"/>
<path d="M19.7563 26.2468C19.6122 26.2301 19.4673 26.271 19.3532 26.3605C19.2391 26.4501 19.1649 26.581 19.1469 26.7249L18.925 28.5343C18.9087 28.6783 18.9497 28.823 19.0392 28.937C19.1287 29.051 19.2594 29.1253 19.4031 29.1437C19.425 29.1437 19.4466 29.1468 19.4688 29.1468C19.6024 29.1464 19.7314 29.0973 19.8315 29.0086C19.9316 28.92 19.9959 28.7979 20.0125 28.6653L20.2313 26.8559C20.2349 26.8332 20.237 26.8104 20.2375 26.7874C20.2359 26.6545 20.1863 26.5266 20.0979 26.4272C20.0095 26.3279 19.8881 26.2638 19.7563 26.2468Z" fill="#333333"/>
<path d="M19.1313 31.3717C18.9873 31.3554 18.8426 31.3964 18.7286 31.4859C18.6146 31.5753 18.5403 31.706 18.5219 31.8498L18.3031 33.656C18.2858 33.7998 18.3261 33.9445 18.4151 34.0586C18.5042 34.1727 18.6348 34.247 18.7784 34.2651C18.8012 34.268 18.8242 34.2692 18.8472 34.2685C18.9806 34.2684 19.1094 34.2194 19.209 34.1307C19.3087 34.042 19.3723 33.9198 19.3878 33.7873L19.6097 31.981C19.6123 31.9582 19.6133 31.9352 19.6128 31.9123C19.6118 31.7791 19.5624 31.6508 19.4738 31.5514C19.3852 31.4519 19.2634 31.388 19.1313 31.3717Z" fill="#333333"/>
<path d="M18.5088 36.4951C18.3648 36.4778 18.2198 36.5183 18.1056 36.6078C17.9914 36.6973 17.9174 36.8283 17.8997 36.9723L17.7866 37.9029C17.7691 38.0469 17.8095 38.1919 17.899 38.3061C17.9884 38.4202 18.1195 38.4942 18.2635 38.5117C18.2855 38.5144 18.3078 38.5158 18.33 38.5157C18.4635 38.5155 18.5924 38.4665 18.6923 38.3779C18.7922 38.2894 18.8563 38.1673 18.8725 38.0348L18.9856 37.1039C19.003 36.9599 18.9626 36.815 18.8732 36.7008C18.7837 36.5867 18.6527 36.5127 18.5088 36.4951Z" fill="#333333"/>
</svg>
