<svg width="276" height="299" viewBox="0 0 276 299" fill="none" xmlns="http://www.w3.org/2000/svg">
<path d="M77.3394 28.5826C76.9345 28.24 76.6853 27.8039 76.6541 27.2743L75.9065 19.6427C75.8442 19.1443 76 18.6148 76.3426 18.241C76.6853 17.836 77.1214 17.5868 77.6509 17.5557L84.0366 16.9327C84.535 16.8704 85.0645 17.0261 85.4383 17.3688C85.8433 17.7114 86.0924 18.1475 86.1236 18.6771L86.8712 26.3087C86.9335 26.8071 86.7777 27.3367 86.4351 27.7104C86.0924 28.1154 85.6564 28.3646 85.1268 28.3958L78.7412 29.0188C78.6789 29.0188 78.6165 29.0188 78.5542 29.0188C78.1181 29.0188 77.6821 28.863 77.3394 28.5826ZM85.0022 27.0875C85.158 27.0563 85.3137 26.994 85.4071 26.8694C85.5006 26.7448 85.5629 26.5891 85.5317 26.4022L84.7841 18.7705C84.753 18.6148 84.6907 18.459 84.5661 18.3656C84.4415 18.2721 84.2858 18.2098 84.0989 18.241L77.7132 18.864C77.5575 18.8951 77.4017 18.9574 77.3082 19.082C77.2148 19.2066 77.1525 19.3624 77.1837 19.5493L77.9312 27.1809C77.9624 27.3367 78.0247 27.4924 78.1493 27.5858C78.2739 27.6793 78.4296 27.7416 78.6165 27.7104L85.0022 27.0875Z" fill="#132145"/>
<path d="M6.56742 290.582C5.13454 292.357 5.38373 297.123 6.41167 297.933C8.3741 299.428 54.4755 299.553 53.7279 296.874C52.9803 294.195 44.3831 290.582 40.7386 289.99C32.3282 288.651 11.9252 283.916 6.56742 290.582Z" fill="#375173"/>
<path d="M46.7817 290.987C45.5358 292.98 45.6292 297.559 47.3113 298.307C49.2114 299.148 96.4965 299.241 95.5309 296.656C94.5341 294.071 85.5318 291.298 81.9496 290.115C68.898 285.909 52.046 282.67 46.7817 290.987Z" fill="#375173"/>
<path d="M9.40198 136.08C4.2 146.297 -0.0363343 160.345 1.70804 170.033C3.48357 179.72 9.37085 193.208 10.0873 194.828C10.3988 195.513 10.5545 213.393 8.99706 233.422C8.59211 238.718 0.399768 242.487 0.119421 248.468C-1.03311 273.886 6.53623 290.675 6.53623 290.675L40.7696 289.99L45.4732 250.337L53.5098 229.871L89.145 139.039L9.40198 136.08Z" fill="url(#paint0_radial_102_173)"/>
<path d="M20.5848 133.899C16.5042 144.615 13.4516 158.414 16.255 167.852C19.0585 177.291 39.3369 194.672 40.2402 196.199C40.614 196.853 42.7945 227.255 43.2929 234.668C43.5109 238.064 35.9416 244.013 36.0973 250.555C36.5957 274.197 46.7816 290.956 46.7816 290.956L81.9495 290.083C81.9495 290.083 80.0494 258.093 81.3889 247.533C82.0742 242.082 86.0925 235.696 87.1827 226.32C89.8304 203.363 88.9893 133.868 88.9893 133.868H20.5848V133.899Z" fill="#486C9A"/>
<path d="M68.8975 7.77467C60.9855 4.65971 51.7652 9.20754 50.3947 18.7082C48.9618 28.6449 53.6965 40.6375 60.2379 45.3723C64.9415 48.7676 73.165 50.5119 76.8718 48.5184C89.1759 41.8523 83.6624 13.5685 68.8975 7.77467Z" fill="url(#paint1_radial_102_173)"/>
<path d="M51.2981 32.6321C53.0113 49.9513 41.0187 66.3359 44.7255 72.2232C48.4323 78.0793 74.6291 75.2759 76.8096 72.7839C78.9901 70.2608 67.6828 53.1285 71.7945 30.5139C74.2553 17.213 51.2981 32.6321 51.2981 32.6321Z" fill="#E5B48F"/>
<path d="M9.40181 139.569C7.87548 138.105 5.78849 75.6809 45.0993 52.4433C51.0489 48.9234 66.2498 56.7108 71.7945 59.888C88.8333 69.6378 105.716 133.931 92.3221 149.163C78.5539 164.831 24.5094 153.96 9.40181 139.569Z" fill="#0D4862"/>
<path d="M76.031 28.2711C76.031 25.966 74.0063 17.4311 72.2619 17.0884C68.0879 16.3097 68.1502 19.6115 59.6463 20.2657C53.1049 20.764 50.5507 17.7426 49.5227 20.1722C46.3766 27.5547 49.8031 37.7094 54.8182 40.9178C59.7398 41.9458 66.3435 36.6192 68.9289 32.0714C65.4402 29.3613 67.9321 20.3903 73.0718 28.1777C73.9129 29.3925 76.031 29.2368 76.031 28.2711Z" fill="white"/>
<path d="M88.4599 158.414C90.1108 158.29 95.9981 160.501 99.8295 163.18C103.661 165.89 107.087 167.852 105.125 168.569C103.91 169.005 101.512 167.261 99.7049 166.638C97.9293 166.015 96.8391 165.983 96.5899 166.669C96.3407 167.354 106.059 175.484 105.468 176.855C104.44 179.191 100.016 174.332 97.9294 173.833C95.8423 173.335 102.758 179.814 100.951 181.652C100.11 182.493 96.2784 177.696 95.78 177.852C95.3128 177.976 97.7113 181.558 95.9358 182.026C94.316 182.43 90.0797 175.733 89.0206 175.515C87.7123 175.235 91.0141 179.471 89.4255 179.814C86.9335 180.406 80.7348 166.856 80.7036 164.395C80.7036 160.47 86.0302 158.601 88.4599 158.414Z" fill="#E5B48F"/>
<path d="M65.6583 63.3767C80.3609 63.7505 75.8442 95.492 79.0526 124.025C81.5446 146.359 89.2074 157.729 89.2074 160.221C89.2074 163.274 80.4543 169.192 76.3737 170.625C73.5391 171.622 47.0931 162.277 43.1371 136.703C39.0254 110.195 49.6785 62.9718 65.6583 63.3767Z" fill="#0D4862"/>
<path d="M85.6253 151.873C85.8122 151.873 86.0302 151.81 86.186 151.717C86.7467 151.405 86.9647 150.689 86.6532 150.097C82.6038 142.808 81.9185 129.445 81.1709 115.272C80.1118 94.7755 78.9904 73.5938 67.5274 66.554C66.9667 66.2113 66.2502 66.3982 65.9076 66.9277C65.5649 67.4884 65.7519 68.2049 66.2814 68.5475C76.7165 74.9643 77.7756 95.4919 78.8035 115.365C79.5511 129.788 80.2676 143.431 84.5974 151.219C84.8154 151.655 85.2204 151.873 85.6253 151.873Z" fill="#5C55B5"/>
<path d="M48.1523 151.873C48.3392 151.873 48.5573 151.81 48.7442 151.717C49.3049 151.406 49.4918 150.658 49.1803 150.097C43.9471 141.064 43.3553 127.732 43.293 123.869C43.293 123.215 42.7634 122.717 42.1093 122.717C42.1093 122.717 42.1093 122.717 42.0781 122.717C41.424 122.717 40.8945 123.277 40.9256 123.9C40.9879 127.919 41.6109 141.718 47.1244 151.281C47.3424 151.686 47.7474 151.873 48.1523 151.873Z" fill="#5C55B5"/>
<path d="M66.9044 32.8813C66.9667 32.8813 67.029 32.8813 67.0601 32.8501C67.4027 32.7567 67.6208 32.3829 67.5273 32.0402C67.1847 30.7631 66.5928 27.1186 67.8077 25.4988C68.5553 24.6578 77.4952 21.792 85.6564 19.4869C85.999 19.3935 86.2171 19.0197 86.1236 18.6771C86.0302 18.3344 85.6564 18.1164 85.3138 18.2098C81.2332 19.3623 67.9011 23.1938 66.7797 24.6889C64.9108 27.1498 66.2191 32.1648 66.2814 32.3829C66.3437 32.6944 66.5929 32.8813 66.9044 32.8813Z" fill="#132145"/>
<path d="M273.831 273.948C273.924 273.948 273.986 273.948 274.08 273.917C275.17 273.792 275.918 272.795 275.793 271.705C271.089 235.167 268.909 205.481 267.32 183.77C265.109 153.586 263.987 138.416 258.817 134.117C257.602 133.121 256.138 132.685 254.58 132.871C252.96 133.058 251.528 133.899 250.406 135.332C246.855 139.942 247.385 149.755 247.634 151.499C247.79 152.589 248.786 153.306 249.877 153.15C250.967 152.994 251.683 151.997 251.528 150.907C251.278 149.1 251.091 140.846 253.521 137.7C254.113 136.921 254.642 136.796 255.016 136.734C255.515 136.672 255.889 136.796 256.293 137.108C258.817 139.195 260.031 147.917 260.405 150.783C261.527 158.788 262.336 169.908 263.364 183.988C264.953 205.73 267.165 235.509 271.868 272.141C272.024 273.232 272.865 273.948 273.831 273.948Z" fill="#5E88AF"/>
<path d="M206.236 203.955C213.37 233.111 219.475 289.741 219.475 289.741L213.525 290.457C213.525 290.457 179.946 245.695 180.382 231.678C180.818 217.661 187.11 202.242 187.11 202.242L206.236 203.955Z" fill="#E5B48F"/>
<path d="M171.442 201.245C175.055 231.055 171.38 291.952 171.38 291.952H165.399C165.399 291.952 137.396 243.515 139.483 229.653C141.57 215.792 149.669 201.214 149.669 201.214H171.442V201.245Z" fill="#E5B48F"/>
<path d="M201.595 127.171C208.261 155.829 217.886 221.492 218.416 227.629C218.914 233.765 138.517 235.79 137.582 230.681C136.648 225.573 123.752 168.943 126.867 154.645C127.77 150.471 135.62 140.69 135.62 140.69L201.595 127.171Z" fill="#486C9A"/>
<path d="M171.473 37.4914C174.557 47.0232 178.575 59.047 186.394 59.4519C204.087 60.3552 202.062 39.9834 194.088 25.0005C192.188 21.4183 169.262 30.6697 171.473 37.4914Z" fill="url(#paint2_radial_102_173)"/>
<path d="M177.174 47.3347C179.23 58.7043 155.431 68.7656 158.608 74.6529C161.786 80.5402 196.424 86.3029 198.698 84.0289C200.972 81.755 182.562 68.4853 187.827 43.9706C190.568 31.2615 177.174 47.3347 177.174 47.3347Z" fill="#E5B48F"/>
<path d="M195.209 26.0595C192.624 16.9639 175.896 14.1604 169.23 20.3903C165.71 23.6921 160.135 42.9737 179.292 51.8514C184.12 51.571 187.889 46.6806 189.197 41.8212C184.556 37.3357 189.197 30.1713 192.094 37.1799C195.084 34.7814 195.926 28.5827 195.209 26.0595Z" fill="white"/>
<path d="M171.255 21.4805C171.94 15.0326 165.461 -4.43593 155.711 0.921803C150.011 4.06791 148.236 21.574 163.032 30.4828C166.583 32.601 170.85 25.2808 171.255 21.4805Z" fill="white"/>
<path d="M135.62 140.721C136.43 131.065 133.627 75.712 171.286 59.483C171.286 59.483 178.575 64.2489 188.886 65.0277C199.975 71.133 205.053 92.9066 215.924 111.004C220.908 119.321 238.819 130.566 247.354 132.716C249.036 133.152 250.469 140.815 249.472 141.905C244.675 147.231 217.45 142.123 208.136 134.18C208.199 137.793 205.271 140.721 201.688 140.721H135.62Z" fill="#AE376E"/>
<path d="M244.799 133.931C251.278 129.788 254.175 130.193 255.453 130.38C256.73 130.566 259.689 131.812 261.838 131.968C263.988 132.124 262.399 133.899 261.682 134.242C262.461 134.211 264.299 134.709 264.392 136.828C264.517 139.569 260.81 143.369 259.097 144.085C257.353 144.833 249.285 144.241 246.544 141.344C245.08 139.818 244.799 133.931 244.799 133.931Z" fill="#E5B48F"/>
<path d="M206.423 133.619C206.859 133.619 207.233 133.37 207.389 132.934C207.607 132.404 207.326 131.781 206.797 131.563C197.265 127.888 186.456 118.823 181.69 110.444C181.41 109.945 180.756 109.759 180.257 110.039C179.759 110.319 179.572 110.973 179.852 111.472C184.836 120.225 196.113 129.694 206.049 133.494C206.174 133.588 206.298 133.619 206.423 133.619Z" fill="#902F5C"/>
<path d="M165.274 291.703C163.935 292.544 162.315 296.874 163.405 297.715C164.402 298.463 179.479 299.148 181.659 297.466C182.594 296.75 174.837 291.952 171.442 291.329C169.916 291.08 166.552 290.893 165.274 291.703Z" fill="#375173"/>
<path d="M213.556 290.457C212.31 291.33 210.94 295.348 212.092 296.376C212.933 297.154 230.003 297.902 230.252 296.064C230.502 294.226 222.59 290.146 219.506 289.741C218.011 289.554 214.802 289.616 213.556 290.457Z" fill="#375173"/>
<path d="M206.423 98.7315C206.641 98.7315 206.859 98.6692 207.046 98.5135C207.513 98.1708 207.607 97.5167 207.233 97.0494C206.579 96.2084 205.644 94.5886 204.43 92.5016C199.352 83.7485 190.817 69.1394 180.631 70.0739C180.039 70.1362 179.634 70.6346 179.697 71.2264C179.759 71.8183 180.257 72.2232 180.849 72.1609C189.727 71.3199 198.106 85.7733 202.623 93.5295C203.869 95.6477 204.834 97.3298 205.551 98.2954C205.8 98.6069 206.112 98.7315 206.423 98.7315Z" fill="#902F5C"/>
<defs>
<radialGradient id="paint0_radial_102_173" cx="0" cy="0" r="1" gradientUnits="userSpaceOnUse" gradientTransform="translate(50.5608 236.959) rotate(-177.874) scale(62.7384 94.6067)">
<stop stop-color="#365683"/>
<stop offset="1" stop-color="#486C9A"/>
</radialGradient>
<radialGradient id="paint1_radial_102_173" cx="0" cy="0" r="1" gradientUnits="userSpaceOnUse" gradientTransform="translate(68.6915 48.1029) rotate(175.94) scale(10.747 10.747)">
<stop stop-color="#DE9E87"/>
<stop offset="1" stop-color="#E5B48F"/>
</radialGradient>
<radialGradient id="paint2_radial_102_173" cx="0" cy="0" r="1" gradientUnits="userSpaceOnUse" gradientTransform="translate(187.495 58.774) rotate(165.647) scale(9.82684 9.82684)">
<stop stop-color="#DE9E87"/>
<stop offset="1" stop-color="#E5B48F"/>
</radialGradient>
</defs>
</svg>
