<svg width="480" height="288" viewBox="0 0 480 288" fill="none" xmlns="http://www.w3.org/2000/svg">
<path d="M207.29 109.165H145.918V275.006H207.29V109.165Z" fill="#0D4862"/>
<path d="M66.948 247.821C66.948 247.821 31.9025 249.275 24.198 266.754C24.198 266.754 22.7777 270.704 28.3253 271.351C33.873 271.998 50.7093 251.085 66.948 249.15V247.821Z" fill="#82B378"/>
<path d="M66.948 246.398C66.948 246.398 47.6876 229.106 32.9958 235.179C18.304 241.251 43.279 241.704 50.7322 242.968C58.1853 244.232 66.948 247.824 66.948 247.824V246.398Z" fill="#82B378"/>
<path d="M66.4505 250.518C66.4505 250.518 48.8988 256.438 51.8765 265.903C54.8543 275.367 66.4505 250.518 66.4505 250.518Z" fill="#82B378"/>
<path d="M205.859 269.524C205.485 272.734 202.968 275.172 200.023 275.178L77.5933 275.455C69.0644 274.466 62.9788 265.988 64.0722 256.621L64.8368 250.049C65.997 240.101 74.3572 232.818 83.4169 233.869L202.006 263.441C204.528 264.063 206.184 266.677 205.859 269.524Z" fill="#F99746"/>
<path d="M85.5773 253.526L84.5876 262.018C84.5726 262.143 84.5088 262.257 84.4101 262.335C84.3113 262.413 84.1856 262.449 84.0603 262.435L83.8968 262.416C83.7715 262.401 83.657 262.338 83.5786 262.239C83.5001 262.141 83.4641 262.015 83.4785 261.89L84.4681 253.4C84.4831 253.275 84.5469 253.161 84.6456 253.083C84.7443 253.004 84.87 252.968 84.9955 252.981L85.1589 253C85.2841 253.015 85.3983 253.079 85.4766 253.177C85.555 253.276 85.5912 253.401 85.5773 253.526Z" fill="#ED7D2B"/>
<path d="M93.1834 261.974L92.1937 270.464C92.1783 270.589 92.1144 270.702 92.0157 270.781C91.9171 270.859 91.7916 270.895 91.6664 270.881L91.5047 270.864C91.3794 270.849 91.265 270.785 91.1864 270.687C91.1078 270.589 91.0712 270.463 91.0846 270.338L92.0742 261.848C92.0892 261.723 92.153 261.609 92.2517 261.531C92.3504 261.452 92.4761 261.416 92.6015 261.429L92.765 261.448C92.89 261.464 93.0039 261.527 93.0822 261.626C93.1604 261.724 93.1968 261.849 93.1834 261.974Z" fill="#ED7D2B"/>
<path d="M117.251 253.526L116.262 262.018C116.247 262.143 116.183 262.257 116.084 262.335C115.985 262.413 115.86 262.449 115.734 262.435L115.573 262.416C115.447 262.401 115.332 262.338 115.254 262.239C115.175 262.141 115.139 262.015 115.152 261.89L116.142 253.4C116.157 253.275 116.221 253.161 116.32 253.083C116.418 253.004 116.544 252.968 116.669 252.981L116.831 253C116.956 253.015 117.071 253.079 117.149 253.177C117.228 253.276 117.265 253.401 117.251 253.526Z" fill="#ED7D2B"/>
<path d="M120.563 262.305L119.573 270.795C119.558 270.92 119.495 271.034 119.396 271.112C119.297 271.19 119.172 271.227 119.046 271.214L118.883 271.194C118.757 271.179 118.643 271.116 118.564 271.017C118.486 270.919 118.449 270.794 118.462 270.668L119.452 262.177C119.468 262.052 119.531 261.938 119.63 261.86C119.729 261.782 119.854 261.746 119.979 261.759L120.141 261.777C120.267 261.791 120.382 261.855 120.461 261.954C120.54 262.053 120.577 262.179 120.563 262.305Z" fill="#ED7D2B"/>
<path d="M127.742 251.068L126.752 259.56C126.737 259.685 126.673 259.798 126.574 259.876C126.476 259.955 126.35 259.991 126.225 259.977L126.063 259.96C125.938 259.945 125.824 259.881 125.745 259.783C125.666 259.684 125.63 259.559 125.643 259.434L126.633 250.944C126.648 250.819 126.712 250.705 126.81 250.626C126.909 250.548 127.035 250.512 127.16 250.525L127.324 250.544C127.448 250.56 127.562 250.623 127.64 250.721C127.718 250.819 127.755 250.944 127.742 251.068Z" fill="#ED7D2B"/>
<path d="M140.382 254.132L139.754 259.518C139.73 259.729 139.882 259.921 140.094 259.945L140.438 259.985C140.65 260.01 140.842 259.858 140.867 259.647L141.494 254.261C141.519 254.049 141.367 253.858 141.155 253.833L140.811 253.793C140.599 253.769 140.407 253.92 140.382 254.132Z" fill="#ED7D2B"/>
<path d="M142.119 261.996L141.491 267.382C141.466 267.593 141.618 267.785 141.831 267.809L142.175 267.849C142.387 267.874 142.579 267.722 142.603 267.51L143.231 262.125C143.256 261.913 143.104 261.722 142.892 261.697L142.548 261.657C142.335 261.632 142.144 261.784 142.119 261.996Z" fill="#ED7D2B"/>
<path d="M149.785 253.971L149.071 260.093C149.056 260.199 149 260.295 148.915 260.36C148.83 260.426 148.723 260.456 148.616 260.444L148.321 260.409C148.267 260.403 148.215 260.386 148.168 260.36C148.121 260.334 148.079 260.299 148.045 260.256C148.012 260.214 147.987 260.166 147.972 260.114C147.957 260.062 147.952 260.008 147.959 259.955L148.672 253.833C148.688 253.727 148.744 253.631 148.829 253.566C148.914 253.5 149.021 253.47 149.127 253.482L149.425 253.517C149.533 253.53 149.631 253.585 149.699 253.67C149.766 253.755 149.797 253.864 149.785 253.971Z" fill="#ED7D2B"/>
<path d="M156.548 260.824L155.834 266.944C155.808 267.169 155.97 267.373 156.195 267.399L156.49 267.433C156.716 267.46 156.92 267.298 156.946 267.073L157.66 260.952C157.686 260.727 157.524 260.524 157.299 260.498L157.004 260.463C156.778 260.437 156.574 260.599 156.548 260.824Z" fill="#ED7D2B"/>
<path d="M162.693 257.826L161.979 263.947C161.953 264.172 162.115 264.375 162.341 264.401L162.636 264.436C162.861 264.462 163.066 264.301 163.092 264.075L163.805 257.955C163.831 257.73 163.67 257.526 163.444 257.5L163.149 257.466C162.923 257.439 162.719 257.601 162.693 257.826Z" fill="#ED7D2B"/>
<path d="M165.141 266.07L164.427 272.191C164.401 272.416 164.563 272.619 164.788 272.646L165.083 272.68C165.309 272.706 165.513 272.545 165.539 272.32L166.253 266.199C166.279 265.974 166.117 265.77 165.892 265.744L165.597 265.71C165.371 265.684 165.167 265.845 165.141 266.07Z" fill="#ED7D2B"/>
<path d="M159.119 269.477L158.789 272.312C158.77 272.47 158.884 272.614 159.043 272.632L159.579 272.694C159.738 272.713 159.882 272.599 159.901 272.441L160.231 269.606C160.25 269.447 160.136 269.303 159.977 269.285L159.441 269.223C159.281 269.204 159.137 269.318 159.119 269.477Z" fill="#ED7D2B"/>
<path d="M154.088 255.727L153.757 258.562C153.739 258.72 153.853 258.864 154.012 258.882L154.548 258.944C154.707 258.963 154.851 258.849 154.869 258.69L155.2 255.856C155.218 255.697 155.104 255.553 154.945 255.535L154.409 255.473C154.25 255.454 154.106 255.568 154.088 255.727Z" fill="#ED7D2B"/>
<path d="M150.134 265.341L149.421 271.462C149.395 271.687 149.556 271.891 149.782 271.917L150.077 271.951C150.303 271.977 150.507 271.816 150.533 271.591L151.246 265.47C151.273 265.245 151.111 265.042 150.885 265.015L150.59 264.981C150.365 264.955 150.16 265.116 150.134 265.341Z" fill="#ED7D2B"/>
<path d="M135.42 265.841L134.793 271.227C134.78 271.328 134.728 271.421 134.648 271.484C134.568 271.547 134.465 271.577 134.364 271.565L134.012 271.527C133.91 271.514 133.818 271.463 133.754 271.382C133.691 271.302 133.661 271.2 133.673 271.099L134.3 265.714C134.312 265.612 134.364 265.519 134.445 265.456C134.525 265.392 134.627 265.363 134.729 265.375L135.081 265.414C135.182 265.426 135.275 265.478 135.339 265.558C135.402 265.638 135.431 265.74 135.42 265.841Z" fill="#ED7D2B"/>
<path d="M80.0103 258.492L78.6269 270.364C78.6092 270.511 78.5341 270.645 78.4179 270.737C78.3017 270.829 78.1538 270.871 78.0064 270.855C77.8591 270.837 77.7247 270.762 77.6326 270.646C77.5404 270.53 77.4978 270.383 77.5142 270.236L78.8976 258.362C78.9156 258.215 78.9912 258.082 79.1077 257.99C79.2243 257.898 79.3724 257.856 79.5198 257.873C79.6668 257.891 79.8007 257.966 79.8925 258.082C79.9843 258.198 80.0266 258.345 80.0103 258.492Z" fill="#ED7D2B"/>
<path d="M90.8337 243.679L90.2019 249.1C90.177 249.313 90.3303 249.507 90.5444 249.532L90.8814 249.571C91.0955 249.595 91.2892 249.442 91.3141 249.229L91.9459 243.808C91.9708 243.595 91.8174 243.401 91.6033 243.377L91.2663 243.338C91.0522 243.313 90.8585 243.466 90.8337 243.679Z" fill="#ED7D2B"/>
<path d="M104.037 243.68L103.405 249.101C103.38 249.314 103.534 249.507 103.748 249.532L104.085 249.571C104.299 249.596 104.493 249.443 104.517 249.23L105.149 243.809C105.174 243.595 105.021 243.402 104.807 243.377L104.47 243.338C104.256 243.314 104.062 243.466 104.037 243.68Z" fill="#ED7D2B"/>
<path d="M98.3381 252.474L97.7064 257.895C97.6815 258.109 97.8348 258.302 98.0489 258.327L98.3859 258.366C98.6 258.391 98.7937 258.238 98.8186 258.024L99.4504 252.603C99.4753 252.39 99.3219 252.197 99.1078 252.172L98.7708 252.133C98.5567 252.108 98.363 252.261 98.3381 252.474Z" fill="#ED7D2B"/>
<path d="M72.0896 243.811L71.4585 249.233C71.4535 249.285 71.4383 249.335 71.4138 249.38C71.3892 249.426 71.3559 249.466 71.3157 249.499C71.2755 249.531 71.2292 249.555 71.1795 249.57C71.1298 249.585 71.0777 249.589 71.0261 249.584L70.6886 249.544C70.637 249.539 70.587 249.523 70.5413 249.499C70.4957 249.474 70.4553 249.441 70.4226 249.401C70.3899 249.361 70.3655 249.315 70.3508 249.265C70.3361 249.216 70.3315 249.164 70.3371 249.112L70.9699 243.692C70.9818 243.589 71.034 243.496 71.1151 243.432C71.1962 243.368 71.2995 243.338 71.4023 243.35L71.7398 243.389C71.8422 243.399 71.9364 243.449 72.0019 243.528C72.0674 243.607 72.0989 243.709 72.0896 243.811Z" fill="#ED7D2B"/>
<path d="M72.0896 256.809L71.4585 262.23C71.4466 262.332 71.3944 262.426 71.3133 262.49C71.2322 262.554 71.1289 262.583 71.0261 262.572L70.6886 262.533C70.637 262.528 70.587 262.513 70.5413 262.488C70.4956 262.464 70.4553 262.431 70.4226 262.391C70.3899 262.35 70.3655 262.304 70.3508 262.255C70.3361 262.205 70.3315 262.153 70.3371 262.102L70.9699 256.68C70.9822 256.577 71.0346 256.484 71.1157 256.421C71.1967 256.357 71.2998 256.328 71.4023 256.34L71.7398 256.378C71.7913 256.383 71.8413 256.398 71.8869 256.423C71.9324 256.447 71.9727 256.481 72.0052 256.521C72.0378 256.561 72.062 256.607 72.0765 256.657C72.091 256.706 72.0954 256.758 72.0896 256.809Z" fill="#ED7D2B"/>
<path d="M77.9519 246.772L77.0642 254.394C77.0501 254.514 76.9891 254.623 76.8945 254.697C76.7999 254.772 76.6795 254.806 76.5597 254.792L76.3505 254.768C76.2331 254.752 76.1262 254.692 76.0527 254.599C75.9792 254.507 75.9448 254.389 75.9568 254.272L76.8462 246.649C76.8599 246.53 76.9205 246.421 77.0148 246.346C77.109 246.271 77.2292 246.236 77.349 246.25L77.5581 246.274C77.6759 246.29 77.783 246.35 77.8566 246.443C77.9302 246.536 77.9644 246.654 77.9519 246.772Z" fill="#ED7D2B"/>
<path d="M83.9161 237.286L83.0372 244.908C83.0222 245.028 82.961 245.136 82.8666 245.21C82.7722 245.285 82.6523 245.319 82.5327 245.306L82.3235 245.282C82.2038 245.268 82.0945 245.207 82.0197 245.113C81.9449 245.018 81.9107 244.898 81.9245 244.779L82.8122 237.156C82.8272 237.037 82.8885 236.929 82.9828 236.855C83.0772 236.78 83.1971 236.746 83.3167 236.759L83.5259 236.783C83.6441 236.799 83.7511 236.861 83.8241 236.955C83.8971 237.049 83.9301 237.168 83.9161 237.286Z" fill="#ED7D2B"/>
<path d="M103.714 260.628L102.66 269.646C102.644 269.775 102.578 269.893 102.475 269.973C102.373 270.054 102.243 270.091 102.113 270.077L101.978 270.061C101.848 270.046 101.731 269.98 101.65 269.878C101.569 269.776 101.532 269.647 101.547 269.518L102.602 260.498C102.617 260.369 102.683 260.252 102.785 260.171C102.887 260.091 103.017 260.054 103.147 260.069L103.282 260.084C103.411 260.1 103.529 260.166 103.61 260.267C103.691 260.369 103.729 260.499 103.714 260.628Z" fill="#ED7D2B"/>
<path d="M112.53 246.342L111.146 258.214C111.129 258.361 111.054 258.495 110.937 258.587C110.821 258.679 110.673 258.721 110.526 258.705C110.379 258.687 110.245 258.612 110.153 258.496C110.061 258.38 110.019 258.233 110.035 258.086L111.419 246.212C111.427 246.14 111.45 246.069 111.486 246.005C111.522 245.941 111.57 245.885 111.627 245.84C111.685 245.794 111.751 245.761 111.822 245.741C111.893 245.721 111.966 245.715 112.039 245.723C112.112 245.732 112.183 245.755 112.247 245.79C112.311 245.826 112.368 245.874 112.413 245.931C112.459 245.989 112.493 246.055 112.513 246.125C112.533 246.196 112.538 246.269 112.53 246.342Z" fill="#ED7D2B"/>
<path d="M176.604 119.776C193.551 119.776 207.29 115.026 207.29 109.166C207.29 103.307 193.551 98.5566 176.604 98.5566C159.656 98.5566 145.918 103.307 145.918 109.166C145.918 115.026 159.656 119.776 176.604 119.776Z" fill="#486E7E"/>
<path d="M286.754 77.6785H225.382V275.006H286.754V77.6785Z" fill="#6FB6C8"/>
<path d="M256.068 88.2881C273.016 88.2881 286.754 83.5381 286.754 77.6786C286.754 71.8191 273.016 67.0691 256.068 67.0691C239.121 67.0691 225.382 71.8191 225.382 77.6786C225.382 83.5381 239.121 88.2881 256.068 88.2881Z" fill="#D3EAF1"/>
<path d="M353.487 158.404H302.957V275.007H353.487V158.404Z" fill="#FFD600"/>
<path d="M328.222 169.014C342.176 169.014 353.487 164.264 353.487 158.404C353.487 152.545 342.176 147.795 328.222 147.795C314.269 147.795 302.957 152.545 302.957 158.404C302.957 164.264 314.269 169.014 328.222 169.014Z" fill="#FFF4BC"/>
<path d="M427.711 209.335V264.276C427.711 267.122 426.577 269.851 424.56 271.864C422.542 273.876 419.805 275.007 416.951 275.007H327.997C325.143 275.007 322.407 273.876 320.388 271.864C318.37 269.852 317.236 267.122 317.236 264.276V253.963C319.762 253.146 321.806 250.964 321.806 248.29C321.806 245.475 320.337 242.144 317.236 241.783V209.919C318.217 209.657 319.105 209.126 319.799 208.385C321.251 206.807 321.029 204.19 319.707 202.484C320.716 201.267 321.983 200.287 323.416 199.615C324.849 198.943 326.414 198.596 327.997 198.598H416.951C418.365 198.598 419.765 198.875 421.071 199.415C422.377 199.955 423.563 200.746 424.563 201.743C425.562 202.74 426.354 203.924 426.894 205.227C427.435 206.529 427.712 207.926 427.711 209.335Z" fill="#FABA53"/>
<path d="M383.584 207.207V266.404C383.584 268.686 382.676 270.874 381.058 272.487C379.44 274.1 377.247 275.006 374.959 275.006H317.236V253.97C319.762 253.153 321.806 250.97 321.806 248.297C321.806 245.481 320.337 242.151 317.236 241.789V235.286C318.255 235.178 319.243 234.873 320.145 234.388C323.001 232.886 325.243 229.742 325.243 226.282C325.243 222.21 321.312 219.189 317.234 218.887V209.919C318.215 209.657 319.103 209.125 319.797 208.385C321.249 206.807 321.027 204.19 319.706 202.484C319.543 202.274 319.363 202.078 319.168 201.899C318.622 201.397 317.956 201.042 317.234 200.87V198.591H374.961C376.094 198.591 377.217 198.814 378.264 199.247C379.311 199.681 380.263 200.315 381.064 201.116C381.865 201.916 382.5 202.866 382.932 203.911C383.365 204.956 383.586 206.076 383.584 207.207Z" fill="#FFD78F"/>
<path d="M351.098 228.272C351.098 231.732 348.855 234.876 346.001 236.38C344.621 237.134 343.04 237.441 341.477 237.26C339.914 237.079 338.446 236.418 337.277 235.368L337.268 235.36C336.439 234.632 335.774 233.736 335.32 232.731C334.865 231.727 334.63 230.638 334.631 229.536C334.631 225.241 338.12 220.855 342.427 220.855C346.734 220.855 351.098 223.98 351.098 228.272Z" fill="#FFA412"/>
<path opacity="0.5" d="M349.773 229.738C349.773 232.469 348.158 234.973 345.999 236.38C344.619 237.134 343.038 237.442 341.475 237.261C339.912 237.079 338.445 236.418 337.275 235.369L337.266 235.36C336.134 234.122 335.507 232.507 335.508 230.832C335.508 227.115 338.532 223.315 342.258 223.315C345.985 223.315 349.773 226.021 349.773 229.738Z" fill="#FABA53"/>
<path d="M328.173 214.409C326.746 213.098 326.297 210.987 326.767 209.246C326.977 208.394 327.449 207.628 328.116 207.055C328.783 206.482 329.612 206.131 330.488 206.049C331.102 205.985 331.723 206.052 332.31 206.246C332.896 206.44 333.434 206.756 333.888 207.174C335.66 208.799 336.146 211.893 334.515 213.661C332.884 215.428 329.943 216.034 328.173 214.409Z" fill="#FFA412"/>
<path opacity="0.5" d="M328.069 213.31C326.943 212.276 326.522 210.665 326.76 209.247C326.97 208.394 327.442 207.629 328.109 207.056C328.776 206.483 329.605 206.131 330.481 206.049C331.42 206.054 332.322 206.409 333.012 207.043C334.547 208.445 334.969 211.131 333.557 212.653C332.146 214.174 329.609 214.718 328.069 213.31Z" fill="#FFB93E"/>
<path d="M366.56 216.777C364.99 218.577 362.396 219.202 360.232 218.695C359.171 218.465 358.209 217.911 357.477 217.111C356.746 216.311 356.282 215.304 356.15 214.23C356.049 213.477 356.111 212.711 356.33 211.984C356.55 211.257 356.922 210.584 357.423 210.012C359.372 207.777 363.178 207.069 365.419 209.013C367.661 210.957 368.51 214.542 366.56 216.777Z" fill="#FFA412"/>
<path opacity="0.5" d="M365.205 216.94C363.974 218.362 361.99 218.937 360.228 218.693C359.168 218.463 358.205 217.91 357.474 217.11C356.743 216.31 356.279 215.303 356.147 214.228C356.118 213.071 356.525 211.946 357.288 211.073C358.975 209.144 362.273 208.524 364.213 210.207C366.154 211.89 366.892 215.003 365.205 216.94Z" fill="#FABA53"/>
<path d="M368.93 245.029C367.856 247.874 365.034 249.762 362.218 250.113C360.85 250.306 359.456 250.071 358.228 249.439C356.999 248.807 355.998 247.811 355.363 246.587C355.363 246.584 355.363 246.58 355.363 246.577C354.907 245.721 354.641 244.777 354.58 243.81C354.519 242.842 354.666 241.873 355.011 240.967C356.345 237.435 360.577 234.907 364.117 236.234C367.657 237.561 370.262 241.498 368.93 245.029Z" fill="#FFA412"/>
<path opacity="0.5" d="M367.384 245.824C366.535 248.069 364.431 249.629 362.218 250.119C360.85 250.312 359.456 250.076 358.228 249.445C356.999 248.813 355.998 247.817 355.363 246.593C355.363 246.59 355.363 246.586 355.363 246.583C354.818 245.215 354.805 243.694 355.326 242.317C356.481 239.262 360.146 237.071 363.211 238.222C366.277 239.374 368.538 242.766 367.384 245.824Z" fill="#FABA53"/>
<path d="M358.133 260.7C358.52 262.507 357.701 264.399 356.375 265.501C355.74 266.05 354.949 266.387 354.112 266.466C353.275 266.545 352.434 266.362 351.707 265.943C351.193 265.655 350.746 265.261 350.397 264.787C350.047 264.314 349.803 263.771 349.68 263.196C349.2 260.954 350.531 258.275 352.779 257.795C355.027 257.314 357.653 258.459 358.133 260.7Z" fill="#FFA412"/>
<path opacity="0.5" d="M357.604 261.613C357.91 263.038 357.347 264.526 356.374 265.501C355.738 266.05 354.947 266.387 354.11 266.466C353.273 266.545 352.433 266.362 351.705 265.943C350.976 265.423 350.468 264.649 350.281 263.774C349.866 261.834 351.019 259.513 352.965 259.099C354.911 258.685 357.189 259.672 357.604 261.613Z" fill="#FFB93E"/>
<path d="M378.049 220.341C379.178 221.496 379.455 223.272 378.991 224.7C378.777 225.4 378.35 226.015 377.769 226.462C377.188 226.908 376.483 227.163 375.75 227.191C375.236 227.217 374.722 227.134 374.244 226.946C373.765 226.758 373.331 226.471 372.973 226.103C371.566 224.669 371.306 222.071 372.742 220.668C374.178 219.266 376.65 218.908 378.049 220.341Z" fill="#FFA412"/>
<path opacity="0.5" d="M378.084 221.259C378.976 222.171 379.253 223.538 378.991 224.701C378.777 225.4 378.35 226.016 377.769 226.462C377.188 226.908 376.483 227.163 375.75 227.192C374.969 227.146 374.233 226.81 373.688 226.25C372.475 225.011 372.245 222.762 373.489 221.552C374.734 220.343 376.873 220.02 378.084 221.259Z" fill="#FABA53"/>
<path d="M331.697 268.436C328.66 268.695 325.731 266.972 324.197 264.591C323.432 263.443 323.043 262.086 323.085 260.708C323.127 259.33 323.597 257.999 324.431 256.899C325.009 256.12 325.747 255.473 326.596 255.001C327.444 254.53 328.384 254.244 329.353 254.162C333.121 253.842 337.235 256.559 337.556 260.317C337.878 264.076 335.464 268.12 331.697 268.436Z" fill="#FFA412"/>
<path opacity="0.5" d="M330.312 267.387C327.915 267.592 325.596 266.371 324.199 264.582C323.433 263.434 323.045 262.077 323.087 260.699C323.128 259.321 323.599 257.99 324.432 256.89C325.434 255.81 326.805 255.142 328.275 255.018C331.537 254.739 335.101 257.093 335.38 260.349C335.66 263.604 333.575 267.109 330.312 267.387Z" fill="#FABA53"/>
<path d="M250.453 229.244C258.912 213.911 285.117 195.843 300.491 204.278C315.865 212.714 314.585 244.462 306.127 259.794C302.054 267.137 295.227 272.569 287.143 274.898C279.059 277.227 270.379 276.263 263.007 272.218C255.636 268.173 250.174 261.376 247.82 253.32C245.466 245.263 246.413 236.605 250.453 229.244Z" fill="white"/>
<path d="M291.307 256.188C298.238 249.277 298.238 238.07 291.307 231.158C284.377 224.247 273.14 224.247 266.209 231.158C259.279 238.07 259.279 249.277 266.209 256.188C273.14 263.1 284.377 263.1 291.307 256.188Z" fill="#FFD600"/>
<path d="M199.819 183.019C199.738 182.773 199.654 182.528 199.564 182.282C194.588 168.575 178.87 161.421 165.067 166.579C151.383 171.69 144.283 186.739 149.194 200.391C149.217 200.456 149.242 200.521 149.265 200.584C151.887 207.767 152.115 215.603 149.915 222.925C147.388 231.423 147.705 240.509 150.818 248.811C158.695 269.906 182.44 280.76 203.852 273.065C225.473 265.297 236.746 241.685 229.045 220.282C226.028 211.866 220.323 204.672 212.806 199.806C206.688 195.847 202.107 189.925 199.819 183.019Z" fill="#82B378"/>
<path d="M198.086 184.635C198.01 184.406 197.93 184.176 197.847 183.946C193.194 171.128 178.687 164.372 166.011 169.11C153.443 173.808 146.986 187.821 151.58 200.581C151.601 200.642 151.624 200.702 151.645 200.756C154.098 207.458 154.349 214.764 152.362 221.618C150.082 229.567 150.42 238.036 153.329 245.778C160.69 265.507 182.605 275.756 202.271 268.693C222.135 261.556 232.383 239.573 225.183 219.565C222.376 211.713 217.094 204.979 210.127 200.373C204.457 196.622 200.216 191.08 198.086 184.635Z" fill="#CEE085"/>
<path d="M209.872 228.121C211.627 232.998 211.368 238.37 209.151 243.056C206.935 247.742 202.942 251.359 198.053 253.109C197.504 253.304 196.955 253.475 196.406 253.619C192.729 254.582 188.851 254.456 185.244 253.259C181.637 252.061 178.458 249.843 176.093 246.874C173.729 243.906 172.281 240.316 171.927 236.541C171.573 232.766 172.328 228.971 174.1 225.616C175.871 222.262 178.583 219.494 181.904 217.65C185.226 215.807 189.013 214.966 192.805 215.232C196.597 215.497 200.23 216.857 203.26 219.146C206.291 221.434 208.588 224.553 209.872 228.121Z" fill="#F99746"/>
<path d="M221.152 236.697C230.432 230.184 238.801 235.529 245.331 244.785C251.861 254.041 253.554 264.002 244.276 270.515C234.998 277.028 213.339 276.817 208.819 270.41C205.26 265.357 211.878 243.209 221.152 236.697Z" fill="#F77D48"/>
<path d="M232.803 238.741C232.469 238.974 231.288 238.906 231.288 238.906C231.288 238.906 231.622 237.774 231.954 237.539C232.114 237.426 232.312 237.382 232.505 237.415C232.697 237.449 232.869 237.557 232.981 237.717C233.094 237.876 233.138 238.074 233.105 238.266C233.071 238.458 232.963 238.629 232.803 238.741Z" fill="#FBBEA3"/>
<path d="M232.541 242.951C232.209 243.184 231.028 243.116 231.028 243.116C231.028 243.116 231.361 241.983 231.694 241.75C231.773 241.691 231.863 241.648 231.958 241.624C232.054 241.601 232.154 241.596 232.251 241.612C232.349 241.627 232.442 241.662 232.526 241.714C232.609 241.766 232.682 241.834 232.739 241.914C232.795 241.995 232.835 242.086 232.856 242.182C232.877 242.278 232.878 242.378 232.86 242.474C232.841 242.571 232.804 242.663 232.749 242.745C232.694 242.827 232.623 242.897 232.541 242.951Z" fill="#FBBEA3"/>
<path d="M237.071 244.792C236.739 245.025 235.556 244.956 235.556 244.956C235.556 244.956 235.89 243.824 236.224 243.591C236.302 243.532 236.392 243.489 236.488 243.465C236.584 243.441 236.684 243.437 236.781 243.452C236.878 243.468 236.972 243.502 237.056 243.554C237.139 243.606 237.212 243.675 237.269 243.755C237.325 243.836 237.365 243.927 237.386 244.023C237.407 244.119 237.408 244.218 237.39 244.315C237.371 244.412 237.334 244.504 237.279 244.586C237.224 244.667 237.153 244.738 237.071 244.792Z" fill="#FBBEA3"/>
<path d="M238.256 251.05C237.923 251.283 236.742 251.214 236.742 251.214C236.742 251.214 237.076 250.082 237.408 249.849C237.487 249.79 237.577 249.747 237.673 249.723C237.769 249.699 237.868 249.695 237.966 249.71C238.063 249.726 238.157 249.76 238.24 249.812C238.324 249.864 238.397 249.933 238.453 250.013C238.51 250.094 238.55 250.185 238.571 250.281C238.592 250.377 238.593 250.477 238.575 250.573C238.556 250.67 238.518 250.762 238.464 250.844C238.409 250.926 238.338 250.996 238.256 251.05Z" fill="#FBBEA3"/>
<path d="M242.571 253.23C242.237 253.463 241.056 253.395 241.056 253.395C241.056 253.395 241.39 252.263 241.722 252.028C241.882 251.915 242.08 251.871 242.273 251.904C242.465 251.938 242.637 252.046 242.749 252.206C242.862 252.365 242.906 252.563 242.873 252.755C242.839 252.947 242.731 253.118 242.571 253.23Z" fill="#FBBEA3"/>
<path d="M243.446 258.407C243.114 258.64 241.933 258.572 241.933 258.572C241.933 258.572 242.267 257.439 242.599 257.206C242.678 257.147 242.768 257.104 242.864 257.081C242.96 257.057 243.059 257.052 243.157 257.068C243.254 257.083 243.347 257.118 243.431 257.17C243.515 257.222 243.587 257.29 243.644 257.371C243.701 257.451 243.741 257.542 243.762 257.638C243.783 257.735 243.784 257.834 243.765 257.931C243.747 258.027 243.709 258.119 243.654 258.201C243.6 258.283 243.529 258.353 243.446 258.407Z" fill="#FBBEA3"/>
<path d="M247.322 259.964C246.988 260.198 245.807 260.129 245.807 260.129C245.807 260.129 246.141 258.997 246.473 258.764C246.633 258.651 246.831 258.607 247.023 258.64C247.216 258.673 247.387 258.781 247.5 258.941C247.613 259.1 247.657 259.297 247.624 259.489C247.59 259.681 247.482 259.852 247.322 259.964Z" fill="#FBBEA3"/>
<path d="M225.264 241.147C224.865 241.426 223.453 241.344 223.453 241.344C223.453 241.344 223.852 239.99 224.249 239.712C224.344 239.645 224.451 239.598 224.563 239.573C224.676 239.547 224.793 239.544 224.907 239.564C225.021 239.584 225.13 239.626 225.228 239.687C225.325 239.749 225.41 239.829 225.476 239.924C225.543 240.018 225.59 240.124 225.616 240.237C225.641 240.349 225.644 240.466 225.624 240.579C225.604 240.693 225.562 240.802 225.501 240.899C225.439 240.997 225.358 241.081 225.264 241.147Z" fill="#FBBEA3"/>
<path d="M224.953 246.175C224.555 246.454 223.142 246.372 223.142 246.372C223.142 246.372 223.541 245.018 223.938 244.74C224.129 244.605 224.366 244.552 224.596 244.592C224.826 244.632 225.031 244.761 225.165 244.952C225.3 245.142 225.353 245.378 225.313 245.607C225.273 245.837 225.143 246.041 224.953 246.175Z" fill="#FBBEA3"/>
<path d="M230.363 248.376C229.966 248.655 228.554 248.572 228.554 248.572C228.554 248.572 228.953 247.219 229.351 246.938C229.542 246.805 229.778 246.752 230.008 246.792C230.239 246.832 230.443 246.962 230.577 247.152C230.712 247.343 230.765 247.579 230.724 247.808C230.684 248.038 230.554 248.242 230.363 248.376Z" fill="#FBBEA3"/>
<path d="M231.78 255.848C231.383 256.127 229.969 256.045 229.969 256.045C229.969 256.045 230.368 254.691 230.767 254.413C230.958 254.279 231.195 254.226 231.425 254.266C231.655 254.306 231.859 254.435 231.993 254.626C232.128 254.816 232.181 255.052 232.141 255.281C232.101 255.511 231.971 255.715 231.78 255.848Z" fill="#FBBEA3"/>
<path d="M236.936 258.458C236.537 258.736 235.125 258.654 235.125 258.654C235.125 258.654 235.524 257.301 235.921 257.022C236.112 256.888 236.349 256.835 236.579 256.874C236.809 256.914 237.014 257.044 237.148 257.234C237.283 257.424 237.336 257.66 237.296 257.89C237.256 258.119 237.126 258.323 236.936 258.458Z" fill="#FBBEA3"/>
<path d="M237.983 264.644C237.586 264.923 236.173 264.841 236.173 264.841C236.173 264.841 236.572 263.487 236.969 263.209C237.063 263.142 237.17 263.095 237.283 263.07C237.396 263.044 237.513 263.042 237.626 263.061C237.74 263.081 237.849 263.123 237.947 263.185C238.045 263.246 238.129 263.326 238.196 263.421C238.262 263.515 238.31 263.621 238.335 263.734C238.361 263.846 238.363 263.963 238.344 264.076C238.324 264.19 238.282 264.299 238.22 264.396C238.158 264.494 238.078 264.578 237.983 264.644Z" fill="#FBBEA3"/>
<path d="M242.612 266.504C242.214 266.783 240.803 266.701 240.803 266.701C240.803 266.701 241.202 265.347 241.599 265.069C241.79 264.935 242.026 264.882 242.256 264.922C242.486 264.962 242.691 265.091 242.825 265.282C242.959 265.472 243.012 265.708 242.972 265.937C242.932 266.167 242.802 266.371 242.612 266.504Z" fill="#FBBEA3"/>
<path d="M212.052 258.35C211.837 258.501 211.078 258.457 211.078 258.457C211.078 258.457 211.292 257.73 211.507 257.581C211.61 257.509 211.737 257.48 211.86 257.502C211.984 257.523 212.094 257.592 212.166 257.695C212.238 257.797 212.267 257.924 212.246 258.047C212.224 258.17 212.154 258.28 212.052 258.352V258.35Z" fill="#FBBEA3"/>
<path d="M211.883 261.056C211.67 261.205 210.911 261.161 210.911 261.161C210.911 261.161 211.125 260.434 211.34 260.285C211.443 260.213 211.57 260.185 211.694 260.206C211.817 260.228 211.927 260.298 211.999 260.4C212.071 260.503 212.099 260.63 212.078 260.753C212.056 260.876 211.986 260.986 211.883 261.058V261.056Z" fill="#FBBEA3"/>
<path d="M214.792 262.237C214.58 262.388 213.82 262.342 213.82 262.342C213.82 262.342 214.035 261.615 214.249 261.466C214.3 261.428 214.358 261.4 214.419 261.385C214.481 261.369 214.545 261.366 214.608 261.376C214.67 261.386 214.731 261.408 214.784 261.442C214.838 261.475 214.885 261.519 214.921 261.571C214.958 261.623 214.984 261.681 214.997 261.743C215.01 261.805 215.011 261.869 214.999 261.931C214.987 261.994 214.962 262.053 214.927 262.105C214.891 262.158 214.846 262.203 214.792 262.237Z" fill="#FBBEA3"/>
<path d="M215.553 266.256C215.341 266.407 214.581 266.362 214.581 266.362C214.581 266.362 214.796 265.634 215.01 265.485C215.061 265.447 215.119 265.419 215.18 265.404C215.242 265.388 215.306 265.386 215.369 265.395C215.432 265.405 215.492 265.427 215.546 265.461C215.599 265.494 215.646 265.538 215.683 265.59C215.719 265.642 215.745 265.701 215.758 265.763C215.771 265.825 215.772 265.889 215.76 265.951C215.748 266.013 215.723 266.072 215.688 266.125C215.652 266.177 215.607 266.222 215.553 266.256Z" fill="#FBBEA3"/>
<path d="M218.326 267.658C218.111 267.807 217.352 267.763 217.352 267.763C217.352 267.763 217.568 267.035 217.781 266.886C217.883 266.814 218.01 266.786 218.134 266.807C218.257 266.829 218.367 266.898 218.44 267C218.512 267.103 218.541 267.229 218.519 267.353C218.498 267.476 218.428 267.586 218.326 267.658Z" fill="#FBBEA3"/>
<path d="M218.888 270.984C218.675 271.134 217.916 271.089 217.916 271.089C217.916 271.089 218.13 270.361 218.345 270.212C218.396 270.174 218.453 270.146 218.515 270.131C218.577 270.115 218.641 270.113 218.703 270.122C218.766 270.132 218.826 270.154 218.88 270.188C218.934 270.221 218.981 270.265 219.017 270.317C219.054 270.369 219.079 270.428 219.093 270.49C219.106 270.552 219.106 270.616 219.094 270.678C219.082 270.74 219.058 270.799 219.022 270.852C218.987 270.904 218.941 270.949 218.888 270.984Z" fill="#FBBEA3"/>
<path d="M221.377 271.977C221.163 272.128 220.405 272.082 220.405 272.082C220.405 272.082 220.62 271.355 220.832 271.206C220.935 271.134 221.062 271.105 221.185 271.127C221.309 271.148 221.419 271.217 221.491 271.32C221.564 271.422 221.592 271.549 221.571 271.672C221.549 271.795 221.48 271.905 221.377 271.977Z" fill="#FBBEA3"/>
<path d="M215.662 253.004C215.385 253.198 214.402 253.141 214.402 253.141C214.402 253.141 214.68 252.199 214.956 252.005C215.089 251.924 215.247 251.898 215.399 251.93C215.552 251.962 215.686 252.05 215.775 252.177C215.864 252.304 215.902 252.46 215.88 252.613C215.859 252.767 215.78 252.906 215.659 253.004H215.662Z" fill="#FBBEA3"/>
<path d="M215.446 256.509C215.168 256.703 214.186 256.645 214.186 256.645C214.186 256.645 214.464 255.702 214.74 255.508C214.873 255.424 215.033 255.395 215.188 255.426C215.342 255.457 215.479 255.546 215.569 255.674C215.659 255.803 215.697 255.961 215.673 256.117C215.65 256.272 215.567 256.412 215.443 256.509H215.446Z" fill="#FBBEA3"/>
<path d="M219.219 258.041C218.941 258.234 217.958 258.177 217.958 258.177C217.958 258.177 218.236 257.234 218.512 257.04C218.645 256.956 218.806 256.927 218.96 256.958C219.114 256.989 219.251 257.078 219.341 257.206C219.432 257.335 219.469 257.493 219.445 257.649C219.422 257.804 219.339 257.944 219.215 258.041H219.219Z" fill="#FBBEA3"/>
<path d="M220.201 263.249C219.925 263.444 218.941 263.386 218.941 263.386C218.941 263.386 219.218 262.443 219.496 262.248C219.562 262.197 219.637 262.16 219.718 262.139C219.798 262.119 219.882 262.114 219.964 262.126C220.046 262.139 220.125 262.168 220.195 262.211C220.266 262.255 220.327 262.313 220.375 262.38C220.422 262.448 220.456 262.525 220.473 262.606C220.49 262.687 220.49 262.771 220.474 262.852C220.457 262.933 220.424 263.011 220.377 263.079C220.33 263.147 220.27 263.205 220.199 263.249H220.201Z" fill="#FBBEA3"/>
<path d="M223.789 265.063C223.511 265.258 222.528 265.2 222.528 265.2C222.528 265.2 222.806 264.257 223.082 264.062C223.215 263.978 223.376 263.949 223.53 263.98C223.685 264.011 223.821 264.1 223.912 264.229C224.002 264.357 224.039 264.516 224.016 264.671C223.992 264.826 223.91 264.967 223.785 265.063H223.789Z" fill="#FBBEA3"/>
<path d="M224.522 269.372C224.246 269.566 223.261 269.509 223.261 269.509C223.261 269.509 223.539 268.565 223.817 268.371C223.883 268.32 223.958 268.283 224.038 268.262C224.119 268.241 224.202 268.237 224.285 268.249C224.367 268.262 224.446 268.291 224.516 268.334C224.587 268.378 224.648 268.435 224.695 268.503C224.743 268.571 224.776 268.648 224.794 268.729C224.811 268.81 224.811 268.894 224.794 268.975C224.778 269.056 224.745 269.133 224.698 269.202C224.651 269.27 224.59 269.328 224.52 269.372H224.522Z" fill="#FBBEA3"/>
<path d="M227.746 270.668C227.47 270.863 226.485 270.805 226.485 270.805C226.485 270.805 226.763 269.862 227.041 269.667C227.106 269.616 227.182 269.579 227.262 269.558C227.343 269.537 227.426 269.533 227.508 269.545C227.591 269.558 227.669 269.587 227.74 269.63C227.811 269.674 227.872 269.731 227.919 269.799C227.967 269.867 228 269.944 228.017 270.025C228.034 270.106 228.035 270.19 228.018 270.271C228.002 270.352 227.969 270.429 227.922 270.498C227.875 270.566 227.814 270.624 227.744 270.668H227.746Z" fill="#FBBEA3"/>
<path d="M219.718 247.487C219.382 247.724 218.185 247.663 218.185 247.663C218.185 247.663 218.522 246.516 218.86 246.28C219.022 246.166 219.222 246.121 219.417 246.155C219.612 246.189 219.785 246.299 219.899 246.46C220.013 246.622 220.057 246.821 220.023 247.016C219.989 247.21 219.879 247.383 219.718 247.496V247.487Z" fill="#FBBEA3"/>
<path d="M219.456 251.751C219.118 251.987 217.921 251.926 217.921 251.926C217.921 251.926 218.259 250.779 218.596 250.543C218.758 250.429 218.958 250.384 219.153 250.418C219.348 250.452 219.522 250.561 219.636 250.723C219.75 250.884 219.795 251.084 219.761 251.278C219.727 251.473 219.618 251.646 219.456 251.759V251.751Z" fill="#FBBEA3"/>
<path d="M224.04 253.615C223.705 253.851 222.507 253.79 222.507 253.79C222.507 253.79 222.845 252.643 223.182 252.407C223.263 252.351 223.353 252.311 223.449 252.289C223.544 252.268 223.643 252.266 223.739 252.283C223.836 252.299 223.928 252.335 224.011 252.387C224.093 252.439 224.165 252.507 224.221 252.587C224.278 252.667 224.318 252.757 224.339 252.853C224.36 252.948 224.363 253.047 224.346 253.143C224.329 253.239 224.293 253.331 224.241 253.413C224.189 253.496 224.12 253.567 224.04 253.623V253.615Z" fill="#FBBEA3"/>
<path d="M225.241 259.951C224.905 260.188 223.708 260.118 223.708 260.118C223.708 260.118 224.045 258.971 224.383 258.735C224.545 258.621 224.745 258.577 224.94 258.61C225.036 258.627 225.129 258.663 225.211 258.715C225.294 258.767 225.366 258.835 225.422 258.915C225.478 258.995 225.518 259.085 225.54 259.181C225.561 259.276 225.563 259.374 225.546 259.471C225.53 259.567 225.494 259.659 225.442 259.741C225.389 259.824 225.321 259.895 225.241 259.951Z" fill="#FBBEA3"/>
<path d="M229.611 262.16C229.273 262.397 228.076 262.335 228.076 262.335C228.076 262.335 228.414 261.189 228.751 260.952C228.913 260.838 229.113 260.793 229.308 260.827C229.503 260.861 229.677 260.97 229.791 261.132C229.905 261.293 229.95 261.493 229.916 261.687C229.882 261.882 229.772 262.055 229.611 262.169V262.16Z" fill="#FBBEA3"/>
<path d="M230.498 267.402C230.161 267.639 228.964 267.569 228.964 267.569C228.964 267.569 229.303 266.422 229.639 266.186C229.719 266.129 229.809 266.089 229.905 266.068C230.001 266.046 230.099 266.044 230.196 266.061C230.293 266.077 230.385 266.113 230.468 266.165C230.55 266.217 230.622 266.285 230.679 266.365C230.735 266.445 230.775 266.535 230.797 266.631C230.818 266.726 230.821 266.825 230.804 266.921C230.787 267.017 230.752 267.109 230.699 267.192C230.647 267.275 230.579 267.346 230.498 267.402Z" fill="#FBBEA3"/>
<path d="M234.42 268.978C234.084 269.214 232.887 269.144 232.887 269.144C232.887 269.144 233.225 267.998 233.562 267.761C233.724 267.648 233.924 267.603 234.119 267.637C234.314 267.671 234.487 267.78 234.601 267.942C234.715 268.103 234.76 268.303 234.726 268.497C234.692 268.691 234.582 268.864 234.42 268.978Z" fill="#FBBEA3"/>
<path d="M244.322 244.342C244.322 244.342 251.365 238.733 258.342 241.588C257.968 242.029 257.552 242.432 257.101 242.795C256.574 243.159 251.627 240.53 244.521 245.286L244.322 244.342Z" fill="#649B57"/>
<path d="M245.234 244.081C245.234 244.081 243.176 238.625 238.233 237.244C238.233 237.244 241.483 240.413 241.748 241.379C241.748 241.379 240.414 240.808 238.219 242.06C238.219 242.06 241.838 242.824 242.562 244.922C243.286 247.021 242.713 250.904 242.713 250.904C242.713 250.904 245.679 249.512 245.686 247.948C245.686 247.948 248.421 249.962 249.971 253.98C249.98 253.979 249.321 247.855 245.234 244.081Z" fill="#649B57"/>
<path d="M217.937 264.757C217.937 270.355 212.546 274.892 205.896 274.892C199.246 274.892 193.855 270.355 193.855 264.757C193.855 259.16 199.246 254.621 205.896 254.621C212.546 254.621 217.937 259.158 217.937 264.757Z" fill="#2A4E96"/>
<path d="M210.76 263.714C212.479 263.714 213.873 262.541 213.873 261.093C213.873 259.646 212.479 258.472 210.76 258.472C209.041 258.472 207.647 259.646 207.647 261.093C207.647 262.541 209.041 263.714 210.76 263.714Z" fill="#4673BC"/>
<path d="M237.134 64V49.42H243.398V50.896H239.168V55.486H239.618C240.674 55.486 241.544 55.612 242.228 55.864C242.924 56.104 243.44 56.53 243.776 57.142C244.124 57.754 244.298 58.618 244.298 59.734C244.298 60.49 244.208 61.138 244.028 61.678C243.848 62.206 243.566 62.644 243.182 62.992C242.81 63.34 242.336 63.598 241.76 63.766C241.196 63.922 240.518 64 239.726 64H237.134ZM239.168 62.542H239.744C240.344 62.542 240.836 62.476 241.22 62.344C241.616 62.2 241.904 61.924 242.084 61.516C242.276 61.108 242.372 60.508 242.372 59.716C242.372 58.72 242.18 58.012 241.796 57.592C241.424 57.172 240.722 56.962 239.69 56.962H239.168V62.542ZM248.747 64.144C247.931 64.144 247.301 63.988 246.857 63.676C246.413 63.352 246.101 62.884 245.921 62.272C245.753 61.648 245.669 60.886 245.669 59.986V57.61C245.669 56.686 245.759 55.918 245.939 55.306C246.119 54.694 246.431 54.232 246.875 53.92C247.331 53.608 247.955 53.452 248.747 53.452C249.623 53.452 250.265 53.632 250.673 53.992C251.093 54.352 251.369 54.874 251.501 55.558C251.633 56.23 251.699 57.04 251.699 57.988V58.834H247.595V60.922C247.595 61.342 247.631 61.684 247.703 61.948C247.787 62.212 247.913 62.41 248.081 62.542C248.261 62.662 248.489 62.722 248.765 62.722C249.053 62.722 249.269 62.656 249.413 62.524C249.569 62.38 249.671 62.182 249.719 61.93C249.779 61.666 249.809 61.36 249.809 61.012V60.382H251.681V60.778C251.681 61.822 251.459 62.644 251.015 63.244C250.571 63.844 249.815 64.144 248.747 64.144ZM247.595 57.79H249.809V56.854C249.809 56.422 249.785 56.062 249.737 55.774C249.689 55.474 249.587 55.252 249.431 55.108C249.287 54.952 249.053 54.874 248.729 54.874C248.417 54.874 248.177 54.946 248.009 55.09C247.853 55.234 247.745 55.48 247.685 55.828C247.625 56.164 247.595 56.632 247.595 57.232V57.79ZM252.777 64.09V62.632C253.137 62.632 253.419 62.56 253.623 62.416C253.839 62.272 254.001 62.032 254.109 61.696C254.229 61.348 254.319 60.886 254.379 60.31C254.439 59.722 254.493 58.99 254.541 58.114L254.775 53.596H260.229V64H258.303V55.054H256.467L256.305 58.114C256.245 59.302 256.155 60.286 256.035 61.066C255.927 61.846 255.753 62.458 255.513 62.902C255.273 63.334 254.949 63.64 254.541 63.82C254.145 64 253.629 64.09 252.993 64.09H252.777ZM262.179 64V53.596H264.105V57.988H264.645L266.607 53.596H268.587L266.409 58.636L268.623 64H266.607L264.645 59.14H264.105V64H262.179ZM269.65 64V53.596H271.27V60.598L274.402 53.596H275.914V64H274.33V56.944L271.216 64H269.65Z" fill="#4B90A9"/>
<path d="M142.954 94.214V92.648C143.578 92.708 144.058 92.708 144.394 92.648C144.742 92.588 144.982 92.462 145.114 92.27C145.258 92.09 145.33 91.844 145.33 91.532C145.33 91.208 145.294 90.824 145.222 90.38L142.342 77.42H144.268L145.492 83.63L146.23 88.256L146.878 83.666L147.976 77.42H149.92L147.31 90.416C147.19 91.004 147.088 91.52 147.004 91.964C146.932 92.408 146.824 92.786 146.68 93.098C146.548 93.41 146.344 93.656 146.068 93.836C145.792 94.016 145.402 94.136 144.898 94.196C144.406 94.256 143.758 94.262 142.954 94.214ZM151.111 92V81.596H155.305V82.982H153.037V92H151.111ZM155.665 92.09V90.632C156.025 90.632 156.307 90.56 156.511 90.416C156.727 90.272 156.889 90.032 156.997 89.696C157.117 89.348 157.207 88.886 157.267 88.31C157.327 87.722 157.381 86.99 157.429 86.114L157.663 81.596H163.117V92H161.191V83.054H159.355L159.193 86.114C159.133 87.302 159.043 88.286 158.923 89.066C158.815 89.846 158.641 90.458 158.401 90.902C158.161 91.334 157.837 91.64 157.429 91.82C157.033 92 156.517 92.09 155.881 92.09H155.665ZM167.948 92.144C167.132 92.144 166.502 91.988 166.058 91.676C165.614 91.352 165.302 90.884 165.122 90.272C164.954 89.648 164.87 88.886 164.87 87.986V85.61C164.87 84.686 164.96 83.918 165.14 83.306C165.32 82.694 165.632 82.232 166.076 81.92C166.532 81.608 167.156 81.452 167.948 81.452C168.824 81.452 169.466 81.632 169.874 81.992C170.294 82.352 170.57 82.874 170.702 83.558C170.834 84.23 170.9 85.04 170.9 85.988V86.834H166.796V88.922C166.796 89.342 166.832 89.684 166.904 89.948C166.988 90.212 167.114 90.41 167.282 90.542C167.462 90.662 167.69 90.722 167.966 90.722C168.254 90.722 168.47 90.656 168.614 90.524C168.77 90.38 168.872 90.182 168.92 89.93C168.98 89.666 169.01 89.36 169.01 89.012V88.382H170.882V88.778C170.882 89.822 170.66 90.644 170.216 91.244C169.772 91.844 169.016 92.144 167.948 92.144ZM166.796 85.79H169.01V84.854C169.01 84.422 168.986 84.062 168.938 83.774C168.89 83.474 168.788 83.252 168.632 83.108C168.488 82.952 168.254 82.874 167.93 82.874C167.618 82.874 167.378 82.946 167.21 83.09C167.054 83.234 166.946 83.48 166.886 83.828C166.826 84.164 166.796 84.632 166.796 85.232V85.79ZM172.644 92V81.596H175.56C176.268 81.596 176.82 81.716 177.216 81.956C177.624 82.184 177.912 82.49 178.08 82.874C178.26 83.246 178.356 83.648 178.368 84.08C178.38 84.596 178.296 85.058 178.116 85.466C177.936 85.874 177.564 86.162 177 86.33C177.432 86.414 177.762 86.594 177.99 86.87C178.23 87.134 178.392 87.452 178.476 87.824C178.572 88.196 178.62 88.58 178.62 88.976C178.62 89.576 178.53 90.104 178.35 90.56C178.182 91.016 177.882 91.37 177.45 91.622C177.03 91.874 176.43 92 175.65 92H172.644ZM174.534 90.542H175.218C175.494 90.542 175.746 90.506 175.974 90.434C176.202 90.35 176.382 90.188 176.514 89.948C176.658 89.708 176.73 89.36 176.73 88.904C176.73 88.364 176.664 87.974 176.532 87.734C176.412 87.482 176.244 87.326 176.028 87.266C175.824 87.206 175.584 87.176 175.308 87.176H174.534V90.542ZM174.534 85.79H175.47C175.842 85.79 176.136 85.682 176.352 85.466C176.568 85.25 176.676 84.866 176.676 84.314C176.676 83.822 176.55 83.48 176.298 83.288C176.046 83.096 175.704 83 175.272 83H174.534V85.79ZM182.977 92.144C182.209 92.144 181.603 91.988 181.159 91.676C180.715 91.364 180.397 90.92 180.205 90.344C180.025 89.768 179.935 89.09 179.935 88.31V85.286C179.935 84.506 180.025 83.828 180.205 83.252C180.397 82.676 180.715 82.232 181.159 81.92C181.603 81.608 182.209 81.452 182.977 81.452C183.745 81.452 184.345 81.608 184.777 81.92C185.221 82.232 185.533 82.676 185.713 83.252C185.905 83.828 186.001 84.506 186.001 85.286V88.31C186.001 89.09 185.905 89.768 185.713 90.344C185.533 90.92 185.221 91.364 184.777 91.676C184.345 91.988 183.745 92.144 182.977 92.144ZM182.977 90.722C183.349 90.722 183.607 90.614 183.751 90.398C183.907 90.182 183.997 89.9 184.021 89.552C184.057 89.192 184.075 88.82 184.075 88.436V85.178C184.075 84.782 184.057 84.41 184.021 84.062C183.997 83.714 183.907 83.432 183.751 83.216C183.607 82.988 183.349 82.874 182.977 82.874C182.605 82.874 182.341 82.988 182.185 83.216C182.029 83.432 181.933 83.714 181.897 84.062C181.873 84.41 181.861 84.782 181.861 85.178V88.436C181.861 88.82 181.873 89.192 181.897 89.552C181.933 89.9 182.029 90.182 182.185 90.398C182.341 90.614 182.605 90.722 182.977 90.722ZM186.825 94.646V90.722C187.185 90.446 187.515 90.116 187.815 89.732C188.115 89.348 188.379 88.862 188.607 88.274C188.835 87.686 189.015 86.96 189.147 86.096C189.279 85.232 189.351 84.188 189.363 82.964L189.399 81.596H194.097V90.632H195.357V94.646H193.953L193.791 92H188.391L188.229 94.646H186.825ZM188.697 90.632H192.243V82.982H190.893L190.857 83.36C190.845 84.632 190.779 85.694 190.659 86.546C190.551 87.386 190.395 88.076 190.191 88.616C189.999 89.144 189.771 89.564 189.507 89.876C189.255 90.188 188.985 90.44 188.697 90.632ZM196.691 92V81.596H198.617V85.898C198.641 85.898 198.671 85.898 198.707 85.898C198.755 85.898 198.797 85.898 198.833 85.898C198.869 85.898 198.899 85.898 198.923 85.898C199.631 85.91 200.231 85.964 200.723 86.06C201.227 86.144 201.635 86.3 201.947 86.528C202.259 86.744 202.487 87.05 202.631 87.446C202.775 87.83 202.847 88.328 202.847 88.94C202.847 89.504 202.775 89.984 202.631 90.38C202.487 90.764 202.253 91.076 201.929 91.316C201.605 91.556 201.179 91.73 200.651 91.838C200.123 91.946 199.481 92 198.725 92H196.691ZM198.617 90.866H198.725C199.337 90.866 199.817 90.812 200.165 90.704C200.513 90.596 200.759 90.404 200.903 90.128C201.047 89.84 201.119 89.438 201.119 88.922C201.119 88.454 201.053 88.088 200.921 87.824C200.801 87.548 200.573 87.35 200.237 87.23C199.913 87.098 199.439 87.032 198.815 87.032C198.803 87.032 198.773 87.032 198.725 87.032C198.677 87.032 198.641 87.032 198.617 87.032V90.866ZM204.035 92V81.596H205.961V92H204.035Z" fill="#4B90A9"/>
<path d="M308.643 144.952L312.027 137.5L308.985 130.372H310.947L313.683 137.41H313.791V130.372H315.519V137.41H315.645L318.363 130.372H320.343L317.283 137.5L320.685 144.952H318.687L315.663 137.662H315.519V144.952H313.791V137.662H313.665L310.623 144.952H308.643ZM321.708 144.952V134.548H323.328V141.55L326.46 134.548H327.972V144.952H326.388V137.896L323.274 144.952H321.708ZM329.934 148.372V134.548H331.86V135.376C332.088 135.112 332.364 134.884 332.688 134.692C333.012 134.5 333.396 134.404 333.84 134.404C334.38 134.404 334.806 134.548 335.118 134.836C335.442 135.112 335.682 135.466 335.838 135.898C335.994 136.318 336.096 136.75 336.144 137.194C336.192 137.626 336.216 137.998 336.216 138.31V140.83C336.216 141.562 336.144 142.258 336 142.918C335.856 143.566 335.592 144.094 335.208 144.502C334.836 144.898 334.308 145.096 333.624 145.096C333.252 145.096 332.922 145.006 332.634 144.826C332.346 144.634 332.088 144.418 331.86 144.178V148.372H329.934ZM333.246 143.584C333.582 143.584 333.822 143.464 333.966 143.224C334.11 142.972 334.2 142.636 334.236 142.216C334.272 141.796 334.29 141.334 334.29 140.83V138.31C334.29 137.878 334.266 137.482 334.218 137.122C334.17 136.75 334.068 136.456 333.912 136.24C333.756 136.024 333.51 135.916 333.174 135.916C332.922 135.916 332.682 135.97 332.454 136.078C332.226 136.186 332.028 136.312 331.86 136.456V143.116C332.04 143.248 332.244 143.362 332.472 143.458C332.7 143.542 332.958 143.584 333.246 143.584ZM337.967 144.952V134.548H339.893V138.85C339.917 138.85 339.947 138.85 339.983 138.85C340.031 138.85 340.073 138.85 340.109 138.85C340.145 138.85 340.175 138.85 340.199 138.85C340.907 138.862 341.507 138.916 341.999 139.012C342.503 139.096 342.911 139.252 343.223 139.48C343.535 139.696 343.763 140.002 343.907 140.398C344.051 140.782 344.123 141.28 344.123 141.892C344.123 142.456 344.051 142.936 343.907 143.332C343.763 143.716 343.529 144.028 343.205 144.268C342.881 144.508 342.455 144.682 341.927 144.79C341.399 144.898 340.757 144.952 340.001 144.952H337.967ZM339.893 143.818H340.001C340.613 143.818 341.093 143.764 341.441 143.656C341.789 143.548 342.035 143.356 342.179 143.08C342.323 142.792 342.395 142.39 342.395 141.874C342.395 141.406 342.329 141.04 342.197 140.776C342.077 140.5 341.849 140.302 341.513 140.182C341.189 140.05 340.715 139.984 340.091 139.984C340.079 139.984 340.049 139.984 340.001 139.984C339.953 139.984 339.917 139.984 339.893 139.984V143.818ZM345.311 144.952V134.548H347.237V144.952H345.311Z" fill="#4B90A9"/>
<path d="M152.984 71V68.168L157.64 61.016C157.992 60.488 158.32 59.976 158.624 59.48C158.944 58.984 159.2 58.48 159.392 57.968C159.6 57.456 159.704 56.92 159.704 56.36C159.704 55.8 159.592 55.384 159.368 55.112C159.144 54.84 158.84 54.704 158.456 54.704C158.024 54.704 157.688 54.824 157.448 55.064C157.208 55.304 157.04 55.624 156.944 56.024C156.864 56.424 156.824 56.872 156.824 57.368V58.328H152.936V57.296C152.936 56.144 153.12 55.12 153.488 54.224C153.856 53.312 154.44 52.6 155.24 52.088C156.04 51.56 157.088 51.296 158.384 51.296C160.128 51.296 161.44 51.752 162.32 52.664C163.216 53.56 163.664 54.816 163.664 56.432C163.664 57.216 163.536 57.944 163.28 58.616C163.04 59.288 162.712 59.944 162.296 60.584C161.896 61.208 161.464 61.864 161 62.552L157.448 67.856H163.136V71H152.984ZM170.928 71.36C169.76 71.36 168.784 71.128 168 70.664C167.216 70.184 166.624 69.528 166.224 68.696C165.824 67.864 165.624 66.896 165.624 65.792V56.984C165.624 55.848 165.808 54.856 166.176 54.008C166.56 53.144 167.144 52.472 167.928 51.992C168.712 51.512 169.712 51.272 170.928 51.272C172.144 51.272 173.136 51.512 173.904 51.992C174.688 52.472 175.264 53.144 175.632 54.008C176.016 54.856 176.208 55.848 176.208 56.984V65.792C176.208 66.88 176.008 67.848 175.608 68.696C175.208 69.528 174.616 70.184 173.832 70.664C173.048 71.128 172.08 71.36 170.928 71.36ZM170.928 67.784C171.312 67.784 171.584 67.664 171.744 67.424C171.92 67.168 172.024 66.88 172.056 66.56C172.104 66.224 172.128 65.936 172.128 65.696V57.08C172.128 56.808 172.112 56.504 172.08 56.168C172.048 55.816 171.944 55.512 171.768 55.256C171.608 54.984 171.328 54.848 170.928 54.848C170.528 54.848 170.24 54.984 170.064 55.256C169.904 55.512 169.808 55.816 169.776 56.168C169.744 56.504 169.728 56.808 169.728 57.08V65.696C169.728 65.936 169.752 66.224 169.8 66.56C169.848 66.88 169.952 67.168 170.112 67.424C170.288 67.664 170.56 67.784 170.928 67.784ZM185.491 71L191.467 51.56H193.627L187.675 71H185.491ZM183.139 62.6C181.491 62.6 180.323 62.176 179.635 61.328C178.947 60.464 178.603 59.168 178.603 57.44V56.576C178.603 54.816 178.939 53.536 179.611 52.736C180.283 51.936 181.459 51.536 183.139 51.536C184.819 51.536 185.995 51.928 186.667 52.712C187.355 53.496 187.699 54.768 187.699 56.528V57.488C187.699 59.2 187.355 60.48 186.667 61.328C185.979 62.176 184.803 62.6 183.139 62.6ZM183.139 60.104C183.555 60.104 183.851 60 184.027 59.792C184.219 59.568 184.339 59.248 184.387 58.832C184.435 58.4 184.459 57.888 184.459 57.296V56.696C184.459 55.784 184.403 55.12 184.291 54.704C184.179 54.272 183.795 54.056 183.139 54.056C182.499 54.056 182.115 54.264 181.987 54.68C181.875 55.096 181.819 55.76 181.819 56.672V57.32C181.819 57.912 181.843 58.416 181.891 58.832C181.939 59.248 182.059 59.568 182.251 59.792C182.443 60 182.739 60.104 183.139 60.104ZM196.003 71.024C194.355 71.024 193.187 70.6 192.499 69.752C191.827 68.888 191.491 67.592 191.491 65.864V65C191.491 63.24 191.819 61.96 192.475 61.16C193.147 60.36 194.323 59.96 196.003 59.96C197.683 59.96 198.859 60.352 199.531 61.136C200.219 61.92 200.563 63.192 200.563 64.952V65.888C200.563 67.616 200.219 68.904 199.531 69.752C198.843 70.6 197.667 71.024 196.003 71.024ZM196.003 68.528C196.419 68.528 196.715 68.424 196.891 68.216C197.083 67.992 197.203 67.672 197.251 67.256C197.299 66.84 197.323 66.336 197.323 65.744V65.096C197.323 64.184 197.267 63.52 197.155 63.104C197.043 62.688 196.659 62.48 196.003 62.48C195.363 62.48 194.979 62.688 194.851 63.104C194.739 63.52 194.683 64.184 194.683 65.096V65.744C194.683 66.336 194.707 66.84 194.755 67.256C194.803 67.672 194.923 67.992 195.115 68.216C195.307 68.424 195.603 68.528 196.003 68.528Z" fill="#4B90A9"/>
<path d="M234.56 43L238.784 26.608H233.48V23.56H242.696V26.32L238.472 43H234.56ZM250.147 43.36C248.979 43.36 248.003 43.128 247.219 42.664C246.435 42.184 245.843 41.528 245.443 40.696C245.043 39.864 244.843 38.896 244.843 37.792V28.984C244.843 27.848 245.027 26.856 245.395 26.008C245.779 25.144 246.363 24.472 247.147 23.992C247.931 23.512 248.931 23.272 250.147 23.272C251.363 23.272 252.355 23.512 253.123 23.992C253.907 24.472 254.483 25.144 254.851 26.008C255.235 26.856 255.427 27.848 255.427 28.984V37.792C255.427 38.88 255.227 39.848 254.827 40.696C254.427 41.528 253.835 42.184 253.051 42.664C252.267 43.128 251.299 43.36 250.147 43.36ZM250.147 39.784C250.531 39.784 250.803 39.664 250.963 39.424C251.139 39.168 251.243 38.88 251.275 38.56C251.323 38.224 251.347 37.936 251.347 37.696V29.08C251.347 28.808 251.331 28.504 251.299 28.168C251.267 27.816 251.163 27.512 250.987 27.256C250.827 26.984 250.547 26.848 250.147 26.848C249.747 26.848 249.459 26.984 249.283 27.256C249.123 27.512 249.027 27.816 248.995 28.168C248.963 28.504 248.947 28.808 248.947 29.08V37.696C248.947 37.936 248.971 38.224 249.019 38.56C249.067 38.88 249.171 39.168 249.331 39.424C249.507 39.664 249.779 39.784 250.147 39.784ZM264.71 43L270.686 23.56H272.846L266.894 43H264.71ZM262.358 34.6C260.71 34.6 259.542 34.176 258.854 33.328C258.166 32.464 257.822 31.168 257.822 29.44V28.576C257.822 26.816 258.158 25.536 258.83 24.736C259.502 23.936 260.678 23.536 262.358 23.536C264.038 23.536 265.214 23.928 265.886 24.712C266.574 25.496 266.918 26.768 266.918 28.528V29.488C266.918 31.2 266.574 32.48 265.886 33.328C265.198 34.176 264.022 34.6 262.358 34.6ZM262.358 32.104C262.774 32.104 263.07 32 263.246 31.792C263.438 31.568 263.558 31.248 263.606 30.832C263.654 30.4 263.678 29.888 263.678 29.296V28.696C263.678 27.784 263.622 27.12 263.51 26.704C263.398 26.272 263.014 26.056 262.358 26.056C261.718 26.056 261.334 26.264 261.206 26.68C261.094 27.096 261.038 27.76 261.038 28.672V29.32C261.038 29.912 261.062 30.416 261.11 30.832C261.158 31.248 261.278 31.568 261.47 31.792C261.662 32 261.958 32.104 262.358 32.104ZM275.222 43.024C273.574 43.024 272.406 42.6 271.718 41.752C271.046 40.888 270.71 39.592 270.71 37.864V37C270.71 35.24 271.038 33.96 271.694 33.16C272.366 32.36 273.542 31.96 275.222 31.96C276.902 31.96 278.078 32.352 278.75 33.136C279.438 33.92 279.782 35.192 279.782 36.952V37.888C279.782 39.616 279.438 40.904 278.75 41.752C278.062 42.6 276.886 43.024 275.222 43.024ZM275.222 40.528C275.638 40.528 275.934 40.424 276.11 40.216C276.302 39.992 276.422 39.672 276.47 39.256C276.518 38.84 276.542 38.336 276.542 37.744V37.096C276.542 36.184 276.486 35.52 276.374 35.104C276.262 34.688 275.878 34.48 275.222 34.48C274.582 34.48 274.198 34.688 274.07 35.104C273.958 35.52 273.902 36.184 273.902 37.096V37.744C273.902 38.336 273.926 38.84 273.974 39.256C274.022 39.672 274.142 39.992 274.334 40.216C274.526 40.424 274.822 40.528 275.222 40.528Z" fill="#4B90A9"/>
<path d="M310.192 124V108.52C310.016 108.616 309.816 108.712 309.592 108.808C309.368 108.904 309.128 109.008 308.872 109.12C308.632 109.216 308.392 109.312 308.152 109.408C307.928 109.504 307.72 109.6 307.528 109.696V106.72C307.704 106.624 307.952 106.496 308.272 106.336C308.592 106.16 308.936 105.968 309.304 105.76C309.672 105.552 310.016 105.344 310.336 105.136C310.656 104.912 310.896 104.72 311.056 104.56H314.2V124H310.192ZM322.928 124.36C321.76 124.36 320.784 124.128 320 123.664C319.216 123.184 318.624 122.528 318.224 121.696C317.824 120.864 317.624 119.896 317.624 118.792V109.984C317.624 108.848 317.808 107.856 318.176 107.008C318.56 106.144 319.144 105.472 319.928 104.992C320.712 104.512 321.712 104.272 322.928 104.272C324.144 104.272 325.136 104.512 325.904 104.992C326.688 105.472 327.264 106.144 327.632 107.008C328.016 107.856 328.208 108.848 328.208 109.984V118.792C328.208 119.88 328.008 120.848 327.608 121.696C327.208 122.528 326.616 123.184 325.832 123.664C325.048 124.128 324.08 124.36 322.928 124.36ZM322.928 120.784C323.312 120.784 323.584 120.664 323.744 120.424C323.92 120.168 324.024 119.88 324.056 119.56C324.104 119.224 324.128 118.936 324.128 118.696V110.08C324.128 109.808 324.112 109.504 324.08 109.168C324.048 108.816 323.944 108.512 323.768 108.256C323.608 107.984 323.328 107.848 322.928 107.848C322.528 107.848 322.24 107.984 322.064 108.256C321.904 108.512 321.808 108.816 321.776 109.168C321.744 109.504 321.728 109.808 321.728 110.08V118.696C321.728 118.936 321.752 119.224 321.8 119.56C321.848 119.88 321.952 120.168 322.112 120.424C322.288 120.664 322.56 120.784 322.928 120.784ZM337.491 124L343.467 104.56H345.627L339.675 124H337.491ZM335.139 115.6C333.491 115.6 332.323 115.176 331.635 114.328C330.947 113.464 330.603 112.168 330.603 110.44V109.576C330.603 107.816 330.939 106.536 331.611 105.736C332.283 104.936 333.459 104.536 335.139 104.536C336.819 104.536 337.995 104.928 338.667 105.712C339.355 106.496 339.699 107.768 339.699 109.528V110.488C339.699 112.2 339.355 113.48 338.667 114.328C337.979 115.176 336.803 115.6 335.139 115.6ZM335.139 113.104C335.555 113.104 335.851 113 336.027 112.792C336.219 112.568 336.339 112.248 336.387 111.832C336.435 111.4 336.459 110.888 336.459 110.296V109.696C336.459 108.784 336.403 108.12 336.291 107.704C336.179 107.272 335.795 107.056 335.139 107.056C334.499 107.056 334.115 107.264 333.987 107.68C333.875 108.096 333.819 108.76 333.819 109.672V110.32C333.819 110.912 333.843 111.416 333.891 111.832C333.939 112.248 334.059 112.568 334.251 112.792C334.443 113 334.739 113.104 335.139 113.104ZM348.003 124.024C346.355 124.024 345.187 123.6 344.499 122.752C343.827 121.888 343.491 120.592 343.491 118.864V118C343.491 116.24 343.819 114.96 344.475 114.16C345.147 113.36 346.323 112.96 348.003 112.96C349.683 112.96 350.859 113.352 351.531 114.136C352.219 114.92 352.563 116.192 352.563 117.952V118.888C352.563 120.616 352.219 121.904 351.531 122.752C350.843 123.6 349.667 124.024 348.003 124.024ZM348.003 121.528C348.419 121.528 348.715 121.424 348.891 121.216C349.083 120.992 349.203 120.672 349.251 120.256C349.299 119.84 349.323 119.336 349.323 118.744V118.096C349.323 117.184 349.267 116.52 349.155 116.104C349.043 115.688 348.659 115.48 348.003 115.48C347.363 115.48 346.979 115.688 346.851 116.104C346.739 116.52 346.683 117.184 346.683 118.096V118.744C346.683 119.336 346.707 119.84 346.755 120.256C346.803 120.672 346.923 120.992 347.115 121.216C347.307 121.424 347.603 121.528 348.003 121.528Z" fill="#4B90A9"/>
</svg>
