<svg width="480" height="443" viewBox="0 0 480 443" fill="none" xmlns="http://www.w3.org/2000/svg">
<g clip-path="url(#clip0_14_613)">
<path opacity="0.5" d="M352.563 31.4644C311.123 31.4644 277.425 63.5781 277.425 103.047V320.615H427.682V103.047C427.682 63.5781 393.984 31.4644 352.563 31.4644ZM425.747 99.0533H353.395V33.2715C392.067 33.6511 423.576 62.6745 425.747 99.0533ZM425.874 103.047V168.106H353.521V100.77H425.874C425.837 101.529 425.874 102.288 425.874 103.047ZM279.36 100.77H351.713V168.124H279.36V103.065C279.234 102.288 279.27 101.529 279.288 100.77H279.36ZM351.713 169.859V245.616H279.36V169.859H351.713ZM353.521 169.859H425.874V245.616H353.521V169.859ZM351.658 33.2715V99.0533H279.306C281.531 62.6745 313.04 33.6511 351.658 33.2715ZM279.306 247.405H351.658V318.808H279.306V247.405ZM353.467 318.916V247.351H425.819V318.808L353.467 318.916Z" fill="#B7DBE3"/>
<path d="M231.605 30.4812V113.975H123.903L120.021 31.0598L231.605 30.4812Z" fill="#93C9D5"/>
<path d="M120.031 30.969V113.975H227.733V30.969H120.031Z" fill="#D3EAF1"/>
<path d="M216.054 39.4949H131.689V103.051H216.054V39.4949Z" fill="white"/>
<path d="M215.629 103.052C217.785 104.707 219.853 106.476 221.823 108.351C223.885 110.122 225.854 111.999 227.723 113.974C225.565 112.309 223.498 110.53 221.529 108.645C219.47 106.881 217.501 105.014 215.629 103.052Z" fill="#E0E0E0"/>
<path d="M194.228 70.7007C193.802 72.6582 192.807 74.4457 191.369 75.8382C189.93 77.2307 188.113 78.1659 186.145 78.526C184.176 78.886 182.146 78.6549 180.309 77.8617C178.471 77.0684 176.91 75.7486 175.82 74.0683C174.731 72.3881 174.162 70.4226 174.186 68.4193C174.21 66.416 174.825 64.4646 175.954 62.8108C177.083 61.157 178.676 59.8747 180.531 59.1255C182.387 58.3763 184.422 58.1936 186.381 58.6005C187.693 58.8729 188.938 59.4031 190.044 60.1603C191.15 60.9174 192.095 61.8866 192.825 63.0118C193.555 64.137 194.054 65.3959 194.295 66.7156C194.536 68.0354 194.513 69.3898 194.228 70.7007Z" fill="#D3EAF1"/>
<path d="M180.958 78.2628C181.166 77.2974 181.461 76.3528 181.84 75.4408C182.62 73.2459 182.938 70.9128 182.772 68.5888C182.541 66.2887 181.486 64.1502 179.802 62.5691C179.037 61.9845 178.227 61.4617 177.379 61.0059C178.41 61.0455 179.394 61.4481 180.157 62.1428C181.118 62.9219 181.915 63.8852 182.5 64.9764C183.084 66.0675 183.446 67.2646 183.563 68.4974C183.748 70.9282 183.338 73.3676 182.367 75.6032C182.065 76.5693 181.588 77.4711 180.958 78.2628Z" fill="#93C9D5"/>
<path d="M194.106 67.3396C194.106 67.5731 191.359 66.5986 188.176 67.5426C184.993 68.4867 183.259 70.7504 183.107 70.588C182.955 70.4255 183.34 69.8875 184.121 69.0653C185.182 67.9955 186.497 67.2131 187.943 66.7914C189.389 66.3649 190.919 66.3091 192.393 66.629C193.528 66.8726 194.137 67.2482 194.106 67.3396Z" fill="#93C9D5"/>
<path d="M189.504 66.8228C189.372 66.8228 189.433 66.1122 189.068 65.1073C188.859 64.4594 188.508 63.8663 188.041 63.3711C187.574 62.8758 187.003 62.4908 186.37 62.2439C185.736 61.9971 185.055 61.8946 184.377 61.9438C183.699 61.9931 183.04 62.193 182.448 62.5289C181.505 63.0161 181.07 63.544 180.968 63.544C180.867 63.544 181.181 62.7827 182.164 62.0924C182.812 61.64 183.561 61.3543 184.344 61.2605C185.128 61.1668 185.923 61.2679 186.659 61.5549C187.395 61.8419 188.048 62.306 188.562 62.9061C189.076 63.5062 189.434 64.2239 189.605 64.9956C189.869 66.1224 189.585 66.8431 189.504 66.8228Z" fill="#93C9D5"/>
<path d="M186.26 67.8989C186.037 67.8989 186.199 66.4472 185.794 64.8535C185.388 63.2598 184.638 62.0518 184.78 61.8995C184.922 61.7473 186.098 62.8233 186.534 64.6708C186.97 66.5183 186.453 67.9699 186.26 67.8989Z" fill="#93C9D5"/>
<path d="M186.169 64.7002C186.169 64.9438 185.277 64.9844 184.435 65.431C183.594 65.8777 182.884 66.4462 182.722 66.3041C182.56 66.1619 183.006 65.2889 184.08 64.7306C185.155 64.1723 186.209 64.5174 186.169 64.7002Z" fill="#93C9D5"/>
<path d="M169.877 69.4822C171.046 70.4669 171.898 71.7765 172.323 73.2456C172.749 74.7146 172.73 76.277 172.269 77.7354C171.809 79.1937 170.926 80.4825 169.734 81.4388C168.542 82.395 167.093 82.9759 165.571 83.1078C164.049 83.2398 162.522 82.917 161.184 82.1801C159.845 81.4433 158.754 80.3256 158.05 78.9683C157.346 77.611 157.059 76.075 157.226 74.5546C157.393 73.0342 158.007 71.5975 158.99 70.4263C160.31 68.857 162.197 67.8763 164.239 67.6993C166.28 67.5223 168.308 68.1635 169.877 69.4822Z" fill="#D3EAF1"/>
<path d="M170.202 81.0757C170.121 81.1366 169.583 80.4666 168.631 79.4819C167.434 78.1861 165.985 77.1497 164.373 76.4366C162.756 75.7778 160.955 75.7274 159.304 76.2945C158.641 76.5851 158.001 76.9244 157.388 77.3096C157.788 76.6376 158.407 76.1248 159.142 75.858C160.009 75.495 160.939 75.3081 161.879 75.3081C162.819 75.3081 163.749 75.495 164.616 75.858C166.313 76.6043 167.802 77.7542 168.955 79.2079C169.473 79.7556 169.894 80.3871 170.202 81.0757Z" fill="#93C9D5"/>
<path d="M167.586 68.3762C167.728 68.4879 166.106 69.9496 165.61 72.4367C165.113 74.9237 165.995 76.8829 165.822 76.9336C165.65 76.9844 165.437 76.5276 165.174 75.6952C164.833 74.5986 164.773 73.4341 164.998 72.308C165.223 71.182 165.726 70.1304 166.461 69.2492C167.069 68.5894 167.536 68.3153 167.586 68.3762Z" fill="#93C9D5"/>
<path d="M165.599 71.2689C165.599 71.3502 165.092 71.0659 164.292 70.9543C163.786 70.8689 163.269 70.8963 162.775 71.0346C162.282 71.1729 161.825 71.4186 161.438 71.7542C161.051 72.0898 160.742 72.5069 160.534 72.9758C160.327 73.4447 160.225 73.9537 160.237 74.4666C160.237 75.2685 160.449 75.7659 160.358 75.8065C160.267 75.8471 159.922 75.3903 159.821 74.4869C159.745 73.8889 159.819 73.2815 160.035 72.7192C160.252 72.1569 160.605 71.6574 161.063 71.2657C161.52 70.874 162.068 70.6024 162.656 70.4754C163.245 70.3484 163.856 70.3699 164.434 70.5381C165.265 70.7817 165.64 71.2182 165.599 71.2689Z" fill="#93C9D5"/>
<path d="M165.164 73.827C165.052 73.959 164.15 73.3601 162.933 73.0454C161.717 72.7307 160.652 72.8221 160.612 72.6495C160.985 72.4371 161.4 72.3104 161.828 72.2788C162.256 72.2472 162.685 72.3114 163.085 72.4668C164.434 72.8221 165.275 73.7255 165.164 73.827Z" fill="#93C9D5"/>
<path d="M162.994 72.7512C163.146 72.8426 162.862 73.4517 162.862 74.1724C162.862 74.8931 163.004 75.5834 162.862 75.6342C162.72 75.6849 162.315 75.0962 162.295 74.1623C162.274 73.2284 162.883 72.6497 162.994 72.7512Z" fill="#93C9D5"/>
<path d="M170.202 66.8228C167.475 65.0362 165.792 61.869 164.707 58.7932C163.624 55.6839 163.581 52.3057 164.586 49.1699C166.091 49.8496 167.446 50.8212 168.574 52.0287C169.701 53.2362 170.578 54.6555 171.155 56.2047C172.29 59.25 171.621 63.8485 170.202 66.8228Z" fill="#D3EAF1"/>
<path d="M167.029 54.2151C168.24 58.2155 169.218 62.2828 169.959 66.3965L167.029 54.2151Z" fill="white"/>
<path d="M169.959 66.3762C169.73 65.8042 169.567 65.2083 169.472 64.5997C169.168 63.341 168.833 61.8995 168.458 60.3058L167.394 56.022C167.202 55.4359 167.08 54.8295 167.029 54.2151C167.315 54.7588 167.537 55.3347 167.688 55.9306C168.032 57.0168 168.468 58.5192 168.874 60.2043C169.279 61.8894 169.584 63.4222 169.766 64.5388C169.909 65.1404 169.974 65.758 169.959 66.3762Z" fill="#93C9D5"/>
<path d="M177.116 80.6989C180.309 80.0289 183.736 81.0847 186.676 82.4957C189.637 83.9245 192.053 86.2798 193.559 89.2056C192.015 89.7894 190.372 90.0621 188.722 90.0081C187.073 89.9541 185.451 89.5744 183.949 88.8909C180.958 87.5103 178.211 83.8153 177.116 80.6989Z" fill="#D3EAF1"/>
<path d="M188.267 87.3278C184.594 85.377 181.036 83.2145 177.613 80.8513L188.267 87.3278Z" fill="white"/>
<path d="M177.613 80.8513C178.174 81.0936 178.708 81.3966 179.204 81.7548L182.955 84.0794L186.736 86.3126C187.279 86.6002 187.791 86.9402 188.267 87.3278C187.677 87.1488 187.112 86.8965 186.584 86.5766C185.571 86.0589 184.202 85.3077 182.732 84.4042C181.262 83.5008 179.954 82.6278 179.042 81.9679C178.523 81.6543 178.043 81.2794 177.613 80.8513Z" fill="#93C9D5"/>
<path d="M174.024 82.2527C174.484 84.1889 174.307 86.2224 173.517 88.049C172.847 89.8993 171.59 91.4789 169.938 92.546C169.5 91.6606 169.241 90.6969 169.177 89.7108C169.112 88.7246 169.244 87.7354 169.563 86.8004C170.457 84.7974 172.04 83.1832 174.024 82.2527Z" fill="#D3EAF1"/>
<path d="M173.963 82.5261C173.559 83.7062 173.05 84.8477 172.442 85.9369C171.958 87.0882 171.382 88.1983 170.719 89.2563C170.994 88.0272 171.445 86.8443 172.057 85.744C172.537 84.5862 173.178 83.5027 173.963 82.5261Z" fill="#93C9D5"/>
<path d="M46.2346 326.879C43.5146 321.122 42.9158 314.59 44.544 308.435C47.2166 297.918 48.1885 299.679 45.4045 293.636C42.6205 287.593 40.2111 286.348 41.8612 281.145C43.5114 275.942 46.3865 267.834 45.3539 262.924C44.3212 258.015 42.0738 256 43.0862 250.676C44.0985 245.351 47.2267 242.811 45.6981 237C44.1694 231.19 41.4968 231.473 42.5091 226.159C43.5215 220.845 44.9388 220.419 44.5338 215.621C44.1289 210.823 45.2425 208.485 45.2425 208.485C45.2425 208.485 47.0749 216.006 48.2796 220.166C49.4843 224.327 49.6058 226.746 49.0085 229.783C48.4112 232.82 55.3155 238.073 55.5179 240.472C55.7204 242.871 57.1883 245.534 54.9004 250.595C52.6125 255.656 52.0354 258.693 53.3515 262.114C54.6676 265.536 56.095 264.999 54.789 271.832C53.4831 278.665 49.5248 278.705 52.4606 283.979C55.3965 289.253 57.158 290.387 55.8014 294.102C54.4448 297.817 52.2986 302.089 53.1288 304.609C53.6114 305.865 54.2008 307.078 54.8903 308.233C56.5683 311.217 57.1316 314.701 56.4797 318.062L56.0849 320.137L57.3706 330.624L51.1243 335.686C51.1243 335.686 48.2391 333.56 46.2346 326.879Z" fill="#93C9D5"/>
<path d="M39.0266 327.78C37.2195 325.771 35.8311 323.422 34.9429 320.871C34.0546 318.319 33.6842 315.616 33.8534 312.92C34.5014 303.87 35.7972 305.166 31.9198 300.641C28.0425 296.116 25.4509 295.468 26.0988 290.943C26.7467 286.419 28.0324 279.313 26.0988 275.436C24.1652 271.559 21.5735 270.263 21.5735 265.738C21.5735 261.213 24.155 258.652 21.5735 254.107C18.992 249.562 16.4004 250.23 16.4004 245.706C16.4004 241.181 17.6962 237.304 16.4004 233.427C15.1046 229.55 15.9549 230.39 15.9549 230.39C15.9549 230.39 18.992 236.707 20.9256 239.936C22.8592 243.165 23.5173 245.108 23.5173 247.69C23.5173 250.271 31.2719 253.5 31.9198 255.443C32.5677 257.387 34.5014 259.32 33.2055 263.845C31.9097 268.37 31.9198 270.931 33.8534 273.543C35.7871 276.154 37.0829 275.476 37.0829 281.297C37.0829 287.117 33.2055 287.755 37.0829 291.632C40.9602 295.509 42.9039 296.157 42.256 299.386C41.6081 302.615 40.3123 306.472 41.6081 308.435C42.0982 309.11 42.6398 309.747 43.2279 310.338C45.9152 313.105 47.4217 316.807 47.4292 320.663V320.714L50.6586 329.116L45.4855 334.278C45.4855 334.278 42.256 332.952 39.0266 327.78Z" fill="#93C9D5"/>
<path d="M75.8665 327.779C77.6636 325.766 79.0421 323.415 79.9216 320.864C80.801 318.313 81.1639 315.612 80.989 312.919C80.3512 303.87 79.0554 305.165 82.9327 300.641C86.8101 296.116 89.3916 295.468 88.7437 290.943C88.0958 286.418 86.8101 279.312 88.7437 275.435C90.6773 271.558 93.2689 270.263 93.2689 265.738C93.2689 261.213 90.6874 258.652 93.2689 254.107C95.8504 249.562 98.4421 250.23 98.4421 245.705C98.4421 241.18 97.1463 237.304 98.4421 233.427C99.7379 229.55 98.1991 231.807 98.1991 231.807C98.1991 231.807 95.8707 236.696 93.927 239.905C91.9832 243.114 91.3455 245.078 91.3455 247.659C91.3455 250.24 83.5908 253.469 82.9429 255.413C82.295 257.356 80.3614 259.29 81.6471 263.815C82.9327 268.339 82.9429 270.9 80.9991 273.512C79.0554 276.124 77.7697 275.445 77.7697 281.266C77.7697 287.086 81.6471 287.724 77.7697 291.601C73.8924 295.478 71.9588 296.126 72.5966 299.355C73.2343 302.584 74.5403 306.441 73.2445 308.405C72.77 309.071 72.2382 309.694 71.6551 310.267C68.9557 313.064 67.443 316.797 67.4335 320.683L64.2041 329.085L69.3671 334.248C69.3671 334.248 72.6269 332.952 75.8665 327.779Z" fill="#93C9D5"/>
<path d="M64.4672 329.399C65.642 327.562 66.4387 325.51 66.8107 323.361C67.1827 321.213 67.1225 319.012 66.6337 316.887C64.9228 309.802 64.0724 310.966 66.5628 306.856C69.0532 302.746 71.0273 301.896 69.9137 298.373C68.8001 294.851 66.8766 289.364 67.889 286.024C68.9014 282.683 70.8046 281.317 70.2174 277.713C69.6303 274.109 67.1804 272.388 68.6888 268.451C70.1972 264.513 72.2928 264.685 71.7258 261.082C71.1589 257.478 69.5898 254.563 70.1162 251.303C70.6426 248.044 69.4987 248.894 69.4987 248.894C68.9757 251.656 68.2619 254.379 67.3626 257.043C66.2389 259.877 65.9858 261.507 66.3502 263.562C66.7147 265.616 60.9442 269.21 60.681 270.84C60.4178 272.469 59.1321 274.271 60.762 277.703C62.3919 281.134 62.726 283.189 61.5213 285.497C60.3166 287.805 59.203 287.471 59.9622 292.097C60.7215 296.723 63.9003 296.733 61.3289 300.337C58.7575 303.941 57.2795 304.7 58.2311 307.19C59.1827 309.68 60.7114 312.595 59.9319 314.276C58.803 316.184 57.5089 317.989 56.0647 319.671L56.915 324.813L55.4471 331.899L60.2457 335.341C60.2457 335.341 62.5741 333.944 64.4672 329.399Z" fill="#93C9D5"/>
<path d="M83.4286 324.135L81.9 362.035H77.6987V391.258H35.048V362.035H31.1099L29.5914 324.135H83.4286Z" fill="#4B90A9"/>
<path d="M29.8648 331.069L30.0875 336.566H82.9327L83.1453 331.069H29.8648Z" fill="white"/>
<path d="M82.5276 346.547L82.6694 343.044H30.3507L30.4823 346.547H82.5276Z" fill="white"/>
<path d="M35.4161 362.035H29.227V432.468H35.0379V391.259" fill="#93C9D5"/>
<path d="M77.7185 362.035H83.5097V432.468H77.6987V391.259" fill="#93C9D5"/>
<path d="M126.221 288.271C126.221 288.271 114.761 222.981 114.761 208.303C114.761 193.625 129.845 170.343 164.832 161.233C199.82 152.122 244.465 158.196 257.737 164.776C271.009 171.355 278.844 185.527 281.861 208.809C284.878 232.091 290.912 325.725 290.912 325.725L131.657 328.256L126.221 288.271Z" fill="#FFD600"/>
<path d="M315.856 414.146C312.445 417.852 308.378 420.896 303.86 423.124C296.773 426.495 293.382 430.21 293.736 432.852C294.09 435.494 298.231 435.838 305.328 436.213C312.424 436.587 337.49 435.464 341.601 435.464C345.711 435.464 349.082 434.34 349.082 430.979C349.082 427.619 348.333 419.014 348.333 419.014L315.856 414.146Z" fill="white" stroke="#263238" stroke-width="0.987654" stroke-linecap="round" stroke-linejoin="round"/>
<path d="M330.778 432.468C317.557 432.468 299.79 431.709 293.898 431.456C293.749 431.909 293.7 432.389 293.756 432.863C294.131 435.474 298.251 435.849 305.348 436.223C312.445 436.598 337.511 435.474 341.621 435.474C345.336 435.474 348.434 434.553 349.001 431.911C345.032 432.174 338.979 432.468 330.778 432.468Z" fill="white" stroke="#263238" stroke-width="0.987654" stroke-linecap="round" stroke-linejoin="round"/>
<path d="M351.349 250.028C351.349 250.028 337.511 306.856 337.511 311.351C337.511 315.845 350.6 336.394 350.975 352.479C351.349 368.564 345.366 399.964 346.49 403.325C347.614 406.685 349.477 408.943 349.102 411.929C348.727 414.915 347.604 422.77 347.604 422.77C347.604 422.77 342.37 423.145 331.527 420.908C325.361 419.687 319.343 417.807 313.578 415.3C313.578 415.3 312.819 407.414 312.819 405.916C312.819 404.418 314.317 400.683 314.692 397.686C315.067 394.69 313.568 365.537 310.582 350.201C307.595 334.865 301.977 315.055 301.977 304.589C301.977 294.122 301.602 257.104 301.602 257.104C308.832 252.121 316.461 247.743 324.411 244.015C337.875 237.658 347.229 240.978 347.229 240.978L351.349 250.028Z" fill="#92E3A9" stroke="#263238" stroke-width="0.987654" stroke-linecap="round" stroke-linejoin="round"/>
<path d="M329.401 242.021C327.701 242.593 326.038 243.269 324.421 244.046C317.616 247.26 311.035 250.925 304.72 255.019L307.17 260.293C307.17 260.293 333.643 268.786 346.713 267.156L347.27 267.065C349.578 257.398 351.38 249.998 351.38 249.998L348.829 244.441C347.768 243.783 346.614 243.288 345.407 242.973C343.888 242.811 336.69 242.396 329.401 242.021Z" fill="#263238" stroke="#263238" stroke-width="0.987654" stroke-linecap="round" stroke-linejoin="round"/>
<path d="M356.948 414.146C353.548 417.852 349.491 420.896 344.982 423.124C337.895 426.495 334.514 430.21 334.858 432.852C335.202 435.494 339.343 435.838 346.45 436.213C353.556 436.587 378.612 435.464 382.722 435.464C386.833 435.464 390.204 434.34 390.204 430.979C390.204 427.619 389.455 419.014 389.455 419.014L356.948 414.146Z" fill="white" stroke="#263238" stroke-width="0.987654" stroke-linecap="round" stroke-linejoin="round"/>
<path d="M371.91 432.468C358.689 432.468 340.922 431.709 335.02 431.456C334.878 431.91 334.834 432.39 334.888 432.863C335.263 435.474 339.373 435.849 346.48 436.223C353.587 436.598 378.643 435.474 382.753 435.474C386.468 435.474 389.556 434.553 390.133 431.911C386.164 432.174 380.111 432.468 371.91 432.468Z" fill="white" stroke="#263238" stroke-width="0.987654" stroke-linecap="round" stroke-linejoin="round"/>
<path d="M392.482 250.028C392.482 250.028 378.622 306.826 378.622 311.32C378.622 315.815 391.712 336.364 392.087 352.448C392.461 368.533 386.478 399.934 387.592 403.294C388.705 406.655 390.629 408.912 390.214 411.898C389.799 414.885 388.746 422.74 388.746 422.74C388.746 422.74 383.512 423.114 372.67 420.877C366.503 419.657 360.485 417.777 354.721 415.269C354.721 415.269 353.971 407.414 353.971 405.916C353.971 404.418 355.47 400.683 355.844 397.686C356.219 394.69 354.721 365.537 351.724 350.201C348.727 334.865 343.129 315.055 343.129 304.589C343.129 294.122 342.754 257.104 342.754 257.104C349.984 252.121 357.613 247.743 365.563 244.015C379.027 237.658 388.371 240.978 388.371 240.978L392.482 250.028Z" fill="#6FB6C8"/>
<path d="M380.111 240.179C375.053 240.486 370.106 241.79 365.553 244.015C357.603 247.746 349.974 252.128 342.745 257.114C342.745 257.114 342.745 261.375 342.846 267.419C345.225 267.915 351.785 268.897 364.328 268.147C378.157 267.317 386.813 264.615 389.151 263.805L389.88 260.768L390.143 247.862C390.143 247.862 383.927 242.76 380.111 240.179Z" fill="#263238" stroke="#263238" stroke-width="0.987654" stroke-linecap="round" stroke-linejoin="round"/>
<path d="M312.009 132.889C312.009 132.889 302.898 135.673 300.62 137.191C298.342 138.71 294.799 150.604 293.787 153.387C292.774 156.171 287.46 170.596 287.46 170.596L296.065 172.367C296.065 172.367 295.812 180.972 297.077 184.514C298.342 188.057 307.454 198.686 307.454 198.686L310.794 207.513L307.251 256.608C307.251 256.608 320.159 263.44 341.924 265.465C363.69 267.489 378.623 265.465 380.394 264.453C381.444 263.85 382.545 263.342 383.684 262.934L385.203 255.848L387.481 262.428C390.324 262.163 393.127 261.568 395.833 260.657C398.87 259.391 403.425 256.861 403.425 256.861C403.425 256.861 394.061 221.432 390.012 211.815C385.962 202.199 379.078 187.268 379.078 187.268C379.078 187.268 376.041 152.598 369.967 140.957C363.893 129.316 352.504 126.309 344.405 125.52C336.306 124.73 312.009 132.889 312.009 132.889Z" fill="#6FB6C8"/>
<path d="M309.499 134.134C307.813 139.921 306.887 145.903 306.745 151.93L309.499 134.134Z" fill="white"/>
<path d="M309.499 134.134C307.813 139.921 306.887 145.903 306.745 151.93" stroke="#263238" stroke-width="1.97531" stroke-linecap="round" stroke-linejoin="round"/>
<path d="M307.94 190.093C307.829 190.09 307.72 190.07 307.616 190.032C307.072 189.841 306.546 189.6 306.046 189.313C305.591 189.607 305.216 189.829 305.034 189.951C304.803 190.084 304.529 190.12 304.271 190.052C304.013 189.984 303.792 189.816 303.657 189.587C303.52 189.356 303.481 189.08 303.547 188.82C303.614 188.56 303.781 188.337 304.012 188.2L304.295 188.038C303.35 187.234 302.648 186.182 302.27 185.001C301.258 181.772 300.61 154.532 302.382 151.708C302.856 150.938 303.563 150.338 304.399 149.995C305.236 149.651 306.16 149.581 307.039 149.795C308.051 150.078 310.572 151.222 310.805 155.939C311.098 161.749 311.452 181.519 311.108 183.908C310.906 185.305 309.387 186.803 307.889 187.957L308.243 188.099C308.473 188.174 308.668 188.329 308.793 188.535C308.918 188.742 308.965 188.986 308.926 189.224C308.887 189.462 308.764 189.679 308.58 189.834C308.395 189.99 308.161 190.074 307.919 190.072L307.94 190.093ZM306.036 151.698C305.65 151.699 305.27 151.8 304.934 151.989C304.597 152.179 304.315 152.451 304.113 152.781C302.837 154.967 303.303 181.337 304.224 184.414C304.554 185.399 305.184 186.255 306.026 186.864C307.646 185.679 309.013 184.373 309.124 183.624C309.428 181.509 309.124 162.286 308.8 156.04C308.679 153.661 307.859 152.103 306.553 151.758C306.383 151.718 306.21 151.698 306.036 151.698Z" fill="white" stroke="#263238" stroke-width="0.987654" stroke-linecap="round" stroke-linejoin="round"/>
<path d="M304.275 188.037L306.046 189.313C305.318 189.914 304.493 190.386 303.606 190.709C302.695 190.902 301.916 190.082 304.275 188.037Z" fill="#263238" stroke="#263238" stroke-width="0.987654" stroke-linecap="round" stroke-linejoin="round"/>
<path d="M307.909 187.977L306.046 189.293C306.046 189.293 307.95 191.823 310.025 190.882C312.1 189.94 307.909 187.977 307.909 187.977Z" fill="#263238" stroke="#263238" stroke-width="0.987654" stroke-linecap="round" stroke-linejoin="round"/>
<path d="M334.787 125.399C334.787 125.399 330.738 145.644 330.738 161.607" stroke="#263238" stroke-width="1.97531" stroke-linecap="round" stroke-linejoin="round"/>
<path d="M335.415 165.353C335.415 169.321 333.107 172.53 330.262 172.53C327.417 172.53 325.109 169.321 325.109 165.353C325.109 161.385 327.417 158.176 330.262 158.176C333.107 158.176 335.415 161.385 335.415 165.353Z" fill="white" stroke="#263238" stroke-width="0.987654" stroke-linecap="round" stroke-linejoin="round"/>
<path d="M331.669 164.411C331.669 166.942 330.201 168.987 328.389 168.987C326.577 168.987 325.109 166.962 325.109 164.411C325.109 161.86 326.577 159.846 328.389 159.846C330.201 159.846 331.669 161.891 331.669 164.411Z" fill="white" stroke="#263238" stroke-width="0.987654" stroke-linecap="round" stroke-linejoin="round"/>
<path d="M381.69 152.122L374.006 159.714L369.704 151.869L381.69 152.122Z" fill="#263238" stroke="#263238" stroke-width="0.987654" stroke-linecap="round" stroke-linejoin="round"/>
<path d="M348.252 158.53L351.289 185.243C351.289 185.243 307.423 193.676 302.696 193.341C297.043 192.716 291.326 193.647 286.164 196.034C279.411 199.071 276.04 200.761 276.374 202.452C276.708 204.142 279.745 209.538 279.745 209.538C279.745 209.538 285.485 209.872 285.82 208.859C286.042 208.093 286.157 207.299 286.164 206.501C286.164 206.501 292.238 206.835 294.931 205.489C296.659 204.591 298.251 203.453 299.658 202.108C299.658 202.108 335.091 204.81 348.586 205.144C362.081 205.478 377.61 204.476 379.301 202.108C380.991 199.739 373.227 151.495 373.227 151.495L348.252 158.53Z" fill="#FFC497"/>
<path d="M302.726 193.291L303.515 202.26L307.524 202.898L306.674 192.765L302.726 193.291Z" fill="white" stroke="#263238" stroke-width="0.987654" stroke-linecap="round" stroke-linejoin="round"/>
<path d="M308.152 192.573C308.203 193.504 306.836 194.344 305.115 194.446C303.394 194.547 301.906 193.889 301.845 192.958C301.784 192.026 303.161 191.186 304.882 191.075C306.603 190.963 308.091 191.642 308.152 192.573Z" fill="white" stroke="#263238" stroke-width="0.987654" stroke-linecap="round" stroke-linejoin="round"/>
<path d="M286.194 206.451L282.61 205.428" stroke="#263238" stroke-width="0.987654" stroke-linecap="round" stroke-linejoin="round"/>
<path d="M345.579 143.346L347.27 162.579L381.69 152.122C381.69 152.122 370.22 132.211 363.801 127.15C357.383 122.089 344.232 126.482 342.542 127.828" fill="#6FB6C8"/>
<path d="M279.867 79.4927C279.867 79.4927 267.465 91.1337 272.527 96.7011C277.589 102.269 284.676 105.811 285.688 112.138C286.7 118.465 288.725 122.261 285.941 127.828C283.157 133.396 281.132 134.631 281.132 134.631C281.132 134.631 293.027 140.704 300.62 140.198C308.213 139.692 319.096 131.088 319.096 131.088C319.096 131.088 336.812 130.835 344.658 124.002C352.504 117.169 352.25 105.528 348.96 97.43C345.67 89.3319 334.281 79.7154 328.713 73.6418C323.145 67.5683 312.262 63.5192 300.873 64.7846C289.484 66.0499 279.867 79.4927 279.867 79.4927Z" fill="#064058"/>
<path d="M308.466 133.618C308.466 133.618 310.744 139.439 312.262 144.753C313.781 150.067 317.83 163.48 317.83 162.721C317.83 161.962 325.929 141.716 327.954 135.896C329.162 132.464 329.927 128.892 330.232 125.267L323.398 109.324C321.255 114.118 318.155 118.424 314.287 121.977C308.213 127.292 306.694 129.822 306.694 129.822L308.466 133.618Z" fill="#FFC497"/>
<path d="M281.436 99.7383C281.436 99.7383 285.992 111.126 286.751 114.416C287.51 117.706 290.294 124.033 294.597 127.829C298.899 131.625 301.683 136.655 308.466 135.643C315.249 134.631 323.651 122.484 325.17 118.688C326.688 114.892 323.145 104.516 323.145 103.251C323.125 102.866 322.995 102.494 322.771 102.181C322.547 101.867 322.238 101.624 321.88 101.479C321.88 101.479 309.731 106.288 301.379 102.745C295.8 100.249 290.534 97.1064 285.688 93.3813L281.436 99.7383Z" fill="#FFC497"/>
<path d="M316.059 105.811C316.059 105.811 319.349 97.2068 324.158 98.219C328.966 99.2313 328.46 107.582 325.929 110.619C323.398 113.656 321.374 112.138 321.374 112.138" fill="#FFC497"/>
<path d="M295.305 108.089C295.629 109.672 295.799 111.282 295.812 112.897C295.812 115.428 294.546 119.477 296.824 120.489C299.102 121.502 302.392 120.489 303.151 119.224" stroke="#263238" stroke-width="0.987654" stroke-linecap="round" stroke-linejoin="round"/>
<path d="M299.658 124.285C299.658 124.285 306.492 125.803 310.288 117.958" stroke="#263238" stroke-width="0.987654" stroke-linecap="round" stroke-linejoin="round"/>
<path d="M302.695 109.861C303.96 110.339 305.35 110.374 306.637 109.961C307.924 109.547 309.033 108.709 309.782 107.583" stroke="#263238" stroke-width="0.987654" stroke-linecap="round" stroke-linejoin="round"/>
<path d="M288.978 111.632C288.978 111.632 292.268 113.15 294.293 110.873" stroke="#263238" stroke-width="0.987654" stroke-linecap="round" stroke-linejoin="round"/>
<path d="M294.04 106.823C294.04 106.823 290.75 104.546 287.966 107.33" stroke="#263238" stroke-width="0.987654" stroke-linecap="round" stroke-linejoin="round"/>
<path d="M298.646 104.263C298.646 104.263 300.164 101.732 304.973 102.238" stroke="#263238" stroke-width="0.987654" stroke-linecap="round" stroke-linejoin="round"/>
<path d="M250.539 170.465C250.539 170.465 259.65 172.489 262.687 184.292C265.724 196.095 280.545 243.742 280.545 243.742C280.545 243.742 296.226 252.701 300.944 253.369C305.662 254.037 309.721 254.381 310.055 259.443C310.389 264.504 309.043 272.602 306.35 273.958C303.657 275.315 293.523 275.305 286.103 274.971C278.682 274.637 273.954 272.946 269.905 270.243C265.856 267.541 261.462 240.888 256.744 228.062C252.027 215.237 242.44 188.686 243.452 181.934C244.464 175.182 247.167 170.465 250.539 170.465Z" fill="#064058" stroke="#263238" stroke-width="0.987654" stroke-linecap="round" stroke-linejoin="round"/>
<path d="M286.214 281.206L279.705 280.71C277.089 280.513 274.46 280.863 271.986 281.737C269.512 282.611 267.248 283.99 265.336 285.786C263.424 287.583 261.907 289.758 260.881 292.172C259.855 294.587 259.343 297.188 259.377 299.811L260.592 431.284C260.6 432.287 261.004 433.246 261.718 433.952C262.431 434.658 263.395 435.052 264.398 435.049H323.955L339.242 280.71L286.214 281.206Z" fill="#333333" stroke="#263238" stroke-width="0.987654" stroke-linecap="round" stroke-linejoin="round"/>
<path d="M323.955 435.049C322.953 435.049 321.992 434.654 321.281 433.948C320.57 433.243 320.167 432.285 320.159 431.284L318.893 299.811C318.858 297.189 319.368 294.587 320.393 292.173C321.418 289.758 322.934 287.584 324.845 285.787C326.756 283.99 329.021 282.611 331.494 281.737C333.967 280.863 336.595 280.513 339.211 280.71L345.731 281.206C348.298 281.397 350.799 282.111 353.08 283.303C355.362 284.495 357.375 286.14 358.998 288.138C360.621 290.136 361.819 292.445 362.517 294.922C363.216 297.399 363.402 299.993 363.062 302.545L345.852 431.749C345.732 432.663 345.283 433.501 344.591 434.108C343.898 434.715 343.008 435.05 342.086 435.049H323.955Z" fill="#FFD600"/>
<path d="M186.132 310.541H300.529C303.751 310.541 306.841 311.821 309.119 314.099C311.397 316.377 312.677 319.466 312.677 322.688V435.049H186.132V310.541Z" fill="#FFD600"/>
<path d="M264.226 262.175L269.622 267.905C281.22 268.465 292.641 270.976 303.404 275.335C320.27 282.421 341.874 290.853 343.22 300.641C344.567 310.43 326.688 365.426 323.651 378.919C320.614 392.413 320.27 397.14 320.27 397.14C320.27 397.14 323.307 399.843 322.639 402.201C321.971 404.56 318.245 416.039 318.245 416.039C312.92 417.27 307.503 418.059 302.048 418.398C296.496 418.497 290.948 418.047 285.485 417.051C285.485 417.051 284.473 405.572 285.485 402.88C286.498 400.187 290.213 397.14 290.547 395.116C290.881 393.091 292.238 361.033 292.238 348.552C292.238 336.07 299.324 316.159 299.324 316.159C299.324 316.159 265.947 314.813 256.127 313.801C246.307 312.788 222.719 290.175 222.041 279.04C221.363 267.905 248.028 255.707 264.226 262.175Z" fill="#263238" stroke="#263238" stroke-width="0.987654" stroke-linecap="round" stroke-linejoin="round"/>
<path d="M318.59 411.99C318.59 411.99 315.553 406.251 311.837 408.953C308.122 411.656 307.454 415.361 305.429 415.361C303.404 415.361 285.485 411.99 285.485 411.99C285.485 411.99 280.758 430.545 282.448 432.569C284.139 434.594 299.659 436.284 306.441 437.297C313.224 438.309 328.035 442.014 337.824 442.014C347.614 442.014 345.923 434.928 343.554 432.569C341.185 430.211 324.32 421.1 321.93 418.064C320.515 416.221 319.388 414.172 318.59 411.99Z" fill="white" stroke="#263238" stroke-width="0.987654" stroke-linecap="round" stroke-linejoin="round"/>
<path d="M345.336 437.64C341.303 438.499 337.19 438.929 333.066 438.926C324.289 438.926 317.203 435.555 306.067 433.531C297.31 431.941 286.457 429.299 282.236 428.247C282.003 430.372 282.013 432.002 282.448 432.518C284.139 434.543 299.658 436.233 306.411 437.246C313.163 438.258 328.004 441.963 337.794 441.963C343.089 441.963 345.032 439.908 345.336 437.64Z" fill="white" stroke="#263238" stroke-width="0.987654" stroke-linecap="round" stroke-linejoin="round"/>
<path d="M194.738 167.64C194.738 167.64 174.49 175.404 167.07 180.466C159.649 185.527 164.367 204.76 164.367 215.561C164.367 226.361 162.342 255.373 162.008 261.112C161.674 266.852 169.095 274.606 174.156 277.643C179.218 280.679 222.415 282.42 233.855 282.42C245.295 282.42 269.966 274.99 267.941 253.065C265.917 231.139 258.83 214.255 257.818 210.55C256.805 206.845 256.461 194.688 256.805 191.317C257.15 187.946 259.842 177.813 254.781 173.096C249.719 168.379 228.459 162.974 218.67 163.308C208.88 163.642 194.738 167.64 194.738 167.64Z" fill="#064058"/>
<path d="M197.41 189.88C197.899 191.264 198.614 192.557 199.526 193.706C202.385 197.252 205.444 200.631 208.688 203.829C216.048 211.188 227.619 216.097 227.619 216.097C227.619 216.097 231.486 195.761 232.185 186.641C232.883 177.52 227.973 170.161 219.905 167.408C211.836 164.654 197.117 167.762 195.011 173.37C193.361 177.561 196.013 186.013 197.41 189.88Z" fill="white" stroke="#263238" stroke-width="0.987654" stroke-linecap="round" stroke-linejoin="round"/>
<path d="M198.493 161.395C197.806 161.434 197.135 161.613 196.519 161.921C195 162.691 193.828 164.007 193.239 165.606C191.478 169.817 190.081 174.372 190.081 174.372C191.089 179.613 192.494 184.77 194.282 189.799C196.029 194.576 197.323 199.507 198.149 204.527C198.149 204.527 210.773 195.062 213.223 192.957C215.533 191.213 218 189.688 220.593 188.402C220.593 188.402 229.006 192.603 232.863 195.062C236.72 197.522 239.879 199.618 239.879 199.618C239.439 192.674 238.021 185.828 235.667 179.281C231.81 168.764 230.059 165.606 227.953 163.5C225.847 161.395 209.72 155.432 198.493 161.395Z" fill="white" stroke="#263238" stroke-width="0.987654" stroke-linecap="round" stroke-linejoin="round"/>
<path d="M227.487 111.146C227.487 111.146 229.978 107.957 231.415 110.468C232.21 111.893 233.172 113.218 234.28 114.416C234.28 114.416 237.155 115.853 237.52 118.364C237.766 119.907 237.885 121.467 237.874 123.03C237.874 124.113 241.103 124.832 241.103 126.624C241.103 128.415 239.312 129.134 238.947 130.936C238.583 132.738 240.142 134.317 238.593 136.675C237.044 139.034 238.735 138.163 237.044 139.034C235.353 139.904 233.572 140.988 233.572 140.988L225.311 113.657L227.487 111.146Z" fill="white"/>
<path d="M200.386 98.7965C200.386 98.7965 190.83 101.58 186.841 109.557C182.852 117.533 182.458 123.496 184.452 130.268C186.446 137.04 194.009 156.171 196.408 161.749C198.807 167.326 199.587 177.682 204.375 184.019C209.164 190.355 220.694 196.014 220.694 196.014C220.694 196.014 229.461 184.059 231.061 178.077C232.66 172.094 229.461 160.15 229.461 160.15C229.461 160.15 238.228 149.399 237.034 139.034C235.839 128.668 229.461 115.134 227.477 111.146C225.493 107.158 218.315 94.8082 200.386 98.7965Z" fill="#F3D0B5"/>
<path d="M207.26 114.76C207.26 114.76 214.276 111.258 218.832 112.301" stroke="#263238" stroke-width="0.987654" stroke-linecap="round" stroke-linejoin="round"/>
<path d="M204.497 113.373C204.497 113.373 210.814 110.225 215.369 110.225" stroke="#263238" stroke-width="0.987654" stroke-linecap="round" stroke-linejoin="round"/>
<path d="M186.537 139.55C186.537 139.55 186.861 139.358 187.317 139.024C188.542 138.123 190.749 136.149 190.486 133.8C190.121 130.571 190.485 128.739 188.694 126.269C186.902 123.799 184.027 118.363 184.027 118.363C181.901 118.195 179.777 118.698 177.952 119.801C175.432 121.603 176.15 123.03 175.432 125.55C174.713 128.071 172.921 126.269 171.848 129.853C170.775 133.436 172.202 135.602 173.64 136.321C175.077 137.04 174.004 139.186 174.004 142.394C174.057 143.554 174.517 144.658 175.305 145.512C176.092 146.366 177.155 146.914 178.307 147.061C179.39 147.061 179.744 148.498 181.182 149.936C182.619 151.373 187.256 149.774 187.256 149.774C187.256 149.774 189.433 148.498 189.787 147.061C190.141 145.624 186.537 139.55 186.537 139.55Z" fill="white"/>
<path d="M189.625 139.034C189.625 139.034 184.847 132.656 181.658 136.25C178.469 139.843 184.047 148.599 187.287 149.814C190.526 151.029 194.464 147.79 194.464 147.79" fill="#F3D0B5"/>
<path d="M218.72 119.912C218.72 119.912 218.315 123.496 219.115 124.69C219.915 125.884 224.693 127.879 223.894 131.462C223.094 135.045 218.315 138.234 215.926 135.056" stroke="#263238" stroke-width="0.987654" stroke-linecap="round" stroke-linejoin="round"/>
<path d="M212.737 141.423C215.058 142.051 217.514 141.969 219.787 141.188C222.061 140.406 224.048 138.962 225.493 137.04" stroke="#263238" stroke-width="0.987654" stroke-linecap="round" stroke-linejoin="round"/>
<path d="M200.791 124.943C200.678 124.945 200.565 124.928 200.457 124.893C200.323 124.854 200.199 124.788 200.092 124.699C199.984 124.61 199.896 124.5 199.834 124.375C199.771 124.251 199.735 124.115 199.727 123.976C199.719 123.836 199.74 123.697 199.789 123.566C201.571 118.212 208.333 117.311 208.627 117.27C208.765 117.253 208.904 117.263 209.038 117.3C209.172 117.336 209.297 117.399 209.407 117.484C209.516 117.569 209.608 117.675 209.676 117.795C209.745 117.916 209.789 118.049 209.806 118.186C209.824 118.324 209.814 118.464 209.777 118.597C209.74 118.731 209.678 118.856 209.593 118.966C209.508 119.075 209.402 119.167 209.281 119.235C209.161 119.304 209.028 119.348 208.89 119.366C208.83 119.366 203.15 120.145 201.804 124.224C201.739 124.44 201.604 124.627 201.421 124.757C201.237 124.887 201.016 124.953 200.791 124.943Z" fill="#C7C7C7" stroke="#7D7D7D" stroke-width="0.987654" stroke-linecap="round" stroke-linejoin="round"/>
<path d="M226.688 118.313C226.408 118.313 226.139 118.204 225.938 118.009C225.165 117.254 224.18 116.753 223.115 116.572C222.05 116.391 220.955 116.539 219.976 116.997C219.852 117.058 219.717 117.094 219.58 117.103C219.442 117.112 219.304 117.094 219.173 117.05C219.043 117.006 218.922 116.937 218.818 116.846C218.714 116.755 218.63 116.645 218.568 116.521C218.507 116.397 218.471 116.263 218.462 116.125C218.453 115.988 218.471 115.85 218.515 115.719C218.559 115.588 218.629 115.468 218.719 115.364C218.81 115.26 218.921 115.175 219.044 115.114C220.414 114.455 221.955 114.234 223.455 114.482C224.955 114.731 226.342 115.435 227.427 116.501C227.595 116.638 227.715 116.826 227.768 117.037C227.821 117.248 227.805 117.47 227.722 117.671C227.64 117.872 227.494 118.041 227.308 118.153C227.121 118.265 226.904 118.314 226.688 118.292V118.313Z" fill="#C7C7C7" stroke="#7D7D7D" stroke-width="0.987654" stroke-linecap="round" stroke-linejoin="round"/>
<path d="M211.948 129.478C211.711 130.946 211.161 132.347 210.335 133.583C209.508 134.82 208.425 135.864 207.159 136.645" stroke="#263238" stroke-width="0.987654" stroke-linecap="round" stroke-linejoin="round"/>
<path d="M224.298 127.484C226.427 128.979 228.886 129.934 231.466 130.267" stroke="#263238" stroke-width="0.987654" stroke-linecap="round" stroke-linejoin="round"/>
<path d="M209.305 128.172C209.66 129.447 209.366 130.632 208.647 130.834C207.929 131.037 207.078 130.156 206.724 128.891C206.37 127.625 206.663 126.441 207.372 126.238C208.08 126.036 208.951 126.907 209.305 128.172Z" fill="#263238"/>
<path d="M225.169 123.668C225.523 124.934 225.23 126.128 224.521 126.32C223.813 126.513 222.942 125.652 222.588 124.387C222.233 123.122 222.537 121.927 223.246 121.735C223.954 121.543 224.825 122.403 225.169 123.668Z" fill="#263238"/>
<path d="M209.467 125.186L204.365 128.587" stroke="#263238" stroke-width="0.987654" stroke-linecap="round" stroke-linejoin="round"/>
<path d="M221.606 122.271L227.194 122.028" stroke="#263238" stroke-width="0.987654" stroke-linecap="round" stroke-linejoin="round"/>
<path d="M329.401 265.445C329.401 265.445 336.893 268.816 338.27 269.788C339.647 270.76 343.433 276.661 343.747 278.503C344.06 280.346 343.676 281.105 342.532 280.447C341.388 279.789 338.108 275.851 335.577 273.189C333.046 270.527 329.817 268.826 329.027 267.237C328.237 265.648 328.146 265.152 329.401 265.445Z" fill="#F3D0B5" stroke="#263238" stroke-width="0.987654" stroke-linecap="round" stroke-linejoin="round"/>
<path d="M306.957 257.438C306.957 257.438 319.298 261.487 323.631 262.773C326.875 263.773 329.858 265.477 332.368 267.763C333.603 268.917 340.416 276.641 341.145 278.898C341.874 281.155 342.916 287.148 341.651 287.715C340.386 288.282 339.09 286.784 338.523 285.508C337.872 284.312 337.106 283.183 336.235 282.137C336.235 282.137 337.764 287.016 337.5 289.456C337.237 291.896 336.488 293.404 334.463 293.748C332.439 294.092 330.171 290.711 328.602 287.573C327.65 285.686 326.426 283.95 324.967 282.421L320.128 280.174C320.959 282.606 322.052 284.942 323.388 287.138C325.241 289.901 327.438 290.559 326.638 292.058C325.838 293.556 322.153 293.859 320.422 291.764C318.691 289.669 315.907 287.411 314.348 284.587C312.789 281.763 309.124 274.191 309.124 274.191L299.243 272.48C299.243 272.48 293.463 270.739 293.088 264.635C292.714 258.531 304.285 255.839 306.957 257.438Z" fill="#F3D0B5"/>
<path d="M327.154 277.228C327.154 277.228 331.578 282.968 333.036 285.458C334.494 287.948 334.473 293.768 334.473 293.768" stroke="#263238" stroke-width="0.987654" stroke-linecap="round" stroke-linejoin="round"/>
<path d="M336.235 282.157L332.297 273.259" stroke="#263238" stroke-width="0.987654" stroke-linecap="round" stroke-linejoin="round"/>
<path d="M207.23 278.372C207.23 278.372 229.836 275.669 241.306 279.718C252.776 283.767 263.922 297.939 263.922 309.752C263.922 321.565 261.553 386.339 262.232 388.03C262.91 389.72 266.615 390.054 266.615 393.425C266.615 396.796 263.922 414.349 263.922 414.349C263.922 414.349 248.028 420.088 242.663 420.088H237.257C237.257 420.088 229.502 399.499 229.836 396.128C230.17 392.757 232.195 390.054 232.195 388.364C232.195 386.674 222.415 351.255 222.415 340.788V317.506L203.515 313.457C203.515 313.457 195.082 289.507 207.23 278.372Z" fill="#263238" stroke="#263238" stroke-width="0.987654" stroke-linecap="round" stroke-linejoin="round"/>
<path d="M277.751 429.481C277.751 429.481 267.627 417.668 263.578 411.261C259.528 404.853 252.108 401.138 247.724 404.509C243.341 407.88 243.331 416.322 243.331 416.322L235.88 415.026C235.88 415.026 238.583 424.136 239.929 429.198C241.276 434.259 243.3 437.63 252.077 438.976C260.855 440.323 275.362 441.345 279.411 437.296C283.461 433.247 277.751 429.481 277.751 429.481Z" fill="white" stroke="#263238" stroke-width="0.987654" stroke-linecap="round" stroke-linejoin="round"/>
<path d="M279.411 437.296C280.061 436.764 280.522 436.036 280.725 435.221C280.927 434.405 280.861 433.546 280.535 432.772C278.65 433.846 276.695 434.793 274.684 435.606C267.263 438.643 257.139 437.964 248.707 435.272C245.591 434.372 242.726 432.764 240.334 430.575C241.721 434.867 244.121 437.762 252.078 438.977C260.885 440.333 275.362 441.345 279.411 437.296Z" fill="white" stroke="#263238" stroke-width="0.987654" stroke-linecap="round" stroke-linejoin="round"/>
<path d="M291.003 259.392C291.003 259.392 290.345 267.399 290.122 269.848C289.899 272.298 291.226 275.183 292.147 275.629C293.068 276.074 293.483 275.183 293.483 273.179V269.848C293.453 269.18 291.003 259.392 291.003 259.392Z" fill="#F3D0B5" stroke="#263238" stroke-width="0.987654" stroke-linecap="round" stroke-linejoin="round"/>
<path d="M304.315 242.942C304.315 239.47 308.942 232.131 308.942 232.131L310.794 207.513L309.58 202.755L304.174 202.361C302.037 209.527 294.536 234.753 293.544 238.68C292.391 244.018 291.616 249.43 291.225 254.877C291.225 256.81 291.225 265.698 291.995 269.17C292.764 272.642 298.18 276.124 298.18 276.124C298.18 276.124 305.469 276.124 306.623 275.345C307.778 274.565 304.842 272.004 304.842 272.004C304.417 272.004 303.131 262.479 305.905 259.513C308.112 257.154 314.409 259.897 314.409 259.897C314.409 259.897 312.86 255.646 310.926 251.799C308.992 247.953 304.315 246.445 304.315 242.942Z" fill="#FFC497"/>
<path d="M305.459 276.074C305.459 276.074 299.679 272.956 299.011 271.63C298.342 270.304 298.12 260.06 298.12 260.06" stroke="#263238" stroke-width="0.987654" stroke-linecap="round" stroke-linejoin="round"/>
<path d="M299.456 276.074C299.456 276.074 294.789 271.185 294.789 269.403C294.789 267.622 293.675 260.06 293.675 260.06" stroke="#263238" stroke-width="0.987654" stroke-linecap="round" stroke-linejoin="round"/>
<path d="M188.886 281.206L150.305 280.75C149.311 280.674 148.313 280.674 147.319 280.75L140.799 281.246C138.239 281.443 135.747 282.159 133.473 283.351C131.199 284.543 129.192 286.186 127.574 288.178C125.956 290.171 124.761 292.473 124.062 294.943C123.363 297.413 123.175 299.999 123.508 302.544L140.718 431.749C140.838 432.663 141.287 433.501 141.98 434.108C142.673 434.715 143.563 435.05 144.484 435.049H192.571L188.886 281.206Z" fill="#FFD600"/>
<path d="M210.712 435.049C211.715 435.049 212.677 434.654 213.39 433.949C214.102 433.244 214.508 432.286 214.519 431.283L215.724 299.811C215.759 297.186 215.248 294.583 214.222 292.167C213.196 289.751 211.678 287.575 209.765 285.778C207.851 283.981 205.584 282.603 203.109 281.73C200.633 280.857 198.003 280.51 195.385 280.71L188.866 281.206C186.3 281.398 183.8 282.113 181.519 283.305C179.239 284.498 177.227 286.144 175.605 288.141C173.983 290.139 172.786 292.447 172.088 294.924C171.39 297.4 171.205 299.993 171.544 302.544L188.754 431.749C188.875 432.662 189.323 433.501 190.016 434.108C190.709 434.715 191.599 435.05 192.52 435.049H210.712Z" fill="#FFD600"/>
<path d="M178.766 289.876C176.132 291.029 171.654 296.593 174.815 309.63C178.766 325.926 185.679 415.309 189.136 425.185" stroke="#DEC333" stroke-width="0.987654"/>
<path d="M176.515 176.75C176.515 176.75 162.342 177.145 156.916 185.243C151.489 193.341 147.126 221.007 146.114 228.092C145.102 235.178 140.718 260.151 142.439 264.817C144.16 269.484 148.513 270.223 156.612 270.557C164.711 270.891 168.416 266.508 170.107 261.446C171.797 256.385 176.181 209.143 176.181 209.143" fill="#064058"/>
<path d="M157.28 248.004C159.305 248.672 177.527 253.065 178.884 256.77C179.313 257.717 179.446 258.772 179.265 259.796C179.085 260.82 178.599 261.766 177.872 262.509C177.872 262.509 171.797 277.015 166.391 278.371C160.985 279.728 148.817 275.952 142.743 273.31C136.669 270.668 142.743 250.028 143.421 249.016" fill="#064058"/>
<path d="M181.921 266.507C181.921 266.507 183.267 264.483 181.577 263.471C179.886 262.458 177.193 259.422 174.156 259.422C171.119 259.422 165.723 262.124 164.367 267.854C163.01 273.583 164.033 277.642 166.391 278.321C168.75 278.999 173.822 280.345 176.181 280.345C178.54 280.345 180.23 275.284 180.564 274.272C180.898 273.259 181.921 266.507 181.921 266.507Z" fill="#064058"/>
<path d="M203.849 268.532C203.849 268.532 209.589 275.618 212.292 276.964C214.995 278.31 217.354 280.001 215.329 282.025C213.304 284.05 208.576 283.038 206.552 280.345C204.527 277.652 203.849 268.532 203.849 268.532Z" fill="#F3D0B5" stroke="#263238" stroke-width="0.987654" stroke-linecap="round" stroke-linejoin="round"/>
<path d="M184.249 266.508C184.249 266.508 200.143 264.2 202.472 264.2C204.8 264.2 208.546 281.064 208.88 283.767C209.214 286.469 210.571 288.15 208.88 289.506C208.143 290.221 207.202 290.692 206.187 290.853C205.261 291.648 204.241 292.328 203.15 292.877C202.138 293.211 198.422 292.543 198.422 292.543C198.422 292.543 198.088 293.889 195.385 293.555C192.682 293.221 183.571 281.742 183.571 281.742C183.571 281.742 176.829 280.052 174.126 277.693C171.423 275.335 172.435 271.286 174.126 268.583C175.817 265.88 179.522 265.212 179.522 265.212L184.249 266.508Z" fill="#F3D0B5"/>
<path d="M199.131 271.904L207.564 290.124" stroke="#263238" stroke-width="0.987654" stroke-linecap="round" stroke-linejoin="round"/>
<path d="M192.713 274.94L203.181 292.826" stroke="#263238" stroke-width="0.987654" stroke-linecap="round" stroke-linejoin="round"/>
<path d="M198.453 292.492L188.663 278.321" stroke="#263238" stroke-width="0.987654" stroke-linecap="round" stroke-linejoin="round"/>
<path d="M53.6304 100.294C53.9302 99.8795 54.2697 99.4954 54.6442 99.147C55.293 98.477 56.1952 97.5532 57.209 96.5483C58.2228 95.5433 59.1655 94.65 59.8448 94.0105C60.1934 93.6325 60.5808 93.2922 61.0005 92.9954C60.7042 93.4096 60.3644 93.7908 59.9867 94.1323C59.3379 94.8124 58.4255 95.7362 57.4118 96.7411C56.398 97.7461 55.4552 98.6496 54.7658 99.2789C54.4287 99.661 54.0476 100.002 53.6304 100.294Z" fill="#E0E0E0"/>
<path d="M78.6864 83.5776H23.4162V141.267H78.6864V83.5776Z" fill="#93C9D5"/>
<path d="M74.9457 83.5776H19.6754V141.267H74.9457V83.5776Z" fill="#D3EAF1"/>
<path d="M67.5149 91.3323H27.1064V133.51H67.5149V91.3323Z" fill="white"/>
<path d="M37.7711 108.955C37.7711 108.955 36.8993 119.401 48.1926 119.401C48.1926 113.828 43.6104 109.402 37.7711 108.955Z" fill="#D3EAF1"/>
<path d="M58.4314 108.967C58.4314 108.967 48.0099 108.104 48.0099 119.412C53.5754 119.412 57.965 114.814 58.4314 108.967Z" fill="#D3EAF1"/>
<path d="M47.6958 103.251C47.6958 103.251 39.1802 110.905 48.1621 119.401C52.3489 114.965 51.984 108.012 47.6958 103.251Z" fill="#D3EAF1"/>
</g>
<defs>
<clipPath id="clip0_14_613">
<rect width="480" height="442.469" fill="white"/>
</clipPath>
</defs>
</svg>
