<svg width="271" height="498" viewBox="0 0 271 498" fill="none" xmlns="http://www.w3.org/2000/svg">
<path d="M167.333 0.408071C99.5258 -7.48701 13.6725 100.021 58.0654 249.757C70.9507 293.19 97.1171 319.096 125.806 331.059C155.377 343.39 187.628 340.908 210.779 327.535C263.563 297.037 289.549 181.995 253.954 129.978C236.63 104.668 215.561 104.668 207.891 77.825C203.29 61.8092 211.455 5.50604 167.333 0.408071Z" fill="#F7FAFC"/>
<path d="M167.333 0.408071C99.5258 -7.48701 13.6725 100.021 58.0654 249.757C70.9507 293.19 97.1171 319.096 125.806 331.059C155.377 343.39 187.628 340.908 210.779 327.535C263.563 297.037 289.549 181.995 253.954 129.978C236.63 104.668 215.561 104.668 207.891 77.825C203.29 61.8092 211.455 5.50604 167.333 0.408071Z" fill="#F7FAFC"/>
<path d="M123.612 326.55C126.86 292.849 88.4671 258.472 88.4671 239.704C88.4671 220.936 119.641 160.843 100.738 127.053C90.0242 107.855 66.6992 111.407 50.3066 122C42.9763 173.809 60.8066 304 123.061 330.5C123.3 329.187 123.484 327.869 123.612 326.55Z" fill="url(#paint0_linear_102_205)"/>
<path d="M179.992 496.725C179.677 496.725 179.316 496.635 179 496.5C177.872 495.958 177.376 494.56 177.917 493.432C204.67 437.67 172.341 365.567 161.288 275.112C153.077 207.846 144.595 138.279 151.543 78.0957C151.678 76.8324 152.851 75.9302 154.069 76.0655C155.333 76.2008 156.235 77.3738 156.099 78.5919C149.197 138.234 157.678 207.53 165.844 274.525C176.942 365.657 209.362 438.437 182.023 495.372C181.662 496.229 180.85 496.725 179.992 496.725Z" fill="#C4DCEB"/>
<path d="M153.122 177.619C152.626 177.619 152.084 177.438 151.633 177.077L83.6 120.729C82.6075 119.917 82.4721 118.473 83.2842 117.481C84.0963 116.488 85.5399 116.353 86.5324 117.165L154.565 173.513C155.558 174.325 155.693 175.769 154.881 176.762C154.43 177.348 153.799 177.619 153.122 177.619Z" fill="#C4DCEB"/>
<path d="M161.874 253.592C161.198 253.592 160.566 253.321 160.07 252.735C159.258 251.742 159.393 250.299 160.386 249.487L242.675 182.356C243.668 181.544 245.111 181.679 245.923 182.672C246.735 183.664 246.6 185.108 245.607 185.92L163.363 253.051C162.912 253.457 162.416 253.592 161.874 253.592Z" fill="#C4DCEB"/>
<path d="M166.07 297.398C165.89 297.398 165.664 297.353 165.484 297.308L115.316 283.909C114.098 283.593 113.376 282.33 113.692 281.112C114.008 279.894 115.271 279.172 116.489 279.488L166.657 292.887C167.875 293.203 168.597 294.466 168.281 295.684C168.01 296.722 167.063 297.398 166.07 297.398Z" fill="#C4DCEB"/>
<path d="M219.576 206.537C218.403 206.537 217.365 205.635 217.275 204.417L212.764 148.655C212.673 147.392 213.621 146.264 214.884 146.174C216.147 146.084 217.275 147.031 217.365 148.294L221.877 204.056C221.967 205.319 221.02 206.447 219.756 206.537C219.711 206.492 219.621 206.537 219.576 206.537Z" fill="#C4DCEB"/>
<path d="M31.5378 139.407C-3.96751 180.641 18.5899 251.426 16.9207 277.503C15.2965 303.579 -11.9077 333.806 6.18333 360.785C24.2743 387.763 52.877 395.117 61.0428 400.034C69.2085 404.952 110.083 372.605 113.331 338.904C116.579 305.203 78.1864 270.826 78.1864 252.058C78.1864 233.29 109.361 173.198 90.4577 139.407C77.239 115.721 47.8693 120.413 31.5378 139.407Z" fill="#F7FAFC"/>
<path d="M54.3758 497.718C54.2404 497.718 54.1051 497.718 54.0148 497.673C53.1125 497.448 52.5712 496.59 52.7968 495.688C52.9772 494.966 60.4561 434.818 59.4636 400.079C59.1929 390.515 58.1102 376.845 56.7567 359.566C53.0573 313.008 47.5082 242.674 50.6662 163.814C50.7113 162.911 51.4783 162.19 52.3806 162.235C53.2829 162.28 54.0047 163.047 53.9596 163.949C50.8016 242.629 56.3508 312.873 60.0051 359.296C61.3585 376.62 62.4412 390.335 62.757 399.989C63.7495 435.179 56.1803 495.733 55.9998 496.5C55.7743 497.177 55.0976 497.718 54.3758 497.718Z" fill="#C4DCEB"/>
<defs>
<linearGradient id="paint0_linear_102_205" x1="76.0003" y1="113" x2="121" y2="341" gradientUnits="userSpaceOnUse">
<stop stop-color="#C4DCEB"/>
<stop offset="1" stop-color="#C4DCEB" stop-opacity="0"/>
</linearGradient>
</defs>
</svg>
