<svg width="208" height="309" viewBox="0 0 208 309" fill="none" xmlns="http://www.w3.org/2000/svg">
<circle cx="107.106" cy="155.5" r="100" fill="#FF90AD"/>
<path d="M39.4342 93.1446L34.8513 91.7457L35.4571 85.5432L39.8293 86.1503C39.5029 88.4666 39.3708 90.8062 39.4342 93.1446Z" fill="#FBA284"/>
<path d="M109.758 51.6011C100.671 59.8623 98.406 64.7979 92.7168 73.0063L79.2051 93.3294L90.7941 99.4264C90.7941 99.4264 111.865 85.2794 115.394 78.9977C118.924 72.716 109.758 51.6011 109.758 51.6011Z" fill="#F7FAFC"/>
<path d="M83.9464 88.6841C82.2908 88.3283 80.6076 88.1164 78.9157 88.0507H78.3889C74.3328 87.9187 48.0731 86.9157 39.8554 85.9656C39.1739 87.9538 38.8182 90.0395 38.8019 92.1417C38.8073 93.229 39.0786 94.2983 39.592 95.2561C47.0459 97.8955 79.7585 102.382 79.7585 102.382C81.6843 102.771 83.6719 102.728 85.5795 102.258C87.4871 101.788 89.2677 100.903 90.7944 99.6639C90.7944 99.6639 90.7944 99.4263 90.7944 99.004C90.8208 96.7342 90.294 89.9774 83.9464 88.6841Z" fill="#A4B0E0"/>
<path d="M24.2104 141.031C24.2104 141.031 23.3412 145.755 31.3482 148.078C39.3552 150.4 43.0689 148.685 43.0689 148.685L43.385 146.257L42.7529 134.538L30.6371 131.318L24.2104 141.031Z" fill="#064058"/>
<path d="M21.5765 56.8534C21.5765 56.8534 17.0199 67.6748 18.4422 75.5137C19.443 81.1883 23.1041 97.0245 23.1041 97.0245L36.8266 94.3852C36.8266 94.3852 36.8266 74.5899 37.4587 74.5899C38.0908 74.5899 21.5765 56.8534 21.5765 56.8534Z" fill="#FFBDBE"/>
<path d="M21.5766 56.8534C19.7079 59.3067 18.3645 62.12 17.6303 65.1174C16.8961 68.1147 16.787 71.2317 17.3098 74.2732C18.0348 79.8006 19.1884 85.263 20.7601 90.6109C26.4403 90.5746 32.0002 88.9671 36.8267 85.9656C33.113 75.3553 21.5766 56.8534 21.5766 56.8534Z" fill="#064058"/>
<path d="M16.7828 294.027C15.1498 296.165 10.3035 298.092 6.24735 299.306C4.67783 299.808 3.33839 300.855 2.46949 302.258C1.60058 303.66 1.25912 305.328 1.50638 306.96H32.665C33.2649 302.963 32.7073 298.877 31.0584 295.188L30.5579 294.027H16.7828Z" fill="#403C4A"/>
<path d="M68.5116 152.768C68.0063 154.864 67.2548 156.893 66.2729 158.812C64.4492 162.394 62.4177 165.867 60.1886 169.211C53.9727 178.686 45.439 189.693 38.1695 198.614C30.2679 208.432 23.8158 215.839 23.8158 215.839L1.974 204.693C9.46324 181.936 19.0987 159.845 30.6893 138.885C32.2433 136.245 33.8763 133.342 35.5356 130.624H65.7724C65.7724 130.624 67.5898 138.542 68.4063 145.378C68.7619 147.826 68.7973 150.31 68.5116 152.768Z" fill="#BBD3E6"/>
<path d="M2.00677 204.605C0.268048 210.019 0.268048 215.844 2.00677 221.259C6.40533 234.641 14.623 265.337 16.335 286.768C16.5457 289.408 15.3078 291.651 16.6511 294.026C17.9943 296.402 28.0557 296.243 30.4262 294.026C32.7967 291.809 30.8213 289.83 31.19 283.284C32.0592 268.9 32.8494 243.298 29.3463 226.617C28.5436 222.564 26.628 218.817 23.8152 215.796L2.00677 204.605Z" fill="#BBD3E6"/>
<path d="M91.7164 294.027C90.2573 298.201 90.3414 302.762 91.9534 306.88H113.525C114.021 304.99 113.922 302.992 113.244 301.159C112.565 299.327 111.339 297.748 109.732 296.64L105.307 294L91.7164 294.027Z" fill="#403C4A"/>
<path d="M97.9046 211.041L75.2559 210.982L60.189 169.211L57.002 160.369L55.7904 157.044C54.3959 153.194 53.6828 149.13 53.6833 145.034V130.624H91.9534L92.1115 131.415C92.6646 133.263 93.165 135.11 93.6128 136.984C95.4304 144.446 96.4371 152.083 96.6154 159.762L97.9046 211.041Z" fill="#BBD3E6"/>
<path d="M75.2547 210.886C75.4489 218.834 76.0908 226.765 77.1775 234.641C80.2588 251.284 84.224 267.751 89.0562 283.97C89.9517 287.217 88.6348 291.888 91.6901 294.079C93.3494 295.188 103.332 297.114 105.281 294.079C107.23 291.044 106.334 285.501 105.913 282.176C101.83 249.553 101.198 232.556 100.356 224.717C99.9186 220.064 99.0993 215.456 97.906 210.939L75.2547 210.886Z" fill="#BBD3E6"/>
<path d="M93.0334 140.616C92.6799 140.636 92.3324 140.716 92.0061 140.854C86.7384 142.807 69.6973 156.215 59.5569 147.531C52.3401 141.382 41.6729 141.487 34.3508 142.569C31.5861 142.951 28.856 143.551 26.1858 144.364C30.637 124.595 35.1673 119.908 36.1155 102.91C36.1155 101.591 36.2472 100.086 36.2735 98.4498C36.2735 97.4469 36.2735 96.3911 36.2735 95.2562C36.2735 86.2296 27.6344 76.3583 21.5502 56.8534C24.6897 52.4305 28.1121 48.2163 31.7959 44.2373L32.6651 44.0525H32.8758L46.9143 41.0172C48.4425 40.7005 49.9919 40.4976 51.5499 40.4102V40.0407L49.6272 38.9585C51.3129 38.523 53.0988 38.7104 54.6579 39.4864C55.376 39.8081 56.1406 40.013 56.923 40.0935H57.0811L77.0721 42.5481C79.5604 48.1094 81.6465 53.8428 83.3144 59.704C86.2432 69.6378 88.4873 79.7616 90.0308 90.0039C90.2678 91.6403 90.5048 93.3031 90.7419 95.0187C91.6901 102.224 92.4012 110.063 92.77 118.562C92.928 122.494 93.0334 136.472 93.0334 140.616Z" fill="#064058"/>
<path d="M90.0308 90.0565L69.2495 85.2265L69.5393 82.5871H81.5761L73.6745 56.9325L83.3407 59.8358C86.2571 69.7444 88.4924 79.8416 90.0308 90.0565Z" fill="#064058"/>
<path d="M116.922 99.8487L105.755 101.987C101.769 95.4312 97.3699 89.1368 92.5855 83.1415C91.611 81.9538 90.7155 80.8716 89.9516 79.8687C83.0509 71.9506 79.4162 69.6543 75.7024 60.8125C74.6439 57.847 74.2257 54.6902 74.4754 51.5508C74.7251 48.4113 75.6371 45.3608 77.151 42.6008C77.151 42.6008 87.9236 45.0818 91.3739 50.387C95.6145 56.9062 99.4599 63.5838 102.805 69.7863C104.412 72.7952 105.913 75.7249 107.282 78.4698C113.34 90.7956 116.922 99.8487 116.922 99.8487Z" fill="#FBCCCC"/>
<path d="M92.7698 118.615L88.7926 103.676L58.6612 92.1681L36.1153 102.91C36.1153 101.591 36.247 100.086 36.2733 98.4498L59.583 85.9656L90.7417 95.0714C91.6899 102.303 92.401 110.221 92.7698 118.615Z" fill="#064058"/>
<path d="M70.8561 83.4844L68.3803 91.4025C68.3803 91.4025 98.5908 103.068 106.045 103.596C110.733 103.939 116.923 99.7957 116.923 99.7957C114.831 95.6678 111.457 92.333 107.309 90.2939C97.7216 86.3085 94.5873 90.0828 70.8561 83.4844Z" fill="#FBCCCC"/>
<path d="M70.8561 83.4844C69.5392 78.9183 68.5119 81.109 64.9035 73.9035C64.8754 73.8417 64.8351 73.7863 64.785 73.7406C64.7348 73.6949 64.676 73.6599 64.6119 73.6377C64.5479 73.6155 64.48 73.6065 64.4124 73.6114C64.3449 73.6162 64.279 73.6348 64.2187 73.666C63.9532 73.7909 63.7381 74.0028 63.6088 74.2667C63.4796 74.5305 63.4439 74.8307 63.5076 75.1176L64.7192 80.8186L70.8561 83.4844Z" fill="#FFBDBE"/>
<g filter="url(#filter0_f_111_5)">
<circle cx="54.5665" cy="79.1091" r="8.38033" fill="#F37274"/>
</g>
<path d="M66.0626 80.5813L52.5245 75.9096C52.3572 75.8712 52.1816 75.8947 52.0302 75.9758C51.8788 76.057 51.7618 76.1903 51.7008 76.3511C51.6399 76.5119 51.639 76.6894 51.6984 76.8508C51.7578 77.0123 51.8735 77.1467 52.0241 77.2293L60.0574 80.8452L50.7072 78.2059C50.55 78.1678 50.3845 78.1866 50.2399 78.2591C50.0952 78.3315 49.9809 78.4529 49.917 78.6018C49.8547 78.7597 49.8555 78.9355 49.9193 79.0929C49.983 79.2502 50.1049 79.3768 50.2594 79.4464L58.7405 83.2998L50.4701 79.8423C50.3976 79.8128 50.32 79.7983 50.2418 79.7997C50.1636 79.8011 50.0865 79.8184 50.0151 79.8504C49.9437 79.8825 49.8796 79.9287 49.8265 79.9863C49.7734 80.0438 49.7325 80.1116 49.7063 80.1854C49.6574 80.3161 49.6571 80.46 49.7055 80.5909C49.7539 80.7218 49.8476 80.8308 49.9697 80.898L58.319 85.3849L50.4174 81.6898C50.3387 81.6518 50.2527 81.6312 50.1654 81.6296C50.078 81.6279 49.9913 81.6452 49.9112 81.6803C49.8311 81.7154 49.7596 81.7675 49.7015 81.8329C49.6434 81.8983 49.6001 81.9756 49.5746 82.0594C49.5331 82.1879 49.5337 82.3265 49.5763 82.4547C49.619 82.5829 49.7014 82.6941 49.8116 82.772L58.4507 88.5258L62.4806 90.6373L66.326 83.5638L66.0626 80.5813Z" fill="#FFBDBE"/>
<path d="M70.8561 83.4845L68.0115 81.373C67.2685 80.8956 66.4253 80.5972 65.5479 80.501C64.6705 80.4048 63.7829 80.5136 62.9545 80.8188C61.7638 81.2459 60.7735 82.1003 60.1751 83.2167C59.5767 84.3331 59.4127 85.6323 59.7148 86.8629C60.0238 88.1412 60.7475 89.2805 61.7724 90.1021C62.7973 90.9237 64.0653 91.3811 65.3776 91.4026H68.3802L70.8561 83.4845Z" fill="#FFBDBE"/>
<path d="M43.3849 87.3114C43.859 82.5869 45.2813 84.672 47.5464 76.7539C47.5888 76.6271 47.6777 76.5212 47.795 76.4575C47.9123 76.3938 48.0494 76.3771 48.1786 76.4108C48.461 76.4931 48.7078 76.6678 48.8796 76.9069C49.0514 77.1461 49.1384 77.436 49.1268 77.7305L48.916 83.5899L43.3849 87.3114Z" fill="#FFBDBE"/>
<path d="M47.599 83.5901L58.3979 74.9858C58.5626 74.901 58.7537 74.8839 58.9308 74.9381C59.1079 74.9923 59.2569 75.1136 59.3461 75.2761C59.5041 75.5929 59.3461 75.8568 59.109 76.1735L53.5252 82.7983L61.7692 77.5196C61.9178 77.4523 62.086 77.4427 62.2412 77.4925C62.3965 77.5423 62.5277 77.648 62.6097 77.7892C62.6916 77.9304 62.7184 78.0971 62.6847 78.2569C62.6511 78.4168 62.5595 78.5585 62.4277 78.6545L55.2636 85.0682L63.0072 80.4229C63.1329 80.3319 63.2896 80.2947 63.4427 80.3194C63.5958 80.3442 63.7329 80.4289 63.8237 80.5549C63.9145 80.6809 63.9516 80.8379 63.9269 80.9913C63.9022 81.1447 63.8177 81.2821 63.692 81.3731L56.0801 87.0477L63.692 82.9039C63.7659 82.8557 63.8488 82.823 63.9356 82.8075C64.0225 82.792 64.1115 82.7942 64.1975 82.8139C64.2835 82.8336 64.3646 82.8704 64.4362 82.9221C64.5077 82.9739 64.5681 83.0395 64.6138 83.115C64.691 83.2227 64.7325 83.352 64.7325 83.4846C64.7325 83.6171 64.691 83.7464 64.6138 83.8541L56.5278 90.1885L52.9195 92.9863L47.7834 86.467L47.599 83.5901Z" fill="#FBCCCC"/>
<path d="M43.3849 87.3117L45.8081 84.6723C46.4586 84.0696 47.2389 83.6251 48.0885 83.3734C48.938 83.1216 49.8341 83.0694 50.7071 83.2207C51.9369 83.4263 53.0485 84.0776 53.8303 85.0509C54.6122 86.0242 55.0098 87.2515 54.9476 88.4994C54.8676 89.8101 54.3563 91.0573 53.4937 92.0458C52.6311 93.0344 51.4659 93.7085 50.1803 93.9629L47.2304 94.5699L43.3849 87.3117Z" fill="#FFBDBE"/>
<path d="M43.385 87.3115C37.6958 90.8483 29.1094 91.0066 26.4492 92.3527C25.9164 92.6298 25.4057 92.9474 24.9215 93.3029C24.3728 93.7164 23.9243 94.2488 23.6097 94.8603C23.2951 95.4719 23.1225 96.1468 23.1048 96.8346C23.087 97.5224 23.2247 98.2053 23.5073 98.8323C23.79 99.4593 24.2104 100.014 24.7372 100.456C26.2553 102.007 28.2891 102.947 30.4527 103.095C38.3543 102.435 47.2304 94.8337 47.2304 94.8337L43.385 87.3115Z" fill="#FBCCCC"/>
<path d="M105.86 74.2468C105.708 74.4608 105.541 74.6636 105.36 74.8539C101.789 78.8464 96.8359 81.3281 91.5059 81.7954C90.8397 81.8482 90.1703 81.8482 89.5041 81.7954C69.9872 63.531 72.0416 50.5453 77.0723 42.6008C91.7693 42.8912 97.4057 57.1701 105.86 74.2468Z" fill="#064058"/>
<path d="M54.9741 44.2371C54.9741 47.7475 49.9697 50.598 43.8065 50.598C41.901 50.7382 39.9881 50.4561 38.2036 49.7719C36.4192 49.0876 34.807 48.018 33.4817 46.6389L33.113 46.8765L20.9445 26.5533H38.6968H41.3306C41.752 27.5827 42.1998 28.5593 42.6476 29.4566C44.1941 32.7628 46.3169 35.766 48.9162 38.3249L50.0487 39.2751L50.9179 39.9349L51.6817 40.41H52.6563C53.3106 40.8259 53.8603 41.3877 54.2623 42.0516C54.6644 42.7154 54.908 43.4634 54.9741 44.2371Z" fill="#F3D0B5"/>
<path d="M107.203 78.549C102.799 81.2897 97.7859 82.8947 92.6118 83.2207L91.5055 81.8746C96.8356 81.4073 101.789 78.9256 105.36 74.9331C106.018 76.0944 106.624 77.3085 107.203 78.549Z" fill="#FFBDBE"/>
<path d="M11.1725 17.3684C8.99478 19.1272 7.49795 21.5925 6.94018 24.339C6.38241 27.0855 6.79868 29.941 8.11718 32.4128C8.93118 33.7641 10.0963 34.8684 11.4881 35.6075C12.8798 36.3467 14.4459 36.693 16.0188 36.6094L19.1531 32.0433L14.6755 29.1136L11.1725 17.3684Z" fill="#D8E5F0"/>
<path d="M43.8588 35.6329C42.8883 39.9716 41.2251 44.1249 38.9334 47.9323L38.0379 49.2784L37.6692 49.7535C36.7325 51.0439 35.6045 52.1832 34.3242 53.1319C28.8457 56.0352 18.521 47.7212 16.7036 45.2138C14.8862 42.7064 13.859 40.0142 12.0416 37.0317C8.32789 30.7237 4.50878 24.442 11.0935 17.3685C18.1522 9.87267 26.8967 7.57643 31.6376 10.7437C35.4334 12.9747 38.5553 16.1944 40.6718 20.0606C40.8564 20.4967 41.0061 20.9468 41.1196 21.4067C41.462 22.7 39.4602 23.7293 39.5129 25.181L39.908 25.7353C40.5401 26.659 41.0669 27.53 41.5146 28.3746C41.9624 29.2192 41.9624 29.2456 42.1468 29.6415C43.0553 31.5258 43.6343 33.5523 43.8588 35.6329Z" fill="#F3D0B5"/>
<path d="M24.1312 35.9761C24.737 35.6857 25.3164 35.3426 25.8959 34.9995C26.4508 34.633 26.9789 34.2273 27.4762 33.7854C27.9762 33.3371 28.4511 32.8612 28.8985 32.3601C29.3199 31.8587 29.715 31.3044 30.1101 30.7501C29.8444 31.3757 29.5086 31.9689 29.1092 32.5185C28.9043 32.8027 28.6845 33.0758 28.4507 33.3367L28.082 33.7062L27.7132 34.0493C27.1905 34.4983 26.626 34.896 26.0276 35.237L25.1057 35.6593C24.789 35.7887 24.4633 35.8946 24.1312 35.9761Z" fill="#E2B897"/>
<path d="M20.5753 34.4978C20.5753 34.7353 20.865 34.9465 21.0231 35.184L21.5235 35.8175C21.6945 36.0152 21.8793 36.2004 22.0766 36.3718C22.2693 36.5528 22.4813 36.7121 22.7088 36.8468C22.4509 36.7564 22.2104 36.6225 21.9976 36.4509C21.7798 36.294 21.5848 36.1074 21.4182 35.8967C21.0546 35.4857 20.769 35.0116 20.5753 34.4978Z" fill="#E2B897"/>
<path d="M21.5239 34.4449C21.9333 35.0576 22.5222 35.5279 23.2096 35.791C25.051 34.5301 26.3931 32.6622 27.0023 30.5123C27.4159 29.0624 28.3553 27.8197 29.6362 27.0283C28.3394 27.3273 27.1746 28.0406 26.3175 29.0606C24.6582 31.0402 25.3957 32.7294 21.5239 34.4449Z" fill="white"/>
<path d="M14.0172 38.9584C14.5081 38.9978 15.0013 38.9978 15.4922 38.9584C15.9776 38.9317 16.4611 38.8789 16.9408 38.8H17.3096H17.4939H17.652H18.0207H18.3631H18.5475H18.7319H19.0743C19.3113 38.8 19.5484 38.6153 19.7854 38.5625L19.1269 38.932L18.7845 39.064H18.6265H18.4421H18.0734H17.731C17.488 39.1293 17.2419 39.1822 16.9935 39.2223C16.4944 39.2748 15.9913 39.2748 15.4922 39.2223C14.9897 39.2133 14.4918 39.1242 14.0172 38.9584Z" fill="#E2B897"/>
<path d="M12.6744 37.0582C12.6744 37.0582 12.9378 37.6389 14.6762 37.6125C16.3132 37.7084 17.9542 37.5118 19.5225 37.0318L18.1002 35.6329C16.5363 36.7779 14.5977 37.2872 12.6744 37.0582Z" fill="white"/>
<path d="M18.6528 35.6592C19.3394 36.1875 19.9905 36.7606 20.6019 37.3748L21.4711 38.3249C21.6291 38.4833 21.7608 38.6681 21.8925 38.8264C22.0469 38.9813 22.1879 39.149 22.3139 39.3279C22.8592 40.0111 23.3522 40.7346 23.7889 41.4922C24.2449 42.2347 24.6244 43.0217 24.9214 43.8412C24.4737 43.1022 23.9996 42.3632 23.5255 41.6505C23.4579 41.567 23.3963 41.4788 23.3411 41.3866L23.1568 41.1227L22.7617 40.6212L22.3929 40.0933L21.9979 39.5918C21.9979 39.4071 21.7081 39.2487 21.5764 39.0904L21.1814 38.5889L20.3649 37.5859L18.6528 35.6592Z" fill="#E2B897"/>
<path d="M25.6064 46.111C26.0044 45.7409 26.4468 45.4217 26.9233 45.1609C27.0508 45.0929 27.1907 45.0512 27.3346 45.0383C27.4785 45.0255 27.6235 45.0417 27.761 45.086C27.8985 45.1303 28.0258 45.2018 28.1353 45.2962C28.2447 45.3907 28.3342 45.5062 28.3983 45.636C28.3456 46.2694 27.2394 47.1932 25.6064 46.111Z" fill="#E2B897"/>
<path d="M25.2112 44.2373C25.3742 44.5123 25.5067 44.8044 25.6062 45.1083L25.7643 45.557C25.779 45.7238 25.779 45.8916 25.7643 46.0585L25.975 46.1904H26.2911C26.5136 46.2853 26.7424 46.3646 26.9759 46.428C26.8533 46.4413 26.7297 46.4413 26.6071 46.428H26.2384C25.9709 46.3756 25.7241 46.2474 25.5272 46.0585C25.5272 45.8209 25.5272 45.6626 25.5272 45.5306V45.0555C25.3994 44.792 25.2937 44.5184 25.2112 44.2373Z" fill="#F499A3"/>
<path d="M26.8703 48.6186C27.0802 48.646 27.2926 48.646 27.5025 48.6186C27.7161 48.5783 27.9272 48.5254 28.1346 48.4602L28.714 48.2755L29.2935 48.0115L29.5832 47.8004L29.8466 47.5365C30.076 47.3353 30.2875 47.1145 30.4787 46.8766C30.8475 46.5071 31.1899 46.1376 31.5323 45.7417L31.7693 45.4514L32.0064 45.161L32.2434 44.8443L32.4805 44.554C32.7965 44.1317 33.1126 43.7358 33.4023 43.3135C33.1779 43.7787 32.9227 44.2284 32.6385 44.6596L32.1908 45.293L31.98 45.6097L31.7167 45.9001C31.4025 46.3114 31.0592 46.6995 30.6894 47.0614L30.3997 47.3253L30.11 47.5893C29.9123 47.7642 29.7009 47.9231 29.4779 48.0643L28.8721 48.3019C28.6683 48.3794 28.4561 48.4326 28.2399 48.4602H27.6078C27.3708 48.5482 27.1225 48.6015 26.8703 48.6186Z" fill="#E2B897"/>
<path d="M41.0144 25.6032L38.3806 26.7117C37.8543 26.9281 37.2722 26.9679 36.7215 26.8251C36.1707 26.6824 35.6809 26.3648 35.3253 25.9199C33.6659 23.8084 30.637 20.3773 29.162 20.6412C24.5264 21.697 17.0989 21.4858 18.6265 11.4562C19.206 7.97225 42.9635 1.9545 42.3314 22.0137C42.4508 22.6753 42.3917 23.3569 42.1602 23.988C41.9287 24.619 41.5331 25.1767 41.0144 25.6032Z" fill="white"/>
<path d="M43.8326 27.8731L43.6482 28.401C43.6482 28.401 43.6482 28.401 43.6482 28.533C43.5372 28.8136 43.3553 29.0605 43.1204 29.2495C42.8854 29.4385 42.6055 29.563 42.308 29.611C42.0106 29.6589 41.7058 29.6285 41.4236 29.5228C41.1414 29.4171 40.8915 29.2397 40.6983 29.0081C40.214 28.3981 39.7739 27.7542 39.3814 27.0813C38.6157 25.8943 38.1627 24.5322 38.0644 23.1223C38.0434 22.8059 38.0996 22.4893 38.2281 22.1996C38.3566 21.9099 38.5535 21.6558 38.8019 21.4595C39.276 21.09 39.8291 20.6413 40.3822 20.2454C40.4864 20.1599 40.6016 20.0889 40.7246 20.0342C41.1229 19.8382 41.5699 19.7637 42.01 19.82C42.4502 19.8763 42.8641 20.0609 43.2005 20.3509C43.7743 20.879 44.2241 21.528 44.5174 22.2513C44.8044 24.1528 44.5676 26.0967 43.8326 27.8731Z" fill="#F3D0B5"/>
<path d="M41.1464 28.533C41.3352 28.3282 41.44 28.0596 41.44 27.7808C41.44 27.5019 41.3352 27.2333 41.1464 27.0285C41.0367 26.9085 40.8866 26.8333 40.725 26.8174H40.4352C40.3309 26.838 40.2235 26.838 40.1192 26.8174C39.9377 26.7056 39.7772 26.5626 39.6451 26.3951L39.2237 25.7616C39.1252 25.5822 39.0373 25.3971 38.9603 25.2074C38.8246 24.8169 38.7534 24.4068 38.7496 23.9933C38.7509 23.5882 38.8222 23.1863 38.9603 22.8056C39.1107 22.4235 39.3052 22.0603 39.5397 21.7234C39.775 21.4086 40.0395 21.117 40.3299 20.8524C40.6489 20.6864 40.9985 20.5876 41.3571 20.5621C41.687 20.5393 42.0181 20.5836 42.3304 20.6925C42.6428 20.8014 42.9299 20.9725 43.1745 21.1955C43.4196 21.4029 43.6249 21.6533 43.7802 21.9346C43.5988 21.6776 43.3655 21.4618 43.0954 21.3011C42.8516 21.1171 42.5742 20.9827 42.2789 20.9052C41.9826 20.854 41.6797 20.854 41.3834 20.9052C41.0809 20.9581 40.7879 21.0559 40.5142 21.1955C40.276 21.4619 40.056 21.744 39.8558 22.0401C39.6478 22.3428 39.4796 22.671 39.3554 23.0167C39.1059 23.7074 39.1059 24.4639 39.3554 25.1546C39.4758 25.4971 39.6349 25.8248 39.8294 26.1312C39.9389 26.2671 40.0625 26.391 40.1982 26.5007C40.3476 26.5825 40.507 26.6446 40.6723 26.6854H40.9883C41.0801 26.7507 41.1603 26.831 41.2254 26.923C41.3719 27.0769 41.4723 27.2689 41.5151 27.4772C41.5814 27.6741 41.5814 27.8874 41.5151 28.0843C41.4294 28.261 41.303 28.4148 41.1464 28.533Z" fill="#E2B897"/>
<path d="M49.9431 39.2753C48.2141 38.8608 46.6132 38.027 45.2812 36.8471C43.8181 40.8809 41.6706 44.6312 38.9335 47.9324C41.2252 44.125 42.8884 39.9717 43.8589 35.633C43.654 33.5466 43.0927 31.511 42.1995 29.6152H42.4102C44.044 32.8835 46.2471 35.8332 48.9159 38.3251L49.9431 39.2753Z" fill="#E2B897"/>
<path d="M169.047 296.824C166.381 300.215 162.584 302.53 158.353 303.343C157.162 303.684 156.129 304.434 155.436 305.462C154.742 306.491 154.432 307.731 154.56 308.965H184.508C184.958 305.01 184.215 301.011 182.374 297.484L182.032 296.824H169.047Z" fill="#252628"/>
<path d="M127.511 297.854C124.527 300.85 120.827 303.03 116.765 304.189C115.762 304.521 114.889 305.162 114.27 306.019C113.65 306.876 113.316 307.908 113.314 308.966H143.867C144.276 305.342 143.636 301.678 142.023 298.409L141.734 297.881L127.511 297.854Z" fill="#252628"/>
<path d="M61.6901 92.5113C63.3843 91.942 65.1789 91.7352 66.9579 91.9042C68.7517 92.0443 70.4774 92.6541 71.9622 93.6726L66.6945 96.312L60.8736 94.702L61.6901 92.5113Z" fill="#F1C8A9"/>
<path d="M128.432 40.0669L110.417 49.727C110.417 49.727 110.285 49.2519 110.022 48.4601C110.022 48.2225 109.864 47.9322 109.758 47.6419C108.287 43.3648 106.344 39.2659 103.964 35.4216C106.15 30.4332 112.102 28.4273 115.395 27.6883C116.149 27.5076 116.915 27.3753 117.686 27.2924C117.686 27.2924 118.292 28.3217 119.266 29.9317C119.688 30.5916 120.162 31.3306 120.715 32.096C122.181 34.2947 123.857 36.3454 125.719 38.2193C126.511 38.9868 127.429 39.6118 128.432 40.0669Z" fill="#F1C8A9"/>
<path d="M159.091 162.138C158.248 168.947 151.426 182.857 144.762 195.183C138.099 207.508 131.587 218.441 131.324 218.758L104.566 212.353C108.68 184.043 116.345 156.288 127.274 129.858L128.485 127.219H141.47C141.47 127.219 142.524 128.38 144.104 130.36C144.92 131.363 145.869 132.55 146.896 133.923C152.506 141.208 160.197 153.243 159.091 162.138Z" fill="#064058"/>
<path d="M177.975 161.979C176.579 188.373 176.012 222.898 176.012 222.898L150.524 222.76C150.524 222.76 148.608 215.215 146.264 203.18C141.603 179.914 138.689 156.332 137.545 132.63C137.545 132.207 137.545 131.785 137.545 131.363C137.545 130.94 137.545 130.122 137.545 129.489V127.245H175.183C177.631 131.158 179.145 135.584 179.608 140.178C179.497 147.471 178.952 154.751 177.975 161.979Z" fill="#064058"/>
<path d="M150.504 222.579L168.283 293.842C168.283 293.842 166.834 296.482 168.573 297.986C170.311 299.49 181.057 300.625 182.664 298.224C183.665 296.746 181.874 294.687 181.874 294.687C181.558 265.126 185.113 248.788 181.874 236.014C180.781 231.277 178.786 226.797 176 222.817L150.504 222.579Z" fill="#064058"/>
<path d="M104.622 212.285L103.648 217.089C103.648 217.089 121.769 262.935 126.852 295.135C126.852 296.085 126.088 296.64 127.168 298.25C128.801 300.651 139.837 300.731 141.734 297.854C142.971 296.006 141.47 295.848 141.365 294.818C139.152 274.548 139.995 243.852 136.782 229.547C135.722 225.58 133.867 221.871 131.33 218.646L104.622 212.285Z" fill="#064058"/>
<path opacity="0.5" d="M179.608 140.073C179.145 135.478 177.631 131.053 175.183 127.14C167.489 129.428 159.505 130.592 151.479 130.597C148.845 130.597 146.422 130.597 144.156 130.281C142.523 130.122 140.969 129.938 139.521 129.726L137.466 129.383C134.421 128.903 131.424 128.152 128.511 127.14L127.3 129.779C127.3 129.779 134.569 168.525 139.916 191.699L131.329 218.647C131.54 218.304 138.072 207.561 144.762 195.183C141.558 177.725 139.324 160.102 138.072 142.395C138 141.235 138.178 140.073 138.594 138.988C139.011 137.903 139.657 136.922 140.487 136.11C141.317 135.298 142.312 134.675 143.405 134.284C144.497 133.893 145.661 133.743 146.817 133.844H147.264C154.764 134.448 161.769 137.834 166.908 143.341C172.047 148.847 174.951 156.077 175.052 163.616C175.447 190.643 175.052 221.682 175.052 221.682L174.024 222.447H175.895C175.895 222.447 176.448 188.136 177.844 161.742C178.859 154.56 179.448 147.324 179.608 140.073Z" fill="#043346"/>
<path d="M175.183 127.14C167.489 129.428 159.505 130.592 151.479 130.597C147.477 130.6 143.48 130.309 139.521 129.726C135.766 129.202 132.071 128.318 128.485 127.087C128.485 127.087 127.458 104.019 123.428 96.1799C123.296 95.9159 123.165 95.6256 123.007 95.3616C120.194 89.9742 117.053 84.7649 113.604 79.763C110.759 75.4684 109.096 70.4972 108.784 65.3521C108.601 62.6423 108.662 59.9215 108.968 57.2228C109.179 55.2697 109.495 53.5805 109.758 52.3136C109.932 51.423 110.152 50.542 110.417 49.6742L117.923 45.636L123.191 42.7855L125.245 41.677L128.406 40.0142L129.381 40.2253C137.231 42.1295 144.461 46.0228 150.378 51.5319C156.296 57.0409 160.701 63.981 163.173 71.6865C167.316 83.7176 170.772 95.9753 173.524 108.4C174.578 114.919 175.183 127.14 175.183 127.14Z" fill="#A9C9E3"/>
<path d="M180.399 185.654C180.03 191.91 179.635 195.526 179.635 195.526C169.276 197.072 158.705 196.333 148.661 193.361C149.805 174.518 148.217 155.608 143.946 137.222C143.288 134.266 142.603 131.336 141.865 128.486C140.759 124.025 139.574 119.697 138.362 115.5C137.309 111.778 136.255 108.163 135.228 104.599L134.28 101.406C131.46 91.6637 129.936 81.5909 129.749 71.449C129.564 60.3798 128.347 49.3522 126.115 38.5097C130.52 38.1054 134.962 38.3814 139.284 39.3279C143.557 40.2146 147.585 42.028 151.084 44.6407C154.583 47.2534 157.469 50.602 159.539 54.4515C165.525 65.941 170.064 78.1315 173.05 90.7427C182.348 127.852 181.452 167.654 180.399 185.654Z" fill="#F7FAFC"/>
<path d="M126.642 41.0172C124.64 45.2138 111.471 51.5747 109.759 52.2873C109.932 51.3967 110.152 50.5157 110.417 49.6479L117.924 45.6097L126.642 41.0172Z" fill="#F1C8A9"/>
<path d="M113.472 192.569L105.175 191.25C105.175 191.25 114.209 155.75 122.085 134.688C124.672 127.851 125.872 120.565 125.614 113.257C125.298 104.494 122.664 94.6227 112.129 79.4463C107.388 71.8185 107.019 58.5953 110.469 49.7271C110.469 49.7271 110.469 49.9646 110.469 50.3869C110.232 54.0028 109.995 71.5018 125.272 89.3703C125.483 89.639 125.676 89.9211 125.851 90.2149C132.805 101.511 140.179 150.788 113.472 192.569Z" fill="#F7FAFC"/>
<path d="M114.947 83.8276L112.129 79.499C107.546 72.1616 106.861 59.0439 110.443 49.6742H110.628C106.861 59.0703 107.625 72.0824 112.129 79.3934C113.13 80.8451 114.104 82.2968 114.973 83.6956L114.947 83.8276Z" fill="#A4B0E0"/>
<path d="M125.72 38.114L121.058 33.8911L119.399 40.4103C116.992 43.8357 113.769 46.6031 110.022 48.4604C110.022 48.2228 109.864 47.9325 109.759 47.6422C112.912 45.3644 115.595 42.4963 117.66 39.1962C117.66 38.246 118.029 36.0817 118.319 34.2078C119.375 33.7782 120.25 32.9946 120.795 31.9907C122.236 34.1859 123.885 36.2365 125.72 38.114Z" fill="#F1C8A9"/>
<path d="M126.115 38.51C129.883 44.9311 132.018 52.1823 132.331 59.6249L131.04 63.3728L133.964 71.2909C132.316 78.5935 131.765 86.1017 132.331 93.5672C127.537 84.2766 125.298 46.1906 126.115 38.51Z" fill="#BBD3E6"/>
<path d="M125.746 90.2149C115.684 84.593 110.891 71.7393 110.891 71.7393L111.444 67.6747L109.758 65.352C109.144 60.3199 109.349 55.2213 110.364 50.2549C110.127 53.8708 109.89 71.3698 125.166 89.2383C125.377 89.507 125.571 89.7891 125.746 90.0829V90.2149Z" fill="#BBD3E6"/>
<path d="M67.5375 92.6432L54.3682 95.6785C54.1735 95.7473 54.0108 95.8854 53.911 96.0665C53.8111 96.2476 53.7811 96.4591 53.8266 96.6609C53.872 96.8628 53.9899 97.0408 54.1577 97.1614C54.3255 97.2819 54.5316 97.3365 54.7369 97.3149L62.7966 95.6785L54.3419 97.7636C54.1537 97.8098 53.9901 97.926 53.8842 98.0886C53.7783 98.2511 53.738 98.448 53.7715 98.6392C53.8049 98.8304 53.9097 99.0018 54.0645 99.1185C54.2193 99.2353 54.4126 99.2887 54.6053 99.268L63.1917 98.2914L55.132 99.6639C55.0345 99.6798 54.9411 99.7151 54.8574 99.7678C54.7738 99.8205 54.7016 99.8896 54.645 99.9708C54.5885 100.052 54.5489 100.144 54.5285 100.241C54.5081 100.338 54.5073 100.438 54.5262 100.535C54.5645 100.717 54.6698 100.878 54.8211 100.985C54.9724 101.093 55.1587 101.139 55.3427 101.116L63.9292 100.245L55.8958 101.591C55.7984 101.609 55.7059 101.647 55.6241 101.703C55.5424 101.76 55.4733 101.832 55.4212 101.917C55.3691 102.001 55.3352 102.096 55.3217 102.194C55.3082 102.292 55.3154 102.393 55.3427 102.488C55.3892 102.639 55.4842 102.77 55.6129 102.86C55.7416 102.951 55.8967 102.997 56.0539 102.989L67.3532 102.435L69.829 98.6081L67.5375 92.6432Z" fill="#F1C8A9"/>
<path d="M82.2344 105.207L79.8639 104.599C75.3073 103.412 72.3837 102.594 72.3837 102.594L74.4908 93.8044C77.9938 94.2267 81.2335 94.6226 84.2098 94.9394H85.4477C83.7417 98.1288 82.6516 101.612 82.2344 105.207Z" fill="#F1C8A9"/>
<path d="M133.159 108.084C133.159 108.084 152.676 73.7726 154.73 62.7137C155.261 59.3166 155.079 55.8459 154.194 52.5236C153.31 49.2013 151.743 46.1006 149.594 43.4199C149.594 43.4199 141.693 42.4698 136.425 53.819C130.235 66.8311 124.809 86.5736 122.334 96.5504C120.124 96.4056 117.906 96.4056 115.696 96.5504C105.583 96.2683 95.4908 95.4667 85.4595 94.1485L85.1171 94.8084C83.4268 97.9573 82.3371 101.394 81.9038 104.944C81.8919 105.492 81.936 106.04 82.0355 106.58C90.7272 109.985 111.008 112.439 120.727 113.521C122.386 113.785 123.94 113.97 125.31 114.076H126.021C130.235 113.812 133.159 108.084 133.159 108.084Z" fill="#F7FAFC"/>
<path d="M74.4908 93.8045C72.3948 93.2328 70.2534 92.8442 68.0905 92.6432C67.4325 92.6421 66.7822 92.7846 66.1847 93.0608C65.5873 93.337 65.0571 93.7404 64.6309 94.2428C64.2048 94.7451 63.893 95.3345 63.7172 95.9699C63.5413 96.6053 63.5058 97.2714 63.6129 97.9219C64.1133 99.9015 64.6664 101.195 66.0624 101.855C68.0686 102.657 70.2619 102.867 72.3837 102.462L74.4908 93.8045Z" fill="#F1C8A9"/>
<path d="M82.2343 105.206L79.8638 104.599C80.784 101.166 82.2516 97.9039 84.2097 94.9393H85.4476C83.7417 98.1287 82.6515 101.612 82.2343 105.206Z" fill="#F1C8A9"/>
<path d="M120.425 27.0813C120.083 27.6092 119.767 28.1371 119.504 28.6386C119.145 29.337 118.837 30.0603 118.582 30.8028C118.582 30.8028 117.396 37.718 117.396 39.6711C116.501 42.1785 111.418 46.9558 108.178 49.4104C107.462 50.0139 106.664 50.5117 105.807 50.8884C103.96 51.3091 102.085 51.6001 100.197 51.7594C99.9574 51.7885 99.7142 51.7494 99.4953 51.6468C99.2765 51.5441 99.0908 51.382 98.9594 51.1787C97.4054 48.8297 92.4801 42.3633 91.0578 36.6095C90.5703 34.4013 90.3755 32.1383 90.4783 29.8791C90.4783 29.3776 90.4783 29.1137 90.4783 29.1137L90.1886 28.1107C90.1886 27.9523 90.1359 27.7676 90.0306 27.5564C90.0306 27.2661 89.8462 26.8966 89.7145 26.4743C89.2668 24.9171 88.6083 22.7528 87.8181 20.087C87.1597 17.8963 96.7996 6.73183 104.49 4.25083C109.014 4.22128 113.496 5.11949 117.66 6.89019C120.028 10.0489 122.108 13.4145 123.876 16.9462C124.297 19.348 121.453 25.5769 120.425 27.0813Z" fill="#F1C8A9"/>
<path d="M92.1115 38.0874C92.5739 38.7772 93.2639 39.2818 94.0605 39.5127L95.5882 38.8793C95.1141 38.2722 96.7471 38.193 97.2212 38.193C96.7471 38.0083 93.1123 37.0053 92.1905 37.9819L92.1115 38.0874Z" fill="#D5A179"/>
<path d="M95.5617 38.9582L97.2211 38.2984C96.747 38.1928 95.114 38.272 95.5617 38.9582Z" fill="#FFDCC2"/>
<path d="M92.1377 25.1282C92.2618 25.3256 92.3592 25.5386 92.4275 25.7616C92.5221 25.9846 92.6013 26.2139 92.6645 26.4479C92.7977 26.8985 92.9032 27.3568 92.9806 27.8203C92.7962 28.6385 92.6645 29.4831 92.5328 30.4597C92.4011 31.4363 92.2694 32.1753 92.1904 33.0991C92.1114 34.0228 92.1904 34.8146 92.006 35.7384C91.8217 36.6622 92.006 37.4804 92.006 38.3778C92.1007 38.5799 92.225 38.7667 92.3748 38.9321C92.523 39.086 92.6914 39.2192 92.8752 39.328L93.4283 39.6447L94.0078 39.8822L97.3265 38.5098C97.378 38.2928 97.378 38.0668 97.3265 37.8499C97.293 37.6401 97.231 37.4358 97.1421 37.2429C97.0402 37.0618 96.9063 36.9008 96.747 36.7678C96.5942 36.6281 96.4151 36.5204 96.2202 36.451C96.4049 36.5252 96.5745 36.6325 96.7207 36.7678C96.8803 36.9044 97.0065 37.076 97.0894 37.2693C97.1786 37.4509 97.2323 37.648 97.2474 37.8499C97.2865 38.0504 97.2865 38.2565 97.2474 38.457L95.5091 39.1432L94.0078 39.7239C93.6368 39.5908 93.2831 39.4135 92.9542 39.196C92.7805 39.0945 92.6211 38.9702 92.4801 38.8265C92.3514 38.6793 92.2367 38.5202 92.1377 38.3514C92.1377 37.454 92.1377 36.6358 92.1377 35.712C92.1377 34.7883 92.1377 33.9964 92.3221 33.0727C92.5065 32.1489 92.5065 31.3571 92.6118 30.4333C92.7172 29.5095 92.8752 28.7441 93.0333 27.7939C93.1913 26.8438 92.7962 26.8438 92.6645 26.3951C92.5927 26.169 92.5047 25.9485 92.4011 25.7352C92.342 25.5215 92.2534 25.3172 92.1377 25.1282Z" fill="#D4A179"/>
<path d="M85.9748 26.4743C85.9861 26.5442 85.9861 26.6155 85.9748 26.6855C88.6086 21.6443 95.7464 20.0871 98.2486 19.6648C97.4467 20.4402 96.8509 21.404 96.5151 22.4687C96.1793 23.5335 96.1143 24.6654 96.3259 25.7617L96.4575 25.5769C101.515 18.9785 114.289 17.1838 114.289 17.1838C114.289 17.1838 110.549 24.574 112.34 25.8673C112.937 26.3435 113.411 26.9564 113.723 27.6545C114.035 28.3527 114.175 29.1156 114.131 29.8791H114.289L116.37 29.2984L120.821 28.0579C122.296 26.7293 123.47 25.0999 124.265 23.279C125.06 21.4581 125.458 19.4878 125.43 17.5005C124.891 13.95 123.597 10.5568 121.637 7.55007L120.768 6.33596C119.534 4.67415 117.975 3.28209 116.185 2.24495C111.928 0.638102 107.336 0.129836 102.832 0.766902C88.2135 6.20399 85.29 14.6236 85.2373 14.7819C86.8632 14.0206 88.5451 13.3853 90.268 12.8816C85.0002 16.9462 85.7904 24.2573 85.9748 26.4743Z" fill="#064058"/>
<path d="M121.637 29.1136C121.57 29.5815 121.455 30.0414 121.295 30.486C121.135 30.978 120.913 31.448 120.636 31.8849C120.068 32.9775 119.136 33.8366 118.003 34.3131C117.404 34.5105 116.758 34.5105 116.159 34.3131C115.97 34.2428 115.793 34.1449 115.632 34.0228C115.033 33.5149 114.58 32.8554 114.32 32.1128C114.061 31.3702 114.005 30.5716 114.157 29.7998C114.223 29.2061 114.355 28.6217 114.552 28.0578C114.611 27.8775 114.681 27.7012 114.763 27.53L114.921 27.2132C115.325 26.3219 115.929 25.5361 116.686 24.917C117.082 24.5488 117.567 24.2896 118.093 24.1648C118.62 24.0399 119.169 24.0535 119.688 24.2044C121.242 24.785 122.006 26.8173 121.637 29.1136Z" fill="#F1C8A9"/>
<path d="M120.162 25.7616C119.885 25.7669 119.61 25.8114 119.346 25.8936H119.135H118.951L118.555 26.0519C118.049 26.3036 117.58 26.6232 117.16 27.0021L116.843 27.2924L116.554 27.6091V27.7675L116.422 27.9259L116.159 28.269C116.071 28.3769 115.991 28.4916 115.922 28.6121L115.685 28.9552L115.29 29.6942C115.415 29.9153 115.555 30.127 115.711 30.3277C115.82 30.5106 115.909 30.7054 115.974 30.9083C116.027 31.1162 116.027 31.3339 115.974 31.5418C115.889 31.7373 115.783 31.9232 115.658 32.0961C115.685 32.232 115.76 32.3537 115.869 32.4392L116.132 32.6239L116.712 32.8879C117.118 32.9941 117.544 32.9941 117.95 32.8879C118.147 32.8571 118.335 32.7852 118.503 32.6767C118.684 32.5751 118.853 32.451 119.003 32.3072C119.308 32.0341 119.566 31.7132 119.767 31.357C119.546 31.691 119.28 31.9929 118.977 32.2544C118.673 32.5127 118.312 32.6938 117.923 32.7823C117.535 32.8877 117.126 32.8877 116.738 32.7823C116.553 32.7254 116.376 32.6456 116.211 32.5447L115.974 32.36C115.907 32.3015 115.854 32.2296 115.816 32.1488C115.977 32.0239 116.089 31.8464 116.132 31.6474C116.198 31.4143 116.198 31.1678 116.132 30.9347C116.052 30.7081 115.955 30.4876 115.843 30.2749L115.421 29.7206C115.421 29.8526 115.816 29.1136 115.816 29.1136L116.053 28.7705V28.5857L116.422 28.0842V27.9259V27.7675L116.685 27.4508L117.002 27.1604C117.404 26.7767 117.856 26.4483 118.345 26.1839C118.909 25.9017 119.532 25.757 120.162 25.7616Z" fill="#D4A179"/>
<path d="M118.477 27.1868C118.692 27.6105 118.843 28.0642 118.924 28.5328C118.989 28.988 118.989 29.4502 118.924 29.9053C118.879 30.3688 118.763 30.8227 118.582 31.2514C118.391 31.6813 118.152 32.0885 117.871 32.4655C118.218 32.1312 118.503 31.7381 118.714 31.3042C118.817 31.0909 118.905 30.8704 118.977 30.6443C118.989 30.407 118.989 30.1691 118.977 29.9317C119.056 29.4511 119.056 28.9607 118.977 28.4801C118.884 28.0238 118.715 27.5866 118.477 27.1868Z" fill="#D4A179"/>
<path d="M98.7223 44.9234C98.6846 44.9239 98.6479 44.9109 98.6189 44.8867C98.5899 44.8625 98.5706 44.8287 98.5643 44.7914C98.5384 44.7624 98.524 44.7248 98.524 44.6859C98.524 44.6469 98.5384 44.6093 98.5643 44.5803L101.988 43.9996C102.028 44.0017 102.067 44.0153 102.1 44.0387C102.132 44.0621 102.158 44.0943 102.173 44.1316C102.181 44.1769 102.172 44.2237 102.148 44.2627C102.123 44.3018 102.085 44.3303 102.041 44.3428L98.617 44.9234H98.7223Z" fill="#D4A179"/>
<path d="M149.003 79.42L138.467 115.5C137.414 111.779 136.36 108.163 135.333 104.6L149.003 79.42Z" fill="#F7FAFC"/>
<path d="M15.6766 78.0476V77.7836C15.6498 77.6668 15.6482 77.5456 15.6718 77.4281C15.6954 77.3106 15.7437 77.1995 15.8134 77.1021C15.8832 77.0047 15.9728 76.9233 16.0764 76.8634C16.1799 76.8034 16.2951 76.7662 16.4141 76.7543L18.5475 76.4375C18.7621 76.4273 18.9732 76.4947 19.1423 76.6274C19.3114 76.7601 19.4273 76.9493 19.4688 77.1605C19.5103 77.3717 19.4747 77.5908 19.3684 77.7778C19.2621 77.9649 19.0923 78.1075 18.8899 78.1795L16.8092 78.7338C16.6898 78.7736 16.5631 78.7871 16.4381 78.7731C16.313 78.7591 16.1924 78.718 16.0847 78.6528C15.977 78.5875 15.8848 78.4996 15.8143 78.3951C15.7438 78.2906 15.6968 78.172 15.6766 78.0476Z" fill="#F1C8A9"/>
<path d="M16.2824 80.159V79.895C16.2428 79.7718 16.2303 79.6415 16.2456 79.513C16.261 79.3845 16.304 79.2608 16.3715 79.1505C16.4391 79.0402 16.5296 78.9458 16.637 78.8739C16.7444 78.8019 16.866 78.7541 16.9936 78.7337L19.2323 78.2322C19.4629 78.1951 19.699 78.2446 19.8954 78.3712C20.0919 78.4978 20.2348 78.6925 20.2968 78.9181C20.3588 79.1437 20.3355 79.3844 20.2314 79.5938C20.1273 79.8033 19.9498 79.967 19.7328 80.0534L17.573 80.8188C17.4458 80.8723 17.3085 80.8974 17.1706 80.8923C17.0328 80.8872 16.8977 80.852 16.7748 80.7892C16.6519 80.7263 16.5442 80.6374 16.4592 80.5286C16.3741 80.4197 16.3138 80.2936 16.2824 80.159Z" fill="#F1C8A9"/>
<path d="M16.8878 82.2179V82.0067C16.8066 81.8065 16.805 81.5828 16.8834 81.3815C16.9618 81.1802 17.1142 81.0167 17.3093 80.9246L19.2847 80.3703C19.3849 80.3378 19.4907 80.3257 19.5957 80.3347C19.7007 80.3437 19.8028 80.3737 19.8961 80.4229C19.9893 80.4721 20.0718 80.5395 20.1387 80.6211C20.2056 80.7027 20.2555 80.7969 20.2855 80.8982C20.3236 80.9987 20.3416 81.1057 20.3384 81.2132C20.3352 81.3207 20.3109 81.4265 20.2668 81.5245C20.2228 81.6226 20.1599 81.7109 20.0818 81.7846C20.0036 81.8583 19.9118 81.9158 19.8114 81.9539L17.9414 82.7193C17.8394 82.7569 17.731 82.7736 17.6225 82.7687C17.514 82.7637 17.4076 82.7371 17.3095 82.6904C17.2114 82.6437 17.1235 82.5778 17.0511 82.4967C16.9787 82.4156 16.9232 82.3208 16.8878 82.2179Z" fill="#F1C8A9"/>
<path d="M17.7572 83.9863V83.7752C17.7097 83.6826 17.6822 83.581 17.6766 83.477C17.671 83.373 17.6874 83.269 17.7247 83.1718C17.762 83.0746 17.8194 82.9864 17.8931 82.913C17.9668 82.8396 18.0551 82.7826 18.1523 82.7458L19.838 82.0596C20.0169 81.9861 20.217 81.9834 20.3979 82.052C20.5787 82.1206 20.7269 82.2553 20.8125 82.4291C20.8964 82.6012 20.9103 82.7992 20.8513 82.9813C20.7924 83.1635 20.6651 83.3156 20.4964 83.4057L18.8898 84.303C18.7991 84.3722 18.6937 84.4193 18.5819 84.4408C18.47 84.4622 18.3547 84.4574 18.2449 84.4268C18.1352 84.3961 18.0341 84.3403 17.9495 84.2639C17.8649 84.1875 17.799 84.0925 17.7572 83.9863Z" fill="#F1C8A9"/>
<defs>
<filter id="filter0_f_111_5" x="33.1628" y="57.7054" width="42.8073" height="42.8073" filterUnits="userSpaceOnUse" color-interpolation-filters="sRGB">
<feFlood flood-opacity="0" result="BackgroundImageFix"/>
<feBlend mode="normal" in="SourceGraphic" in2="BackgroundImageFix" result="shape"/>
<feGaussianBlur stdDeviation="6.51166" result="effect1_foregroundBlur_111_5"/>
</filter>
</defs>
</svg>
