<svg width="400" height="534" viewBox="0 0 400 534" fill="none" xmlns="http://www.w3.org/2000/svg">
<ellipse cx="200" cy="199.718" rx="200" ry="199.718" fill="#55ABCA"/>
<path d="M159.075 523.69C157.057 523.343 157.336 528.206 158.101 528.554C162.971 531.124 174.868 531.471 184.261 532.097C195.184 532.861 206.455 532.305 207.429 530.638C208.264 529.179 209.377 526.261 205.481 524.385C203.672 523.551 178.834 521.953 178.277 522.162C177.651 522.301 159.075 523.69 159.075 523.69Z" fill="#1D2F46"/>
<path d="M171.251 489.369C171.668 496.594 175.704 510.212 176.956 512.921C177.443 513.963 182.8 520.077 179.878 523.204C175.356 527.998 164.085 528.623 161.163 517.368C164.154 505.348 156.014 494.718 156.014 491.175C156.084 487.493 171.042 485.548 171.251 489.369Z" fill="#E5B48F"/>
<path d="M95.6927 493.746C92.2836 502.708 93.4664 511.74 94.51 514.311C94.997 515.562 99.5889 529.874 86.8568 525.983C78.5775 523.412 78.7167 521.467 79.0645 519.522C80.943 509.17 80.2473 497.984 80.2473 494.58C80.2473 491.106 96.9451 490.481 95.6927 493.746Z" fill="#E5B48F"/>
<path d="M75.9339 524.941C74.3337 524.594 74.8903 530.221 75.3773 530.777C75.7947 531.333 84.4915 533.278 93.7448 533.07C102.163 532.861 107.521 532.375 108.147 530.846C108.495 530.082 107.938 526.4 106.338 525.358C104.877 524.455 91.0315 523.551 90.5445 523.69C90.1271 523.829 75.9339 524.941 75.9339 524.941Z" fill="#1D2F46"/>
<path d="M133.054 241.13H198.106V522.092H133.054V241.13Z" fill="#132145"/>
<path d="M132.707 300.949V376.54V441.778H132.22C135.768 442.403 139.386 442.542 143.073 442.195C172.364 439.485 193.167 405.581 189.549 366.604C187.74 347.082 180.156 329.99 169.303 318.11C163.876 312.135 157.684 307.55 151.005 304.562C147.665 303.103 144.186 301.992 140.638 301.366C138.899 301.088 137.09 300.88 135.281 300.81C134.376 300.741 133.472 300.741 132.567 300.81H132.707V300.949Z" fill="#132145"/>
<path d="M132.706 304.353V376.331V438.512H132.428C135.768 439.068 139.246 439.277 142.725 438.929C170.624 436.359 190.453 404.121 186.974 366.952C183.496 329.782 158.031 301.783 130.132 304.353H132.706Z" fill="#122044"/>
<path d="M132.706 307.688V376.123V435.177H132.637C135.837 435.733 139.107 435.872 142.447 435.594C168.955 433.093 187.809 402.524 184.47 367.16C181.2 331.866 156.988 305.257 130.48 307.688H132.706Z" fill="#121F44"/>
<path d="M132.707 311.093V375.914V431.356H130.55C131.315 431.565 132.08 431.704 132.846 431.843C135.907 432.398 138.968 432.537 142.099 432.19C167.215 429.828 185.026 400.856 181.896 367.369C178.765 333.95 155.875 308.731 130.758 311.023H132.707V311.093Z" fill="#111E43"/>
<path d="M132.707 314.427V375.636V428.021H130.898C131.594 428.16 132.289 428.369 133.055 428.438C135.907 428.924 138.829 429.063 141.821 428.786C165.546 426.562 182.383 399.189 179.461 367.577C176.538 335.965 154.901 312.204 131.176 314.358H132.707V314.427Z" fill="#111D42"/>
<path d="M132.706 317.762V375.358V424.687H131.176C131.872 424.826 132.498 424.964 133.193 425.103C135.907 425.59 138.62 425.729 141.473 425.451C163.806 423.367 179.669 397.591 176.886 367.855C174.103 338.119 153.718 315.678 131.454 317.762H132.706Z" fill="#101C42"/>
<path d="M132.706 321.167V375.15V421.352H131.524C132.15 421.491 132.776 421.63 133.402 421.769C135.907 422.185 138.551 422.324 141.125 422.116C162.067 420.171 176.886 395.993 174.312 368.133C171.738 340.273 152.605 319.221 131.663 321.167H132.706Z" fill="#101C41"/>
<path d="M132.707 324.502V374.872V417.531H130.132C131.315 417.878 132.428 418.156 133.611 418.364C135.977 418.781 138.412 418.851 140.847 418.642C160.397 416.836 174.243 394.256 171.807 368.272C169.372 342.288 151.561 322.626 132.011 324.432H132.707V324.502Z" fill="#0F1B40"/>
<path d="M132.707 327.906V374.733V414.334H130.55C131.593 414.682 132.707 414.96 133.82 415.099C136.046 415.515 138.272 415.585 140.499 415.377C158.658 413.709 171.529 392.727 169.233 368.549C167.007 344.372 150.448 326.169 132.289 327.906H132.707Z" fill="#0F1A3F"/>
<path d="M132.707 331.241V374.455V411H131.037C132.011 411.278 133.055 411.555 134.029 411.694C136.046 412.042 138.133 412.111 140.221 411.972C156.988 410.444 168.885 391.06 166.798 368.758C164.641 346.526 149.335 329.712 132.707 331.241Z" fill="#0E193F"/>
<path d="M132.915 334.645C131.941 334.714 131.037 334.853 130.063 335.131H132.637V407.804H131.385C132.289 408.082 133.194 408.29 134.168 408.498C136.046 408.846 137.925 408.915 139.873 408.707C155.249 407.248 166.102 389.531 164.224 369.105C162.276 348.61 148.291 333.186 132.915 334.645Z" fill="#0E183E"/>
<path d="M133.263 337.98C132.359 338.05 131.524 338.189 130.689 338.397H132.706V404.469H131.941C132.776 404.747 133.611 404.955 134.446 405.094C136.116 405.372 137.855 405.442 139.594 405.303C153.579 403.983 163.458 387.864 161.719 369.314C159.91 350.694 147.178 336.66 133.263 337.98Z" fill="#0D163D"/>
<path d="M133.541 341.315C132.776 341.384 132.011 341.523 131.246 341.662H132.637V400.3H130.132C132.985 401.551 136.046 402.176 139.177 401.829C151.77 400.648 160.676 386.127 159.075 369.453C157.545 352.779 146.134 340.203 133.541 341.315Z" fill="#0C163D"/>
<path d="M133.889 344.719C132.498 344.858 131.176 345.136 129.854 345.623H132.707V397.174H130.898C133.472 398.286 136.185 398.842 138.968 398.564C150.1 397.521 158.032 384.599 156.64 369.731C155.249 354.863 145.021 343.677 133.889 344.719Z" fill="#0C153C"/>
<path d="M134.168 348.054C132.915 348.193 131.802 348.471 130.619 348.888H132.637V393.978H131.524C133.75 394.951 136.116 395.437 138.551 395.159C148.291 394.256 155.248 382.931 154.066 369.939C152.883 356.947 143.978 347.151 134.168 348.054Z" fill="#0B143B"/>
<path d="M134.515 351.458C133.472 351.528 132.428 351.806 131.523 352.153H132.706V390.782H132.289C134.167 391.616 136.255 392.033 138.342 391.824C146.691 391.06 152.674 381.403 151.63 370.217C150.517 359.031 142.864 350.694 134.515 351.458Z" fill="#0B133B"/>
<path d="M134.794 354.793C133.054 354.932 131.454 355.557 129.993 356.6H132.637V386.266H130.619C131.315 386.822 132.15 387.239 132.915 387.586C134.516 388.281 136.185 388.628 137.925 388.42C144.882 387.794 149.822 379.735 148.987 370.425C148.152 361.116 141.821 354.168 134.794 354.793Z" fill="#0A123B"/>
<path d="M135.142 358.198C133.75 358.337 132.428 358.823 131.315 359.657H132.707V381.889H130.202C132.289 384.182 134.933 385.432 137.716 385.154C143.282 384.668 147.248 378.207 146.552 370.773C145.787 363.269 140.708 357.642 135.142 358.198Z" fill="#0A113A"/>
<path d="M135.42 361.532C133.333 361.741 131.524 363.061 130.341 365.006H132.637V379.249H131.663C133.193 380.916 135.211 381.889 137.298 381.681C141.473 381.264 144.464 376.47 143.908 370.912C143.49 365.354 139.664 361.116 135.42 361.532Z" fill="#091139"/>
<path d="M135.768 364.867C132.985 365.145 130.967 368.341 131.315 372.093C131.663 375.775 134.237 378.624 137.02 378.346C139.803 378.068 141.821 374.872 141.473 371.12C141.125 367.438 138.551 364.659 135.768 364.867Z" fill="#091039"/>
<path d="M136.116 368.272C134.724 368.411 133.75 370.009 133.889 371.885C134.028 373.76 135.35 375.15 136.742 375.011C138.133 374.872 139.107 373.274 138.968 371.398C138.76 369.522 137.507 368.133 136.116 368.272Z" fill="#080E38"/>
<path d="M97.7802 265.725C90.8923 299.073 97.5715 360.143 97.5715 389.948C87.9006 397.313 78.6472 406.414 77.3949 410.652C69.6026 437.47 78.2297 508.475 78.2297 510.976C80.0387 514.311 97.7802 515.492 97.6411 509.865C108.356 441.5 122.062 416.002 127.628 401.412C150.239 341.801 168.329 274.479 168.329 274.479L97.7802 265.725Z" fill="#132145"/>
<path d="M92.2142 510.073C94.0231 510.142 96.7366 514.242 98.1977 518.549C99.937 520.355 103.068 521.05 104.668 523.412C105.781 525.08 107.242 528.067 106.616 528.901C104.459 531.68 77.1165 531.194 76.1425 528.693C74.8901 525.427 77.534 522.44 77.9515 519.174C78.2993 516.534 78.856 513.199 79.5517 514.103C80.7345 515.84 79.9691 519.591 82.6825 519.939C85.2568 512.505 89.2225 510.003 92.2142 510.073Z" fill="#263E5E"/>
<path d="M159.145 525.149C159.91 527.928 199.706 532.375 205.412 528.693C208.473 526.747 205.759 524.455 202.35 523.065C198.385 521.398 188.714 517.437 184.957 515.77C181.895 514.45 181.13 513.199 180.087 510.976C179.6 510.003 178.904 509.239 178.486 509.517C177.234 510.42 177.025 513.408 177.512 515.77C177.999 518.132 178.556 520.355 177.582 520.842C175.842 521.745 174.59 521.398 173.268 520.564C167.772 521.189 160.884 520.216 159.84 518.688C159.005 520.633 158.31 522.301 159.145 525.149Z" fill="#263E5E"/>
<path d="M189.757 135.595C201.028 132.677 248.06 210.352 248.06 210.352L195.81 237.725C195.81 237.795 164.988 142.056 189.757 135.595Z" fill="#6592C5"/>
<path d="M144.673 119.685C134.167 121.631 95.9709 126.147 83.03 149.56C77.6032 159.426 94.9271 234.877 93.5357 242.172C92.1442 249.398 90.5441 295.947 92.0747 297.892C98.0581 305.743 182.66 306.993 193.445 290.805C196.506 286.22 190.314 248.911 191.496 240.782C192.54 233.696 206.524 153.729 195.462 139.208C186.348 127.189 144.673 119.685 144.673 119.685Z" fill="#5478A3"/>
<path d="M179.947 74.4561C182.034 78.7636 177.025 98.0781 174.103 98.8424C167.493 100.579 146.273 101.413 142.377 98.9813C138.411 96.4801 138.063 80.1532 142.168 71.4687C147.456 60.3525 175.842 66.0495 179.947 74.4561Z" fill="white"/>
<path d="M142.864 86.9617C141.125 102.802 136.811 125.729 135.628 128.578C134.445 131.427 145.995 137.749 154.344 137.818C165.823 137.888 172.572 133.58 172.572 130.94C172.572 128.37 168.815 108.916 168.815 108.916L159.84 89.046L142.864 86.9617Z" fill="#DE9E87"/>
<path d="M167.841 71.3296C175.355 73.5528 181.13 77.513 177.303 90.5746C173.477 103.636 172.085 106.763 166.728 112.738C161.371 118.712 145.508 107.318 144.603 106.971C143.699 106.624 144.256 92.7978 143.212 90.0187C142.168 87.2397 139.733 82.7237 141.194 80.7784C142.655 78.8331 145.438 82.0984 145.438 82.0984C145.438 82.0984 145.786 64.7988 167.841 71.3296Z" fill="#E5B48F"/>
<path d="M165.684 98.1475C167.702 98.217 174.033 101.621 175.216 103.358C176.399 105.095 171.807 118.435 168.328 119.963C164.849 121.492 158.518 122.534 155.944 122.256C153.37 121.978 146.134 115.864 144.742 114.544C143.351 113.293 141.612 95.0905 143.421 90.6441C145.229 86.1976 144.186 80.2921 145.716 81.4732C147.247 82.6543 144.742 95.4379 147.038 97.9391C149.195 100.44 162.136 98.0086 165.684 98.1475Z" fill="white"/>
<path d="M249.591 150.324C250.634 150.394 251.608 154.076 251.539 155.396C251.469 156.647 249.173 158.522 249.173 158.522L244.442 158.314C244.442 158.314 246.251 155.882 246.808 154.84C247.434 153.729 248.408 150.255 249.591 150.324Z" fill="#DE9E87"/>
<path d="M290.431 382.306C293.98 409.263 244.373 491.523 245.625 504.237C252.165 513.477 255.435 521.953 256.27 524.038C251.4 524.454 247.017 525.635 244.791 527.998C236.442 522.162 232.545 512.018 232.128 509.795C231.919 508.892 232.615 505.071 232.615 504.237C232.615 502.43 230.11 419.823 236.72 404.608C241.312 393.908 257.314 390.643 266.011 385.988C275.612 380.847 290.431 382.306 290.431 382.306Z" fill="#DE9E87"/>
<path d="M240.685 524.176C239.92 526.608 238.668 529.873 238.668 531.332C238.668 531.61 238.876 532.166 238.668 532.235C237.902 532.374 235.537 532.235 235.537 532.235L232.754 529.039L233.241 519.869L240.685 524.176Z" fill="#3B6280"/>
<path d="M253.139 520.285C265.663 520.147 263.923 531.819 262.532 533.069C261.349 534.111 247.504 534.25 245.138 533.625C242.842 533.069 238.181 528.762 235.467 523.968C234.911 522.926 233.728 527.858 235.607 532.166C234.98 532.374 232.128 532.305 231.71 532.096C230.597 531.541 230.458 521.675 229.971 520.911C226.144 514.936 232.545 505.626 232.545 505.626C232.545 505.626 232.197 509.169 232.336 509.864C233.31 514.519 238.598 522.3 242.912 525.079C244.721 522.717 250.565 520.355 253.139 520.285Z" fill="#5082A7"/>
<path d="M231.154 364.798C234.98 383.904 230.458 389.948 227.953 410.791C224.753 437.262 216.334 472.625 218.213 505.209C224.753 514.45 225.796 521.675 226.701 523.69C226.771 527.72 221.205 530.568 219.048 532.861C208.542 527.511 204.089 514.102 203.602 511.879C203.394 510.976 205.272 506.46 205.202 505.626C204.715 489.925 180.782 438.929 182.173 412.528C182.8 400.231 199.358 379.596 203.115 371.815C208.542 360.351 231.154 364.798 231.154 364.798Z" fill="#DE9E87"/>
<path d="M213.343 524.176C212.577 526.608 211.325 529.873 211.325 531.332C211.325 531.61 211.534 532.166 211.325 532.236C210.56 532.374 208.194 532.236 208.194 532.236L205.411 529.04L205.898 519.869L213.343 524.176Z" fill="#3B6280"/>
<path d="M225.797 520.286C238.32 520.147 236.581 531.819 235.189 533.069C234.006 534.111 220.161 534.25 217.796 533.625C215.5 533.069 210.838 528.762 208.125 523.968C207.568 522.926 206.385 527.859 208.264 532.166C207.638 532.375 204.785 532.305 204.368 532.097C203.255 531.541 203.115 521.675 202.628 520.911C198.802 514.936 205.272 505.626 205.272 505.626C205.272 505.626 204.855 508.961 204.994 509.864C205.968 514.519 211.256 522.3 215.569 525.08C217.309 522.717 223.222 520.355 225.797 520.286Z" fill="#5A92BC"/>
<path d="M245.347 135.526C254.392 131.427 262.462 115.1 251.4 102.594C240.338 90.0883 227.049 94.8128 223.501 95.716C218.143 97.036 199.706 117.115 214.665 137.61C229.554 158.106 245.347 135.526 245.347 135.526Z" fill="white"/>
<path d="M257.036 162.413C290.431 186.66 300.798 232.028 298.154 241.338C293.98 256.137 281.387 262.876 265.037 252.246C248.687 241.547 241.868 151.366 257.036 162.413Z" fill="#40647E"/>
<path d="M293.701 385.571C293.145 395.923 286.257 410.513 284.796 413.848C281.108 422.046 187.253 420.031 177.095 407.109C177.095 401.064 185.304 378.832 185.304 374.594C185.096 357.155 158.101 322.487 168.259 286.567C173.755 267.114 202.211 249.05 206.664 248.077C217.657 245.646 258.844 250.579 265.384 260.722C290.431 300.185 295.302 356.669 293.701 385.571Z" fill="#5A92BC"/>
<path d="M232.058 151.505C227.118 149.768 201.306 159.217 199.149 164.497C197.758 168.041 196.923 210.908 198.593 236.266C199.428 249.259 166.449 265.655 168.258 282.468C169.58 294.835 288.552 322.07 283.891 288.721C283.613 286.567 268.932 243.353 268.793 241.269C267.332 220.426 264.688 214.243 265.593 203.474C266.149 196.734 258.357 166.026 256.479 163.455C252.861 158.522 239.155 154.006 232.058 151.505Z" fill="#132145"/>
<path d="M222.388 134.553C221.692 145.739 219.465 157.48 217.587 161.024C214.943 165.956 229.345 170.75 235.398 169.152C241.451 167.554 243.19 164.358 243.399 162.205C243.608 160.051 236.302 153.034 235.05 138.096C234.006 126.216 222.666 130.037 222.388 134.553Z" fill="#DE9E87"/>
<path d="M250.774 114.822C255.087 132.955 249.243 154.632 236.581 156.369C226.075 157.828 217.656 144.002 221.553 131.566C216.961 130.454 216.265 124.896 218.074 122.881C221.205 119.199 223.57 124.271 223.57 124.271C223.57 124.271 225.24 121.491 226.84 115.03C245.556 123.159 250.774 114.822 250.774 114.822Z" fill="#E5B48F"/>
<path d="M228.788 98.4253C233.659 84.7385 225.171 64.8683 214.665 68.8284C204.159 72.7886 210.629 90.0187 210.629 90.0187C210.629 90.0187 206.177 83.7658 203.255 87.2397C200.054 90.9914 208.403 105.79 218.63 106.901C228.858 107.944 228.788 98.4253 228.788 98.4253Z" fill="white"/>
<path d="M199.149 164.498C212.16 164.498 209.933 236.753 206.524 242.728C198.732 256.484 178.416 257.804 168.258 242.589C158.031 227.374 187.53 164.498 199.149 164.498Z" fill="#40647E"/>
<path d="M291.544 249.814C293.353 246.966 291.962 230.292 284.726 223.483C275.681 214.937 249.939 200.625 248.826 198.61C246.808 195.067 236.859 182.909 234.98 181.311C233.102 179.782 227.258 178.184 224.892 178.74C222.527 179.296 231.432 182.006 231.919 182.422C232.406 182.839 232.128 183.187 231.989 184.229C231.85 185.271 222.875 181.728 221.483 181.45C220.092 181.241 221.344 186.66 221.97 187.425C222.527 188.258 229.275 188.953 229.623 190.273C229.971 191.593 223.57 190.551 223.292 191.593C223.083 192.635 228.093 193.052 229.832 193.33C231.571 193.608 235.815 200.973 237.902 202.362C239.99 203.752 243.677 203.265 243.677 203.265C243.677 203.265 262.532 241.755 268.028 245.646C273.385 249.606 288.761 254.191 291.544 249.814Z" fill="#DE9E87"/>
<path d="M182.452 228.068C193.583 214.937 224.475 189.439 229.275 189.161C235.606 188.814 241.103 188.953 245.138 189.161C249.173 189.37 251.956 195.414 251.33 196.109C250.287 197.221 247.086 192.566 246.53 192.566C245.973 192.566 249.452 198.193 249.174 200.208C248.965 201.667 244.234 200.556 243.468 200.208C242.773 199.861 238.598 197.707 238.598 197.707C238.598 197.707 242.981 201.737 241.59 202.501C239.572 203.543 235.885 197.707 234.493 198.263C233.102 198.819 231.293 201.459 227.745 202.779C224.196 204.099 222.944 202.779 221.622 203.404C220.3 204.099 208.403 236.683 205.481 239.879C200.471 245.298 188.365 249.745 182.104 249.536C175.772 249.328 178.903 232.306 182.452 228.068Z" fill="#E5B48F"/>
<path d="M253 155.535C255.714 155.952 254.6 160.398 255.366 160.537C256.34 160.746 258.288 158.314 259.331 158.661C260.792 159.217 266.428 168.388 266.428 169.43C266.428 171.167 260.236 174.363 258.496 174.224C257.731 174.155 254.252 172.557 253.487 171.376C253 170.611 254.461 164.984 253.765 164.497C252.304 163.455 251.678 168.249 248.547 167.415C247.086 167.138 250.913 155.257 253 155.535Z" fill="#DE9E87"/>
<path d="M101.537 156.855C110.721 174.71 112.39 216.674 114.965 218.064C118.583 219.939 180.643 199.096 180.643 199.096C180.643 199.096 186.278 203.543 183.704 208.267C174.59 224.803 126.792 258.151 99.3104 252.802C83.9345 249.814 69.8109 176.586 83.0301 149.56C85.6739 144.141 94.1619 142.404 101.537 156.855Z" fill="#6592C5"/>
<path d="M180.225 189.787C181.269 188.189 183.635 185.549 184.957 184.993C185.513 184.715 188.087 184.715 188.922 184.576C191.844 184.09 193.862 182.005 193.792 183.951C193.653 188.328 187.253 188.814 187.6 189.717C189.548 189.092 196.088 186.521 198.384 186.382C200.889 186.313 207.081 186.66 206.177 189.3C205.759 190.481 199.706 190.065 198.663 190.273C197.48 190.481 193.236 192.427 193.514 192.635C194.071 193.052 197.341 191.801 201.307 191.524C205.272 191.315 208.473 191.802 208.96 192.705C209.725 194.233 208.125 197.707 206.038 198.193C203.255 198.819 197.132 198.958 196.088 200.833C195.671 201.528 203.672 200.764 203.672 202.292C203.742 205.558 196.297 204.238 195.045 204.446C193.305 204.794 185.931 208.615 182.869 208.198C179.53 207.712 175.633 204.238 176.677 201.598C178.069 198.193 179.182 191.385 180.225 189.787Z" fill="#E5B48F"/>
</svg>
