<svg width="1444" height="826" viewBox="0 0 1444 826" fill="none" xmlns="http://www.w3.org/2000/svg">
<g clip-path="url(#clip0_102_2)">
<path d="M779.833 244.844H1378.17V821.523H779.833V244.844Z" fill="#F7FAFC"/>
<path d="M783.506 248.464V817.903H1374.49V248.464H783.506ZM776.16 241.279H1381.84V825.143H776.16V241.279Z" fill="#A3C2DB"/>
<path d="M1217.28 304.41H1303.23V409.719H1217.28V304.41Z" fill="#C4D9E4"/>
<path d="M1085.16 304.41H1171.12V409.719H1085.16V304.41Z" fill="#C4D9E4"/>
<path d="M953 304.41H1038.95V409.719H953V304.41Z" fill="#C4D9E4"/>
<path d="M1217.28 467.694H1303.23V573.004H1217.28V467.694Z" fill="#C4D9E4"/>
<path d="M1085.16 467.694H1171.12V573.004H1085.16V467.694Z" fill="#C4D9E4"/>
<path d="M953 467.694H1038.95V573.004H953V467.694Z" fill="#C4D9E4"/>
<path d="M1142.72 630.979H1303.23V750.165H1142.72V630.979Z" fill="#C4D9E4"/>
<path d="M953 630.979H1104.63V750.165H953V630.979Z" fill="#C4D9E4"/>
<path d="M838.158 304.41H888.426V750.165H838.158V304.41Z" fill="#C4D9E4"/>
<path d="M1269.52 304.41L1303.23 337.703V304.41H1269.52Z" fill="#AAC6E0"/>
<path d="M1303.23 630.979H1278.29L1303.23 655.606V630.979Z" fill="#AAC6E0"/>
<path d="M1263.6 573.059L1217.28 527.37V570.865L1219.47 573.059H1263.6Z" fill="#AAC6E0"/>
<path d="M1156.81 467.694H1112.68L1171.12 525.34V481.79L1156.81 467.694Z" fill="#AAC6E0"/>
<path d="M1097.99 409.719L1085.11 397.049V409.719H1097.99Z" fill="#AAC6E0"/>
<path d="M953 304.41V310.279L1038.95 395.02V351.525L991.208 304.41H953Z" fill="#AAC6E0"/>
<path d="M962.759 630.979H953.001V664.93L1039.45 750.165H1083.58L962.759 630.979Z" fill="#AAC6E0"/>
<path d="M838.158 508.173V551.668L888.426 601.251V557.701L838.158 508.173Z" fill="#AAC6E0"/>
<path d="M1245.34 467.694H1218.76L1303.23 551.064V524.792L1245.34 467.694Z" fill="#AAC6E0"/>
<path d="M1085.11 309.73V336.003L1159.94 409.719H1171.12V394.526L1085.11 309.73Z" fill="#AAC6E0"/>
<path d="M1303.23 467.694H1286.02L1303.23 484.697V467.694Z" fill="#AAC6E0"/>
<path d="M1233.83 304.41H1217.28V399.956L1227.2 409.719H1303.23V372.861L1233.83 304.41Z" fill="#AAC6E0"/>
<path d="M1120.41 304.41L1171.12 354.432V304.41H1120.41Z" fill="#AAC6E0"/>
<path d="M975.859 409.719L953 387.177V409.719H975.859Z" fill="#AAC6E0"/>
<path d="M1200.28 630.979H1142.72V686.102L1207.74 750.165H1303.23V732.504L1200.28 630.979Z" fill="#AAC6E0"/>
<path d="M1104.63 630.979H1086.86L1104.63 648.53V630.979Z" fill="#AAC6E0"/>
<path d="M1141.46 573.059L1085.11 517.497V573.059H1141.46Z" fill="#AAC6E0"/>
<path d="M953 467.694V499.013L1028.05 573.059H1038.95V471.918L1034.68 467.694H953Z" fill="#AAC6E0"/>
<path d="M838.158 304.41V385.75L888.426 435.334V323.497L869.075 304.41H838.158Z" fill="#AAC6E0"/>
<path d="M982.109 750.165L953.001 721.479V750.165H982.109Z" fill="#AAC6E0"/>
<path d="M838.158 608.216V720.053L868.692 750.165H888.426V657.8L838.158 608.216Z" fill="#AAC6E0"/>
<path d="M1217.27 304.41V409.719H1303.23V304.41H1217.27ZM1206.26 293.55H1217.27H1303.23H1314.25V304.465V409.774V420.689H1303.23H1217.27H1206.26V409.774V304.465V293.55Z" fill="#D9E4EE"/>
<path d="M1085.16 304.41V409.719H1171.12V304.41H1085.16ZM1074.09 293.55H1085.11H1171.06H1182.08V304.465V409.774V420.689H1171.06H1085.11H1074.09V409.774V304.465V293.55Z" fill="#D9E4EE"/>
<path d="M953.001 304.41V409.719H1038.95V304.41H953.001ZM941.982 293.55H953.001H1038.95H1049.97V304.465V409.774V420.689H1038.95H953.001H941.982V409.774V304.465V293.55Z" fill="#D9E4EE"/>
<path d="M1217.27 467.694V573.004H1303.23V467.694H1217.27ZM1206.26 456.834H1217.27H1303.23H1314.25V467.749V573.059V583.973H1303.23H1217.27H1206.26V573.059V467.749V456.834Z" fill="#D9E4EE"/>
<path d="M1085.16 467.694V573.004H1171.12V467.694H1085.16ZM1074.09 456.834H1085.11H1171.06H1182.08V467.749V573.059V583.973H1171.06H1085.11H1074.09V573.059V467.749V456.834Z" fill="#D9E4EE"/>
<path d="M953.001 467.694V573.004H1038.95V467.694H953.001ZM941.982 456.834H953.001H1038.95H1049.97V467.749V573.059V583.973H1038.95H953.001H941.982V573.059V467.749V456.834Z" fill="#D9E4EE"/>
<path d="M1142.72 630.979V750.165H1303.23V630.979H1142.72ZM1131.65 620.119H1142.67H1303.17H1314.19V631.034V750.22V761.135H1303.17H1142.67H1131.65V750.22V631.034V620.119Z" fill="#D9E4EE"/>
<path d="M953 630.979V750.165H1104.63V630.979H953ZM941.982 620.119H953H1104.63H1115.64V631.034V750.22V761.135H1104.63H953H941.982V750.22V631.034V620.119Z" fill="#D9E4EE"/>
<path d="M838.158 304.41V750.165H888.425V304.41H838.158ZM827.084 293.55H838.103H888.37H899.389V304.465V750.22V761.134H888.37H838.103H827.084V750.22V304.465V293.55Z" fill="#D9E4EE"/>
<path d="M1379.1 236.562L1394.01 210.509H780.928V236.562H1379.1Z" fill="#F7FAFC"/>
<path d="M785.643 215.171V231.9H1376.3L1385.89 215.171H785.643ZM776.159 205.847H1402.12L1381.84 241.279H776.159V205.847Z" fill="#96B7D9"/>
<path d="M776.16 190.544H1444L1429.58 206.066H776.16V190.544Z" fill="#96B7D9"/>
<path d="M59.9999 25H772.572V822.444H59.9999V25Z" fill="#F7FAFC"/>
<path d="M63.643 27.6986V819.987H768.869V27.6986H63.643ZM56.2976 22.5428H776.16V825.143H56.2976V22.5428Z" fill="#C9DFED"/>
<path d="M451.805 558.524H670.362V825.143H451.805V558.524Z" fill="#C9DFED"/>
<path d="M160.395 558.524H378.952V825.143H160.395V558.524Z" fill="#C9DFED"/>
<path d="M533.811 268.923H670.362V436.211H533.811V268.923Z" fill="#96B7D9"/>
<path d="M160.341 268.923H296.891V436.211H160.341V268.923Z" fill="#96B7D9"/>
<path d="M347.104 268.923H483.654V436.211H347.104V268.923Z" fill="#96B7D9"/>
<path d="M533.811 108.839H670.362V221.371H533.811V108.839Z" fill="#96B7D9"/>
<path d="M160.341 108.839H296.891V221.371H160.341V108.839Z" fill="#96B7D9"/>
<path d="M347.103 108.839H483.653V221.371H347.103V108.839Z" fill="#96B7D9"/>
<path d="M608.583 268.923H562.317L670.362 375.439V329.859L608.583 268.923Z" fill="#AAC6E0"/>
<path d="M401.483 436.266L347.104 382.624V428.203L355.272 436.266H401.483Z" fill="#AAC6E0"/>
<path d="M185.557 268.923L296.891 378.73V333.151L231.823 268.923H185.557Z" fill="#AAC6E0"/>
<path d="M650.299 436.266L533.812 321.413V436.266H650.299Z" fill="#AAC6E0"/>
<path d="M479.844 269H361L482.859 389.173V272.017L479.844 269Z" fill="#AAC6E0"/>
<path d="M160.396 303.313V420.47L176.402 436.266H295.192L160.396 303.313Z" fill="#AAC6E0"/>
<path d="M608.582 108.839H562.316L670.362 180.49V149.83L608.582 108.839Z" fill="#AAC6E0"/>
<path d="M401.482 221.408L347.104 185.324V215.984L355.271 221.408H401.482Z" fill="#AAC6E0"/>
<path d="M185.557 108.839L296.891 182.704V152.044L231.823 108.839H185.557Z" fill="#AAC6E0"/>
<path d="M650.299 221.408L533.812 144.148V221.408H650.299Z" fill="#AAC6E0"/>
<path d="M481.673 108.733H362.829L484.688 189.572V110.762L481.673 108.733Z" fill="#AAC6E0"/>
<path d="M160.396 131.973V210.782L176.402 221.408H295.192L160.396 131.973Z" fill="#AAC6E0"/>
<path d="M544.885 279.838V425.351H659.343V279.838H544.885ZM533.811 268.923H670.362V436.211H533.811V268.923Z" fill="#C9DFED"/>
<path d="M171.414 279.838V425.351H285.873V279.838H171.414ZM160.396 268.923H296.946V436.211H160.396V268.923Z" fill="#C9DFED"/>
<path d="M358.122 279.838V425.351H472.58V279.838H358.122ZM347.103 268.923H483.654V436.211H347.103V268.923Z" fill="#C9DFED"/>
<path d="M544.885 116.181V214.066H659.343V116.181H544.885ZM533.811 108.839H670.362V221.371H533.811V108.839Z" fill="#C9DFED"/>
<path d="M171.413 116.181V214.066H285.872V116.181H171.413ZM160.395 108.839H296.945V221.371H160.395V108.839Z" fill="#C9DFED"/>
<path d="M358.121 116.181V214.066H472.58V116.181H358.121ZM347.103 108.839H483.653V221.371H347.103V108.839Z" fill="#C9DFED"/>
<path d="M287.736 576.953H293.547V811.595H287.736V576.953Z" fill="#F5F5F0"/>
<path d="M589.177 576.953H594.988V811.595H589.177V576.953Z" fill="#F5F5F0"/>
<path d="M773.473 538.175L788.11 514.041H44.3471L58.9833 538.175H773.473Z" fill="#F7FAFC"/>
<path d="M52.6797 518.704L61.6698 533.513H770.788L779.778 518.704H52.6797ZM35.9603 509.379H796.497L776.215 542.837H56.3524L35.9603 509.379Z" fill="#C4DCEB"/>
<path d="M0.000263126 490.292H830.703L816.341 509.379H14.4171L0.000263126 490.292Z" fill="#CBE0ED"/>
<path d="M773.473 47.8829L788.11 23.7495H44.3471L58.9833 47.8829H773.473Z" fill="#F7FAFC"/>
<path d="M52.6797 28.4116L61.6698 43.2207H770.788L779.778 28.4116H52.6797ZM35.9603 19.0873H796.497L776.215 52.545H56.3524L35.9603 19.0873Z" fill="#C4DCEB"/>
<path d="M1.89858e-05 3.05176e-05H830.703L816.341 19.0873H14.4169L1.89858e-05 3.05176e-05Z" fill="#CAE0ED"/>
</g>
<defs>
<clipPath id="clip0_102_2">
<rect width="1444" height="825.143" fill="white" transform="matrix(-1 0 0 1 1444 0)"/>
</clipPath>
</defs>
</svg>
