<svg width="201" height="315" viewBox="0 0 201 315" fill="none" xmlns="http://www.w3.org/2000/svg">
<path d="M18.573 73.7556C16.4648 75.5292 11.1105 110.064 9.43724 126.629C7.96481 141.32 7.96484 159.324 7.96484 159.324L36.2088 126.027C36.2088 126.027 36.6438 58.6297 18.573 73.7556Z" fill="#F5F5F0"/>
<path d="M43.9053 164.812L48.1887 129.206L0 132.084L0.468469 170.903L43.9053 164.812Z" fill="#064058"/>
<path d="M49.1591 308.575C50.4977 308.374 50.3304 311.62 49.8284 311.888C46.5489 313.628 38.484 313.863 32.1258 314.298C24.6967 314.833 18.74 315.034 16.4644 313.327C15.2597 312.424 15.1259 310.349 17.7696 309.077C18.9743 308.475 35.8069 307.437 36.2084 307.538C36.5765 307.638 49.1591 308.575 49.1591 308.575Z" fill="#064058"/>
<path d="M35.8739 286.02C35.6062 290.906 36.9782 298.302 36.1082 300.109C35.7735 300.811 33.0629 306.099 35.0373 308.241C38.0826 311.487 45.746 311.922 47.7204 304.258C45.7125 296.126 46.181 289.601 46.181 287.191C46.1475 284.782 36.0078 283.443 35.8739 286.02Z" fill="#E5B48F"/>
<path d="M49.1256 309.579C48.5901 311.453 21.6513 314.498 17.8029 311.988C15.7615 310.65 17.5686 309.144 19.9111 308.174C22.6217 307.036 29.2142 302.016 31.7241 300.878C33.7989 299.975 35.3047 295.892 36.1079 296.628C36.8775 297.298 37.848 301.581 37.4799 303.221C37.1453 304.794 37.3796 306.199 38.0823 306.4C42.0311 307.605 46.1807 300.912 47.2515 301.246C48.5901 301.648 49.661 307.672 49.1256 309.579Z" fill="#064058"/>
<path d="M61.5074 283.678C63.9838 290.136 62.3106 299.406 61.5743 301.246C61.2062 302.15 57.9267 312.524 67.096 309.679C73.0526 307.839 72.8183 303.288 72.5841 302.618C70.2081 296.327 72.6845 286.455 72.6845 284.246C72.651 281.737 60.6039 281.302 61.5074 283.678Z" fill="#E5B48F"/>
<path d="M74.9603 308.943C76.1316 308.676 75.6966 312.758 75.3954 313.16C75.0942 313.595 68.8029 314.967 62.11 314.8C56.053 314.632 52.1711 314.331 51.7026 313.193C51.4349 312.624 51.8364 309.981 53.0077 309.244C54.0451 308.575 64.0844 307.973 64.419 308.04C64.7202 308.174 74.9603 308.943 74.9603 308.943Z" fill="#064058"/>
<path d="M63.181 298.201C61.8424 298.235 59.9349 301.213 58.864 304.325C57.6258 305.63 55.3503 306.099 54.179 307.872C53.3424 309.077 52.305 311.252 52.7735 311.821C54.3129 313.829 74.0569 313.494 74.7596 311.687C75.6631 309.311 73.7557 307.136 73.488 304.827C73.2203 302.685 73.488 301.615 72.7517 300.477C72.5175 300.142 71.9486 300.343 71.9486 301.012C71.9821 302.485 72.2163 305.095 70.0746 305.396C68.234 299.941 65.3896 298.134 63.181 298.201Z" fill="#064058"/>
<path d="M22.0869 145.737C22.0869 145.737 25.4334 175.788 22.02 214.005C22.3547 216.146 22.7227 218.288 23.0574 220.43C28.5121 253.76 33.6656 283.745 35.3723 291.943C36.0081 295.089 46.014 293.617 46.449 290.437C48.1557 278.056 55.7521 252.422 54.3132 240.977C53.6773 235.89 49.7955 226.755 47.2187 220.53C44.0061 212.8 59.4666 169.263 47.4195 135.096C44.1399 125.96 22.0869 145.737 22.0869 145.737Z" fill="#064058"/>
<path d="M43.939 145.102C43.939 145.102 58.0274 273.973 60.7046 291.508C61.1731 294.687 72.3502 294.185 72.9526 291.04C75.2951 278.758 84.2301 253.56 83.3934 242.081C83.0253 236.961 79.6455 227.625 77.4033 221.3C76.2321 218.021 78.608 208.784 81.0509 196.57C84.4978 179.369 82.423 157.483 76.3994 137.137C73.5884 127.767 43.939 145.102 43.939 145.102Z" fill="#064058"/>
<path d="M20.6142 213.436L85.3678 211.194C85.3678 211.194 79.0096 93.5664 91.3914 71.4464C94.4367 66.0252 83.795 59.4662 72.3836 55.1493C64.2183 52.0706 55.6849 50.1296 51.4349 50.5646C47.2518 50.9997 42.366 52.4721 37.6141 54.8146C29.1476 58.9308 21.1496 65.6571 18.5394 73.7555C14.4902 86.3715 20.6142 213.436 20.6142 213.436Z" fill="#F7FAFC"/>
<path d="M44.7082 34.4683C44.7082 34.4683 41.5959 55.0824 41.7298 55.6513C41.9975 56.7556 47.5526 51.9702 49.4266 53.0745C52.1707 54.6473 63.8832 58.0942 64.9206 55.6513C65.1549 55.1159 62.2435 32.0255 62.2435 32.0255L44.7082 34.4683Z" fill="#F2C5A3"/>
<path d="M41.4961 29.0136C36.5433 24.496 39.7224 21.5176 35.3721 18.6062C36.4429 18.1042 38.317 18.0373 39.4213 18.4724C38.2835 16.7657 37.9488 14.4232 36.2756 13.5196C37.5138 13.3188 39.4882 13.5866 40.7933 14.4901C40.7598 12.8838 37.6811 11.2106 38.2165 9.13579C38.9193 10.0059 41.2618 11.0432 42.8346 11.0767C42.9016 10.0393 41.7973 7.73028 39.5217 6.32478C41.8642 6.12399 43.5709 6.29132 45.378 7.79722C45.8465 6.15746 45.1103 4.78542 44.0394 3.4803C45.4784 3.21259 48.0216 3.61416 49.3602 6.15745C50.3307 5.52163 50.7991 2.77757 50.8326 0.903563C51.9704 1.74017 53.1751 4.48425 53.5098 5.7559C53.5432 4.41732 54.2125 1.23818 54.7814 0C56.12 3.3799 59.2322 2.57678 59.4664 6.75983C59.8345 4.85236 63.4153 3.68107 64.62 3.04525C63.3149 5.85626 63.5157 8.63382 63.8503 9.00193C64.1515 9.30311 66.427 7.99798 66.427 5.22044C68.0333 6.82673 69.7066 10.0059 67.6987 14.9921C68.3345 14.9586 70.242 13.2519 70.9447 11.1771C71.5471 12.0807 72.3837 17.0334 70.5766 21.7518C71.0116 21.7518 71.8148 21.2164 72.3837 20.6475C70.9447 27.5412 67.3975 30.1849 65.992 31.7577C64.9211 32.9624 62.6456 31.9919 61.1731 32.3266C57.7598 33.1297 54.2795 33.6986 50.7992 34.1337L41.4961 29.0136Z" fill="#064058"/>
<path d="M40.3915 20.5806C39.1533 22.5215 39.2202 28.9467 39.2871 31.1553C39.3541 33.6652 41.6297 44.3403 44.4407 45.8797C46.8836 47.2182 53.9445 47.6533 55.6847 46.8167C59.8677 44.8423 63.6827 37.5805 64.2181 33.2301C66.5606 33.364 69.1374 21.5176 65.6571 23.3247C64.6197 23.8601 64.1178 26.7715 64.0843 27.7754C64.0508 28.7794 63.0469 30.0845 62.9465 29.7498C62.043 27.0727 61.5745 21.2834 60.7713 20.8149C59.2989 19.9448 56.9898 21.1495 56.6886 23.057C55.9859 22.12 55.4839 20.7479 56.6217 19.4763C53.8776 18.8739 50.7989 19.0412 48.356 23.3247C47.7871 22.12 48.0214 19.4428 49.1926 18.0038C46.8501 18.3385 44.9427 20.2125 44.3738 22.3208C43.8384 20.8818 44.0726 19.0078 45.1434 17.1003C44.0391 17.5688 41.0273 19.6101 40.3915 20.5806Z" fill="#F1C8A9"/>
<path d="M91.224 67.0961C101.129 82.9582 109.931 124.923 107.923 132.753C106.249 139.346 85.8362 147.277 60.9722 145.436C57.4249 145.168 59.9013 126.361 59.9013 126.361C59.9013 126.361 81.6866 124.655 81.6197 118.966C81.5527 113.277 79.7791 109.161 79.7791 102.669C79.8461 96.2436 91.224 67.0961 91.224 67.0961Z" fill="#F7FAFC"/>
<path d="M5.88957 171.94C7.56279 172.542 8.56667 170.3 9.1021 170.434C9.73792 170.635 9.90523 172.208 10.6749 172.342C11.7123 172.542 16.3973 171.472 16.7989 171.003C17.4347 170.267 17.6356 166.452 16.5982 166.017C16.1631 165.816 11.8462 164.779 10.9426 165.046C10.3737 165.214 10.173 168.259 9.63756 168.292C8.39938 168.326 9.73792 165.281 7.5962 165.515C5.35409 165.716 4.61792 171.472 5.88957 171.94Z" fill="#F1C8A9"/>
<path d="M45.4109 126.629C45.846 125.525 47.4857 125.793 48.7574 126.194C47.9877 125.692 47.5527 124.956 47.8539 123.852C47.9877 123.417 49.8952 124.186 51.6353 124.354C53.0743 124.488 54.5468 123.818 56.0861 124.688C58.6294 126.127 61.0054 129.641 61.0054 129.641L60.0349 136.468C55.4168 140.517 48.4562 138.71 46.6826 137.338C44.7417 135.865 44.7417 128.369 45.4109 126.629Z" fill="#F1C8A9"/>
<path d="M55.2494 127.734C55.3163 127.734 55.3832 127.7 55.4167 127.633C55.4502 127.533 55.4501 127.432 55.3497 127.399C54.9816 127.198 53.8773 127.031 52.6391 126.863C51.3675 126.696 49.8951 126.495 49.2927 126.228C49.1923 126.194 49.0919 126.228 49.0585 126.328C49.025 126.428 49.0584 126.529 49.1588 126.562C49.7946 126.864 51.2336 127.064 52.6056 127.232C53.71 127.399 54.8812 127.533 55.1824 127.734C55.1824 127.734 55.2159 127.734 55.2494 127.734Z" fill="#C49370"/>
<path d="M59.8008 126.797C59.5665 126.73 59.4661 126.495 59.533 126.261C60.0015 124.889 64.9543 123.751 75.1944 121.944C77.905 121.476 80.716 120.974 81.3184 120.706C81.4523 119.87 80.9168 115.486 80.4483 111.604C80.0802 108.592 79.6786 105.48 79.4444 102.769C79.4109 102.535 79.5782 102.334 79.8125 102.301C80.0468 102.267 80.2475 102.435 80.281 102.669C80.5487 105.379 80.9168 108.492 81.2849 111.47C82.1884 118.665 82.3558 120.706 82.0212 121.208C81.7869 121.576 80.9838 121.744 75.3283 122.747C70.6098 123.584 60.7378 125.358 60.3362 126.495C60.2693 126.663 60.102 126.797 59.9347 126.797C59.9012 126.83 59.8342 126.83 59.8008 126.797Z" fill="#A3C2DB"/>
<path d="M64.8538 146.239C70.777 146.239 80.9166 145.336 82.6233 145.102C82.8575 145.068 83.0249 144.867 82.9914 144.633C82.958 144.399 82.7572 144.232 82.523 144.265C79.4108 144.7 62.8459 145.938 61.1727 145.102C59.7672 144.399 58.6963 140.35 58.4286 138.877C58.3951 138.643 58.1609 138.509 57.9266 138.543C57.6924 138.576 57.5585 138.81 57.592 139.045C57.6924 139.647 58.7632 144.867 60.8045 145.871C61.34 146.139 62.8459 146.239 64.8538 146.239Z" fill="#A3C2DB"/>
<path d="M17.1675 129.641H17.2009C17.4351 129.608 17.6025 129.407 17.6025 129.173C17.5691 128.938 15.5946 104.108 16.8663 92.0271C16.8997 91.7928 16.7324 91.592 16.4982 91.5586C16.2639 91.5251 16.0631 91.6925 16.0296 91.9267C14.7915 104.074 16.7659 128.972 16.7659 129.206C16.7659 129.474 16.9667 129.641 17.1675 129.641Z" fill="#A3C2DB"/>
<path d="M40.425 85.5015C45.7793 87.7436 47.9879 88.7141 53.3422 85.5015C58.1611 82.6236 71.3461 63.8835 72.3835 55.1828C68.0666 53.543 63.6492 52.2379 59.8008 51.4348C56.3875 50.7321 53.1414 52.3718 51.167 52.6061C48.6572 52.8738 46.1809 51.5017 43.3699 52.4722C41.4624 53.108 39.5549 53.9112 37.6474 54.8482C36.5766 61.0391 35.1041 72.3835 40.425 85.5015Z" fill="#BBD3E6"/>
<path d="M53.9113 56.5548C53.9113 56.5548 50.5649 63.6493 49.7283 65.1887C48.8917 66.7615 53.3758 83.1256 53.3424 85.5015C51.5018 87.5763 44.4409 92.4287 44.4409 92.4287C44.4409 92.4287 40.9271 87.0409 40.4252 85.5015C40.0236 80.0803 47.3188 65.791 46.8168 63.4485C46.3149 61.106 44.1732 55.4505 44.1732 55.4505L48.2224 52.5726H50.7322L53.9113 56.5548Z" fill="#064058"/>
<path d="M64.72 46.5155C66.2929 46.5155 69.0705 53.61 68.8027 54.6139C68.4346 56.1198 58.8973 61.9426 56.3874 61.9426C55.6512 61.9426 50.5646 53.4761 49.2595 53.3757C47.9544 53.2418 44.2064 60.9052 42.8343 60.4702C41.9308 60.169 39.8226 55.5844 39.9899 53.7773C40.1572 51.9702 41.5962 47.8876 42.2655 47.7537C42.9348 47.6199 47.0509 51.9702 49.2261 52.2379C51.8028 52.5725 63.783 46.5155 64.72 46.5155Z" fill="#A9C9E3"/>
<path d="M45.0097 210.357C45.0432 210.357 45.1101 210.357 45.1435 210.324C45.3778 210.257 45.4782 209.989 45.4113 209.788C44.0058 205.839 43.37 184.322 43.6042 149.251C43.805 121.442 44.4743 95.2061 44.7086 94.0684C45.4113 92.8971 59.5333 87.6767 64.8541 85.7358C67.5647 84.7318 68.7694 84.2968 69.0037 84.1629C69.171 84.0625 69.2714 83.9287 69.3049 83.7279C69.4053 83.1925 68.8364 82.4897 67.5982 81.0507C66.7281 80.0133 64.9211 77.9051 65.2892 77.4031C65.6907 76.8677 69.1041 77.2692 71.1454 77.5035C74.6257 77.9051 75.8639 78.0054 76.1985 77.3362C76.3658 77.035 76.5331 76.3323 76.8678 74.8598C77.6709 71.3126 79.2103 64.6866 82.0214 60.7378C82.1552 60.537 82.1217 60.2694 81.9209 60.1355C81.7202 60.0016 81.4524 60.0351 81.3186 60.2359C78.4072 64.3185 76.8678 71.0449 76.0312 74.659C75.7969 75.6964 75.5627 76.7004 75.4623 76.9011C75.1277 77.0685 72.8855 76.8007 71.2458 76.6334C67.5647 76.1984 65.2557 75.9976 64.6199 76.8677C63.8502 77.9051 65.423 79.7791 66.9624 81.5862C67.4978 82.222 68.234 83.0921 68.4013 83.4602C67.8659 83.6944 66.3265 84.2633 64.5529 84.8991C49.6612 90.4208 44.24 92.7298 43.9054 93.8007C43.6042 94.7042 42.9349 121.743 42.7341 148.916C42.5668 173.948 42.7341 204.835 44.5747 210.056C44.6751 210.257 44.8424 210.357 45.0097 210.357Z" fill="#A3C2DB"/>
<path d="M43.1356 92.8637C43.3029 92.8637 43.4703 92.7633 43.5372 92.596C43.6376 92.3952 43.5372 92.1275 43.3364 92.0271C37.8817 89.5842 31.9585 80.0803 31.925 79.0094C32.0254 78.7083 33.431 77.4032 34.3345 76.5331C36.1416 74.8264 36.61 74.3579 36.6435 73.9563C36.6435 73.8225 36.5766 73.6552 36.4762 73.5548C36.1415 73.2536 35.3718 73.354 32.427 73.856C30.8876 74.1237 28.5451 74.5252 28.0432 74.3914C27.5747 73.4544 28.0767 66.293 29.4822 62.0765C29.5491 61.8422 29.4487 61.608 29.2144 61.541C28.9802 61.4741 28.7459 61.5745 28.679 61.8088C27.3404 65.7576 26.4369 74.2241 27.5077 75.0607C27.9427 75.4288 29.114 75.2949 32.5609 74.6926C33.5313 74.5252 34.7695 74.3244 35.4723 74.2575C35.0707 74.6925 34.3345 75.3618 33.7321 75.8973C32.0254 77.5036 31.1888 78.3067 31.055 78.8087C30.6869 80.1807 37.5805 90.3874 42.9682 92.7968C43.0352 92.8303 43.1021 92.8637 43.1356 92.8637Z" fill="#A3C2DB"/>
<path d="M136.805 311.142C137.235 311.505 146.787 311.307 156.041 310.811C157.132 310.745 160.14 308.894 161.198 308.828C162.255 308.762 161.363 310.514 162.354 310.448C168.568 310.018 173.427 309.522 173.427 308.993C173.195 303.077 170.65 297.293 169.527 295.64C167.279 296.301 161.429 295.905 161.164 295.277C157.529 298.913 152.108 303.342 150.753 304.102C147.514 305.953 137.367 307.242 136.805 311.142Z" fill="#064058"/>
<path d="M150.588 311.472C150.984 311.869 160.503 312.497 168.965 311.373C170.055 311.241 173.195 309.754 174.253 309.787C175.311 309.82 174.286 311.472 175.277 311.472C181.491 311.505 186.416 311.34 186.416 310.844C186.647 304.928 184.499 298.946 183.507 297.26C181.227 297.756 175.41 296.929 175.211 296.268C171.311 299.64 165.56 303.639 164.172 304.3C160.801 305.887 151.414 307.605 150.588 311.472Z" fill="#064058"/>
<path d="M155.479 30.6302C155.479 18.2026 167.61 12.6169 175.84 17.0789C179.541 19.062 182.615 25.0113 180.83 28.9776C186.019 24.9452 192.96 28.5149 192.927 35.6871C192.894 42.1984 184.235 53.1716 172.733 49.1062C166.056 46.7265 155.479 38.2321 155.479 30.6302Z" fill="#064058"/>
<path d="M159.016 295.673C159.313 288.534 151.844 240.047 146.258 217.109C143.548 205.971 130.955 160.557 147.811 129.885C149.133 127.439 166.023 124.233 171.278 121.787C173.46 130.182 179.872 137.983 181.623 146.51C183.871 157.417 167.147 216.878 166.386 216.944C170.121 223.091 176.996 231.751 178.318 239.022C180.467 250.789 175.905 280.998 169.989 296.698C169.758 297.26 159.082 297.921 159.016 295.673Z" fill="#7FC6D7"/>
<path d="M173.129 297.69C173.493 290.55 167.014 240.179 161.66 217.175C159.049 206.004 142.92 148.46 157.198 129.488C158.851 127.274 178.682 129.852 183.97 127.439C186.085 135.867 196.728 147.039 198.249 155.633C201.19 172.291 184.466 200.881 185.92 217.836C186.482 224.083 192.233 232.148 193.489 239.452C195.538 251.219 190.151 283.213 184.069 298.879C183.871 299.408 173.162 299.937 173.129 297.69Z" fill="#7FC6D7"/>
<path d="M174.22 61.1702C177.459 62.6244 188.135 70.0942 189.754 73.796C193.787 83.0505 181.822 112.103 181.822 122.382C181.822 128.993 197.125 145.353 198.579 151.865C200.496 160.458 139.317 162.144 139.152 160.756C136.078 132.794 146.655 125.787 145.035 107.443C144.639 102.749 140.838 94.2882 140.838 88.9668C140.838 78.2249 158.058 66.5246 160.834 63.0211C163.412 59.815 165.627 57.3031 174.22 61.1702Z" fill="#6FB6C8"/>
<path d="M173.261 40.4465C173.757 48.0154 177.426 61.5667 177.856 64.6074C178.418 68.3754 158.454 75.0849 156.735 74.2255C155.711 73.6967 159.875 65.2685 160.603 63.7481C161.231 62.4591 163.842 52.9732 164.701 42.8262C165.395 34.7616 173.063 37.3727 173.261 40.4465Z" fill="#F2C5A4"/>
<path d="M159.281 24.1851C152.505 35.3236 155.777 50.6266 160.438 52.1139C164.239 53.3038 176.567 48.6104 175.939 39.7525C179.145 39.7194 180.368 36.216 179.608 34.5634C178.451 32.0845 176.699 34.4642 175.774 34.5964C173.493 26.6309 159.281 24.1851 159.281 24.1851Z" fill="#F1C8A9"/>
<path d="M198.05 103.311C197.621 118.449 194.811 130.91 192.167 138.743C189.523 146.51 167.841 170.308 166.783 171.332C165.726 172.357 165.99 163.565 165.99 163.565C165.99 163.565 172.27 137.024 176.765 130.645C178.748 127.836 181.095 93.3627 181.095 93.3627L198.05 103.311Z" fill="#F1C8A9"/>
<path d="M185.887 69.8297C197.158 72.2094 201.223 100.7 200.595 103.576C199.075 110.517 175.245 110.913 173.592 106.352C171.708 101.031 175.145 67.5822 185.887 69.8297Z" fill="#7FC6D7"/>
<path d="M170.485 167.267C171.94 175.794 166.486 177.414 166.519 179.232C166.552 181.016 166.982 185.544 166.122 186.999C165.032 188.817 159.016 180.223 159.016 177.315C158.983 171.927 166.023 163.532 166.023 163.532L170.485 167.267Z" fill="#F1C8A9"/>
</svg>
