<svg width="480" height="393" viewBox="0 0 480 393" fill="none" xmlns="http://www.w3.org/2000/svg">
<path d="M256.266 312.483L238.63 389.069L246.089 389.052L263.77 313.205L256.266 312.483Z" fill="#AE7461"/>
<path d="M288.446 312.483L306.144 389.069H313.238L296.11 312.483H288.446Z" fill="#AE7461"/>
<path d="M244.36 254.959L254.404 307.689H265.819L255.09 254.959H244.36Z" fill="#AE7461"/>
<path d="M69.4351 312.483L55.0518 389.069H62.3683L77.4021 312.483H69.4351Z" fill="#AE7461"/>
<path d="M99.6899 312.483L116.141 388.651H123.377L107.488 312.483H99.6899Z" fill="#E0E0E0"/>
<path d="M57.5292 254.959L67.5725 307.689H78.9883L68.2587 254.959H57.5292Z" fill="#AE7461"/>
<path d="M34.9296 250.174L36.9881 259.754H266.158L263.484 250.174H34.9296Z" fill="#FFD600"/>
<path d="M39.3141 268.791L41.7292 278.37H269.357L267.281 268.791H39.3141Z" fill="#FFD600"/>
<path d="M43.8322 288.057L46.0868 297.645H273.011L270.863 288.057H43.8322Z" fill="#FFD600"/>
<path d="M305.877 307.689H61.1831V317.278H305.877V307.689Z" fill="#FFD600"/>
<path d="M431.859 59.7605C432.581 54.5116 425.167 50.1894 419.597 49.7439C416.924 49.53 414.188 49.931 411.666 49.0577C406.221 47.1595 404.038 40.1461 398.717 37.8737C394.743 36.1983 390.171 37.6865 386.312 39.656C382.454 41.6254 378.649 44.0405 374.344 44.3167C370.592 44.5484 366.529 43.1671 363.249 44.994C360.808 46.3575 359.524 49.1735 357.279 50.8311C355.033 52.4886 352.199 52.8005 349.472 52.952C346.745 53.1035 343.902 53.1213 341.452 54.262C339.001 55.4027 336.827 57.9781 337.343 60.6516L431.859 59.7605Z" fill="#D8F1FF"/>
<path d="M184.225 107.081C184.742 103.294 179.404 100.184 175.385 99.8627C173.469 99.7023 171.482 99.9964 169.672 99.3637C165.742 98.0002 164.174 92.9206 160.333 91.3433C157.473 90.1402 154.166 91.2185 151.422 92.6087C148.677 93.9989 145.896 95.7723 142.795 95.9684C140.122 96.1466 137.163 95.1396 134.775 96.4585C132.992 97.4477 132.101 99.4706 130.47 100.674C128.84 101.877 126.808 102.091 124.838 102.198C122.869 102.304 120.828 102.322 119.037 103.142C117.246 103.962 115.757 105.86 116.132 107.803L184.225 107.081Z" fill="#D8F1FF"/>
<path d="M176.534 49.0042C177.586 41.367 166.812 35.0844 158.711 34.4249C154.852 34.113 150.842 34.7101 147.18 33.4357C139.248 30.6642 136.085 20.4249 128.341 17.1632C122.557 14.7215 115.864 16.8959 110.286 19.7119C104.707 22.528 99.1373 26.0926 92.8725 26.4936C87.4276 26.8412 81.5014 24.8183 76.7337 27.4828C73.169 29.4612 71.3244 33.5605 68.0449 35.9755C64.7654 38.3906 60.6661 38.8361 56.6916 39.05C52.717 39.2639 48.5999 39.3085 44.9818 40.966C41.3637 42.6236 38.3605 46.4555 39.1179 50.3588L176.534 49.0042Z" fill="#D8F1FF"/>
<path d="M466.169 106.679C466.739 102.536 460.902 99.1313 456.518 98.7837C454.424 98.6144 452.249 98.9352 450.28 98.2401C445.984 96.743 444.264 91.2 440.076 89.4266C436.948 88.1077 433.339 89.284 430.273 90.8168C427.208 92.3496 424.24 94.2656 420.845 94.4795C417.895 94.6755 414.687 93.5883 412.103 95.0231C410.178 96.0925 409.171 98.3114 407.397 99.6214C405.624 100.931 403.405 101.172 401.248 101.288C399.092 101.404 396.864 101.422 394.903 102.322C392.943 103.222 391.339 105.289 391.731 107.41L466.169 106.679Z" fill="#D8F1FF"/>
<path d="M394.704 332.331C395.994 332.946 397.146 333.816 398.091 334.888C399.036 335.96 399.754 337.212 400.203 338.569C401.086 341.289 401.336 344.176 400.934 347.008C400.319 352.488 397.2 358.023 393.849 362.398C389.233 358.37 388.172 351.348 387.86 347.748C387.361 342.062 389.919 331.493 394.704 332.339" fill="#D3EAF1"/>
<path d="M399.214 371.434C398.9 369.868 399.005 368.246 399.518 366.733C400.031 365.22 400.934 363.869 402.137 362.817C403.364 361.787 404.784 361.011 406.314 360.535C407.844 360.06 409.453 359.893 411.048 360.045C412.519 360.161 414.105 360.589 414.943 361.828C415.301 362.417 415.495 363.091 415.506 363.78C415.517 364.469 415.344 365.149 415.005 365.749C414.302 366.942 413.297 367.929 412.091 368.609C408.099 371.123 403.768 372.816 399.249 371.461" fill="#D3EAF1"/>
<path d="M393.296 388.232C393.317 387.854 393.371 387.478 393.457 387.109C393.608 386.316 393.795 385.327 394.018 384.062C394.535 380.674 395.595 377.391 397.155 374.339C398.783 371.295 401.191 368.739 404.133 366.934C405.028 366.403 405.982 365.978 406.975 365.668C407.245 365.585 407.519 365.516 407.795 365.463C407.982 365.463 408.089 365.41 408.089 365.463C406.762 365.928 405.484 366.526 404.275 367.246C401.438 369.091 399.111 371.623 397.511 374.606C395.974 377.609 394.89 380.822 394.294 384.142C394.018 385.425 393.786 386.45 393.608 387.163C393.539 387.529 393.434 387.887 393.296 388.232Z" fill="#93C9D5"/>
<path d="M393.465 340.556C393.507 340.716 393.528 340.88 393.528 341.046C393.528 341.411 393.528 341.875 393.608 342.454C393.679 343.684 393.751 345.457 393.822 347.658C393.956 352.043 394.071 358.111 394.045 364.813C394.018 371.514 393.849 377.583 393.67 381.977C393.581 384.169 393.492 385.942 393.412 387.172C393.412 387.751 393.341 388.215 393.323 388.58C393.317 388.745 393.296 388.909 393.26 389.07C393.241 388.907 393.241 388.743 393.26 388.58C393.26 388.215 393.26 387.742 393.26 387.163C393.26 385.889 393.332 384.124 393.385 381.968C393.492 377.574 393.617 371.514 393.644 364.813C393.67 358.111 393.644 352.052 393.537 347.658C393.537 345.502 393.474 343.737 393.457 342.463C393.457 341.884 393.457 341.411 393.457 341.046C393.446 340.882 393.449 340.719 393.465 340.556Z" fill="#93C9D5"/>
<path d="M391.229 374.767C390.669 371.445 389.327 368.305 387.312 365.605C385.297 362.906 382.669 360.725 379.644 359.243C378.102 358.503 376.079 358.022 374.823 359.172C373.566 360.321 373.833 362.38 374.457 363.975C375.81 367.29 378.115 370.128 381.082 372.132C384.048 374.135 387.542 375.214 391.122 375.23" fill="#D3EAF1"/>
<path d="M380.41 364.439C380.747 364.558 381.074 364.701 381.39 364.867C381.693 365.019 382.077 365.197 382.495 365.455C382.914 365.714 383.387 365.972 383.903 366.347C384.42 366.721 384.964 367.086 385.516 367.567C386.113 368.054 386.685 368.572 387.227 369.118C388.465 370.391 389.558 371.795 390.489 373.306C391.388 374.837 392.106 376.467 392.628 378.163C392.857 378.903 393.038 379.656 393.171 380.418C393.306 381.077 393.398 381.744 393.448 382.414C393.507 382.965 393.534 383.518 393.528 384.072C393.552 384.49 393.552 384.91 393.528 385.328C393.527 385.685 393.485 386.041 393.403 386.389C393.314 386.389 393.474 384.865 393.207 382.441C393.137 381.782 393.029 381.127 392.886 380.48C392.734 379.734 392.543 378.997 392.316 378.27C391.778 376.611 391.06 375.015 390.177 373.511C389.266 372.025 388.199 370.638 386.996 369.376C386.47 368.828 385.917 368.308 385.338 367.817C384.804 367.336 384.26 366.926 383.77 366.578C381.756 365.152 380.366 364.537 380.41 364.439Z" fill="#93C9D5"/>
<path d="M253.031 43.8983L280.826 75.472L286.432 98.6421L299.799 114.683L306.037 110.174L306.741 100.21L295.076 63.1918C295.076 63.1918 262.994 35.7175 257.318 33.9619L253.031 43.8983Z" fill="#F3D0B5"/>
<path d="M248.887 26.7875C248.887 26.7875 258.69 31.1898 260.472 35.004C261.575 37.3637 262.38 39.8512 262.869 42.4095L253.477 44.6106L240.047 38.9963C240.047 38.9963 228.284 28.9797 228.56 28.3827C228.836 27.7856 229.451 25.7716 231.037 26.7786C232.624 27.7856 239.851 32.384 239.851 32.384C239.851 32.384 230.235 23.1694 231.233 22.5812C232.231 21.9931 234.04 21.7792 235.841 23.5793C237.737 25.2526 239.747 26.7921 241.856 28.1866C241.856 28.1866 235.039 19.7741 236.046 19.3731C237.053 18.9721 243.781 24.5863 245.724 26.3865C247.666 28.1866 241.268 19.7295 242.854 19.3553C244.44 18.981 245.527 21.5742 246.909 23.3833C247.706 24.4319 248.371 25.5753 248.887 26.7875Z" fill="#F3D0B5"/>
<path d="M252.015 41.5447C251.625 41.4769 251.245 41.3601 250.883 41.1972L247.853 40.0832L245.768 39.2634C244.953 38.9747 244.164 38.62 243.407 38.2029C242.537 37.7399 241.801 37.0618 241.268 36.2334C240.967 35.7827 240.768 35.2716 240.685 34.736C240.602 34.2003 240.636 33.653 240.787 33.1322L240.858 32.9272L241.054 32.9807H241.205C243.317 33.5689 244.886 34.9947 246.641 35.2175C247.469 35.3082 248.306 35.1759 249.065 34.8343C249.78 34.5581 250.53 34.387 251.293 34.3264C252.403 34.2424 253.517 34.4194 254.546 34.8432C254.821 34.9586 255.086 35.0957 255.339 35.2532C255.517 35.369 255.598 35.4314 255.589 35.4492C255.58 35.467 255.205 35.2621 254.484 35.0126C253.469 34.6721 252.395 34.5476 251.329 34.6472C250.597 34.7303 249.88 34.9163 249.199 35.1997C248.38 35.5765 247.476 35.7302 246.579 35.6453C244.645 35.3957 243.014 33.9521 241.09 33.4352H240.956L241.223 33.2748C241.094 33.7334 241.066 34.2143 241.14 34.6849C241.214 35.1555 241.388 35.6046 241.651 36.0017C242.147 36.7662 242.823 37.3968 243.62 37.8375C244.352 38.2522 245.115 38.6097 245.902 38.9069L247.969 39.7535L250.955 41.0457C251.321 41.1834 251.676 41.3503 252.015 41.5447Z" fill="#E7BFA0"/>
<path d="M215.023 60.2598C215.023 61.6678 223.24 101.93 223.24 101.93L239.2 117.365C239.2 117.365 241.874 139.804 237.062 141.605C237.062 141.605 206.21 107.34 205.604 104.737C204.998 102.135 200.595 74.2866 205.604 58.0586L215.023 60.2598Z" fill="#F3D0B5"/>
<path d="M219.613 42.4274C219.613 42.4274 209.81 46.8831 208.028 50.6438C206.924 53.007 206.116 55.4973 205.622 58.0582L215.041 60.2594L228.462 54.654C228.462 54.654 240.261 44.6107 239.94 44.0314C239.619 43.4522 239.049 41.4293 237.463 42.4274C235.876 43.4255 228.649 48.0416 228.649 48.0416C228.649 48.0416 238.265 38.8271 237.267 38.2389C236.268 37.6508 234.459 37.4369 232.659 39.2459C230.763 40.9192 228.753 42.4587 226.644 43.8532C226.644 43.8532 233.452 35.4318 232.454 35.0308C231.456 34.6297 224.719 40.244 222.776 42.0442C220.834 43.8443 227.232 35.3961 225.646 35.0129C224.06 34.6297 222.972 37.2408 221.591 39.041C220.795 40.084 220.13 41.2214 219.613 42.4274Z" fill="#F3D0B5"/>
<path d="M216.485 57.2289C216.823 57.0211 217.181 56.8479 217.554 56.7121L220.531 55.4644L222.589 54.5733C223.378 54.2816 224.144 53.9301 224.88 53.5217C225.689 53.105 226.382 52.4923 226.894 51.7394C227.156 51.3434 227.329 50.8955 227.401 50.4263C227.473 49.9571 227.443 49.4778 227.312 49.0214L227.589 49.1729H227.455C225.495 49.6897 223.89 51.1334 221.957 51.3829C221.062 51.4671 220.161 51.3134 219.346 50.9374C218.666 50.6526 217.948 50.4694 217.216 50.3938C216.15 50.2846 215.073 50.4093 214.061 50.7591C213.339 50.9997 212.974 51.2225 212.947 51.1869C212.92 51.1512 213.027 51.1067 213.197 50.9997C213.451 50.839 213.719 50.7018 213.999 50.5898C215.025 50.1659 216.135 49.9859 217.242 50.064C218.009 50.1237 218.762 50.2948 219.479 50.572C220.239 50.9129 221.075 51.0481 221.903 50.9641C223.685 50.7324 225.227 49.3065 227.339 48.7273H227.482L227.687 48.6738L227.758 48.8788C227.909 49.3995 227.944 49.947 227.861 50.4827C227.778 51.0184 227.578 51.5295 227.277 51.98C226.742 52.8089 226.006 53.4894 225.138 53.9584C224.379 54.3719 223.59 54.7264 222.777 55.0189L220.691 55.812L217.661 56.9259C217.28 57.0646 216.886 57.1661 216.485 57.2289Z" fill="#E7BFA0"/>
<path d="M328.966 371.664C328.966 371.664 330.196 377.546 330.214 378.579L334.589 381.975L345.114 379.07L345.56 370.318L328.966 371.664Z" fill="#263238"/>
<path d="M345.247 377.715L345.31 378.66C345.31 378.66 361.707 384.105 362.064 387.126L330.285 388.908L330.116 378.303C332.532 379.298 335.134 379.761 337.746 379.659C340.357 379.558 342.916 378.895 345.247 377.715Z" fill="#064058"/>
<g opacity="0.6">
<path d="M330.267 388.926V386.377L360.745 385.584C360.745 385.584 362.197 386.119 362.09 387.126L330.267 388.926Z" fill="white"/>
</g>
<path d="M345.417 378.794C345.417 378.945 344.651 379.061 343.911 379.605C343.171 380.148 342.806 380.817 342.663 380.763C342.521 380.71 342.663 379.801 343.599 379.159C344.535 378.518 345.417 378.598 345.417 378.794Z" fill="#263238"/>
<path d="M348.839 379.934C348.883 380.085 348.224 380.388 347.734 381.074C347.244 381.761 347.128 382.465 346.976 382.465C346.825 382.465 346.673 381.574 347.297 380.754C347.921 379.934 348.821 379.791 348.839 379.934Z" fill="#263238"/>
<path d="M350.951 383.819C350.817 383.819 350.559 383.097 350.906 382.224C351.254 381.35 351.967 380.967 352.038 381.101C352.11 381.234 351.682 381.698 351.406 382.42C351.129 383.141 351.111 383.792 350.951 383.819Z" fill="#263238"/>
<path d="M281.129 371.557C281.129 371.557 279.89 377.438 279.881 378.472L275.506 381.867L264.981 378.962L264.527 370.211L281.129 371.557Z" fill="#263238"/>
<path d="M264.847 377.644L264.785 378.588C264.785 378.588 248.388 384.033 248.031 387.054L279.81 388.836L279.979 378.232C277.563 379.226 274.96 379.689 272.349 379.587C269.738 379.486 267.179 378.823 264.847 377.644Z" fill="#064058"/>
<g opacity="0.6">
<path d="M279.81 388.854L279.854 386.305L249.377 385.512C249.377 385.512 247.924 386.047 248.031 387.054L279.81 388.854Z" fill="white"/>
</g>
<path d="M264.669 378.678C264.669 378.829 265.436 378.945 266.175 379.489C266.915 380.032 267.28 380.701 267.423 380.647C267.566 380.594 267.423 379.685 266.487 379.043C265.552 378.401 264.643 378.526 264.669 378.678Z" fill="#263238"/>
<path d="M261.256 379.862C261.211 380.013 261.871 380.316 262.361 381.002C262.851 381.689 262.967 382.393 263.118 382.393C263.27 382.393 263.421 381.501 262.798 380.682C262.174 379.862 261.265 379.684 261.256 379.862Z" fill="#263238"/>
<path d="M259.135 383.748C259.278 383.748 259.536 383.026 259.189 382.153C258.841 381.279 258.128 380.896 258.057 381.03C257.985 381.164 258.404 381.627 258.681 382.349C258.957 383.071 258.975 383.721 259.135 383.748Z" fill="#263238"/>
<path d="M259.198 73.52L258.307 73.6893C253.94 74.5132 250.044 76.9513 247.393 80.5182C244.743 84.0852 243.533 88.5195 244.004 92.9383C244.895 101.458 246.018 110.868 246.927 115.36C248.798 124.663 258.396 124.352 258.396 124.352L258.646 125.786C258.924 127.402 259.524 128.946 260.409 130.327C261.294 131.707 262.447 132.897 263.799 133.824C265.152 134.752 266.676 135.4 268.283 135.729C269.889 136.058 271.545 136.062 273.154 135.741C276.257 135.121 279.001 133.328 280.814 130.734C282.627 128.141 283.369 124.948 282.885 121.821L277.868 89.445C276.861 79.5977 269.01 72.2367 259.198 73.52Z" fill="#F3D0B5"/>
<path d="M248.869 98.7919C248.932 99.1402 249.128 99.4503 249.416 99.6565C249.704 99.8627 250.06 99.9489 250.411 99.897C250.583 99.8795 250.75 99.8274 250.902 99.7436C251.053 99.6599 251.186 99.5463 251.293 99.4098C251.4 99.2732 251.477 99.1165 251.522 98.949C251.566 98.7816 251.576 98.6069 251.551 98.4355C251.49 98.0885 251.295 97.7793 251.009 97.5743C250.722 97.3694 250.367 97.285 250.018 97.3393C249.847 97.357 249.68 97.4088 249.529 97.4919C249.377 97.5749 249.244 97.6875 249.137 97.8229C249.03 97.9583 248.951 98.1138 248.905 98.2803C248.859 98.4467 248.847 98.6207 248.869 98.7919Z" fill="#263238"/>
<path d="M246.623 96.6533C246.819 96.7959 247.693 95.8601 249.127 95.5928C250.562 95.3254 251.747 95.8512 251.863 95.6463C251.979 95.4413 251.703 95.272 251.177 95.0225C250.476 94.7054 249.693 94.6181 248.94 94.7729C248.195 94.9077 247.514 95.2797 246.997 95.8334C246.614 96.2968 246.498 96.5909 246.623 96.6533Z" fill="#263238"/>
<path d="M262.138 96.5456C262.201 96.8939 262.397 97.2039 262.685 97.4102C262.973 97.6164 263.33 97.7026 263.68 97.6506C263.852 97.6319 264.019 97.579 264.17 97.495C264.321 97.4111 264.455 97.2977 264.562 97.1616C264.669 97.0254 264.748 96.8693 264.794 96.7023C264.839 96.5354 264.852 96.3609 264.829 96.1891C264.766 95.8409 264.57 95.5308 264.282 95.3246C263.994 95.1184 263.638 95.0321 263.288 95.0841C263.115 95.1028 262.949 95.1557 262.797 95.2397C262.646 95.3237 262.513 95.4371 262.406 95.5732C262.298 95.7093 262.22 95.8654 262.174 96.0324C262.128 96.1994 262.116 96.3739 262.138 96.5456Z" fill="#263238"/>
<path d="M260.828 93.5606C261.015 93.721 261.978 92.8833 263.431 92.7764C264.883 92.6695 266.006 93.3111 266.149 93.1239C266.291 92.9368 266.033 92.7318 265.534 92.4288C264.873 92.0387 264.106 91.8672 263.341 91.9387C262.587 91.9933 261.869 92.2867 261.292 92.7764C260.873 93.1596 260.757 93.4893 260.828 93.5606Z" fill="#263238"/>
<path d="M257.798 106.34C256.999 106.24 256.191 106.24 255.392 106.34C255.018 106.34 254.661 106.34 254.501 106.126C254.401 105.753 254.417 105.359 254.546 104.994C254.724 104.05 254.902 103.052 255.098 102.009C255.856 97.7583 256.328 94.2827 256.159 94.256C255.989 94.2293 255.267 97.6513 254.483 101.902L253.975 104.905C253.826 105.389 253.854 105.911 254.055 106.376C254.134 106.494 254.238 106.593 254.36 106.665C254.482 106.738 254.618 106.782 254.759 106.795C254.97 106.818 255.182 106.818 255.392 106.795C256.21 106.748 257.019 106.595 257.798 106.34Z" fill="#263238"/>
<path d="M262.201 106.536C261.969 106.536 262.254 108.122 261.131 109.476C260.008 110.831 258.324 110.974 258.351 111.196C258.378 111.419 258.779 111.428 259.483 111.312C260.395 111.151 261.221 110.675 261.817 109.967C262.389 109.286 262.677 108.412 262.619 107.525C262.539 106.856 262.308 106.509 262.201 106.536Z" fill="#263238"/>
<path d="M260.115 88.8113C260.302 89.1856 261.728 88.8559 263.448 88.8826C265.168 88.9093 266.594 89.2391 266.79 88.8826C266.87 88.7044 266.594 88.3568 265.997 87.9914C265.203 87.5839 264.322 87.3759 263.43 87.3855C262.55 87.3671 261.678 87.5628 260.891 87.9558C260.32 88.2766 260.035 88.6242 260.115 88.8113Z" fill="white"/>
<path d="M246.597 92.8744C246.917 93.1507 247.835 92.6249 249.021 92.3843C250.206 92.1437 251.257 92.1882 251.427 91.805C251.489 91.6268 251.275 91.3238 250.776 91.101C250.117 90.8349 249.392 90.7788 248.7 90.9406C248.015 91.0868 247.392 91.4418 246.917 91.9565C246.499 92.3754 246.499 92.7318 246.597 92.8744Z" fill="white"/>
<path d="M269.954 75.8907C270.364 75.5787 272.628 77.3789 273.073 77.673C275.595 79.3751 277.021 83.0199 277.707 85.9785C278.441 88.7944 278.798 91.6952 278.768 94.6049C278.768 94.9792 278.768 96.5655 278.768 96.5655C278.411 96.9754 278.438 100.38 277.877 100.487C277.128 100.647 275.729 95.6209 275.533 95.2466C275.276 94.085 274.924 92.9465 274.481 91.8424C273.729 90.092 273.133 88.2789 272.699 86.4241C272.227 83.8309 270.729 80.088 270.257 77.5126C270.141 77.0313 269.553 76.1936 269.954 75.8907Z" fill="white"/>
<path d="M272.547 79.4727C269.174 76.1483 264.695 74.1816 259.964 73.9476C258.895 73.8171 257.812 74.0392 256.881 74.5803C256.386 74.9871 255.935 75.444 255.535 75.9438C255.121 76.4423 254.53 76.7615 253.887 76.8349C253.245 76.8349 252.568 76.3002 252.666 75.6675C256.049 73.6089 260.055 72.8252 263.965 73.4575C267.874 74.0897 271.429 76.0963 273.991 79.1163" fill="white"/>
<path d="M270.658 79.3657L276.62 82.5917C277.022 83.5574 277.35 84.5525 277.6 85.5682L271.745 82.9303L270.658 79.3657Z" fill="white"/>
<path d="M277.332 96.6178C277.475 96.5198 283.383 93.5166 284.381 99.9329C285.38 106.349 278.732 106.02 278.696 105.841C278.66 105.663 277.332 96.6178 277.332 96.6178Z" fill="#F3D0B5"/>
<path d="M280.273 103.105C280.273 103.105 280.398 103.167 280.603 103.221C280.886 103.29 281.184 103.252 281.441 103.114C281.812 102.787 282.091 102.367 282.247 101.898C282.404 101.428 282.433 100.925 282.332 100.441C282.263 99.8881 282.072 99.3581 281.77 98.8899C281.679 98.6992 281.543 98.5332 281.374 98.406C281.205 98.2788 281.008 98.1942 280.799 98.1592C280.665 98.1434 280.529 98.176 280.416 98.2511C280.304 98.3262 280.221 98.4389 280.184 98.5691C280.131 98.7652 280.184 98.881 280.184 98.8989C280.184 98.9167 280.033 98.8186 280.042 98.5424C280.048 98.3761 280.114 98.2177 280.229 98.0968C280.388 97.9385 280.601 97.8462 280.826 97.8384C281.097 97.8496 281.36 97.93 281.591 98.072C281.822 98.214 282.012 98.4127 282.145 98.6493C282.501 99.1649 282.73 99.7573 282.813 100.378C282.973 101.679 282.492 102.989 281.61 103.408C281.446 103.488 281.266 103.529 281.084 103.529C280.902 103.529 280.722 103.488 280.558 103.408C280.309 103.257 280.255 103.123 280.273 103.105Z" fill="#E7BFA0"/>
<path d="M258.271 124.36C262.735 123.6 266.873 121.532 270.159 118.416C270.159 118.416 268.59 126.008 258.814 126.953L258.271 124.36Z" fill="#E7BFA0"/>
<path d="M260.757 83.5444C260.757 83.5444 260.356 84.0702 259.376 84.2752C258.395 84.4801 257.068 84.3554 255.811 84.8366C255.199 85.1225 254.604 85.4439 254.029 85.7991C253.522 86.0892 252.954 86.2542 252.371 86.2803C251.97 86.3039 251.571 86.201 251.231 85.9862C250.999 85.8258 250.928 85.6832 250.945 85.6654C251.375 85.9031 251.864 86.0085 252.353 85.9684C252.875 85.8939 253.376 85.7118 253.824 85.4337C254.394 85.0545 254.989 84.7151 255.606 84.4178C256.266 84.179 256.963 84.0554 257.665 84.0524C258.213 84.0474 258.76 84.0147 259.304 83.9544C259.801 83.8654 260.287 83.7281 260.757 83.5444Z" fill="#E7BFA0"/>
<path d="M258.485 82.4853C257.309 82.8572 256.101 83.1168 254.876 83.2606C253.681 83.5515 252.46 83.7246 251.231 83.7774C252.365 83.2825 253.566 82.9581 254.796 82.815C256.003 82.5251 257.246 82.414 258.485 82.4853Z" fill="#E7BFA0"/>
<path d="M256.952 81.1486C256.952 81.2823 256.302 81.2734 255.535 81.309C254.769 81.3447 254.136 81.416 254.109 81.309C254.083 81.2021 254.698 80.9169 255.517 80.8813C256.337 80.8456 256.979 81.015 256.952 81.1486Z" fill="#E7BFA0"/>
<path d="M261.06 229.169C261.06 229.169 262.29 261.429 262.521 266.098C262.753 270.768 264.384 308.107 263.92 311.601C263.457 315.094 260.587 363.644 264.001 369.713L264.099 374.846L280.897 375.648C280.897 375.648 287.723 314.64 289.122 310.674C290.521 306.708 299.62 258.862 299.62 258.862C299.62 258.862 311.526 302.529 312.462 305.3C313.397 308.072 320.856 351.979 324.127 361.541C326.049 367.051 327.303 372.771 327.861 378.58L346.308 376.245C346.308 376.245 344.205 305.069 341.638 293.368C339.072 281.667 326.934 216.363 326.934 216.363L322.033 206.56L261.06 229.169Z" fill="#EAEFF4"/>
<path d="M295.762 229.685C295.762 229.685 295.762 229.551 295.762 229.275C295.765 228.882 295.813 228.49 295.904 228.107C296.245 226.656 297.116 225.385 298.346 224.543C298.751 224.222 299.247 224.038 299.763 224.017C299.916 224.024 300.066 224.063 300.203 224.132C300.339 224.201 300.46 224.299 300.556 224.418C300.739 224.678 300.833 224.991 300.823 225.309C300.784 225.91 300.602 226.493 300.292 227.009C299.982 227.525 299.553 227.96 299.041 228.277C297.951 228.994 296.665 229.355 295.36 229.311C294.003 229.265 292.651 229.119 291.315 228.874L287.331 228.259C286.662 228.217 286.008 228.045 285.406 227.751C285.234 227.658 285.09 227.519 284.993 227.349C284.895 227.179 284.847 226.985 284.854 226.789C284.873 226.597 284.947 226.415 285.067 226.265C285.188 226.115 285.349 226.003 285.531 225.942C286.127 225.759 286.762 225.744 287.367 225.897C287.937 225.978 288.481 226.085 289.007 226.2C290.049 226.432 291.012 226.699 291.876 226.985C293.24 227.435 294.566 227.992 295.842 228.651C296.296 228.892 296.635 229.088 296.867 229.23C296.985 229.294 297.096 229.372 297.196 229.462C296.706 229.276 296.227 229.062 295.762 228.82C294.469 228.224 293.138 227.715 291.778 227.297C290.887 227.038 289.996 226.789 288.926 226.575C288.409 226.477 287.866 226.379 287.313 226.298C286.779 226.165 286.218 226.181 285.691 226.343C285.58 226.372 285.481 226.437 285.409 226.526C285.336 226.615 285.294 226.725 285.288 226.84C285.282 226.955 285.313 227.069 285.376 227.166C285.438 227.262 285.53 227.336 285.638 227.377C286.2 227.632 286.804 227.781 287.42 227.813L291.404 228.41C292.715 228.66 294.044 228.808 295.378 228.856C296.589 228.917 297.789 228.606 298.818 227.965C299.276 227.688 299.663 227.307 299.948 226.854C300.233 226.401 300.407 225.887 300.458 225.354C300.472 225.25 300.464 225.144 300.437 225.042C300.409 224.941 300.362 224.846 300.297 224.763C300.232 224.68 300.152 224.611 300.06 224.559C299.968 224.508 299.867 224.475 299.763 224.463C299.322 224.484 298.897 224.636 298.542 224.899C297.364 225.675 296.498 226.843 296.1 228.197C295.957 228.685 295.844 229.182 295.762 229.685Z" fill="#E2E7EB"/>
<path d="M268.314 373.678C268.298 373.554 268.298 373.428 268.314 373.304C268.314 373.037 268.314 372.671 268.314 372.199C268.314 371.21 268.376 369.793 268.421 367.984C268.51 364.312 268.653 359.01 268.76 352.46C269.009 339.351 269.161 321.269 268.822 301.236C268.635 291.228 268.332 281.702 267.931 273.04C267.53 264.378 267.04 256.589 266.532 250.057C266.407 248.426 266.291 246.867 266.175 245.396C266.059 243.926 265.908 242.544 265.783 241.243C265.552 238.65 265.347 236.422 265.133 234.595C264.919 232.769 264.785 231.387 264.678 230.398C264.634 229.935 264.598 229.578 264.571 229.311C264.561 229.186 264.561 229.061 264.571 228.937C264.604 229.056 264.625 229.178 264.634 229.302C264.678 229.569 264.723 229.926 264.785 230.389C264.919 231.369 265.097 232.777 265.329 234.578C265.56 236.378 265.801 238.623 266.059 241.217L266.487 245.369C266.612 246.84 266.746 248.399 266.879 250.03C267.459 256.562 267.931 264.36 268.376 273.022C268.822 281.684 269.089 291.219 269.268 301.227C269.606 321.234 269.401 339.351 269.072 352.46C268.92 359.019 268.724 364.321 268.581 367.984C268.501 369.766 268.439 371.219 268.394 372.208C268.394 372.671 268.394 373.037 268.332 373.304C268.336 373.429 268.33 373.554 268.314 373.678Z" fill="#E2E7EB"/>
<path d="M270.604 373.322C270.594 373.197 270.594 373.072 270.604 372.947C270.604 372.68 270.604 372.315 270.604 371.851C270.604 370.862 270.658 369.445 270.702 367.627C270.791 363.965 270.934 358.653 271.05 352.103C271.29 338.994 271.442 320.913 271.103 300.88C270.916 290.872 270.622 281.345 270.212 272.692C269.802 264.039 269.321 256.233 268.822 249.7L268.457 245.04C268.323 243.569 268.189 242.188 268.073 240.887C267.833 238.294 267.628 236.066 267.414 234.239C267.2 232.412 267.066 231.031 266.959 230.042L266.852 228.954C266.843 228.83 266.843 228.705 266.852 228.58C266.889 228.699 266.913 228.822 266.924 228.945C266.924 229.213 267.013 229.569 267.075 230.033L267.61 234.221C267.86 236.003 268.082 238.276 268.35 240.86C268.483 242.161 268.626 243.534 268.768 245.013C268.911 246.492 269.027 248.043 269.161 249.674C269.74 256.215 270.212 264.004 270.658 272.666C271.103 281.328 271.371 290.863 271.549 300.871C271.888 320.877 271.691 339.003 271.353 352.112C271.201 358.662 271.014 363.965 270.863 367.636C270.782 369.418 270.72 370.862 270.676 371.851C270.676 372.315 270.631 372.68 270.613 372.947C270.62 373.072 270.617 373.197 270.604 373.322Z" fill="#E2E7EB"/>
<path d="M314.119 235.833C314.226 235.905 310.234 242.678 305.208 250.983C300.182 259.289 296.002 265.955 295.886 265.883C295.771 265.812 299.772 259.039 304.798 250.734C309.824 242.428 314.012 235.771 314.119 235.833Z" fill="#E2E7EB"/>
<path d="M344.125 376.343C344.125 376.343 344.125 376.2 344.071 375.915C344.018 375.63 344.018 375.184 343.973 374.641C343.884 373.5 343.768 371.86 343.608 369.757C343.323 365.489 342.913 359.349 342.396 351.774C341.879 344.199 341.353 335.136 340.72 325.101C340.435 320.075 340.141 314.809 339.829 309.346C339.669 306.61 339.66 303.812 339.304 301.031C338.947 298.251 338.537 295.399 338.092 292.53C336.256 281.069 334.277 270.188 332.477 260.288L327.594 234.016C326.89 230.273 326.257 226.887 325.704 223.919C325.41 222.44 325.197 221.041 324.902 219.793C324.612 218.654 324.224 217.542 323.744 216.469C323.074 214.983 322.281 213.555 321.373 212.201C321.062 211.737 320.812 211.39 320.643 211.167C320.473 210.944 320.393 210.811 320.393 210.811C320.497 210.912 320.596 211.019 320.687 211.131C320.865 211.354 321.124 211.693 321.454 212.156C322.402 213.49 323.223 214.91 323.904 216.398C324.406 217.474 324.812 218.592 325.116 219.74C325.428 221.014 325.651 222.413 325.954 223.875C326.533 226.842 327.193 230.22 327.915 233.954C329.358 241.422 331.06 250.316 332.896 260.207C334.732 270.099 336.71 280.989 338.546 292.458C338.992 295.328 339.437 298.162 339.767 300.978C340.097 303.794 340.132 306.592 340.284 309.319C340.578 314.782 340.872 320.013 341.175 325.075C341.763 335.109 342.307 344.154 342.752 351.756C343.198 359.357 343.563 365.471 343.822 369.739L344.089 374.632C344.089 375.175 344.089 375.603 344.151 375.906C344.214 376.209 344.125 376.343 344.125 376.343Z" fill="#E2E7EB"/>
<path d="M342.405 376.61C342.405 376.61 342.405 376.467 342.351 376.182C342.298 375.897 342.298 375.46 342.253 374.917C342.164 373.785 342.048 372.145 341.897 370.051C341.611 365.8 341.193 359.678 340.685 352.13C340.177 344.582 339.642 335.554 339.009 325.556C338.724 320.556 338.43 315.298 338.118 309.853C337.958 307.135 337.949 304.346 337.619 301.575C337.289 298.803 336.862 295.96 336.425 293.1C334.598 281.684 332.629 270.821 330.837 261.018C329.046 251.215 327.362 242.304 325.972 234.836C325.277 231.111 324.644 227.707 324.082 224.784C323.806 223.304 323.566 221.923 323.307 220.666C323.066 219.518 322.723 218.394 322.282 217.307C321.673 215.805 320.918 214.366 320.028 213.011C319.725 212.539 319.475 212.192 319.306 211.96L319.056 211.612C319.16 211.713 319.259 211.821 319.35 211.933C319.529 212.156 319.787 212.495 320.108 212.958C321.035 214.302 321.82 215.739 322.452 217.244C322.909 218.333 323.267 219.46 323.521 220.613C323.797 221.887 324.047 223.286 324.341 224.73C324.92 227.698 325.571 231.057 326.292 234.773C327.736 242.215 329.429 251.082 331.256 260.938C333.083 270.794 335.053 281.639 336.879 293.073C337.316 295.934 337.771 298.758 338.082 301.566C338.394 304.373 338.421 307.153 338.573 309.88C338.876 315.325 339.161 320.574 339.464 325.573C340.061 335.572 340.596 344.582 341.041 352.157C341.487 359.731 341.852 365.827 342.102 370.078C342.217 372.181 342.307 373.821 342.369 374.952C342.369 375.496 342.413 375.915 342.431 376.227C342.449 376.539 342.405 376.61 342.405 376.61Z" fill="#E2E7EB"/>
<g opacity="0.3">
<path d="M311.954 239.052C308.389 245.165 304.219 252.419 299.781 259.45C303.557 257.582 306.715 254.664 308.874 251.045C311.033 247.427 312.103 243.263 311.954 239.052Z" fill="#E2E7EB"/>
</g>
<path d="M238.318 116.277C238.318 116.277 239.993 134.484 230.422 135.419L244.681 152.69L254.011 183.961C254.011 183.961 254.243 229.695 255.642 229.926C257.041 230.158 293.445 222.459 300.681 220.364C307.917 218.27 322.853 209.394 322.853 209.394V206.596L331.256 205.197L318.682 168.089L309.343 123.754L306.776 100.183C306.776 100.183 302.222 105.788 296.43 103.507C286.823 99.7196 285.736 97.8481 285.736 97.8481L283.348 113.889L282.376 110.556L276.628 119.788C276.628 119.788 270.328 127.488 271.282 133.325L260.08 127.541L256.025 125.367L254.964 127.541L238.318 116.277Z" fill="#263238"/>
<path d="M246.169 147.814C246.212 146.972 246.322 146.134 246.499 145.31C246.739 143.759 247.042 141.612 247.247 139.223C247.452 136.835 247.523 134.67 247.55 133.101C247.517 132.247 247.549 131.392 247.648 130.543C247.821 131.382 247.899 132.237 247.88 133.092C247.947 135.152 247.89 137.215 247.711 139.268C247.532 141.318 247.235 143.357 246.819 145.372C246.686 146.206 246.468 147.024 246.169 147.814Z" fill="#4E6069"/>
<path d="M288.008 132.131C287.845 131.217 287.738 130.295 287.688 129.368C287.442 127.16 287.046 124.972 286.502 122.818C285.943 120.662 285.234 118.548 284.381 116.491C283.982 115.657 283.634 114.8 283.339 113.924C283.339 113.924 283.508 114.129 283.749 114.548C283.989 114.967 284.319 115.582 284.684 116.33C285.634 118.367 286.392 120.489 286.948 122.667C287.506 124.842 287.864 127.065 288.017 129.306C288.071 130.197 288.089 130.865 288.071 131.346C288.091 131.609 288.07 131.874 288.008 132.131Z" fill="#4E6069"/>
<path d="M295.833 144.473C295.731 144.042 295.663 143.604 295.628 143.163C295.53 142.271 295.352 141.086 295.084 139.598C293.721 131.757 290.787 124.273 286.458 117.595C285.629 116.312 284.925 115.296 284.426 114.61C284.147 114.264 283.9 113.894 283.686 113.505C284.013 113.81 284.311 114.144 284.578 114.503C285.13 115.154 285.87 116.152 286.743 117.417C287.755 118.897 288.689 120.429 289.541 122.007C291.636 125.884 293.252 130.001 294.354 134.269C294.799 136.008 295.156 137.769 295.423 139.544C295.646 141.059 295.77 142.298 295.815 143.109C295.87 143.562 295.876 144.019 295.833 144.473Z" fill="#4E6069"/>
<path d="M307.988 129.902C307.678 129.832 307.378 129.721 307.097 129.572C306.545 129.332 305.76 128.949 304.807 128.441C299.833 125.78 295.339 122.308 291.511 118.166C290.78 117.372 290.21 116.713 289.844 116.232C289.628 116.003 289.444 115.745 289.301 115.465C289.354 115.465 290.236 116.419 291.742 117.943C293.701 119.924 295.785 121.779 297.981 123.495C300.194 125.198 302.516 126.755 304.932 128.155C306.794 129.269 307.988 129.831 307.988 129.902Z" fill="#4E6069"/>
<path d="M275.131 144.286C274.642 143.843 274.23 143.322 273.91 142.744C273.049 141.419 272.358 139.991 271.852 138.493C271.327 136.992 271.027 135.421 270.961 133.832C270.904 133.177 270.964 132.516 271.139 131.881C271.233 134.073 271.607 136.245 272.253 138.342C273.055 140.396 274.017 142.383 275.131 144.286Z" fill="#4E6069"/>
<path d="M283.339 113.924C283.321 114.198 283.279 114.469 283.214 114.735L282.76 117.008C282.323 119.022 281.735 121.784 281.031 125.028L280.728 126.418L280.63 124.992C280.572 124.094 280.193 123.246 279.56 122.604C278.862 121.909 277.997 121.406 277.047 121.143L277.324 120.973C276.984 122.572 276.84 124.206 276.896 125.839C276.985 128.701 277.526 131.532 278.5 134.225C278.92 135.398 279.439 136.534 280.051 137.62C280.345 138.128 280.674 138.565 280.942 139.099C281.081 139.374 281.128 139.687 281.075 139.991C280.988 140.275 280.813 140.524 280.576 140.704C279.26 141.606 277.885 142.419 276.459 143.136C275.488 143.689 274.98 144.028 274.953 144.028C274.926 144.028 275.06 143.912 275.301 143.725C275.541 143.537 275.889 143.288 276.37 142.985C277.746 142.215 279.079 141.37 280.363 140.454C280.548 140.324 280.677 140.128 280.724 139.906C280.77 139.685 280.73 139.453 280.612 139.26C280.38 138.814 280.024 138.369 279.721 137.816C279.078 136.721 278.535 135.569 278.099 134.376C277.083 131.646 276.52 128.769 276.433 125.857C276.374 124.187 276.524 122.517 276.878 120.884L276.932 120.644L277.154 120.715C278.184 121.001 279.121 121.551 279.872 122.31C280.572 123.03 280.984 123.981 281.031 124.984H280.63C281.405 121.722 282.056 118.977 282.528 116.963L283.089 114.717C283.143 114.445 283.227 114.179 283.339 113.924Z" fill="#4E6069"/>
<path d="M270.72 133.208C270.31 133.42 269.915 133.659 269.535 133.921C268.571 134.643 267.931 135.715 267.752 136.906L267.708 137.218L267.441 137.04C266.202 136.229 264.767 135.257 263.234 134.143C260.935 132.495 258.93 130.917 257.504 129.732C256.708 129.126 255.962 128.456 255.276 127.727C256.13 128.26 256.944 128.856 257.709 129.509C259.179 130.623 261.22 132.183 263.502 133.805C265.017 134.892 266.451 135.899 267.663 136.746L267.36 136.879C267.464 136.247 267.699 135.643 268.049 135.106C268.398 134.569 268.856 134.111 269.392 133.76C269.687 133.565 270.008 133.412 270.346 133.306C270.56 133.199 270.72 133.181 270.72 133.208Z" fill="#4E6069"/>
<path d="M288.035 99.4512C288.032 100.206 287.954 100.958 287.804 101.697C287.59 103.239 287.331 105.065 287.046 107.044C286.761 109.022 286.52 110.894 286.315 112.435C286.253 113.188 286.122 113.934 285.923 114.663C285.861 113.909 285.882 113.15 285.986 112.4C286.093 111.009 286.289 109.093 286.583 106.981C286.877 104.869 287.207 102.971 287.474 101.635C287.583 100.889 287.771 100.157 288.035 99.4512Z" fill="#4E6069"/>
<path d="M289.399 100.022C289.402 100.779 289.327 101.535 289.176 102.277C288.953 103.818 288.695 105.645 288.409 107.624C288.124 109.602 287.892 111.464 287.679 113.015C287.627 113.767 287.496 114.51 287.287 115.234C287.231 114.482 287.255 113.726 287.358 112.979C287.465 111.589 287.661 109.664 287.955 107.561C288.249 105.458 288.57 103.551 288.846 102.214C288.951 101.466 289.136 100.731 289.399 100.022Z" fill="#4E6069"/>
<path d="M254.447 130.348C253.639 129.896 252.87 129.378 252.148 128.797C250.758 127.799 248.86 126.382 246.801 124.805C244.743 123.228 242.853 121.766 241.517 120.697C240.763 120.165 240.056 119.568 239.405 118.915C240.218 119.362 240.991 119.881 241.713 120.465C243.103 121.463 245.001 122.88 247.06 124.458C249.118 126.035 250.999 127.496 252.344 128.566C253.097 129.096 253.801 129.693 254.447 130.348Z" fill="#4E6069"/>
<path d="M254.037 128.271C253.294 127.728 252.591 127.133 251.934 126.488C250.651 125.374 248.842 123.886 246.748 122.371C244.653 120.856 242.666 119.626 241.205 118.762C240.392 118.337 239.609 117.858 238.861 117.327C239.735 117.618 240.575 118.004 241.365 118.477C243.328 119.522 245.219 120.698 247.024 121.997C248.828 123.294 250.54 124.715 252.148 126.248C252.851 126.849 253.485 127.528 254.037 128.271Z" fill="#4E6069"/>
<path d="M203.02 370.943C203.02 370.943 204.802 376.958 204.945 378.072L209.81 381.209L220.504 377.235L220.183 368.083L203.02 370.943Z" fill="#F3D0B5"/>
<path d="M220.54 375.818L220.682 376.799C220.682 376.799 238.265 380.987 238.906 384.115L205.934 388.847L204.802 377.815C207.414 378.633 210.173 378.879 212.889 378.534C215.605 378.19 218.214 377.263 220.54 375.818Z" fill="#064058"/>
<g opacity="0.6">
<path d="M205.951 388.847L205.675 386.174L237.365 382.609C237.365 382.609 238.924 383.037 238.906 384.097L205.951 388.847Z" fill="white"/>
</g>
<path d="M220.816 376.879C220.816 377.039 220.041 377.227 219.319 377.859C218.597 378.492 218.276 379.223 218.125 379.178C217.973 379.134 218.071 378.171 218.953 377.396C219.836 376.621 220.825 376.719 220.816 376.879Z" fill="#263238"/>
<path d="M224.479 377.806C224.532 377.957 223.881 378.331 223.427 379.089C222.972 379.846 222.928 380.595 222.767 380.613C222.607 380.631 222.366 379.722 222.946 378.83C223.525 377.939 224.452 377.654 224.479 377.806Z" fill="#263238"/>
<path d="M227.036 381.665C226.894 381.718 226.555 380.943 226.84 380.007C227.125 379.072 227.829 378.608 227.918 378.733C228.007 378.858 227.606 379.392 227.384 380.168C227.161 380.943 227.188 381.62 227.036 381.665Z" fill="#263238"/>
<path d="M139.293 371.247C139.293 371.247 137.297 377.2 137.154 378.279L132.199 381.273L121.621 377.013L122.21 367.879L139.293 371.247Z" fill="#F3D0B5"/>
<path d="M121.639 375.605L121.461 376.576C121.461 376.576 103.771 380.248 103.032 383.34L135.835 389.053L137.288 378.056C134.656 378.796 131.897 378.96 129.196 378.537C126.496 378.114 123.918 377.114 121.639 375.605Z" fill="#064058"/>
<g opacity="0.6">
<path d="M135.835 389.052L136.183 386.379L104.618 381.878C104.618 381.878 103.05 382.262 103.032 383.313L135.835 389.052Z" fill="white"/>
</g>
<path d="M121.336 376.647C121.336 376.808 122.103 377.022 122.798 377.672C123.493 378.323 123.796 379.071 123.956 379.036C124.117 379 124.036 378.029 123.181 377.253C122.325 376.478 121.327 376.496 121.336 376.647Z" fill="#263238"/>
<path d="M117.647 377.467C117.584 377.619 118.226 378.011 118.654 378.786C119.081 379.561 119.108 380.301 119.269 380.319C119.429 380.337 119.696 379.428 119.144 378.536C118.591 377.645 117.673 377.316 117.647 377.467Z" fill="#263238"/>
<path d="M114.973 381.245C115.116 381.308 115.472 380.541 115.214 379.597C114.955 378.652 114.269 378.171 114.18 378.287C114.091 378.402 114.474 378.964 114.67 379.739C114.866 380.514 114.822 381.201 114.973 381.245Z" fill="#263238"/>
<path d="M138.758 262.99C137.602 267.404 136.847 271.914 136.504 276.464C136.227 282.613 132.877 306.353 132.877 306.353C132.877 306.353 124.776 322.84 121.416 340.993C119.441 351.312 118.32 361.777 118.066 372.281L141.815 376.193L160.805 307.191L177.88 262.99C177.88 262.99 179.27 299.376 187.371 314.454L199.366 373.698L222.794 370.205C222.794 370.205 213.33 311.068 213.606 297.977C213.883 284.885 224.3 267.116 206.049 224.554L171.704 252.724L138.758 262.99Z" fill="#263238"/>
<path d="M206.103 306.826C206.055 307.06 205.971 307.286 205.853 307.494C205.576 308.082 205.245 308.643 204.864 309.17C203.596 310.93 201.891 312.329 199.917 313.229C197.944 314.129 195.769 314.499 193.609 314.303C192.961 314.242 192.32 314.126 191.693 313.955C191.458 313.904 191.233 313.817 191.024 313.697C191.024 313.616 192.023 313.902 193.636 313.973C195.729 314.075 197.817 313.675 199.724 312.805C201.631 311.935 203.302 310.621 204.597 308.973C205.604 307.708 206.023 306.781 206.103 306.826Z" fill="#455A64"/>
<path d="M149.363 320.869C149.215 320.994 149.042 321.085 148.855 321.137C148.363 321.314 147.845 321.41 147.322 321.422C145.571 321.404 143.881 320.773 142.546 319.639C141.256 318.514 140.173 317.172 139.346 315.674C138.979 315.083 138.68 314.452 138.455 313.793C138.88 314.332 139.25 314.911 139.56 315.522C140.445 316.93 141.529 318.203 142.777 319.301C144.039 320.346 145.598 320.97 147.233 321.083C147.948 321.073 148.66 321.001 149.363 320.869Z" fill="#455A64"/>
<path d="M202.913 373.162C202.858 372.994 202.822 372.821 202.806 372.645C202.752 372.253 202.672 371.754 202.583 371.148C202.405 369.847 202.128 367.967 201.745 365.641C200.997 360.998 199.776 354.617 198.27 347.604C196.764 340.59 195.382 334.29 194.375 329.629C193.894 327.33 193.484 325.467 193.27 324.166C193.154 323.56 193.065 323.07 193.003 322.678C192.963 322.505 192.939 322.329 192.932 322.152C193.006 322.314 193.06 322.485 193.092 322.66C193.181 323.044 193.297 323.551 193.449 324.131C193.752 325.476 194.179 327.312 194.696 329.567C195.748 334.147 197.227 340.483 198.724 347.506C200.221 354.528 201.398 360.927 202.066 365.596C202.414 367.922 202.645 369.811 202.761 371.13C202.824 371.745 202.868 372.244 202.904 372.636C202.926 372.811 202.929 372.987 202.913 373.162Z" fill="#455A64"/>
<path d="M185.116 258.595C184.816 258.888 184.487 259.15 184.136 259.379C183.494 259.861 182.532 260.52 181.32 261.304C178.16 263.32 174.861 265.107 171.446 266.651C168.028 268.204 164.502 269.506 160.895 270.546C159.504 270.947 158.381 271.232 157.588 271.437C157.185 271.546 156.774 271.62 156.359 271.66C156.742 271.493 157.138 271.359 157.544 271.259C158.319 271.045 159.433 270.706 160.796 270.269C167.926 268.013 174.759 264.911 181.151 261.028C182.371 260.28 183.361 259.665 184.038 259.246C184.374 258.992 184.735 258.774 185.116 258.595Z" fill="#455A64"/>
<path d="M192.441 262.534C191.76 262.779 191.05 262.938 190.329 263.007C189.01 263.22 187.184 263.443 185.152 263.568C183.12 263.693 181.275 263.693 179.938 263.639C179.217 263.651 178.497 263.582 177.791 263.434C178.504 263.322 179.226 263.28 179.947 263.31C181.275 263.31 183.102 263.229 185.125 263.114C187.148 262.998 188.966 262.811 190.285 262.677C190.998 262.566 191.72 262.518 192.441 262.534Z" fill="#455A64"/>
<path d="M96.2145 286.8L103.469 346.267L114.055 343.95C114.055 343.95 114.858 313.357 115.33 307.297C115.802 301.237 115.33 286.8 115.33 286.8H96.2145Z" fill="#F3D0B5"/>
<path d="M103.468 345.947C103.468 345.947 102.934 369.767 103.237 370.008C103.54 370.249 104.511 370.008 104.511 370.008C104.511 370.008 104.663 372.557 105.402 372.681C106.142 372.806 106.837 373.207 107.363 371.478C107.889 369.75 108.254 367.575 108.637 365.623C109.02 363.672 111.266 356.712 111.266 356.712C111.751 357.458 112.056 358.306 112.157 359.189C112.309 360.615 112.772 365.258 115.526 365.721L117.041 365.124C117.041 365.124 115.258 361.364 115.526 359.492C115.793 357.621 116.274 352.951 115.526 350.331C114.777 347.711 114.038 343.959 114.038 343.959L103.468 345.947Z" fill="#F3D0B5"/>
<path d="M94.3253 243.223C94.3253 243.223 91.8122 251.047 92.0885 256.35C92.3647 261.652 94.3253 286.801 94.3253 286.801H118.627L116.39 265.012C116.39 265.012 129.241 268.175 137.965 261.447C137.965 261.447 138.179 263.639 141.53 265.012C144.881 266.384 162.481 267.81 170.59 265.012C178.7 262.214 196.844 249.087 201.318 240.71C203.821 235.729 205.838 230.518 207.342 225.15C207.67 224.037 207.571 222.841 207.063 221.798C206.555 220.754 205.676 219.938 204.597 219.509C195.463 215.856 172.23 206.882 159.415 204.672C143.214 201.882 138.028 196.705 138.028 196.705L147.509 189.923C144.632 186.198 141.293 182.853 137.573 179.969C131.424 175.219 129.553 172.269 126.763 173.383C123.974 174.497 108.325 186.519 106.089 193.782L101.062 216.123L94.3253 243.223Z" fill="#FF90AD"/>
<g opacity="0.3">
<path d="M155.672 236.78C155.592 236.388 155.449 235.934 155.066 235.8C154.389 235.559 153.97 236.504 153.828 237.217C151.867 246.975 145.647 255.708 137.965 261.421C140.812 261.036 143.552 260.079 146.019 258.607C148.487 257.136 150.631 255.179 152.322 252.857C153.958 250.553 155.101 247.935 155.677 245.169C156.254 242.402 156.252 239.546 155.672 236.78Z" fill="black"/>
</g>
<path d="M137.992 196.705C137.992 196.705 137.751 196.963 137.252 197.373C136.994 197.578 136.7 197.836 136.361 198.113L135.069 199.004C132.538 200.694 129.666 201.808 126.656 202.265C123.629 202.652 120.553 202.313 117.682 201.276C117.13 201.089 116.649 200.893 116.23 200.706C115.862 200.562 115.502 200.399 115.151 200.216C114.834 200.092 114.534 199.928 114.26 199.726C114.26 199.645 115.579 200.269 117.771 200.964C120.608 201.89 123.615 202.177 126.576 201.802C129.523 201.346 132.348 200.3 134.882 198.728L136.192 197.908C136.575 197.658 136.887 197.418 137.154 197.239C137.41 197.028 137.692 196.848 137.992 196.705Z" fill="#263238"/>
<path d="M115.178 261.759C114.891 261.617 114.624 261.438 114.385 261.224L112.318 259.629C110.086 257.838 107.701 256.249 105.188 254.879C102.675 253.534 99.9234 252.693 97.0877 252.402C95.9003 252.339 94.7105 252.339 93.5231 252.402C93.8216 252.281 94.1375 252.209 94.4588 252.188C95.329 252.061 96.2097 252.022 97.0877 252.072C99.9897 252.271 102.816 253.088 105.375 254.469C107.919 255.846 110.309 257.489 112.505 259.371C113.396 260.075 114.029 260.663 114.483 261.082C114.738 261.283 114.971 261.51 115.178 261.759Z" fill="#263238"/>
<g opacity="0.3">
<path d="M181.097 252.759C183.417 248.797 184.727 244.325 184.912 239.738C185.097 235.15 184.151 230.587 182.158 226.452C184.831 234.668 183.138 243.615 181.391 252.099" fill="black"/>
</g>
<g opacity="0.3">
<path d="M190.356 223.066C191.5 231.005 190.298 239.106 186.899 246.372C183.499 253.637 178.051 259.751 171.223 263.961L170.76 264.282C176.686 261.011 182.505 257.153 186.302 251.538C188.645 247.88 190.308 243.828 191.212 239.579C192.486 234.098 192.95 228.056 190.356 223.066Z" fill="black"/>
</g>
<path d="M93.7281 252.428C93.8096 252.872 93.8484 253.323 93.844 253.774C93.8885 254.727 93.9509 255.957 94.0222 257.445C94.1737 260.547 94.4411 264.824 94.9134 269.538C95.3857 274.253 95.9293 278.503 96.3749 281.578C96.5887 283.048 96.767 284.251 96.9007 285.223C96.9862 285.664 97.0369 286.111 97.0521 286.56C96.8965 286.136 96.786 285.697 96.7224 285.25C96.5442 284.403 96.3125 283.164 96.054 281.631C95.5193 278.566 94.9134 274.306 94.45 269.583C93.9866 264.86 93.7816 260.564 93.7103 257.454C93.7103 255.904 93.6658 254.647 93.7103 253.774C93.6785 253.326 93.6845 252.875 93.7281 252.428Z" fill="white"/>
<path d="M95.7777 252.188C95.8527 252.633 95.8914 253.083 95.8935 253.534C95.9381 254.487 95.9915 255.726 96.0718 257.214C96.2232 260.315 96.4906 264.593 96.9629 269.307C97.4352 274.021 97.9788 278.272 98.4155 281.347C98.6294 282.817 98.8076 284.02 98.9502 284.983C99.0425 285.425 99.0902 285.876 99.0928 286.328C98.9504 285.901 98.8431 285.463 98.772 285.018C98.5937 284.127 98.362 282.933 98.0947 281.4C97.5689 278.335 96.954 274.075 96.4995 269.352C96.045 264.629 95.8311 260.333 95.7599 257.223C95.7599 255.672 95.7153 254.407 95.7599 253.543C95.7245 253.091 95.7304 252.638 95.7777 252.188Z" fill="white"/>
<path d="M130.319 175.067C130.002 175.301 129.662 175.502 129.303 175.664C128.626 176.021 127.672 176.556 126.514 177.26C123.493 179.093 120.671 181.234 118.092 183.649C115.531 186.081 113.226 188.768 111.213 191.67C110.446 192.792 109.849 193.71 109.43 194.343C109.244 194.694 109.023 195.025 108.771 195.332C108.901 194.956 109.071 194.594 109.279 194.254C109.617 193.577 110.17 192.623 110.918 191.474C114.826 185.483 120.105 180.509 126.318 176.966C127.512 176.297 128.492 175.798 129.196 175.495C129.555 175.315 129.931 175.171 130.319 175.067Z" fill="white"/>
<path d="M132.645 176.503C132.326 176.738 131.982 176.938 131.62 177.1C130.952 177.456 129.989 177.991 128.831 178.695C122.766 182.351 117.552 187.261 113.539 193.096C112.772 194.21 112.175 195.137 111.756 195.77C111.571 196.118 111.35 196.447 111.097 196.75C111.224 196.377 111.392 196.018 111.596 195.681C111.943 195.003 112.487 194.041 113.236 192.9C115.182 189.915 117.476 187.172 120.071 184.728C122.67 182.287 125.547 180.161 128.644 178.392C129.829 177.724 130.818 177.225 131.513 176.922C131.876 176.745 132.255 176.605 132.645 176.503Z" fill="white"/>
<path d="M95.7153 205.91C95.5816 205.91 95.7153 204.832 95.3588 203.611C95.0024 202.39 94.4677 201.526 94.5568 201.437C95.1621 201.986 95.594 202.7 95.7998 203.492C96.0055 204.283 95.9762 205.117 95.7153 205.892V205.91Z" fill="white"/>
<path d="M170.751 206.632C170.991 206.997 175.367 213.235 176.846 215.401C178.326 217.566 178.629 219.473 179.636 219.937C180.643 220.4 181.151 219.937 181.418 218.306C181.721 216.176 180.153 213.057 180.153 213.057C180.153 213.057 189.064 220.757 190.205 221.006C192.094 221.434 191.809 219.224 191.809 219.224C191.809 219.224 194.09 221.229 195.062 220.73C196.033 220.231 195.953 219.607 195.953 219.607L195.347 217.495C196.238 217.584 196.835 217.192 196.933 216.078L189.617 211.097L182.22 206.641L177.648 199.387L170.751 206.632Z" fill="#F3D0B5"/>
<path d="M129.276 173.624C129.276 173.624 151.457 162.93 153.747 163.963C166.58 169.676 176.802 196.562 182.22 206.632L173.005 209.849L150.459 184.264L145.442 187.633L129.276 173.624Z" fill="#F3D0B5"/>
<path d="M185.232 212.594C186.617 213.421 187.878 214.442 188.975 215.624C190.175 216.7 191.219 217.939 192.076 219.305C190.877 218.249 189.735 217.131 188.654 215.954C187.458 214.892 186.316 213.771 185.232 212.594Z" fill="#E7BFA0"/>
<path d="M190.49 213.289C191.47 213.818 192.37 214.484 193.163 215.267C194.05 215.935 194.839 216.724 195.507 217.611C194.529 217.075 193.629 216.406 192.834 215.623C191.948 214.958 191.159 214.172 190.49 213.289Z" fill="#E7BFA0"/>
<path d="M103.379 204.565C103.31 201.544 102.118 198.656 100.038 196.465C97.8899 194.379 92.2934 193.007 89.7625 195.52L91.8657 196.117C88.6531 211.836 83.7963 227.174 77.3754 241.878C76.4596 243.692 75.8312 245.637 75.5129 247.644C75.3616 248.649 75.456 249.676 75.7881 250.636C76.1202 251.597 76.6802 252.463 77.42 253.16C78.9884 254.452 81.6708 254.399 82.8204 252.723C82.7244 253.566 82.7954 254.419 83.0294 255.234C83.2633 256.049 83.6556 256.81 84.1839 257.473C84.7266 258.124 85.4579 258.59 86.2768 258.807C87.0957 259.024 87.9618 258.981 88.7555 258.685C90.9032 257.732 92.4538 255.076 92.7925 252.75C94.7263 239.383 99.0306 226.586 102.23 213.423C103.045 210.543 103.433 207.558 103.379 204.565Z" fill="white"/>
<path d="M95.1718 196.25C94.2822 195.679 93.2658 195.336 92.2121 195.25C91.1584 195.165 90.0998 195.34 89.1298 195.76L88.6129 195.858C90.0045 196.439 91.1597 197.472 91.8924 198.79C92.6086 200.102 93.4344 201.351 94.3609 202.524C95.1451 203.415 96.5175 204.057 97.3997 203.299C97.6156 203.074 97.7819 202.807 97.8878 202.513C97.9937 202.22 98.0369 201.908 98.0146 201.597C98.0176 200.541 97.7596 199.5 97.2637 198.567C96.7678 197.634 96.0492 196.838 95.1718 196.25Z" fill="#FF90AD"/>
<path d="M101.65 209.547C101.579 209.547 101.74 208.762 101.802 207.506C101.889 205.879 101.714 204.248 101.285 202.676C101.057 201.813 100.731 200.979 100.314 200.189C99.9723 199.56 99.4942 199.015 98.9146 198.594C98.3875 198.188 97.7216 198.005 97.061 198.086C97.061 198.086 97.2303 197.944 97.6046 197.899C98.1348 197.857 98.6626 198.005 99.0928 198.318C99.7493 198.732 100.294 199.302 100.679 199.976C101.139 200.785 101.492 201.651 101.731 202.551C102.182 204.171 102.318 205.862 102.132 207.533C102.101 208.229 101.938 208.912 101.65 209.547Z" fill="white"/>
<path d="M87.7129 255.53C87.6011 255.297 87.5316 255.047 87.5079 254.79C87.3649 254.107 87.2608 253.417 87.196 252.723C86.9616 250.431 86.9915 248.119 87.2851 245.834C87.5818 243.548 88.1441 241.305 88.9605 239.15C89.1981 238.496 89.4748 237.856 89.7893 237.234C89.8849 236.995 90.0139 236.77 90.1725 236.566C90.2437 236.566 89.816 237.6 89.2813 239.239C88.5749 241.402 88.0678 243.624 87.7663 245.879C87.4799 248.133 87.4024 250.409 87.5346 252.678C87.6237 254.443 87.7842 255.521 87.7129 255.53Z" fill="white"/>
<path d="M72.5542 187.713C70.2461 187.847 67.8756 189.219 67.2073 191.438C65.4726 190.299 63.3571 189.893 61.3243 190.311C59.2914 190.729 57.507 191.935 56.3619 193.666C55.2212 195.573 54.8648 198.032 53.1359 199.423C52.0576 200.314 50.6407 200.563 49.3485 201.08C43.9392 203.219 41.1053 209.929 42.6292 215.553C44.1531 221.176 49.3485 225.355 55.0519 226.541C57.7254 227.084 60.5147 227.075 62.9565 228.252C65.2378 229.357 66.931 231.406 69.0965 232.707C71.262 234.008 74.5058 234.347 76.0208 232.306L93.0865 212.781C94.4959 211.278 95.4004 209.373 95.6736 207.331C95.9469 205.289 95.5751 203.212 94.6103 201.392C93.229 198.906 90.8497 197.177 88.5416 195.519C85.5776 193.287 82.4531 191.277 79.1933 189.504C77.1784 188.328 74.887 187.71 72.5542 187.713Z" fill="white"/>
<path d="M115.642 228.866C116.923 226.281 117.14 223.297 116.247 220.553C115.355 217.81 113.422 215.525 110.865 214.189L78.8547 197.462C70.3977 192.694 60.5771 193.639 56.0411 202.23L55.6668 203.041C53.8619 207.01 53.616 211.513 54.9781 215.655C56.3402 219.798 59.2105 223.276 63.0189 225.4C70.3709 229.49 78.5517 233.919 82.6243 235.737C91.1527 239.489 96.3303 231.611 96.3303 231.611C96.3303 231.611 98.2641 232.565 100.706 233.803C102.006 234.465 103.425 234.862 104.88 234.972C106.335 235.082 107.797 234.902 109.182 234.443C110.567 233.984 111.847 233.255 112.948 232.297C114.049 231.34 114.95 230.174 115.597 228.866H115.642Z" fill="#F3D0B5"/>
<path d="M96.4729 231.665C98.2506 227.744 98.8691 223.396 98.2552 219.135C98.2552 219.135 103.192 224.634 98.5761 232.752L96.4729 231.665Z" fill="#F6957F"/>
<path d="M70.4866 224.313C70.6439 224.39 70.8149 224.436 70.9899 224.446C71.1648 224.457 71.3402 224.434 71.5059 224.376C71.6715 224.319 71.8243 224.23 71.9552 224.113C72.0862 223.997 72.1928 223.856 72.2689 223.698C72.3586 223.548 72.4165 223.382 72.439 223.209C72.4614 223.037 72.448 222.861 72.3994 222.694C72.3509 222.527 72.2684 222.371 72.157 222.237C72.0456 222.103 71.9077 221.994 71.7521 221.915C71.5953 221.838 71.4248 221.792 71.2502 221.78C71.0757 221.769 70.9006 221.792 70.735 221.848C70.5693 221.904 70.4165 221.993 70.2852 222.108C70.1538 222.224 70.0466 222.364 69.9697 222.521C69.8799 222.671 69.8219 222.838 69.7994 223.012C69.7768 223.185 69.7902 223.361 69.8387 223.529C69.8871 223.697 69.9697 223.854 70.0812 223.988C70.1926 224.123 70.3307 224.234 70.4866 224.313Z" fill="#263238"/>
<path d="M68.0094 225.517C68.2322 225.436 68.0094 224.215 68.5708 222.914C69.1322 221.613 70.2551 220.954 70.1571 220.74C70.059 220.526 69.765 220.66 69.2659 220.936C68.6208 221.326 68.1108 221.905 67.8044 222.594C67.4949 223.268 67.4075 224.023 67.5549 224.75C67.6797 225.294 67.9025 225.561 68.0094 225.517Z" fill="#263238"/>
<path d="M76.8141 211.471C77.1321 211.625 77.4981 211.646 77.8321 211.531C78.1661 211.416 78.4408 211.173 78.5964 210.856C78.6844 210.706 78.7407 210.539 78.7619 210.366C78.783 210.193 78.7685 210.018 78.7192 209.851C78.6699 209.684 78.587 209.529 78.4754 209.395C78.3639 209.261 78.2261 209.152 78.0706 209.074C77.9138 208.996 77.7433 208.95 77.5688 208.938C77.3942 208.927 77.2191 208.95 77.0535 209.006C76.8879 209.063 76.735 209.151 76.6037 209.267C76.4724 209.382 76.3652 209.523 76.2883 209.68C76.1987 209.83 76.1412 209.998 76.1193 210.171C76.0974 210.345 76.1115 210.522 76.1609 210.69C76.2102 210.858 76.2937 211.014 76.4061 211.148C76.5185 211.283 76.6573 211.393 76.8141 211.471Z" fill="#263238"/>
<path d="M74.0246 213.129C74.2474 213.049 74.0246 211.819 74.586 210.518C75.1474 209.217 76.2703 208.566 76.1723 208.352C76.0742 208.138 75.7802 208.272 75.2811 208.548C74.6334 208.934 74.12 209.509 73.8107 210.197C73.5034 210.875 73.4162 211.632 73.5612 212.362C73.6949 212.906 73.9177 213.173 74.0246 213.129Z" fill="#263238"/>
<path d="M81.6887 221.951C81.1645 222.543 80.7127 223.195 80.3431 223.894C80.1559 224.215 79.942 224.5 79.6925 224.447C79.443 224.393 79.1222 224.117 78.8014 223.778L76.716 221.64C73.7307 218.636 71.2176 216.293 71.0928 216.417C70.9681 216.542 73.294 219.091 76.2794 222.085L78.4003 224.188C78.7096 224.578 79.1441 224.849 79.6301 224.955C79.7692 224.961 79.9078 224.934 80.0347 224.877C80.1616 224.819 80.2733 224.733 80.3609 224.625C80.4946 224.464 80.6083 224.287 80.6995 224.099C81.1171 223.427 81.4494 222.706 81.6887 221.951Z" fill="#263238"/>
<path d="M84.3085 218.53C84.2016 218.735 85.6096 219.421 86.0909 221.052C86.5721 222.683 85.6987 224.153 85.8948 224.251C86.0909 224.349 86.3226 224.046 86.6256 223.413C87.0284 222.581 87.1171 221.632 86.8751 220.74C86.6467 219.897 86.1047 219.173 85.3601 218.717C84.7898 218.432 84.3709 218.432 84.3085 218.53Z" fill="#263238"/>
<path d="M68.9184 210.838C69.3283 210.838 69.756 209.493 70.6383 208.049C71.5205 206.605 72.5008 205.563 72.2691 205.215C72.1622 205.055 71.7255 205.117 71.1641 205.456C70.4416 205.931 69.8361 206.563 69.3932 207.305C68.9502 208.048 68.6812 208.881 68.6065 209.742C68.5797 210.411 68.7223 210.821 68.9184 210.838Z" fill="white"/>
<path d="M64.5516 223.323C64.9526 223.234 65.0507 222.192 65.5319 221.105C66.0131 220.017 66.6369 219.206 66.423 218.85C66.3161 218.689 65.9507 218.698 65.4873 218.975C64.904 219.353 64.4501 219.9 64.1862 220.543C63.9093 221.183 63.8377 221.893 63.9813 222.575C64.1149 223.101 64.3645 223.359 64.5516 223.323Z" fill="white"/>
<path d="M84.9145 201.062C84.9145 200.893 85.8056 194.45 91.5536 197.275C97.3016 200.1 93.2557 205.251 93.0864 205.179C92.9171 205.108 84.9145 201.062 84.9145 201.062Z" fill="#F3D0B5"/>
<path d="M91.7853 202.346C91.7853 202.346 91.9012 202.284 92.0616 202.159C92.2809 201.972 92.4185 201.707 92.4448 201.42C92.395 200.936 92.2167 200.474 91.9284 200.082C91.6401 199.691 91.2522 199.383 90.8051 199.192C90.3222 198.93 89.7854 198.784 89.2366 198.764C89.0325 198.728 88.8227 198.743 88.6255 198.807C88.4283 198.87 88.2496 198.981 88.1049 199.129C88.0216 199.231 87.9761 199.359 87.9761 199.49C87.9761 199.622 88.0216 199.749 88.1049 199.851C88.2296 200.012 88.3633 200.029 88.3544 200.065C88.3455 200.101 88.2029 200.136 87.989 199.976C87.8616 199.876 87.7733 199.734 87.7395 199.575C87.7029 199.359 87.7473 199.137 87.8643 198.951C88.0288 198.742 88.2431 198.578 88.4876 198.474C88.732 198.37 88.9988 198.328 89.2634 198.354C89.8846 198.348 90.4974 198.498 91.0457 198.791C92.1775 199.397 92.9617 200.52 92.828 201.464C92.7972 201.64 92.7276 201.806 92.6243 201.951C92.521 202.096 92.3866 202.216 92.2309 202.302C91.9279 202.427 91.7853 202.391 91.7853 202.346Z" fill="#F6957F"/>
<path d="M63.215 219.5C63.6305 219.127 63.9879 218.695 64.2755 218.217C65.0259 217.114 65.6732 215.945 66.2093 214.723C66.7423 213.497 67.1571 212.223 67.448 210.918C67.6101 210.387 67.6854 209.833 67.6708 209.278C67.546 209.278 67.0737 211.729 65.835 214.554C64.5963 217.379 63.117 219.42 63.215 219.5Z" fill="#E7BFA0"/>
<path d="M61.789 219.884C63.8542 217.096 65.3666 213.938 66.2448 210.581C66.1379 210.536 65.3536 212.711 64.0882 215.268C62.8228 217.826 61.691 219.822 61.789 219.884Z" fill="#E7BFA0"/>
<path d="M69.1589 215.357C69.1589 215.25 68.954 215.098 68.6688 214.947C68.3836 214.795 68.1252 214.688 68.0539 214.778C67.9826 214.867 68.1519 215.134 68.4817 215.303C68.8114 215.473 69.0966 215.473 69.1589 215.357Z" fill="#E7BFA0"/>
<path d="M68.4816 217.237C68.5975 217.237 68.6688 216.782 68.3123 216.346C67.9559 215.909 67.4746 215.989 67.4835 216.105C67.4925 216.221 67.7687 216.346 68.0093 216.622C68.2499 216.898 68.3747 217.237 68.4816 217.237Z" fill="#E7BFA0"/>
<path d="M55.052 225.061C56.6018 224.596 58.031 223.797 59.2396 222.72C60.4482 221.644 61.407 220.317 62.0487 218.831C62.6905 217.346 62.9998 215.738 62.955 214.12C62.9101 212.502 62.5122 210.914 61.7891 209.466C62.9942 209.38 64.1589 208.995 65.1773 208.345C66.1956 207.695 67.0355 206.801 67.6207 205.744C68.2059 204.687 68.5177 203.5 68.528 202.292C68.5383 201.084 68.2467 199.893 67.6797 198.826C71.1378 201.867 75.5521 203.602 80.1559 203.727C81.1114 203.798 82.07 203.642 82.9541 203.273C83.8452 202.854 85.0483 201.374 85.0394 200.421C85.0305 199.467 83.8809 199.405 83.2571 198.763C79.9269 195.079 75.2694 192.868 70.3092 192.617C65.3489 192.366 60.4922 194.096 56.8076 197.427C53.1229 200.757 50.912 205.414 50.6613 210.375C50.4106 215.335 52.1407 220.192 55.4708 223.876" fill="white"/>
<path d="M76.9299 188.39C76.8497 188.39 76.9299 189.281 76.8408 190.627C76.6735 192.4 76.1362 194.118 75.2635 195.671C74.4053 197.234 73.1825 198.567 71.6989 199.556C71.0665 199.925 70.3606 200.151 69.6314 200.216C70.0081 200.309 70.4002 200.323 70.7825 200.255C71.1648 200.188 71.5286 200.041 71.8503 199.824C73.4435 198.875 74.7541 197.519 75.6467 195.894C76.5535 194.287 77.0666 192.488 77.1438 190.645C77.1614 190.091 77.1345 189.537 77.0636 188.987C77.0538 188.782 77.0086 188.58 76.9299 188.39Z" fill="#FAFAFA"/>
<path d="M79.434 190.422C79.1008 192.7 78.3932 194.907 77.3398 196.954C76.1486 198.933 74.6437 200.706 72.884 202.203C73.5079 201.908 74.0798 201.514 74.5772 201.036C77.1058 198.818 78.7849 195.791 79.327 192.472C79.484 191.8 79.5202 191.106 79.434 190.422Z" fill="#FAFAFA"/>
<path d="M51.211 224.019C51.211 224.019 50.6228 223.787 49.6871 223.172C48.3633 222.299 47.2984 221.086 46.6037 219.661C46.0818 218.619 45.7851 217.479 45.7329 216.316C45.6807 215.152 45.8742 213.99 46.3007 212.906C47.3847 210.241 49.2927 207.993 51.7457 206.49C52.3821 206.089 53.0462 205.735 53.733 205.429C54.4103 205.117 55.1143 204.93 55.8005 204.591C56.1573 204.427 56.476 204.191 56.7362 203.896C56.9966 203.591 57.15 203.209 57.1729 202.809C57.144 202.098 56.987 201.397 56.7094 200.742C56.3614 199.571 56.4083 198.318 56.8431 197.177C57.209 196.163 57.8701 195.281 58.7413 194.646C59.3862 194.206 60.1131 193.901 60.8786 193.748C61.6441 193.595 62.4326 193.597 63.1971 193.755C63.7633 193.889 64.3154 194.077 64.8457 194.316C64.8457 194.316 64.7209 194.209 64.4625 194.058C64.0736 193.85 63.6606 193.692 63.2327 193.586C62.4377 193.39 61.6104 193.363 60.8045 193.508C59.9985 193.652 59.2318 193.964 58.5541 194.423C57.6107 195.085 56.8899 196.017 56.4867 197.097C56.0013 198.325 55.9386 199.679 56.3084 200.947C56.5612 201.559 56.7088 202.21 56.7451 202.871C56.6997 203.188 56.5698 203.487 56.3691 203.736C56.1684 203.986 55.9043 204.176 55.6044 204.288C54.9806 204.591 54.2409 204.787 53.5458 205.117C52.8386 205.427 52.1564 205.79 51.5051 206.204C48.9652 207.758 46.9982 210.094 45.8997 212.861C45.4436 214.078 45.2611 215.38 45.365 216.675C45.466 217.801 45.7902 218.894 46.3186 219.893C47.0604 221.344 48.1892 222.562 49.5802 223.413C49.9567 223.639 50.3535 223.83 50.7654 223.983C50.9113 224.017 51.0615 224.029 51.211 224.019Z" fill="#FAFAFA"/>
<path d="M76.9297 188.39C77.4685 188.804 78.0442 189.168 78.6497 189.477C79.7191 190.128 81.1717 191.055 82.7134 192.151C84.0276 193.112 85.2862 194.148 86.4829 195.252C87.3741 196.143 87.8821 196.705 87.9355 196.669C87.6263 196.054 87.2099 195.498 86.7057 195.029C85.5563 193.846 84.307 192.763 82.9718 191.794C81.6479 190.817 80.254 189.938 78.8012 189.165C78.2141 188.826 77.5848 188.565 76.9297 188.39Z" fill="#FAFAFA"/>
</svg>
