<svg width="473" height="407" viewBox="0 0 473 407" fill="none" xmlns="http://www.w3.org/2000/svg">
<g clip-path="url(#clip0_14_1256)">
<path d="M271.787 68.6129C270.841 68.736 269.927 69.0407 269.096 69.51C268.682 69.6738 268.24 69.759 267.795 69.7612L266.718 69.824V57.2641C266.743 56.8739 266.62 56.4886 266.374 56.1846C266.128 55.8806 265.777 55.68 265.391 55.6223H253.037V56.654C253.036 57.0989 253.119 57.54 253.279 57.9549C253.747 58.7867 254.052 59.7002 254.176 60.6463C254.176 64.7373 251.629 67.5632 247.573 67.3659C245.885 67.3564 244.263 66.7002 243.044 65.532C241.824 64.3639 241.098 62.7728 241.015 61.0859C240.967 59.8899 241.233 58.7021 241.787 57.6409C242.024 57.1529 242.158 56.6217 242.182 56.0798V55.6223H230.295C230.072 55.604 229.848 55.6307 229.637 55.7008C229.425 55.7709 229.229 55.883 229.062 56.0304C228.894 56.1778 228.758 56.3575 228.662 56.5587C228.565 56.7598 228.51 56.9784 228.5 57.2013V69.7433H228.159C227.615 69.7312 227.08 69.6027 226.589 69.3665C225.523 68.8215 224.332 68.5648 223.135 68.6219C221.451 68.7183 219.868 69.4565 218.711 70.6848C217.555 71.913 216.913 73.5378 216.918 75.2248C216.757 79.2799 219.61 81.774 223.692 81.774C224.638 81.6493 225.551 81.3448 226.383 80.8768C226.797 80.7131 227.238 80.6279 227.684 80.6256L228.581 80.5808V91.2926C228.582 91.5498 228.634 91.8042 228.734 92.0411C228.834 92.2781 228.98 92.4928 229.164 92.673C229.347 92.8532 229.565 92.9952 229.803 93.0909C230.042 93.1866 230.298 93.234 230.555 93.2304H241.966L241.886 91.5887C241.89 91.1434 241.808 90.7015 241.643 90.2878C241.175 89.4561 240.871 88.5425 240.746 87.5964C240.746 83.5144 243.294 80.6794 247.349 80.8768C249.037 80.8884 250.657 81.5454 251.877 82.7131C253.096 83.8808 253.823 85.4706 253.907 87.1568C253.951 88.3535 253.682 89.541 253.127 90.6018C252.888 91.0884 252.756 91.6209 252.741 92.1629V93.1946H264.888C265.145 93.1969 265.4 93.1487 265.638 93.0526C265.876 92.9565 266.093 92.8144 266.276 92.6344C266.46 92.4545 266.606 92.2402 266.706 92.0038C266.807 91.7674 266.86 91.5136 266.862 91.2567V80.6525H267.418C267.962 80.6699 268.496 80.7981 268.988 81.0293C270.053 81.572 271.239 81.8316 272.433 81.7829C274.119 81.6844 275.703 80.9445 276.861 79.7151C278.019 78.4856 278.662 76.8598 278.659 75.171C278.722 71.107 275.869 68.6129 271.787 68.6129Z" fill="#93C9D5"/>
<path d="M264.852 33.1938C264.525 32.6427 264.095 32.1587 263.587 31.7673C263.373 31.5509 263.202 31.295 263.085 31.0137L262.762 30.3498L270.702 27.0304C270.948 26.9336 271.15 26.7487 271.267 26.5116C271.385 26.2746 271.41 26.0023 271.339 25.7475L268.046 17.9424L267.409 18.2474C267.127 18.3581 266.87 18.5261 266.656 18.7408C266.258 19.2468 265.768 19.673 265.211 19.9968C262.627 21.0555 260.178 20.2121 259.236 17.6015C258.791 16.536 258.774 15.3398 259.188 14.262C259.603 13.1841 260.417 12.3076 261.461 11.8149C262.204 11.4714 263.023 11.3261 263.839 11.3933C264.208 11.4167 264.578 11.3616 264.924 11.2318L265.193 11.1151L262.053 3.5971C262.01 3.44878 261.936 3.31095 261.838 3.19211C261.739 3.07327 261.617 2.97595 261.479 2.90617C261.341 2.83638 261.19 2.79561 261.036 2.78638C260.882 2.77714 260.727 2.79963 260.582 2.85247L252.687 6.15395L252.588 5.93863C252.46 5.59172 252.402 5.22268 252.418 4.85309C252.48 4.03589 252.329 3.21652 251.978 2.47567C251.471 1.4413 250.586 0.641686 249.505 0.242509C248.424 -0.156668 247.232 -0.124802 246.174 0.331504C243.572 1.29144 242.756 3.74961 243.832 6.3244C244.165 6.87992 244.6 7.36705 245.115 7.75983C245.332 7.97473 245.503 8.23103 245.618 8.51343L245.878 9.04274L239.113 11.8687C238.952 11.9372 238.806 12.0368 238.684 12.1619C238.561 12.2871 238.464 12.4352 238.399 12.5978C238.334 12.7604 238.302 12.9343 238.305 13.1094C238.307 13.2845 238.344 13.4574 238.414 13.6182L241.419 20.7953L242.433 20.3198C242.717 20.2028 242.976 20.0322 243.195 19.8174C243.594 19.3117 244.084 18.8856 244.64 18.5614C247.224 17.5118 249.664 18.3461 250.615 20.9568C251.059 22.0233 251.075 23.2204 250.659 24.2984C250.243 25.3764 249.427 26.2522 248.381 26.7433C247.638 27.0881 246.819 27.2334 246.003 27.165C245.634 27.1416 245.264 27.1966 244.918 27.3265L244.272 27.6136L247.466 35.2662C247.599 35.5944 247.857 35.8563 248.184 35.9942C248.51 36.1322 248.878 36.1349 249.206 36.0018L255.881 33.1938L256.033 33.5437C256.169 33.8889 256.23 34.2588 256.213 34.6292C256.152 35.4434 256.303 36.2596 256.652 36.9977C257.153 38.0384 258.036 38.8459 259.117 39.252C260.199 39.6581 261.395 39.6315 262.457 39.1777C265.077 38.2447 265.893 35.7865 264.852 33.1938Z" fill="#B7DBE4"/>
<path d="M374.671 71.7709C374.976 71.2136 375.177 70.6057 375.264 69.9766C375.343 69.6824 375.477 69.4055 375.658 69.1602L376.071 68.5412L382.952 73.7087C383.16 73.8716 383.421 73.9517 383.684 73.9335C383.948 73.9152 384.195 73.8 384.378 73.61L389.447 66.8546L388.855 66.4598C388.616 66.2728 388.341 66.1355 388.048 66.0561C387.417 65.9725 386.808 65.7684 386.254 65.455C384.029 63.7594 383.517 61.2205 385.285 59.0853C385.97 58.1685 386.979 57.5482 388.107 57.3514C389.234 57.1546 390.394 57.3962 391.349 58.0267C392.017 58.4812 392.557 59.0988 392.919 59.821C393.083 60.1656 393.319 60.4714 393.61 60.7181L393.852 60.8976L398.733 54.3753C398.838 54.2618 398.919 54.128 398.971 53.9821C399.022 53.8362 399.044 53.6813 399.034 53.5268C399.024 53.3723 398.982 53.2215 398.912 53.0836C398.842 52.9457 398.744 52.8235 398.625 52.7246L391.789 47.593L391.923 47.4046C392.156 47.115 392.446 46.8767 392.776 46.7048C393.499 46.3412 394.117 45.7974 394.57 45.1258C395.214 44.167 395.463 42.9968 395.266 41.8587C395.069 40.7206 394.44 39.7025 393.511 39.0163C391.358 37.222 388.828 37.7962 387.151 40.0301C386.846 40.5873 386.646 41.1953 386.559 41.8243C386.481 42.1165 386.346 42.3908 386.164 42.6318L385.841 43.1252L379.982 38.7292C379.841 38.6246 379.681 38.549 379.511 38.5068C379.34 38.4646 379.163 38.4566 378.99 38.4833C378.816 38.51 378.649 38.5708 378.5 38.6623C378.35 38.7538 378.22 38.8741 378.116 39.0163L373.433 45.2514L374.331 45.8884C374.576 46.0695 374.853 46.2033 375.147 46.2831C375.777 46.3767 376.385 46.5834 376.941 46.8932C379.157 48.5888 379.677 51.1187 377.91 53.2539C377.217 54.1808 376.192 54.8038 375.05 54.9928C373.908 55.1817 372.737 54.9219 371.783 54.2677C371.11 53.8024 370.571 53.1681 370.222 52.4285C370.051 52.101 369.816 51.8112 369.531 51.5763L368.957 51.1636L363.977 57.8024C363.87 57.9408 363.791 58.0992 363.745 58.2685C363.699 58.4378 363.688 58.6144 363.711 58.7882C363.735 58.9619 363.793 59.1293 363.881 59.2804C363.97 59.4316 364.088 59.5635 364.229 59.6685L370.042 64.0375L369.818 64.3426C369.59 64.6396 369.299 64.8817 368.966 65.0513C368.24 65.4122 367.622 65.9565 367.171 66.6303C366.527 67.5891 366.278 68.7593 366.475 69.8974C366.672 71.0355 367.301 72.0536 368.23 72.7398C370.464 74.5162 372.994 73.9868 374.671 71.7709Z" fill="#BBDDE6"/>
<path d="M327.858 17.2694C327.762 18.1042 327.82 18.9496 328.029 19.7635C328.074 20.1569 328.047 20.5552 327.948 20.9387L327.751 21.8897L316.886 18.9829C316.555 18.8869 316.2 18.9172 315.89 19.068C315.58 19.2189 315.337 19.4795 315.209 19.7993L312.401 30.4484L313.298 30.6368C313.68 30.7454 314.079 30.7789 314.473 30.7355C315.287 30.5279 316.134 30.4761 316.967 30.583C320.484 31.5519 322.35 34.3779 321.238 37.8229C320.838 39.2756 319.898 40.5206 318.611 41.3029C317.323 42.0851 315.785 42.3454 314.312 42.0305C313.263 41.8003 312.294 41.2956 311.504 40.5682C311.14 40.248 310.711 40.0094 310.248 39.8684L309.88 39.7787L307.126 50.0509C307.048 50.2416 307.011 50.4464 307.016 50.6522C307.021 50.8581 307.07 51.0606 307.157 51.2469C307.245 51.4332 307.37 51.5993 307.525 51.7347C307.681 51.8702 307.862 51.9719 308.059 52.0336L318.824 54.9224L318.752 55.2185C318.61 55.6825 318.375 56.1128 318.062 56.4834C317.364 57.2579 316.874 58.196 316.635 59.2107C316.333 60.6861 316.605 62.2213 317.397 63.5021C318.19 64.783 319.441 65.7126 320.897 66.1008C324.36 67.1773 327.177 65.2934 328.074 61.7676C328.17 60.9358 328.112 60.0933 327.903 59.2825C327.849 58.8864 327.877 58.4834 327.984 58.0983L328.137 57.3447L337.377 59.8208C337.825 59.9235 338.295 59.8504 338.691 59.6168C339.086 59.3831 339.377 59.0066 339.503 58.5648L342.141 48.6962L340.706 48.3912C340.32 48.2854 339.918 48.2549 339.521 48.3015C338.706 48.5019 337.86 48.5506 337.027 48.445C333.519 47.4761 331.644 44.6501 332.766 41.2051C333.163 39.7531 334.101 38.5082 335.388 37.7259C336.674 36.9435 338.211 36.6829 339.683 36.9975C340.722 37.24 341.682 37.7433 342.473 38.4599C342.838 38.7782 343.266 39.0166 343.729 39.1596L344.626 39.3839L347.434 28.9233C347.495 28.7024 347.512 28.4715 347.484 28.2441C347.456 28.0166 347.383 27.7969 347.27 27.5977C347.156 27.3984 347.005 27.2236 346.823 27.0831C346.642 26.9426 346.435 26.8393 346.214 26.7791L337.045 24.3209L337.162 23.8365C337.3 23.3705 337.535 22.9393 337.853 22.5715C338.564 21.7983 339.068 20.8567 339.315 19.8352C339.617 18.3587 339.343 16.8224 338.549 15.5414C337.755 14.2603 336.501 13.3314 335.045 12.9452C331.609 11.8686 328.8 13.7526 327.858 17.2694Z" fill="#BBDDE6"/>
<path d="M180.871 51.235H193.296V51.6835C193.278 52.2502 193.141 52.8066 192.893 53.3163C192.313 54.4208 192.034 55.6585 192.085 56.9049C192.174 58.6617 192.932 60.3178 194.203 61.5338C195.474 62.7498 197.162 63.4336 198.921 63.445C203.138 63.6424 205.767 60.6998 205.793 56.4384C205.668 55.4698 205.364 54.5329 204.896 53.6752C204.724 53.2445 204.639 52.7842 204.645 52.3205L204.591 51.235H211.239C205.539 36.2573 194.328 24.0257 179.902 17.0449V28.2323L181.032 28.1695C181.496 28.169 181.956 28.0807 182.387 27.9093C183.236 27.4194 184.171 27.0966 185.141 26.9583C189.403 26.9583 192.372 29.56 192.202 33.7856C192.205 35.5451 191.535 37.2391 190.329 38.5202C189.122 39.8013 187.472 40.5725 185.715 40.6756C184.472 40.7278 183.236 40.459 182.127 39.8951C181.628 39.6418 181.08 39.498 180.521 39.4734H179.929V50.598C179.929 50.9588 179.83 51.3126 179.642 51.6207C180.001 51.3671 180.431 51.2322 180.871 51.235Z" fill="#93C9D5"/>
<path d="M189.627 154.783C193.377 145.668 216.389 125.653 217.842 90.1172C217.531 90.297 217.179 90.3929 216.819 90.3954H204.17V89.3188C204.184 88.7506 204.325 88.1928 204.582 87.686C205.159 86.5803 205.437 85.3435 205.39 84.0974C205.301 82.3407 204.543 80.6846 203.272 79.4686C202.001 78.2526 200.313 77.5687 198.554 77.5573C194.328 77.3509 191.708 80.3025 191.673 84.5639C191.798 85.5325 192.103 86.4694 192.57 87.3271C192.743 87.7575 192.828 88.2181 192.821 88.6818L192.911 90.3954H181.015C180.747 90.3977 180.482 90.3474 180.234 90.2472C179.986 90.1471 179.76 89.999 179.569 89.8116C179.378 89.6242 179.226 89.401 179.122 89.1548C179.017 88.9086 178.962 88.6442 178.96 88.3768V77.2074L178.063 77.2612C177.599 77.2617 177.139 77.35 176.708 77.5214C175.851 77.989 174.914 78.2932 173.945 78.4185C169.684 78.4185 166.714 75.8258 166.894 71.6003C166.899 69.8537 167.569 68.1747 168.767 66.9036C169.964 65.6324 171.601 64.8644 173.344 64.7551C174.587 64.7029 175.823 64.9717 176.933 65.5356C177.444 65.778 178 65.9123 178.565 65.9303H178.924V52.9308C178.926 52.6738 178.991 52.4212 179.113 52.1951C178.748 52.4942 178.292 52.6589 177.821 52.6616H165.198V51.5851C165.222 51.0183 165.363 50.4625 165.611 49.9523C166.187 48.8465 166.465 47.6097 166.418 46.3637C166.327 44.6077 165.568 42.9528 164.298 41.7373C163.027 40.5217 161.34 39.8372 159.582 39.8235C155.356 39.6172 152.737 42.5688 152.701 46.8302C152.823 47.7996 153.127 48.7372 153.598 49.5934C153.762 50.0264 153.847 50.4852 153.849 50.9481L153.93 52.6616H142.043C141.775 52.664 141.51 52.6137 141.262 52.5135C141.014 52.4133 140.788 52.2653 140.597 52.0779C140.407 51.8904 140.255 51.6672 140.15 51.421C140.046 51.1749 139.991 50.9105 139.988 50.6431V39.4737L139.091 39.5275C138.627 39.528 138.168 39.6163 137.736 39.7877C136.884 40.2746 135.946 40.5944 134.973 40.7297C130.721 40.7297 127.796 38.1369 127.922 33.9114C127.919 32.1533 128.588 30.4606 129.792 29.1797C130.996 27.8988 132.644 27.1266 134.399 27.0213C135.643 26.9684 136.879 27.2372 137.988 27.8019C138.499 28.043 139.055 28.1773 139.62 28.1966H139.979V15.1073C139.988 14.8658 140.048 14.6288 140.154 14.4116C140.26 14.1944 140.411 14.0019 140.596 13.8464C140.781 13.6909 140.996 13.5759 141.229 13.5088C141.461 13.4416 141.705 13.4238 141.944 13.4566H154.325V13.8962C154.308 14.463 154.17 15.0196 153.921 15.529C153.345 16.6347 153.066 17.8715 153.113 19.1175C153.203 20.8743 153.961 22.5304 155.232 23.7464C156.503 24.9624 158.191 25.6462 159.95 25.6577C164.166 25.8551 166.795 22.9124 166.831 18.651C166.709 17.6816 166.404 16.744 165.934 15.8878C165.766 15.456 165.681 14.9965 165.682 14.5331L165.629 13.4566H171.442C145.371 4.14425 115.084 8.07373 100.568 12.7568C75.8517 20.7683 61.9909 41.5819 58.0524 59.8477C55.7019 70.748 57.1553 84.3038 58.0524 89.1125C58.9496 93.9211 56.0339 100.569 51.0009 107.208C45.9679 113.847 37.8757 118.619 37.8757 126.335C37.8757 131.951 50.3011 134.239 50.8753 137.558C51.4495 140.877 47.0355 141.676 47.0355 146.018C47.0355 150.36 52.9567 151.688 52.9567 151.688C50.9666 152.964 49.3677 154.764 48.3364 156.891C46.6139 160.48 49.1348 160.588 51.3059 163.45C53.477 166.311 52.9118 164.095 52.9118 176.225C52.9118 188.354 86.6802 189.494 91.7042 191.09C93.3639 191.62 109.889 226.205 112.042 240.083L202.053 241.725C197.988 213.106 186.361 162.714 189.627 154.783Z" fill="#C3E2EA"/>
<path d="M165.889 94.9171C165.763 93.9712 165.459 93.0578 164.992 92.2256C164.829 91.8142 164.744 91.3762 164.74 90.9338L164.678 89.8482H177.238C177.623 89.8553 177.997 89.7186 178.287 89.4649C178.578 89.2112 178.763 88.8585 178.808 88.4756V76.1579L177.83 76.2565C177.385 76.2559 176.944 76.3381 176.529 76.4988C175.697 76.9667 174.784 77.2712 173.837 77.3959C169.755 77.3959 166.92 74.848 167.118 70.8019C167.129 69.1128 167.786 67.4919 168.953 66.2711C170.121 65.0502 171.711 64.3218 173.398 64.2349C174.597 64.1942 175.787 64.463 176.852 65.0154C177.339 65.253 177.871 65.3874 178.413 65.4101H178.834V53.4153C178.854 53.1934 178.829 52.9699 178.759 52.7581C178.69 52.5463 178.579 52.3507 178.432 52.1831C178.286 52.0155 178.107 51.8792 177.906 51.7826C177.705 51.6861 177.487 51.6311 177.264 51.6211H164.758V51.2712C164.776 50.7305 164.904 50.1992 165.135 49.7101C165.682 48.6438 165.942 47.4534 165.889 46.2562C165.788 44.5719 165.047 42.9898 163.818 41.834C162.589 40.6781 160.964 40.036 159.277 40.039C155.222 39.8685 152.728 42.7304 152.728 46.8034C152.852 47.7496 153.156 48.6633 153.625 49.4948C153.787 49.9063 153.873 50.3443 153.876 50.7867L153.93 51.6839H143.164C142.647 51.6886 142.153 51.898 141.79 52.2662C141.426 52.6344 141.224 53.1314 141.226 53.6486V64.9705L142.868 64.8898C143.313 64.8904 143.754 64.8082 144.169 64.6475C145.001 64.1796 145.914 63.8751 146.86 63.7504C150.951 63.7504 153.777 66.2983 153.58 70.3444C153.568 72.0335 152.912 73.6544 151.744 74.8752C150.577 76.0961 148.987 76.8245 147.3 76.9115C146.104 76.953 144.917 76.6841 143.855 76.1309C143.367 75.8942 142.836 75.7599 142.294 75.7362H141.253V87.9194C141.251 88.4365 141.453 88.9336 141.817 89.3018C142.18 89.67 142.674 89.8794 143.191 89.8841H153.831V90.4493C153.819 90.9907 153.691 91.5231 153.454 92.0103C152.911 93.0775 152.654 94.2679 152.71 95.4643C152.808 97.1494 153.549 98.7327 154.778 99.889C156.008 101.045 157.634 101.687 159.322 101.682C163.395 101.852 165.889 98.9991 165.889 94.9171Z" fill="#93C9D5"/>
<path d="M349.685 387.986L365.071 353.617H374.554L352.367 387.986H349.685Z" fill="#93C9D5"/>
<path d="M375.577 283.066C377.532 273.197 382.897 270.506 390.218 267.115C397.539 263.724 394.363 255.892 394.363 255.892H398.633C398.633 255.892 395.466 263.697 402.787 267.115C410.107 270.533 415.472 273.206 417.419 283.066C419.366 292.926 414.252 306.123 414.252 306.123H378.752C378.752 306.123 373.639 292.917 375.577 283.066Z" fill="#93C9D5"/>
<path d="M363.707 258.062H430.553L413.651 219.198H378.304L363.707 258.062Z" fill="#93C9D5"/>
<path d="M449.698 354.191H350.555H340.83V303.924H449.698V354.191Z" fill="#4B90A9"/>
<path d="M445.912 350.575C445.912 350.575 445.912 350.306 445.912 349.795C445.912 349.284 445.912 348.521 445.912 347.552C445.912 345.569 445.912 342.672 445.912 338.948C445.912 331.502 445.858 320.745 445.823 307.459L445.993 307.629L345.065 307.701L345.307 307.459C345.307 322.585 345.307 337.163 345.307 350.575L345.074 350.342L417.446 350.45L438.421 350.513H444.046H445.5H446.002H445.41H443.983H438.412L417.491 350.575L344.957 350.683H344.724V350.45C344.724 337.038 344.724 322.459 344.724 307.333V307.082H344.966L445.894 307.154H446.065V307.333C446.065 320.665 445.993 331.457 445.975 338.931C445.975 342.636 445.975 345.516 445.975 347.489C445.975 348.449 445.975 349.194 445.975 349.705C445.975 350.217 445.912 350.575 445.912 350.575Z" fill="#93C9D5"/>
<path d="M399.1 328.883C399.1 329.511 398.913 330.125 398.564 330.647C398.215 331.17 397.719 331.577 397.139 331.817C396.559 332.057 395.92 332.12 395.304 331.998C394.688 331.875 394.122 331.573 393.678 331.129C393.234 330.684 392.931 330.119 392.809 329.502C392.686 328.886 392.749 328.248 392.99 327.668C393.23 327.087 393.637 326.591 394.159 326.242C394.682 325.893 395.296 325.707 395.924 325.707C396.766 325.707 397.574 326.042 398.169 326.637C398.765 327.233 399.1 328.041 399.1 328.883Z" fill="#93C9D5"/>
<path d="M419.285 354.191L439.498 388.211H441.821L426.615 354.191H419.285Z" fill="#93C9D5"/>
<path d="M65.5709 320.351C70.1912 317.964 75.6279 317.659 80.7595 318.502C83.5137 318.96 86.3846 319.785 88.2596 321.849C90.1346 323.912 90.4935 327.564 88.3403 329.34C87.0574 330.399 85.2721 330.56 83.6124 330.542C79.5932 330.497 75.1434 329.789 71.9496 332.202C70.1553 333.583 68.8993 335.871 66.7103 336.553C64.5212 337.235 62.1618 335.952 61.0224 334.023C59.9772 332.013 59.7459 329.677 60.3765 327.501C60.6329 325.989 61.2351 324.558 62.1362 323.317C63.0372 322.077 64.2127 321.062 65.5709 320.351Z" fill="#93C9D5"/>
<path d="M55.0204 299.914C57.8464 303.951 63.3369 302.605 65.8848 300.156C68.4327 297.707 69.4733 294.118 70.4871 290.718C72.721 282.94 74.9728 274.785 73.3131 266.863C72.9137 264.463 71.8615 262.219 70.2718 260.377C69.4637 259.47 68.4322 258.791 67.2801 258.407C66.1279 258.023 64.8952 257.947 63.7047 258.188C60.9415 258.924 59.219 261.633 57.972 264.217C54.3111 271.833 52.3926 280.169 52.3559 288.619C52.3559 292.548 52.8045 296.693 55.0473 299.914" fill="#93C9D5"/>
<path d="M47.2692 305.709C50.3284 302.067 50.9115 296.738 49.5479 292.198C48.1842 287.659 45.0622 283.756 41.5454 280.589C37.3561 276.863 32.4803 273.989 27.1911 272.129C25.1476 271.305 22.9506 270.932 20.7497 271.035C19.6545 271.104 18.5925 271.439 17.6549 272.009C16.7174 272.579 15.9322 273.369 15.3668 274.309C13.8596 277.216 15.3309 280.679 16.8651 283.496C19.6228 288.519 22.7694 293.318 26.2761 297.85C29.1021 301.493 32.3318 305.081 36.6291 306.723C40.9264 308.365 45.3941 308.167 47.6729 305.189" fill="#93C9D5"/>
<path d="M54.8052 360.776C54.9509 360.188 55.035 359.587 55.0564 358.982C55.188 357.642 55.3525 355.973 55.5499 353.975C55.7988 351.512 56.1731 349.062 56.6713 346.637C57.3342 343.683 58.2342 340.788 59.3627 337.979C60.455 335.173 61.9412 332.535 63.7766 330.147C65.2708 328.202 67.1803 326.614 69.3658 325.5C70.8469 324.763 72.4374 324.269 74.0758 324.038C74.6816 324.01 75.2828 323.92 75.8701 323.769C75.2531 323.699 74.6301 323.699 74.013 323.769C72.337 323.88 70.6938 324.287 69.1595 324.971C66.8561 326.059 64.8357 327.664 63.2563 329.663C61.3434 332.088 59.7986 334.781 58.6719 337.656C57.536 340.511 56.6505 343.459 56.0253 346.466C55.5512 348.921 55.2246 351.401 55.0475 353.895C54.8949 356.021 54.8321 357.743 54.8052 358.928C54.7375 359.542 54.7375 360.162 54.8052 360.776Z" fill="#4B90A9"/>
<path d="M55.173 356.928C55.23 356.632 55.2481 356.331 55.2268 356.03C55.2268 355.394 55.2268 354.586 55.2268 353.599C55.2268 351.491 55.2268 348.432 55.3345 344.628C55.5229 337.083 56.1688 328.964 57.4248 317.516C58.618 306.751 60.2149 294.191 61.9105 286.071C62.2694 284.223 62.6372 282.555 62.9781 281.092C63.319 279.63 63.5882 278.401 63.8753 277.351C64.1624 276.302 64.2969 275.602 64.4494 274.983C64.53 274.711 64.5782 274.431 64.593 274.148C64.4659 274.4 64.3667 274.665 64.2969 274.938C64.1175 275.557 63.8842 276.328 63.5972 277.27C63.3101 278.212 62.9602 279.54 62.5924 280.994C62.2245 282.447 61.8118 284.116 61.4171 285.964C59.3315 295.595 57.7622 305.331 56.7161 315.13C55.4601 326.604 54.9218 337.056 54.85 344.619C54.8052 348.396 54.85 351.464 54.9756 353.59C55.0384 354.577 55.0923 355.385 55.1281 356.022C55.1079 356.324 55.123 356.628 55.173 356.928Z" fill="#4B90A9"/>
<path d="M55.2269 336.787C55.2953 335.939 55.2953 335.087 55.2269 334.239C55.0849 331.933 54.8244 329.637 54.4464 327.358C53.8926 323.975 53.1467 320.626 52.2125 317.328C51.1153 313.271 49.7118 309.303 48.0139 305.459C45.0966 298.371 40.9169 291.872 35.6782 286.278C34.7708 285.32 33.8029 284.421 32.7805 283.586C32.3319 283.209 31.9461 282.842 31.5424 282.546L30.421 281.765C29.7442 281.253 29.0272 280.797 28.2768 280.401C28.1602 280.563 31.3092 282.42 35.2925 286.681C40.3534 292.322 44.4159 298.784 47.3052 305.79C48.9691 309.613 50.3777 313.543 51.5217 317.552C52.6252 321.239 53.316 324.63 53.9081 327.483C54.5002 330.336 54.7335 332.687 54.9129 334.302C54.9531 335.137 55.0581 335.968 55.2269 336.787Z" fill="#4B90A9"/>
<path d="M35.7499 354.253L37.7685 381.903H73.3043L75.3228 354.253H35.7499Z" fill="#4B90A9"/>
<path d="M79.5664 343.344H32.3229V354.244H79.5664V343.344Z" fill="#4B90A9"/>
<path d="M32.3229 380.845V383.869H34.5389H78.7859V380.845H32.3229Z" fill="#93C9D5"/>
<path d="M36.7187 389.188L34.5386 383.868H77.09L74.5511 389.188H36.7187Z" fill="#93C9D5"/>
<path d="M74.6589 363.288C74.6589 363.288 74.6589 363.378 74.4974 363.539L73.9681 364.248L71.8957 366.931L71.806 367.047L71.7162 366.931L66.6295 359.897H66.9255C65.4093 362.032 63.7227 364.383 61.9195 366.984L61.758 367.209L61.5875 366.993L55.6485 359.933H55.9894L55.6574 360.346L50.3194 366.931L50.14 367.155L49.9785 366.922L44.9635 359.834H45.2596L39.1231 366.931L39.0155 367.056L38.9347 366.913L36.9969 363.665C36.7995 363.315 36.638 363.028 36.5035 362.768C36.4431 362.671 36.392 362.569 36.351 362.463C36.431 362.543 36.5003 362.634 36.5573 362.732C36.7008 362.956 36.8892 363.225 37.1046 363.566L39.1321 366.751H38.9437L45.0173 359.637L45.1698 359.457L45.3044 359.655L50.3194 366.697H49.9785L55.2806 360.032L55.6036 359.628L55.7741 359.413L55.9445 359.619L61.8656 366.697H61.5337L66.5936 359.637L66.7461 359.431L66.8896 359.637L71.8688 366.751H71.6804C72.5954 365.663 73.3132 364.801 73.8335 364.167L74.4166 363.504L74.6589 363.288Z" fill="#F5F5F5"/>
<path d="M75.8163 354.066C75.8163 354.191 66.9167 354.29 55.9357 354.29C44.9547 354.29 36.0461 354.191 36.0461 354.066C36.0461 353.94 44.9547 353.841 55.9357 353.841C66.9167 353.841 75.8163 353.949 75.8163 354.066Z" fill="#F5F5F5"/>
<path d="M77.6104 384.164C77.6104 384.29 67.9392 384.389 56.0073 384.389C44.0753 384.389 34.3951 384.29 34.3951 384.164C34.3951 384.039 44.0394 383.976 56.0073 383.976C67.9751 383.976 77.6104 384.048 77.6104 384.164Z" fill="#F5F5F5"/>
<path d="M329.446 93.1141C328.753 89.5565 327.216 86.2169 324.967 83.375C322.717 80.533 319.819 78.2714 316.516 76.7795C313.213 75.2875 309.6 74.6087 305.981 74.7999C302.361 74.991 298.84 76.0466 295.712 77.8782C292.584 79.7097 289.941 82.264 288.003 85.3271C286.065 88.3902 284.89 91.873 284.574 95.4838C284.259 99.0947 284.814 102.729 286.191 106.081C287.569 109.434 289.73 112.407 292.493 114.753L292.834 115.013C298.122 118.703 304.579 120.325 310.983 119.571C313.059 119.327 315.084 118.761 316.985 117.893C321.507 115.719 325.182 112.109 327.437 107.626C329.691 103.144 330.398 98.0407 329.446 93.1141Z" fill="white"/>
<path d="M301.482 91.7861H304.927C304.921 91.393 304.995 91.0026 305.143 90.6384C305.291 90.2741 305.511 89.9435 305.79 89.6663C306.069 89.3891 306.401 89.171 306.766 89.025C307.131 88.879 307.522 88.8081 307.915 88.8166C308.494 88.799 309.065 88.9624 309.547 89.2839C310.03 89.6055 310.4 90.0693 310.606 90.6109C310.79 91.0635 310.863 91.553 310.821 92.0395C310.779 92.526 310.622 92.9956 310.364 93.41C309.772 94.3699 308.489 95.2491 306.166 94.8364V102.615H309.575V98.0661C310.977 97.6554 312.205 96.7956 313.07 95.6188C313.936 94.442 314.391 93.0135 314.365 91.5529C314.365 86.5109 309.835 85.3357 307.906 85.3357C306.462 85.3447 301.411 85.7035 301.482 91.7861Z" fill="#4B90A9"/>
<path d="M309.655 104.229H306.193V107.459H309.655V104.229Z" fill="#4B90A9"/>
<path d="M292.018 123.661C292.018 124.57 291.748 125.458 291.244 126.213C290.739 126.969 290.021 127.557 289.182 127.905C288.343 128.253 287.419 128.344 286.528 128.166C285.637 127.989 284.819 127.552 284.176 126.909C283.534 126.267 283.096 125.448 282.919 124.557C282.742 123.666 282.833 122.743 283.181 121.903C283.528 121.064 284.117 120.347 284.872 119.842C285.628 119.337 286.516 119.068 287.424 119.068C288.643 119.068 289.811 119.552 290.672 120.413C291.534 121.275 292.018 122.443 292.018 123.661Z" fill="white"/>
<path d="M339.656 139.056C339.176 136.676 338.134 134.445 336.618 132.548C335.102 130.652 333.154 129.145 330.938 128.152C328.722 127.16 326.301 126.711 323.877 126.843C321.452 126.975 319.094 127.684 316.999 128.911C314.903 130.138 313.131 131.848 311.83 133.898C310.528 135.948 309.735 138.279 309.516 140.697C309.297 143.115 309.659 145.551 310.571 147.801C311.483 150.051 312.919 152.051 314.76 153.635L314.993 153.814C318.561 156.304 322.919 157.396 327.239 156.882C328.629 156.719 329.985 156.341 331.259 155.761C334.306 154.295 336.783 151.861 338.302 148.839C339.821 145.817 340.297 142.377 339.656 139.056Z" fill="white"/>
<path d="M319.659 139.209H321.982C321.981 138.944 322.033 138.682 322.135 138.438C322.237 138.194 322.387 137.973 322.576 137.788C322.765 137.603 322.989 137.458 323.236 137.361C323.482 137.265 323.745 137.219 324.01 137.226C324.396 137.216 324.777 137.326 325.098 137.541C325.42 137.757 325.666 138.067 325.804 138.428C325.927 138.733 325.976 139.062 325.948 139.39C325.92 139.717 325.816 140.033 325.642 140.312C325.248 140.958 324.386 141.55 322.816 141.272V146.512H325.113V143.443C326.057 143.166 326.883 142.587 327.465 141.794C328.047 141.001 328.352 140.04 328.334 139.056C328.334 135.656 325.293 134.867 323.983 134.867C323.014 134.867 319.578 135.109 319.659 139.209Z" fill="#4B90A9"/>
<path d="M325.167 147.597H322.834V149.777H325.167V147.597Z" fill="#4B90A9"/>
<path d="M364.264 110.419C363.757 108.482 362.872 106.663 361.662 105.068C360.451 103.472 358.938 102.13 357.209 101.12C353.717 99.0779 349.557 98.507 345.644 99.5325C341.731 100.558 338.386 103.096 336.344 106.588C334.303 110.08 333.732 114.24 334.757 118.153C335.629 120.818 337.226 123.188 339.369 124.998L339.602 125.177C343.17 127.69 347.54 128.799 351.875 128.29C353.265 128.127 354.62 127.749 355.894 127.169C358.944 125.694 361.419 123.251 362.933 120.22C364.447 117.19 364.915 113.744 364.264 110.419Z" fill="white"/>
<path d="M344.993 110.151L347.317 110.151C347.316 109.886 347.367 109.623 347.469 109.379C347.571 109.134 347.721 108.913 347.91 108.727C348.099 108.541 348.323 108.395 348.57 108.298C348.816 108.2 349.079 108.153 349.344 108.159C349.731 108.151 350.11 108.263 350.431 108.478C350.752 108.693 350.999 109.001 351.139 109.361C351.26 109.667 351.308 109.996 351.279 110.324C351.249 110.651 351.143 110.967 350.968 111.245C350.573 111.891 349.712 112.483 348.142 112.214L348.142 117.454L350.439 117.454L350.439 114.35C351.383 114.074 352.21 113.497 352.793 112.706C353.377 111.915 353.684 110.954 353.669 109.971C353.669 106.571 350.618 105.782 349.317 105.782C348.384 105.809 344.993 106.051 344.993 110.151Z" fill="#4B90A9"/>
<path d="M350.538 118.53L348.205 118.53L348.205 120.71L350.538 120.71L350.538 118.53Z" fill="#4B90A9"/>
<path d="M275.744 136.993H154.432V282.474H275.744V136.993Z" fill="#FFD600"/>
<path d="M155.401 136.822C154.45 136.822 133.87 130.856 135.171 144.726C136.472 158.596 145.264 209.177 145.264 209.177L152.979 282.222L173.739 274.901C173.739 274.901 158.245 211.375 156.98 199.999C155.715 188.623 155.401 136.822 155.401 136.822Z" fill="#FFD600"/>
<path d="M274.775 136.822C275.726 136.822 296.306 130.856 295.005 144.726C293.704 158.596 284.912 209.177 284.912 209.177L292.251 229.963L277.197 282.222L256.446 274.901C256.446 274.901 271.931 211.375 273.196 199.999C274.461 188.623 274.775 136.822 274.775 136.822Z" fill="#FFD600"/>
<path d="M160.587 207.813C160.461 207.813 159.411 192.05 158.245 172.582C157.079 153.114 156.236 137.334 156.361 137.325C156.487 137.316 157.545 153.087 158.712 172.555C159.878 192.023 160.721 207.804 160.587 207.813Z" fill="#DEC333"/>
<path d="M270.119 207.903C269.984 207.903 270.693 192.077 271.698 172.564C272.702 153.051 273.617 137.262 273.743 137.262C273.869 137.262 273.16 153.087 272.164 172.6C271.168 192.113 270.235 207.912 270.119 207.903Z" fill="#263238"/>
<path d="M270.182 232.494C270.145 232.934 270.064 233.37 269.939 233.795C269.742 234.692 269.482 235.903 269.168 237.32C268.522 240.299 267.705 244.435 266.997 249.028C266.288 253.621 265.848 257.811 265.57 260.843C265.445 262.297 265.337 263.535 265.256 264.432C265.241 264.875 265.187 265.317 265.095 265.751C265.046 265.309 265.046 264.864 265.095 264.423C265.095 263.571 265.158 262.333 265.256 260.834C265.445 257.793 265.848 253.585 266.557 248.974C267.266 244.363 268.136 240.236 268.863 237.266C269.231 235.786 269.545 234.575 269.76 233.768C269.861 233.331 270.002 232.904 270.182 232.494Z" fill="#DEC333"/>
<path d="M113.891 227.353C123.711 226.414 133.544 225.604 143.388 224.922C148.279 224.574 153.118 226.106 156.916 229.206C160.715 232.306 163.186 236.739 163.825 241.6C165.584 255.183 166.66 268.831 167.055 282.546L133.771 282.474L128.998 238.433L113.236 228.026" fill="#FFD600"/>
<path d="M163.215 262.664C163.144 262.664 163.135 261.3 162.982 259.076C162.611 253.365 161.446 247.733 159.519 242.344C158.784 240.28 158.245 239.024 158.317 238.998C158.508 239.254 158.665 239.535 158.784 239.832C159.053 240.388 159.421 241.205 159.824 242.227C161.94 247.597 163.121 253.289 163.314 259.058C163.314 260.161 163.314 261.049 163.314 261.668C163.328 262.003 163.295 262.338 163.215 262.664Z" fill="#DEC333"/>
<path d="M184.298 354.819L192.857 377.247C192.857 377.247 172.896 393.486 174.08 397.792L218.201 382.801L206.305 347.256L184.298 354.819Z" fill="#064058"/>
<path d="M218.201 382.801L216.864 379.266L175.04 394.993C175.04 394.993 173.362 396.518 174.062 397.828L218.201 382.801Z" fill="#263238"/>
<path d="M192.615 377.355C192.695 377.57 193.808 377.301 195.109 377.633C196.409 377.965 197.28 378.673 197.45 378.53C197.621 378.386 196.867 377.247 195.297 376.87C193.727 376.493 192.507 377.175 192.615 377.355Z" fill="white"/>
<path d="M188.461 381.033C188.461 381.266 189.537 381.311 190.578 381.93C191.619 382.549 192.157 383.482 192.372 383.402C192.588 383.321 192.31 382.056 190.991 381.257C189.672 380.459 188.389 380.827 188.461 381.033Z" fill="white"/>
<path d="M187.788 387.672C187.994 387.672 187.932 386.469 186.972 385.474C186.012 384.478 184.845 384.361 184.818 384.576C184.792 384.792 185.626 385.204 186.397 386.03C187.169 386.855 187.564 387.716 187.788 387.672Z" fill="white"/>
<path d="M190.677 371.963C190.838 372.134 191.726 371.497 192.973 371.165C194.221 370.833 195.297 370.896 195.351 370.671C195.405 370.447 194.221 369.99 192.758 370.402C191.296 370.815 190.515 371.838 190.677 371.963Z" fill="white"/>
<path d="M237.185 353.042L227.172 380.333L225.459 404.206C225.43 404.614 225.317 405.011 225.128 405.373C224.938 405.735 224.676 406.055 224.358 406.311C224.04 406.568 223.673 406.757 223.279 406.865C222.885 406.974 222.472 407 222.068 406.942C221.598 406.878 221.151 406.702 220.763 406.429C220.376 406.156 220.06 405.793 219.843 405.372C217.026 399.909 206.745 379.759 207.588 377.803C208.575 375.533 216.272 348.314 216.272 348.314L237.185 353.042Z" fill="#064058"/>
<path d="M222.041 406.943L208.198 375.947L207.803 377.113C207.452 378.119 207.474 379.218 207.866 380.208C208.907 382.855 211.957 390.077 219.735 405.328C219.956 405.765 220.283 406.14 220.686 406.419C221.088 406.698 221.554 406.872 222.041 406.925V406.943Z" fill="#263238"/>
<path d="M219.87 392.777C219.995 392.902 221.108 391.673 223.01 391.458C224.912 391.243 226.293 392.095 226.383 391.933C226.473 391.772 226.159 391.548 225.549 391.234C224.733 390.848 223.824 390.705 222.929 390.821C222.036 390.931 221.194 391.299 220.507 391.88C219.995 392.337 219.807 392.723 219.87 392.777Z" fill="white"/>
<path d="M220.57 397.128C220.659 397.289 221.844 396.697 223.405 396.778C224.966 396.858 226.096 397.504 226.213 397.352C226.329 397.199 225.217 396.204 223.431 396.141C221.646 396.078 220.453 397.002 220.57 397.128Z" fill="white"/>
<path d="M217.833 386.802C217.923 386.981 219.744 386.057 222.184 385.967C224.625 385.878 226.527 386.595 226.589 386.416C226.652 386.236 224.795 385.196 222.157 385.33C219.52 385.465 217.726 386.667 217.833 386.802Z" fill="white"/>
<path d="M220.193 378.252C220.193 378.44 221.987 378.324 223.952 378.934C225.917 379.544 227.361 380.548 227.478 380.396C227.594 380.243 226.293 378.943 224.131 378.315C221.969 377.687 220.148 378.09 220.193 378.252Z" fill="white"/>
<path d="M221.61 372.511C221.61 372.699 223.485 372.304 225.54 373.112C227.594 373.919 228.724 375.4 228.877 375.274C229.029 375.148 228.76 374.79 228.249 374.206C227.564 373.46 226.714 372.883 225.768 372.521C224.821 372.16 223.803 372.024 222.794 372.125C222.023 372.224 221.592 372.43 221.61 372.511Z" fill="white"/>
<path d="M227.989 371.497C228.194 371.186 228.329 370.834 228.384 370.465C228.622 369.481 228.659 368.459 228.491 367.46C228.435 366.717 228.135 366.014 227.639 365.459C227.458 365.292 227.231 365.184 226.987 365.15C226.743 365.117 226.495 365.159 226.275 365.271C225.85 365.511 225.53 365.901 225.378 366.365C225.124 367.312 225.208 368.317 225.616 369.208C226.024 370.099 226.73 370.82 227.612 371.246C228.496 371.651 229.482 371.782 230.441 371.622C231.4 371.462 232.29 371.018 232.995 370.349C233.172 370.181 233.311 369.977 233.403 369.751C233.494 369.525 233.535 369.282 233.524 369.039C233.488 368.794 233.376 368.567 233.204 368.39C233.032 368.213 232.808 368.095 232.564 368.052C231.837 367.971 231.1 368.082 230.429 368.375C229.477 368.715 228.593 369.222 227.819 369.873C227.28 370.331 227.047 370.654 227.074 370.672C228.142 369.882 229.321 369.253 230.573 368.806C231.166 368.575 231.806 368.492 232.439 368.563C232.573 368.584 232.698 368.647 232.793 368.744C232.889 368.841 232.95 368.967 232.968 369.102C232.963 369.262 232.925 369.419 232.857 369.564C232.789 369.709 232.693 369.838 232.573 369.945C231.943 370.494 231.169 370.851 230.342 370.974C229.515 371.096 228.67 370.979 227.908 370.636C227.166 370.27 226.568 369.665 226.213 368.917C225.858 368.17 225.766 367.324 225.952 366.518C226.047 366.196 226.25 365.917 226.527 365.728C226.645 365.662 226.781 365.636 226.915 365.654C227.05 365.672 227.174 365.732 227.271 365.827C227.693 366.293 227.957 366.88 228.025 367.505C228.258 368.826 228.245 370.18 227.989 371.497Z" fill="white"/>
<path d="M211.697 365.136C211.298 367.264 210.753 369.363 210.064 371.416C209.521 373.509 208.826 375.56 207.983 377.552C208.376 375.422 208.922 373.324 209.616 371.272C210.158 369.179 210.854 367.128 211.697 365.136Z" fill="#263238"/>
<g opacity="0.3">
<path d="M170.653 234.8C169.092 229.555 169.474 223.924 171.729 218.938C173.882 213.95 176.951 209.41 179.283 204.503C182.414 197.9 184.998 190.256 185.222 182.972C185.509 188.686 185.536 200.233 184.899 201.291C183.957 202.87 182.71 204.88 181.795 206.432C176.664 215.349 173.586 224.958 170.653 234.817" fill="black"/>
</g>
<path d="M212.818 162.427L220.48 156.479L247.08 165.154L249.592 171.425L253.432 174.565L233.246 188.668L212.818 162.427Z" fill="white"/>
<path d="M266.817 172.726C266.817 172.726 275.403 174.843 279.063 180.801C281.512 184.811 292.296 198.268 297.903 210.343C300.037 215.314 301.543 220.53 302.389 225.873C303.16 232.225 282.715 241.07 282.715 241.07C282.715 241.07 274.82 237.607 269.625 225.819C264.431 214.031 260.187 193.854 260.187 193.854L266.889 172.43" fill="#EAEFF4"/>
<path d="M191.735 166.051C190.838 166.051 184.486 166.5 179.498 174.664C174.51 182.828 160.587 207.813 160.587 207.813C155.751 208.289 146.699 211.716 143.299 214.99L133.771 219.772L142.563 230.448C142.563 230.448 154.307 240.227 161.556 238.19C165.627 237.121 169.478 235.341 172.931 232.933L189.699 194.867L191.735 166.051Z" fill="#EAEFF4"/>
<path d="M266.27 177.562L249.942 171.425L240.971 179.616C239.271 181.167 237.047 182.016 234.747 181.993C232.446 181.969 230.24 181.075 228.572 179.49L228.491 179.419L212.818 162.427L191.735 166.015L181.544 204.763C181.544 204.763 170.886 230.448 170.213 238.119C169.901 243.177 170.593 248.248 172.25 253.038C172.25 253.038 196.589 242.873 213.419 243.86C245.151 245.735 262.951 260.969 262.951 260.969C262.951 260.969 264.368 252.805 262.951 247.144C261.533 241.483 262.009 232.96 262.009 232.96L266.369 196.473L266.27 177.562Z" fill="#EAEFF4"/>
<path d="M242.666 231.39C242.461 231.372 242.26 231.33 242.065 231.265L240.378 230.798C239.652 230.583 238.755 230.332 237.687 230.098C236.619 229.865 235.453 229.533 234.098 229.309L232.008 228.905C231.281 228.771 230.519 228.69 229.729 228.564C228.159 228.304 226.455 228.17 224.678 227.999C216.918 227.38 209.109 227.894 201.496 229.524C199.756 229.928 198.087 230.287 196.562 230.744C195.799 230.969 195.055 231.157 194.346 231.381L192.328 232.054C191.036 232.449 189.905 232.951 188.891 233.31C187.878 233.669 187.025 234.037 186.335 234.351L184.72 235.033C184.536 235.12 184.343 235.189 184.146 235.239C184.313 235.12 184.494 235.021 184.684 234.943L186.263 234.18C186.945 233.848 187.788 233.454 188.793 233.068C189.798 232.682 190.928 232.171 192.22 231.74L194.238 231.04C194.947 230.798 195.692 230.61 196.454 230.376C197.988 229.892 199.657 229.479 201.407 229.103C209.059 227.414 216.924 226.897 224.732 227.568C226.527 227.757 228.222 227.909 229.801 228.187C230.591 228.313 231.362 228.412 232.089 228.555L234.179 228.986C235.525 229.228 236.7 229.578 237.768 229.883C238.835 230.188 239.706 230.412 240.459 230.655L242.119 231.211C242.305 231.258 242.488 231.318 242.666 231.39Z" fill="#CED2D6"/>
<path d="M171.747 224.599C171.666 224.599 171.442 223.477 170.85 221.71C169.315 217.095 166.607 212.958 162.991 209.706C161.609 208.459 160.649 207.804 160.694 207.732C160.952 207.827 161.194 207.96 161.412 208.127C162.038 208.531 162.637 208.974 163.206 209.455C167.014 212.615 169.789 216.842 171.173 221.593C171.386 222.305 171.551 223.03 171.666 223.764C171.737 224.037 171.764 224.318 171.747 224.599Z" fill="#CED2D6"/>
<path d="M172.68 214.542C172.125 214.151 171.591 213.729 171.083 213.277C169.797 212.273 168.432 211.373 167.001 210.586C163.646 208.792 160.659 207.841 160.721 207.697C161.406 207.769 162.076 207.938 162.713 208.2C164.278 208.724 165.794 209.385 167.244 210.173C168.703 210.956 170.069 211.901 171.317 212.99C171.854 213.429 172.315 213.953 172.68 214.542Z" fill="#CED2D6"/>
<path d="M271.859 219.189L260.564 179.428L281.674 170.375L297.876 210.352L271.859 219.189Z" fill="#EAEFF4"/>
<path d="M184.881 201.489C184.832 201.632 184.763 201.768 184.675 201.892C184.504 202.197 184.289 202.556 184.029 202.996C183.437 203.947 182.638 205.346 181.669 207.087C179.154 211.625 176.934 216.321 175.022 221.145C173.048 225.941 171.566 230.925 170.599 236.02C170.34 237.566 170.175 239.127 170.105 240.694C170.105 241.205 170.105 241.591 170.105 241.977C170.127 242.125 170.127 242.277 170.105 242.425C170.063 242.283 170.042 242.135 170.043 241.986C170.043 241.636 169.998 241.214 169.971 240.694C169.966 239.112 170.08 237.531 170.312 235.966C171.188 230.824 172.635 225.796 174.627 220.975C176.542 216.131 178.812 211.435 181.418 206.925C182.423 205.203 183.275 203.821 183.903 202.906L184.639 201.848C184.774 201.605 184.863 201.48 184.881 201.489Z" fill="#CED2D6"/>
<path d="M184.881 178.638C184.979 178.928 185.037 179.23 185.052 179.535C185.142 180.109 185.24 180.944 185.33 181.976C185.527 184.048 185.716 186.91 185.752 190.05C185.787 192.745 185.673 195.441 185.411 198.124C185.312 199.165 185.195 199.99 185.088 200.564C185.067 200.872 184.997 201.175 184.881 201.461C184.81 201.461 184.953 200.179 185.088 198.115C185.222 196.052 185.312 193.199 185.285 190.041C185.258 186.883 185.115 184.03 185.007 181.967C184.896 180.861 184.854 179.749 184.881 178.638Z" fill="#CED2D6"/>
<path d="M239.867 226.716C239.709 226.74 239.549 226.74 239.392 226.716L238.028 226.564L233.04 225.972C228.814 225.487 222.974 224.94 216.514 224.608C210.055 224.276 204.17 224.249 199.926 224.303L194.902 224.393H193.53C193.372 224.416 193.212 224.416 193.054 224.393C193.208 224.344 193.368 224.32 193.53 224.321L194.893 224.213C196.078 224.132 197.8 224.052 199.917 223.98C204.17 223.845 210.046 223.827 216.532 224.15C223.019 224.473 228.859 225.048 233.076 225.649C235.184 225.936 236.889 226.187 238.055 226.393L239.4 226.635C239.559 226.642 239.716 226.669 239.867 226.716Z" fill="#CED2D6"/>
<path d="M244.362 187.834C244.255 187.939 244.138 188.032 244.012 188.112L242.971 188.83C242.074 189.449 240.719 190.319 239.042 191.351C235.695 193.423 230.967 196.114 225.585 198.743C220.202 201.372 215.124 203.426 211.428 204.781C209.58 205.454 208.072 205.974 207.023 206.306L205.812 206.683C205.671 206.739 205.523 206.772 205.372 206.781C205.497 206.7 205.633 206.636 205.776 206.593L206.96 206.135C207.992 205.75 209.481 205.184 211.311 204.467C214.971 203.04 219.986 200.941 225.378 198.321C230.77 195.702 235.489 193.055 238.835 191.09C240.531 190.095 241.895 189.296 242.837 188.704L243.931 188.058C244.218 187.888 244.353 187.816 244.362 187.834Z" fill="#CED2D6"/>
<g opacity="0.3">
<path d="M263.758 190.777C265.032 204.629 266.898 219.055 274.721 230.547L263.901 193.199" fill="#E2E7EB"/>
</g>
<g opacity="0.3">
<path d="M207.525 224.375C202.285 224.791 197.158 226.128 192.381 228.322C191.751 228.565 191.185 228.952 190.731 229.452C190.51 229.71 190.381 230.034 190.363 230.373C190.345 230.712 190.44 231.047 190.632 231.327C191.251 232.054 192.426 231.704 193.323 231.399C209.51 226.154 226.947 226.202 243.106 231.534C243.599 231.695 244.182 231.91 244.577 231.534C244.972 231.157 244.864 230.529 244.64 230.053C243.375 227.443 240.109 226.626 237.247 226.205C227.379 224.778 217.367 224.59 207.399 224.41" fill="#CED2D6"/>
</g>
<path d="M213.114 162.741C215.94 166.33 218.219 170.026 221.045 173.606C222.902 175.947 226.778 180.352 226.778 180.352C228.757 177.898 230.874 175.558 233.121 173.345C233.121 173.345 235.947 176.755 236.368 177.158" fill="white"/>
<path d="M236.296 177.391C237.274 176.494 239.4 174.7 240.378 173.803L243.922 180.316L251.045 171.784L248.085 167.612" fill="white"/>
<path d="M235.157 181.886C235.157 181.886 235.211 181.985 235.157 182.146L234.969 182.101C235.035 181.301 235.161 180.506 235.345 179.724C235.453 178.837 235.721 177.977 236.135 177.185C236.175 178.077 236.063 178.969 235.803 179.823C235.675 180.601 235.489 181.369 235.247 182.119L235.058 182.074C235.076 181.958 235.13 181.877 235.157 181.886Z" fill="#263238"/>
<path d="M307.018 226.285C308.379 226.559 309.673 227.099 310.825 227.875C311.977 228.65 312.965 229.645 313.732 230.802C314.499 231.96 315.03 233.258 315.294 234.621C315.558 235.984 315.55 237.386 315.272 238.747C315.218 238.98 315.155 239.222 315.083 239.464C313.074 246.193 305.215 249.71 303.654 255.254C302.093 260.798 298.944 288.224 298.944 288.224C298.944 288.224 276.461 288.556 276.111 288.224C275.762 287.892 280.247 261.31 281.665 253.523C283.082 245.735 284.275 229.443 294.018 226.653C298.256 225.467 302.72 225.341 307.018 226.285Z" fill="#FFD600"/>
<path d="M293.373 284.294C293.367 284.199 293.367 284.103 293.373 284.007L293.48 283.11C293.588 282.33 293.74 281.235 293.938 279.836C294.368 276.956 294.978 272.847 295.732 267.778C296.486 262.709 297.419 256.645 298.639 249.943C298.716 249.506 298.83 249.077 298.98 248.66C299.162 248.248 299.394 247.859 299.671 247.503C300.223 246.802 300.822 246.139 301.465 245.52C302.802 244.309 304.055 243.008 305.215 241.626C305.79 240.933 306.199 240.116 306.408 239.24C306.6 238.34 306.522 237.404 306.184 236.549C305.841 235.681 305.271 234.923 304.533 234.351C303.796 233.78 302.919 233.417 301.994 233.301C300.111 232.994 298.179 233.215 296.414 233.938C295.574 234.304 294.826 234.852 294.225 235.544C293.642 236.247 293.143 237.014 292.736 237.831C291.103 241.124 290.574 244.704 289.865 248.014L285.926 265.652C284.796 270.649 283.872 274.704 283.235 277.539L282.481 280.76L282.266 281.603C282.251 281.699 282.224 281.792 282.185 281.881C282.171 281.783 282.171 281.683 282.185 281.585C282.23 281.37 282.284 281.092 282.347 280.742L283.02 277.503C283.63 274.659 284.491 270.595 285.567 265.589L289.407 247.933C290.107 244.623 290.618 241.016 292.287 237.625C292.709 236.77 293.234 235.969 293.848 235.239C294.491 234.492 295.295 233.9 296.199 233.507C298.043 232.75 300.062 232.52 302.03 232.843C303.036 232.973 303.989 233.369 304.79 233.99C305.591 234.612 306.212 235.436 306.587 236.378C306.944 237.31 307.028 238.325 306.83 239.303C306.596 240.245 306.158 241.124 305.547 241.878C304.369 243.274 303.098 244.59 301.743 245.816C300.505 247.063 299.195 248.301 299.051 249.997C297.813 256.671 296.889 262.736 296.055 267.805C295.221 272.874 294.575 276.965 294.108 279.836C293.875 281.226 293.696 282.321 293.561 283.101C293.498 283.451 293.444 283.729 293.408 283.953C293.419 284.068 293.406 284.184 293.373 284.294Z" fill="#DEC333"/>
<path d="M294.027 226.653C294.027 226.716 293.22 226.922 291.919 227.685C290.132 228.824 288.631 230.358 287.532 232.171C285.939 234.902 284.803 237.874 284.168 240.972C283.396 244.471 282.571 248.319 281.737 252.374C280.068 260.449 278.668 267.832 277.69 273.161C277.206 275.79 276.793 277.934 276.524 279.441C276.39 280.15 276.282 280.715 276.201 281.155C276.176 281.357 276.128 281.555 276.058 281.747C276.052 281.545 276.07 281.343 276.112 281.146C276.174 280.697 276.246 280.123 276.345 279.414C276.569 277.916 276.91 275.745 277.359 273.071C278.256 267.689 279.61 260.35 281.279 252.24C282.113 248.185 282.948 244.336 283.746 240.837C284.408 237.703 285.594 234.704 287.254 231.964C288.392 230.12 289.963 228.58 291.829 227.479C292.519 227.1 293.259 226.822 294.027 226.653Z" fill="#DEC333"/>
<path d="M112.204 229.327C112.204 229.327 111.773 227.874 114.895 224.778C116.169 223.504 123.149 221.441 123.149 221.441L133.762 218.597L136.373 217.521C136.373 217.521 141.478 215.646 143.765 218.328C145.144 220.08 145.813 222.287 145.64 224.509L144.304 226.384C144.304 226.384 146.367 229.479 145.667 230.682C145.309 231.266 144.913 231.826 144.483 232.359C144.148 232.807 143.718 233.175 143.224 233.436C142.731 233.698 142.185 233.847 141.626 233.873C141.068 233.898 140.511 233.8 139.995 233.585C139.479 233.37 139.017 233.043 138.643 232.628C138.551 232.524 138.467 232.413 138.392 232.296C138.027 231.849 137.817 231.295 137.791 230.719C137.765 230.142 137.925 229.572 138.248 229.094L133.134 228.941C130.325 227.101 126.964 226.293 123.625 226.653C119.726 227.096 115.893 227.993 112.204 229.327Z" fill="#F3D0B5"/>
<path d="M117.174 226.286C115.813 226.56 114.519 227.1 113.367 227.875C112.215 228.65 111.227 229.645 110.46 230.802C109.693 231.96 109.163 233.258 108.898 234.621C108.634 235.984 108.642 237.386 108.92 238.747C108.974 238.98 109.037 239.222 109.109 239.465C111.118 246.193 118.977 249.71 120.538 255.254C122.099 260.799 125.257 288.224 125.257 288.224C125.257 288.224 147.686 288.556 148.09 288.224C148.493 287.892 143.954 261.31 142.536 253.523C141.119 245.736 139.917 229.443 130.183 226.653C125.942 225.466 121.475 225.34 117.174 226.286Z" fill="#FFD600"/>
<path d="M130.829 284.294C130.795 284.204 130.771 284.111 130.757 284.016C130.757 283.792 130.676 283.514 130.604 283.164C130.479 282.383 130.299 281.289 130.066 279.898C129.6 277.027 128.936 272.928 128.119 267.868C127.303 262.808 126.325 256.734 125.114 250.059C124.943 248.364 123.634 247.126 122.422 245.879C121.065 244.655 119.794 243.339 118.619 241.94C118.004 241.189 117.566 240.309 117.336 239.366C117.133 238.388 117.217 237.372 117.578 236.441C117.951 235.497 118.571 234.671 119.373 234.05C120.174 233.428 121.129 233.033 122.135 232.906C124.1 232.582 126.116 232.812 127.958 233.57C128.864 233.963 129.671 234.554 130.317 235.301C130.926 236.034 131.447 236.835 131.869 237.688C133.538 241.079 134.058 244.686 134.758 247.996L138.598 265.652C139.665 270.658 140.536 274.722 141.146 277.566C141.424 278.947 141.648 280.033 141.81 280.804C141.881 281.154 141.935 281.432 141.971 281.648C141.996 281.745 142.011 281.844 142.016 281.944C141.977 281.854 141.947 281.761 141.926 281.666C141.872 281.45 141.81 281.172 141.72 280.822L140.966 277.602C140.32 274.767 139.405 270.712 138.275 265.715C137.145 260.717 135.817 254.707 134.336 248.077C133.628 244.766 133.089 241.187 131.466 237.894C131.059 237.075 130.556 236.307 129.967 235.607C129.368 234.917 128.623 234.369 127.787 234.001C126.021 233.279 124.09 233.058 122.207 233.364C121.281 233.479 120.402 233.842 119.663 234.413C118.925 234.984 118.353 235.744 118.008 236.611C117.675 237.468 117.597 238.403 117.784 239.303C118.001 240.176 118.409 240.991 118.977 241.689C120.142 243.069 121.398 244.37 122.736 245.583C123.376 246.204 123.976 246.867 124.531 247.565C124.804 247.922 125.033 248.311 125.213 248.723C125.371 249.137 125.485 249.567 125.553 250.006C126.774 256.707 127.662 262.763 128.46 267.841C129.259 272.919 129.833 277.019 130.254 279.898C130.443 281.298 130.604 282.392 130.712 283.173L130.82 284.07C130.829 284.144 130.832 284.219 130.829 284.294Z" fill="#DEC333"/>
<path d="M120.538 255.254C120.488 255.176 120.449 255.091 120.422 255.003L120.126 254.24C119.665 253.293 119.092 252.405 118.421 251.593C117.339 250.338 116.192 249.14 114.985 248.005C113.364 246.482 111.895 244.806 110.598 242.999C109.882 241.908 109.317 240.725 108.92 239.482C108.513 238.119 108.394 236.686 108.571 235.274C108.781 233.716 109.33 232.222 110.179 230.898C111.028 229.575 112.157 228.453 113.487 227.613C114.927 226.709 116.541 226.119 118.224 225.881C119.947 225.58 121.696 225.442 123.445 225.469C125.257 225.487 127.062 225.7 128.828 226.106C130.7 226.423 132.46 227.214 133.942 228.402C135.364 229.652 136.518 231.178 137.333 232.888C138.138 234.513 138.807 236.203 139.333 237.939C140.303 241.206 141.105 244.521 141.738 247.87C142.976 254.258 143.864 260.044 144.654 264.916C145.443 269.787 146.026 273.663 146.448 276.417L146.932 279.539L147.04 280.356C147.052 280.451 147.052 280.547 147.04 280.643C147.004 280.553 146.98 280.46 146.968 280.365C146.923 280.158 146.878 279.889 146.807 279.557L146.241 276.444C145.775 273.699 145.111 269.787 144.286 264.97C143.46 260.152 142.536 254.339 141.271 247.969C140.636 244.64 139.83 241.347 138.858 238.1C138.337 236.392 137.677 234.73 136.884 233.13C136.098 231.479 134.98 230.007 133.601 228.806C132.18 227.663 130.491 226.904 128.693 226.599C126.953 226.205 125.176 225.995 123.391 225.971C121.672 225.943 119.954 226.075 118.26 226.366C116.632 226.587 115.07 227.15 113.675 228.017C112.393 228.819 111.302 229.893 110.479 231.162C109.656 232.432 109.121 233.866 108.911 235.364C108.735 236.725 108.839 238.108 109.216 239.428C109.599 240.64 110.142 241.796 110.831 242.864C112.1 244.664 113.539 246.337 115.129 247.861C116.331 249.026 117.463 250.26 118.52 251.557C119.184 252.378 119.737 253.283 120.162 254.249L120.422 255.029C120.468 255.1 120.507 255.175 120.538 255.254Z" fill="#DEC333"/>
<path d="M140.428 351.876C140.428 352.881 145.129 388.21 145.129 388.21H150.853V354.226L140.428 351.876Z" fill="#AE7461"/>
<path d="M292.664 351.876C292.664 352.881 287.954 388.21 287.954 388.21H282.239V354.226L292.664 351.876Z" fill="#AE7461"/>
<path d="M129.196 307.055C129.196 307.719 136.238 355.788 139.441 358.031C142.644 360.274 293.92 358.031 293.92 358.031C293.92 358.031 301.994 310.805 301.617 307.558L129.196 307.055Z" fill="#FFD600"/>
<path d="M298.334 281.836H127.177C123.545 281.836 120.601 284.781 120.601 288.412V302.821C120.601 306.452 123.545 309.397 127.177 309.397H298.334C301.966 309.397 304.91 306.452 304.91 302.821V288.412C304.91 284.781 301.966 281.836 298.334 281.836Z" fill="#FFD600"/>
<path d="M172.25 253.074C172.25 253.074 152.351 276.454 152.351 285.237C152.351 294.02 184.648 374.861 185.079 374.206C185.509 373.551 214.684 362.122 214.684 362.122C214.684 362.122 193.862 293.365 193.862 292.468C193.862 291.571 195.181 283.909 195.181 283.909L212.755 282.115L211.015 240.846C198.787 240.093 185.743 245.027 172.25 253.074Z" fill="#263238"/>
<path d="M262.95 261.005C262.95 261.005 272.281 270.739 271.841 280.625C271.402 290.512 234.717 375.955 234.717 375.955L205.542 365.737L231.658 291.391L227.702 283.927L219.995 281.944L212.746 282.168L211.006 240.9H219.026C233.257 240.973 246.954 246.328 257.46 255.927L262.95 261.005Z" fill="#263238"/>
<path d="M186.308 263.006C186.752 263.03 187.193 263.093 187.627 263.194C188.141 263.275 188.65 263.386 189.152 263.526C189.735 263.679 190.417 263.84 191.143 264.091C192.856 264.631 194.526 265.297 196.141 266.083C198.111 267.065 200.003 268.196 201.801 269.465C203.585 270.759 205.262 272.193 206.817 273.754C207.498 274.498 208.18 275.189 208.736 275.898C209.023 276.248 209.302 276.58 209.562 276.912L210.271 277.889C210.679 278.444 211.06 279.019 211.41 279.612C211.693 280.05 211.954 280.502 212.19 280.967C212.412 281.351 212.601 281.753 212.756 282.169C212.666 282.214 211.858 280.518 210.001 278.078L209.284 277.181L208.44 276.194C207.884 275.503 207.193 274.83 206.511 274.103C204.955 272.581 203.291 271.172 201.532 269.887C199.755 268.612 197.891 267.463 195.952 266.451C194.36 265.656 192.718 264.966 191.036 264.387C190.327 264.109 189.663 263.939 189.08 263.759C188.497 263.58 188.003 263.445 187.591 263.356C187.153 263.28 186.723 263.163 186.308 263.006Z" fill="#455A64"/>
<path d="M238.01 261.525C236.392 261.85 234.793 262.26 233.219 262.754L232.098 263.167L230.914 263.696C230.088 264.037 229.272 264.594 228.384 265.024C226.515 266.163 224.75 267.463 223.109 268.909C220.143 271.57 217.535 274.603 215.348 277.934C214.909 278.562 214.559 279.163 214.245 279.684C213.931 280.204 213.653 280.652 213.455 281.029C213.254 281.428 213.02 281.809 212.755 282.169C212.896 281.743 213.077 281.332 213.294 280.94C213.473 280.545 213.715 280.042 214.02 279.549C214.325 279.056 214.648 278.401 215.07 277.755C217.193 274.337 219.794 271.24 222.795 268.559C224.465 267.092 226.267 265.783 228.177 264.647C229.074 264.181 229.918 263.679 230.761 263.347L231.972 262.826L233.13 262.44C233.786 262.214 234.457 262.034 235.139 261.902L235.974 261.714L236.682 261.633C237.121 261.561 237.565 261.525 238.01 261.525Z" fill="#455A64"/>
<path d="M181.05 280.581C181.05 280.581 181.311 280.625 181.741 280.805C182.357 281.046 182.957 281.328 183.536 281.648C187.392 283.751 190.613 286.849 192.866 290.62C193.202 291.198 193.502 291.798 193.763 292.414C193.883 292.629 193.968 292.862 194.014 293.105C193.942 293.105 193.467 292.208 192.561 290.835C190.191 287.226 187.043 284.194 183.347 281.962C181.957 281.083 181.024 280.652 181.05 280.581Z" fill="#455A64"/>
<path d="M185.77 276.175C186.411 276.211 187.039 276.373 187.618 276.651C189.057 277.223 190.379 278.053 191.52 279.1C192.67 280.139 193.616 281.384 194.31 282.769C194.636 283.322 194.855 283.93 194.956 284.564C194.06 282.624 192.786 280.884 191.209 279.443C189.631 278.003 187.782 276.892 185.77 276.175Z" fill="#455A64"/>
<path d="M234.718 375.956H234.583L234.17 375.83L232.6 375.31L226.652 373.282L205.48 365.953L205.282 365.89L205.354 365.692C208.27 357.484 211.697 347.839 215.357 337.567C221.009 321.768 226.123 307.477 229.855 297.106L234.296 284.86C234.825 283.443 235.238 282.33 235.525 281.541C235.668 281.182 235.776 280.895 235.857 280.644C235.893 280.545 235.935 280.45 235.983 280.356C235.969 280.461 235.942 280.564 235.902 280.661C235.83 280.886 235.731 281.173 235.615 281.559L234.466 284.905C233.444 287.839 231.972 292.028 230.16 297.196C226.482 307.585 221.404 321.894 215.806 337.702C212.128 347.974 208.683 357.609 205.749 365.818L205.623 365.558L226.733 373.04L232.654 375.175L234.206 375.749L234.601 375.902C234.682 375.902 234.727 375.956 234.718 375.956Z" fill="#455A64"/>
<path d="M265.122 140.851C265.166 141.057 264.7 141.299 264.099 141.192C263.498 141.084 263.157 140.689 263.265 140.519C263.372 140.348 263.785 140.375 264.233 140.456C264.682 140.537 265.086 140.599 265.122 140.851Z" fill="#FF9A6C"/>
<path d="M249.152 102.937C249.915 102.198 250.889 101.714 251.938 101.554C252.988 101.393 254.062 101.563 255.011 102.04C256.488 101.522 258.097 101.513 259.58 102.015C261.063 102.518 262.335 103.503 263.193 104.812C264.243 104.566 265.338 104.597 266.373 104.902C267.407 105.207 268.345 105.775 269.094 106.551C269.843 107.327 270.377 108.284 270.645 109.328C270.912 110.373 270.904 111.469 270.621 112.51C271.705 112.672 272.71 113.171 273.494 113.937C274.277 114.703 274.8 115.697 274.986 116.777C275.173 117.856 275.015 118.968 274.534 119.952C274.053 120.937 273.274 121.745 272.308 122.262C273.318 122.984 274.023 124.056 274.287 125.269C274.552 126.482 274.355 127.75 273.737 128.827C273.119 129.904 272.122 130.712 270.942 131.095C269.761 131.479 268.479 131.41 267.346 130.901L248.273 108.778C247.798 107.833 247.627 106.764 247.784 105.718C247.942 104.672 248.42 103.7 249.152 102.937Z" fill="white"/>
<path d="M267.831 131.816C269.035 126.609 268.234 121.139 265.588 116.496C262.941 111.852 258.643 108.376 253.548 106.759L252.499 106.427C240.979 103.502 232.062 111.648 229.451 123.248L219.995 157.053L236.332 177.158L244.783 170.061L246.075 167.208C246.075 167.208 257.478 169.003 261.066 158.138C262.825 152.908 265.516 141.846 267.831 131.816Z" fill="#F3D0B5"/>
<path d="M246.201 167.218C241.151 165.622 236.666 162.608 233.282 158.534C233.282 158.534 233.668 167.595 244.819 170.062L246.201 167.218Z" fill="#E7BFA0"/>
<path d="M261.264 141.147C261.139 141.552 260.861 141.892 260.489 142.095C260.117 142.298 259.68 142.347 259.272 142.232C259.07 142.186 258.879 142.1 258.71 141.978C258.542 141.857 258.4 141.703 258.292 141.526C258.184 141.348 258.113 141.151 258.082 140.946C258.052 140.741 258.063 140.531 258.115 140.33C258.238 139.924 258.515 139.581 258.887 139.377C259.26 139.172 259.697 139.121 260.107 139.236C260.31 139.282 260.502 139.368 260.671 139.49C260.84 139.612 260.983 139.767 261.091 139.945C261.199 140.124 261.27 140.322 261.3 140.528C261.33 140.735 261.317 140.945 261.264 141.147Z" fill="#263238"/>
<path d="M263.749 136.984C263.498 137.119 262.601 135.881 260.923 135.351C259.245 134.822 257.765 135.28 257.648 135.011C257.586 134.894 257.9 134.589 258.545 134.374C259.421 134.098 260.361 134.098 261.237 134.374C262.108 134.646 262.868 135.19 263.408 135.926C263.821 136.5 263.874 136.921 263.749 136.984Z" fill="#263238"/>
<path d="M246.784 137.065C246.659 137.47 246.382 137.811 246.01 138.016C245.638 138.22 245.202 138.272 244.792 138.16C244.589 138.113 244.397 138.027 244.228 137.905C244.059 137.783 243.916 137.628 243.808 137.45C243.7 137.272 243.629 137.073 243.599 136.867C243.57 136.66 243.582 136.45 243.635 136.249C243.76 135.843 244.038 135.502 244.409 135.298C244.781 135.094 245.218 135.042 245.627 135.154C245.83 135.201 246.021 135.289 246.189 135.411C246.358 135.533 246.5 135.688 246.608 135.866C246.716 136.044 246.787 136.242 246.817 136.448C246.847 136.654 246.836 136.864 246.784 137.065Z" fill="#263238"/>
<path d="M247.807 131.682C247.556 131.816 246.65 130.578 244.981 130.049C243.312 129.519 241.823 129.977 241.706 129.708C241.643 129.591 241.949 129.286 242.603 129.071C243.479 128.795 244.419 128.795 245.295 129.071C246.165 129.344 246.926 129.887 247.466 130.623C247.906 131.197 247.968 131.619 247.807 131.682Z" fill="#263238"/>
<path d="M249.422 145.803C250.391 145.808 251.355 145.935 252.292 146.18C252.732 146.27 253.19 146.315 253.324 146.046C253.497 145.616 253.537 145.144 253.441 144.691C253.369 143.534 253.288 142.314 253.208 141.04C252.92 135.863 252.867 131.655 253.073 131.646C253.279 131.638 253.683 135.827 253.97 141.004C254.033 142.278 254.096 143.498 254.15 144.655C254.246 145.257 254.135 145.874 253.836 146.404C253.726 146.534 253.588 146.638 253.433 146.706C253.277 146.774 253.108 146.806 252.938 146.799C252.683 146.792 252.429 146.75 252.185 146.674C251.23 146.502 250.302 146.21 249.422 145.803Z" fill="#263238"/>
<path d="M268.369 126.497C268.369 126.497 267.661 118.781 264.879 116.153C261.515 112.968 258.42 116.781 255.011 114.52C251.602 112.259 248.354 109.218 243.554 110.931C238.306 112.797 239.571 115.668 237.786 120.414C230.519 139.631 225.226 144.027 227.101 134.499C227.307 133.45 224.759 131.763 225.701 127.322C226.912 121.616 228.832 114.843 231.308 111.308C233.399 108.33 236.009 106.643 240.19 105.199C246.784 102.911 254.15 105.154 258.967 107.235C263.785 109.317 271.527 118.118 268.369 126.497Z" fill="white"/>
<path d="M227.845 134.4C227.957 133.997 227.986 133.575 227.93 133.16C227.874 132.745 227.736 132.345 227.522 131.985C227.308 131.625 227.024 131.311 226.687 131.064C226.349 130.816 225.965 130.639 225.558 130.543C223.467 130.094 220.848 130.543 219.655 134.768C217.528 142.268 225.504 142.842 225.585 142.636C225.665 142.43 226.984 137.549 227.845 134.4Z" fill="#F3D0B5"/>
<path d="M224.741 139.352C224.741 139.352 224.589 139.406 224.338 139.451C223.987 139.494 223.634 139.401 223.351 139.191C222.642 138.679 222.328 137.226 222.678 135.862C222.838 135.204 223.144 134.591 223.575 134.068C223.712 133.854 223.898 133.676 224.118 133.55C224.339 133.423 224.586 133.352 224.84 133.341C225.001 133.345 225.156 133.404 225.279 133.509C225.401 133.613 225.484 133.757 225.513 133.915C225.513 134.158 225.459 134.292 225.513 134.319C225.567 134.346 225.71 134.238 225.737 133.915C225.746 133.717 225.689 133.522 225.576 133.359C225.496 133.253 225.397 133.163 225.283 133.095C225.169 133.028 225.043 132.983 224.912 132.964C224.587 132.938 224.26 132.995 223.963 133.13C223.667 133.265 223.409 133.473 223.216 133.736C222.712 134.296 222.352 134.971 222.166 135.701C221.79 137.235 222.166 138.868 223.162 139.487C223.346 139.603 223.554 139.675 223.77 139.698C223.986 139.722 224.205 139.695 224.409 139.621C224.678 139.532 224.768 139.379 224.741 139.352Z" fill="#E7BFA0"/>
<path d="M232.555 120.046C233.231 121.077 234.157 121.919 235.247 122.495C235.796 122.769 236.426 122.834 237.02 122.679C237.613 122.524 238.131 122.159 238.477 121.652C238.728 121.158 238.799 120.521 239.266 120.225C239.732 119.929 240.522 120.225 241.123 120.53C242.177 120.965 243.349 121.025 244.442 120.698C245.535 120.371 246.482 119.678 247.125 118.736C247.412 119.732 248.713 120.109 249.718 119.831C250.683 119.454 251.59 118.94 252.409 118.305C252.828 117.994 253.316 117.789 253.832 117.708C254.348 117.627 254.875 117.672 255.37 117.839C255.89 118.099 256.267 118.584 256.868 118.736C257.873 118.96 258.716 117.974 259.165 117.049C259.613 116.125 260.062 115.031 261.084 114.771C262.107 114.511 262.879 115.121 263.776 115.533C264.673 115.946 265.857 116.107 266.369 115.309C266.482 115.086 266.549 114.842 266.566 114.592C266.583 114.343 266.55 114.092 266.467 113.856C266.143 112.771 265.463 111.828 264.537 111.177C263.611 110.526 262.493 110.205 261.363 110.267C261.39 108.913 261.015 107.581 260.285 106.44C259.554 105.299 258.502 104.401 257.261 103.858C256.02 103.315 254.646 103.153 253.313 103.392C251.98 103.63 250.747 104.259 249.772 105.198C249.206 104.235 248.416 103.422 247.468 102.829C246.521 102.236 245.445 101.88 244.331 101.792C243.217 101.704 242.098 101.886 241.069 102.323C240.041 102.76 239.133 103.438 238.423 104.301C237.597 103.773 236.634 103.497 235.654 103.509C234.673 103.52 233.717 103.817 232.904 104.364C232.09 104.911 231.454 105.684 231.073 106.588C230.692 107.491 230.584 108.486 230.761 109.451C229.962 109.572 229.208 109.895 228.569 110.39C227.93 110.884 227.427 111.534 227.11 112.277C226.589 113.811 227.603 115.865 229.218 115.865C228.738 116.378 228.47 117.052 228.465 117.754C228.461 118.456 228.721 119.134 229.194 119.653C229.668 120.171 230.319 120.492 231.018 120.552C231.718 120.611 232.414 120.405 232.968 119.974" fill="white"/>
<path d="M248.058 152.334C247.852 152.334 247.493 151.312 246.452 150.639C245.411 149.966 244.29 150.029 244.263 149.822C244.236 149.616 244.505 149.562 245.008 149.517C245.664 149.474 246.316 149.647 246.865 150.011C247.413 150.375 247.828 150.907 248.049 151.527C248.202 152.002 248.157 152.316 248.058 152.334Z" fill="#263238"/>
<path d="M275.528 143.354L272.927 159.628L262.681 162.023L261.838 160.902C261.546 160.512 261.343 160.062 261.246 159.584C261.148 159.106 261.157 158.612 261.273 158.139L265.436 141.389L267.427 134.849L271.455 133.871L275.528 143.354Z" fill="#F3D0B5"/>
<path d="M270.756 142.789L269.338 138.581L266.575 137.164C266.575 137.164 263.193 137.397 262.43 135.127C262.045 135.029 261.683 134.855 261.366 134.615C261.048 134.375 260.783 134.074 260.585 133.729C260.386 133.384 260.259 133.003 260.211 132.608C260.163 132.214 260.194 131.813 260.304 131.431L263.946 131.565C263.946 131.565 260.654 129.771 262.645 127.412L265.848 128.569L265.543 127.205C265.403 126.785 265.389 126.332 265.502 125.904C265.615 125.475 265.851 125.089 266.18 124.792L269.769 130.435C270.76 131.251 271.578 132.258 272.173 133.396C272.235 133.527 272.288 133.662 272.335 133.799C272.927 135.594 275.519 143.354 275.519 143.354" fill="#F3D0B5"/>
<path d="M275.528 143.354C275.376 143.041 275.247 142.717 275.143 142.385C274.891 141.694 274.568 140.77 274.156 139.631C273.743 138.491 273.259 136.984 272.675 135.342C272.438 134.464 272.095 133.617 271.653 132.821C271.098 131.984 270.424 131.231 269.652 130.588C268.881 129.394 268.073 128.129 267.239 126.82L266.602 125.824L266.279 125.321L266.117 125.07L266.072 125.007H266.413L266.315 125.106C266.06 125.377 265.882 125.711 265.802 126.075C265.721 126.438 265.74 126.816 265.857 127.169C265.947 127.6 266.055 128.067 266.153 128.533L266.243 128.946L265.848 128.802L263.812 128.067L262.645 127.645L262.906 127.582C262.633 127.861 262.448 128.214 262.375 128.596C262.301 128.979 262.342 129.376 262.493 129.735C262.869 130.433 263.439 131.006 264.135 131.386L264.906 131.844H264.009L260.367 131.7L260.582 131.539C260.472 131.905 260.438 132.289 260.483 132.669C260.528 133.049 260.65 133.415 260.842 133.745C261.256 134.343 261.86 134.783 262.556 134.993H262.663V135.082C262.809 135.462 263.039 135.804 263.336 136.082C263.633 136.36 263.989 136.567 264.377 136.688C265.095 136.935 265.852 137.048 266.611 137.02H266.647L269.392 138.464H269.437L270.415 141.595C270.539 141.963 270.641 142.337 270.72 142.717C270.546 142.371 270.402 142.011 270.289 141.64C270.011 140.869 269.652 139.846 269.195 138.545L269.257 138.617L266.476 137.235H266.566C265.761 137.283 264.954 137.176 264.189 136.921C263.746 136.793 263.338 136.564 262.997 136.253C262.657 135.942 262.392 135.557 262.224 135.127L262.358 135.253C261.562 135.027 260.867 134.532 260.394 133.853C260.169 133.475 260.024 133.054 259.967 132.618C259.91 132.181 259.942 131.738 260.062 131.314L260.107 131.144H260.286L263.928 131.269L263.812 131.691C263.025 131.27 262.381 130.623 261.964 129.834C261.762 129.397 261.706 128.906 261.802 128.434C261.915 127.975 262.133 127.548 262.439 127.187L262.538 127.062L262.699 127.116L263.866 127.537L265.902 128.273L265.588 128.542C265.489 128.076 265.391 127.645 265.292 127.187C265.151 126.755 265.129 126.293 265.229 125.849C265.328 125.406 265.545 124.997 265.857 124.666L265.974 124.55L266.324 124.604V124.666L266.485 124.918L266.808 125.42L267.436 126.425L269.832 130.202H269.787C270.589 130.873 271.285 131.663 271.85 132.543C272.108 132.962 272.313 133.411 272.46 133.88L272.873 135.163C273.402 136.814 273.869 138.267 274.263 139.478C274.658 140.689 274.918 141.578 275.161 142.277C275.315 142.625 275.438 142.985 275.528 143.354Z" fill="#E7BFA0"/>
<path d="M270.289 142.071C270.146 141.785 270.034 141.484 269.957 141.174L269.195 138.626L269.275 138.725L266.494 137.352H266.602C265.784 137.429 264.959 137.335 264.18 137.074C263.725 136.935 263.31 136.69 262.968 136.36C262.627 136.029 262.369 135.622 262.215 135.172V135.1V135.011C262.412 134.634 262.618 134.239 262.825 133.826L262.888 133.692H263.058L263.955 133.755L269.805 134.185H269.867H269.912L272.693 136.276H272.738V136.321C273.223 137.577 273.635 138.626 273.967 139.461C274.135 139.841 274.265 140.238 274.353 140.645C274.125 140.295 273.936 139.922 273.788 139.532L272.415 136.455L272.478 136.527L269.697 134.571H269.814L263.955 134.176L263.058 134.114L263.282 133.988L262.672 135.172V135.011C262.809 135.387 263.031 135.727 263.32 136.004C263.61 136.281 263.959 136.487 264.341 136.608C265.062 136.854 265.824 136.955 266.584 136.904H266.647H266.692L269.383 138.357H269.446V138.42C269.697 139.452 269.903 140.304 270.065 141.004C270.19 141.347 270.266 141.706 270.289 142.071Z" fill="#E7BFA0"/>
<path d="M269.527 143.067C269.636 144.533 269.892 145.985 270.289 147.4L270.334 147.535L270.217 147.624C269.166 148.429 268.231 149.374 267.436 150.432C266.255 152.016 265.401 153.818 264.924 155.735C264.556 157.206 264.529 158.166 264.449 158.157C264.397 157.936 264.382 157.709 264.404 157.484C264.421 156.882 264.487 156.281 264.601 155.69C265.002 153.691 265.842 151.807 267.059 150.172C267.882 149.08 268.865 148.118 269.975 147.319L269.903 147.553C269.591 146.504 269.425 145.417 269.41 144.323C269.374 143.901 269.414 143.475 269.527 143.067Z" fill="#E7BFA0"/>
<path d="M273.582 155.608L279.459 171.383L264.664 177.669L262.69 162.023L273.582 155.608Z" fill="#F3D0B5"/>
<path d="M266.557 137.325C266.574 137.627 266.54 137.93 266.458 138.222C266.36 138.778 266.207 139.577 266.001 140.554C265.597 142.528 264.978 145.229 264.206 148.198C263.435 151.168 262.735 153.85 262.161 155.779C261.883 156.739 261.641 157.519 261.461 158.049C261.395 158.334 261.289 158.609 261.147 158.865C261.306 157.791 261.54 156.73 261.847 155.689C262.367 153.626 263.022 150.997 263.758 148.09L265.66 140.483C265.885 139.41 266.185 138.355 266.557 137.325Z" fill="#E7BFA0"/>
</g>
<defs>
<clipPath id="clip0_14_1256">
<rect width="473" height="406.979" fill="white"/>
</clipPath>
</defs>
</svg>
