<svg width="319" height="299" viewBox="0 0 319 299" fill="none" xmlns="http://www.w3.org/2000/svg">
<circle cx="169.975" cy="149.023" r="149.023" fill="#5AC7EF"/>
<path d="M242.574 74.4741C234.072 65.9713 222.324 60.7123 209.35 60.7123C196.375 60.7123 184.625 65.9713 176.126 74.4741C167.626 82.9768 162.363 94.723 162.363 107.698C162.363 120.673 167.623 132.422 176.126 140.922C184.628 149.423 196.372 154.684 209.347 154.684C222.322 154.684 234.071 149.425 242.571 140.923C251.071 132.421 256.333 120.673 256.333 107.698C256.333 94.7235 251.074 82.9783 242.571 74.4765L242.574 74.4741ZM210.079 155.951L210.079 168.546L208.615 168.546L208.615 155.951C206.979 155.926 205.365 155.821 203.771 155.638L202.804 162.988L201.359 162.799L202.326 155.449C200.723 155.216 199.132 154.901 197.561 154.507L194.305 166.662L192.894 166.284L196.151 154.13C194.592 153.688 193.057 153.166 191.552 152.568L188.719 159.409L187.368 158.856L190.204 152.009C188.717 151.366 187.263 150.648 185.848 149.858L179.556 160.758L178.293 160.033L184.586 149.129C183.195 148.294 181.849 147.394 180.55 146.427L176.036 152.309L174.876 151.424L179.393 145.537C178.124 144.532 176.907 143.463 175.745 142.336L166.838 151.243L165.804 150.208L174.71 141.302C173.584 140.141 172.517 138.924 171.509 137.654L165.623 142.17L164.737 141.01L170.621 136.496C169.654 135.197 168.752 133.85 167.92 132.46L157.016 138.753L156.291 137.489L167.191 131.197C166.401 129.782 165.682 128.328 165.039 126.841L158.193 129.676L157.639 128.326L164.477 125.496C163.88 123.99 163.359 122.456 162.917 120.897L150.762 124.155L150.384 122.743L162.54 119.486C162.146 117.915 161.832 116.325 161.599 114.722L154.248 115.69L154.059 114.245L161.41 113.277C161.225 111.668 161.12 110.052 161.097 108.433L148.501 108.433L148.501 106.97L161.097 106.97C161.12 105.351 161.225 103.734 161.41 102.125L154.059 101.158L154.248 99.7119L161.599 100.678C161.832 99.0749 162.146 97.485 162.541 95.9141L150.385 92.6569L150.762 91.2453L162.917 94.503C163.359 92.9444 163.881 91.4093 164.479 89.9036L157.637 87.07L158.191 85.7208L165.037 88.5559C165.68 87.0687 166.398 85.6151 167.188 84.2007L156.288 77.9082L157.016 76.6472L167.916 82.9427C168.749 81.5528 169.651 80.2055 170.618 78.9061L164.736 74.3923L165.624 73.2284L171.511 77.7457C172.517 76.4763 173.583 75.2602 174.712 74.0975L165.805 65.1914L166.839 64.1568L175.747 73.0639C176.908 71.9365 178.126 70.8679 179.394 69.8622L174.877 63.976L176.037 63.0896L180.551 68.9723C181.85 68.005 183.197 67.1038 184.586 66.272L178.294 55.3716L179.556 54.6398L185.849 65.5402C187.263 64.7504 188.717 64.0326 190.204 63.3894L187.368 56.5449L188.718 55.991L191.551 62.8319C193.057 62.2339 194.592 61.7129 196.15 61.2712L192.892 49.1173L194.304 48.7397L197.561 60.8947C199.133 60.5009 200.723 60.1867 202.326 59.9533L201.359 52.6009L202.804 52.4131L203.769 59.763C205.362 59.5797 206.978 59.4754 208.615 59.4503L208.615 46.8544L210.073 46.8544L210.073 59.4503C211.709 59.4745 213.324 59.5787 214.919 59.763L215.887 52.4126L217.333 52.6004L216.365 59.9528C217.968 60.1862 219.558 60.5004 221.129 60.8941L224.385 48.7382L225.796 49.1158L222.541 61.2707C224.099 61.7125 225.634 62.2338 227.14 62.8324L229.979 55.991L231.327 56.5449L228.492 63.3908C229.979 64.0346 231.433 64.7528 232.847 65.5427L239.14 54.6423L240.403 55.3687L234.11 66.2725C235.502 67.1069 236.847 68.0073 238.146 68.9738L242.661 63.0911L243.82 63.9775L239.303 69.8637C240.572 70.8705 241.789 71.9377 242.951 73.0654L251.857 64.1583L252.891 65.1919L243.986 74.099C245.112 75.261 246.179 76.4771 247.187 77.7471L253.068 73.2284L253.955 74.3893L248.071 78.9031C249.039 80.2021 249.94 81.549 250.772 82.9387L261.675 76.6472L262.407 77.9107L251.506 84.2056C252.296 85.6197 253.014 87.073 253.657 88.5598L260.5 85.7218L261.055 87.0709L254.214 89.9046C254.811 91.4104 255.332 92.9455 255.774 94.504L267.933 91.2453L268.309 92.6579L256.154 95.9151C256.547 97.4861 256.862 99.0759 257.095 100.679L264.448 99.7114L264.636 101.157L257.285 102.124C257.468 103.718 257.572 105.334 257.598 106.972L270.193 106.972L270.193 108.429L257.597 108.429C257.573 110.066 257.469 111.682 257.284 113.276L264.636 114.245L264.447 115.69L257.095 114.723C256.861 116.325 256.547 117.915 256.153 119.486L268.309 122.742L267.932 124.153L255.777 120.897C255.335 122.456 254.814 123.991 254.215 125.496L261.057 128.33L260.503 129.679L253.657 126.843C253.013 128.331 252.295 129.785 251.505 131.2L262.406 137.492L261.68 138.755L250.776 132.463C249.941 133.855 249.041 135.2 248.074 136.499L253.956 141.009L253.07 142.168L247.183 137.652C246.178 138.92 245.109 140.138 243.981 141.299L252.889 150.205L251.855 151.24L242.948 142.334C241.786 143.46 240.57 144.527 239.3 145.535L243.817 151.422L242.656 152.308L238.142 146.425C236.846 147.39 235.501 148.29 234.107 149.126L240.4 160.026L239.137 160.758L232.844 149.858C231.43 150.648 229.976 151.366 228.489 152.008L231.325 158.854L229.976 159.409L227.143 152.567C225.637 153.165 224.102 153.686 222.544 154.129L225.802 166.283L224.39 166.66L221.132 154.504C219.561 154.898 217.971 155.212 216.369 155.446L217.336 162.797L215.89 162.986L214.923 155.635C213.331 155.82 211.716 155.925 210.079 155.951Z" fill="#FFD357"/>
<path d="M242.574 74.4741C234.072 65.9713 222.324 60.7123 209.35 60.7123C196.375 60.7123 184.625 65.9713 176.126 74.4741C167.626 82.9768 162.363 94.723 162.363 107.698C162.363 120.673 167.623 132.422 176.126 140.922C184.628 149.423 196.372 154.684 209.347 154.684C222.322 154.684 234.071 149.425 242.571 140.923C251.071 132.421 256.333 120.673 256.333 107.698C256.333 94.7235 251.074 82.9783 242.571 74.4765L242.574 74.4741Z" fill="#FFD357"/>
<g filter="url(#filter0_b_14_1610)">
<path d="M39.7694 111.426C59.8023 111.426 56.8707 116.286 77.8811 116.286C77.8811 116.286 115.015 118.23 118.924 109.968C122.833 101.707 86.1874 99.7632 85.6988 96.3614C85.2102 92.9596 86.6761 80.3242 66.643 77.8943C46.6099 75.4645 43.6782 83.24 39.7694 90.0434C29.9972 87.6136 19.2476 89.5574 17.2932 97.3329C15.3387 105.108 5.56652 99.2768 0.680405 108.024C-4.20571 116.772 24.4968 111.426 39.7694 111.426Z" fill="url(#paint0_linear_14_1610)"/>
</g>
<g filter="url(#filter1_b_14_1610)">
<path d="M108.113 182.973C123.22 182.973 121.01 186.618 136.853 186.618C136.853 186.618 164.856 188.076 167.804 181.88C170.752 175.684 143.117 174.226 142.749 171.674C142.38 169.123 143.486 159.646 128.379 157.824C113.272 156.002 111.061 161.833 108.113 166.936C100.744 165.113 92.638 166.571 91.1642 172.403C89.6904 178.235 82.3211 173.861 78.6365 180.421C74.9519 186.982 96.5965 182.973 108.113 182.973Z" fill="url(#paint1_linear_14_1610)"/>
</g>
<g filter="url(#filter2_b_14_1610)">
<path d="M94.8493 270.561C121.341 270.561 117.464 276.96 145.248 276.96C145.248 276.96 194.355 279.52 199.524 268.642C204.693 257.765 156.233 255.205 155.587 250.726C154.941 246.247 156.879 229.611 130.387 226.411C103.895 223.212 100.018 233.45 94.8493 242.408C81.9265 239.208 67.7113 241.768 65.1267 252.006C62.5422 262.243 49.6193 254.565 43.1579 266.082C36.6965 277.6 74.6529 270.561 94.8493 270.561Z" fill="url(#paint2_linear_14_1610)"/>
</g>
<defs>
<filter id="filter0_b_14_1610" x="-15.3333" y="61.9785" width="150.01" height="69.9674" filterUnits="userSpaceOnUse" color-interpolation-filters="sRGB">
<feFlood flood-opacity="0" result="BackgroundImageFix"/>
<feGaussianBlur in="BackgroundImageFix" stdDeviation="7.7305"/>
<feComposite in2="SourceAlpha" operator="in" result="effect1_backgroundBlur_14_1610"/>
<feBlend mode="normal" in="SourceGraphic" in2="effect1_backgroundBlur_14_1610" result="shape"/>
</filter>
<filter id="filter1_b_14_1610" x="62.7587" y="142.022" width="120.726" height="60.2062" filterUnits="userSpaceOnUse" color-interpolation-filters="sRGB">
<feFlood flood-opacity="0" result="BackgroundImageFix"/>
<feGaussianBlur in="BackgroundImageFix" stdDeviation="7.7305"/>
<feComposite in2="SourceAlpha" operator="in" result="effect1_backgroundBlur_14_1610"/>
<feBlend mode="normal" in="SourceGraphic" in2="effect1_backgroundBlur_14_1610" result="shape"/>
</filter>
<filter id="filter2_b_14_1610" x="26.966" y="210.351" width="188.405" height="82.3317" filterUnits="userSpaceOnUse" color-interpolation-filters="sRGB">
<feFlood flood-opacity="0" result="BackgroundImageFix"/>
<feGaussianBlur in="BackgroundImageFix" stdDeviation="7.7305"/>
<feComposite in2="SourceAlpha" operator="in" result="effect1_backgroundBlur_14_1610"/>
<feBlend mode="normal" in="SourceGraphic" in2="effect1_backgroundBlur_14_1610" result="shape"/>
</filter>
<linearGradient id="paint0_linear_14_1610" x1="59.6719" y1="77.4395" x2="59.6719" y2="112.508" gradientUnits="userSpaceOnUse">
<stop stop-color="#B5E3FF"/>
<stop offset="1" stop-color="#E7F6FF"/>
</linearGradient>
<linearGradient id="paint1_linear_14_1610" x1="123.122" y1="157.483" x2="123.122" y2="183.784" gradientUnits="userSpaceOnUse">
<stop stop-color="#B5E3FF"/>
<stop offset="1" stop-color="#E7F6FF"/>
</linearGradient>
<linearGradient id="paint2_linear_14_1610" x1="121.169" y1="225.813" x2="121.169" y2="271.986" gradientUnits="userSpaceOnUse">
<stop stop-color="#B5E3FF"/>
<stop offset="1" stop-color="#E7F6FF"/>
</linearGradient>
</defs>
</svg>
