<svg width="299" height="299" viewBox="0 0 299 299" fill="none" xmlns="http://www.w3.org/2000/svg">
<circle cx="149.023" cy="149.023" r="149.023" fill="#064058"/>
<path d="M95.5545 67.0389C91.744 68.4878 88.1297 70.4106 84.796 72.7622C79.0734 76.7793 74.2674 81.9717 70.6971 87.9949C67.1268 94.018 64.8737 100.734 64.0874 107.698C63.301 114.662 63.9995 121.714 66.1363 128.386C68.2731 135.058 71.7994 141.198 76.4813 146.398C81.1632 151.598 86.8935 155.74 93.2922 158.548C99.6908 161.356 106.611 162.766 113.595 162.686C120.578 162.605 127.464 161.035 133.797 158.08C140.13 155.125 145.763 150.852 150.325 145.545C140.078 149.444 128.828 149.803 118.355 146.566C107.881 143.329 98.7828 136.679 92.4982 127.67C86.2137 118.661 83.1021 107.806 83.6557 96.8226C84.2092 85.8394 88.3963 75.3549 95.5545 67.0278V67.0389Z" fill="#FED562"/>
<path d="M184.698 73.5352L187.184 78.0839L191.739 80.5763L187.184 83.0622L184.698 87.6175L182.205 83.0622L177.657 80.5763L182.205 78.0839L184.698 73.5352Z" fill="#FFD357"/>
<path d="M205.939 144.468L207.195 146.765L209.492 148.014L207.195 149.27L205.939 151.568L204.683 149.27L202.385 148.014L204.683 146.765L205.939 144.468Z" fill="#FFD357"/>
<path d="M145.418 99.5654L146.674 101.863L148.971 103.112L146.674 104.368L145.418 106.665L144.162 104.368L141.865 103.112L144.162 101.863L145.418 99.5654Z" fill="#FFD357"/>
<path d="M97.913 245.985L99.169 248.283L101.466 249.532L99.169 250.788L97.913 253.085L96.657 250.788L94.3599 249.532L96.657 248.283L97.913 245.985Z" fill="#FFD357"/>
<path d="M133.054 189.37L134.31 191.667L136.607 192.923L134.31 194.179L133.054 196.469L131.798 194.179L129.501 192.923L131.798 191.667L133.054 189.37Z" fill="#FFD357"/>
<path d="M69.9563 182.211L72.1416 186.212L76.1385 188.399L72.1416 190.587L69.9563 194.576L67.7711 190.587L63.7742 188.399L67.7711 186.212L69.9563 182.211Z" fill="#FFD357"/>
<path d="M241.756 175.704L245.552 182.652L252.494 186.451L245.552 190.25L241.756 197.179L237.961 190.25L231.019 186.451L237.961 182.652L241.756 175.704Z" fill="#FFD357"/>
<path d="M174.051 233.621L172.795 235.918L170.498 237.174L172.795 238.43L174.051 240.721L175.307 238.43L177.604 237.174L175.307 235.918L174.051 233.621Z" fill="#FFD357"/>
</svg>
