<svg width="340" height="315" viewBox="0 0 340 315" fill="none" xmlns="http://www.w3.org/2000/svg">
<circle cx="100.962" cy="148" r="100" fill="#0D4862"/>
<path d="M224.181 226.142C224.245 230.428 223.57 234.692 222.185 238.749C221.144 241.498 219.715 244.086 217.941 246.433L189.761 220.333C190.734 216.985 191.69 213.636 192.646 210.288C194.503 203.986 195.219 197.404 194.76 190.851C193.753 177.458 190.701 174.377 192.713 163.696C193.304 160.746 194.191 157.863 195.364 155.091C198.829 146.395 204.126 138.545 210.896 132.071C212.316 132.437 213.698 132.936 215.023 133.561C215.878 133.963 216.7 134.398 217.354 134.817C218.408 135.465 219.407 136.198 220.34 137.01C219.082 138.684 218.025 140.141 217.187 141.396L216.314 142.685C215.762 143.374 215.413 144.204 215.308 145.08C215.308 145.565 215.308 146.536 217.405 149.382C218.164 150.422 218.975 151.422 219.837 152.379C223.818 161.687 227.799 170.99 231.78 180.287C227.591 189.455 225.27 199.363 224.953 209.434C224.886 215.059 224.416 220.601 224.181 226.142Z" fill="#F3D0B5"/>
<path d="M220.34 137.01C219.082 138.684 218.025 140.141 217.187 141.396C215.727 138.802 215.744 136.022 217.338 134.7C218.402 135.384 219.406 136.157 220.34 137.01Z" fill="#3A3937"/>
<path d="M210.175 133.947C212.535 135.718 214.999 137.345 217.556 138.818C219.629 139.995 221.905 140.773 224.265 141.112C224.716 141.221 225.185 141.239 225.643 141.164C226.101 141.089 226.539 140.924 226.932 140.677C227.276 140.389 227.548 140.027 227.728 139.618C227.909 139.208 227.992 138.763 227.972 138.316C228.011 138.224 228.069 138.141 228.141 138.072C228.213 138.003 228.298 137.95 228.392 137.914C228.777 137.814 229.096 138.216 229.599 138.032C229.838 137.943 230.044 137.786 230.193 137.58C230.343 137.375 230.428 137.13 230.438 136.876C230.399 136.639 230.274 136.424 230.086 136.274C230.381 136.248 230.668 136.157 230.923 136.006C231.179 135.856 231.397 135.649 231.562 135.403V135.319C231.562 135.085 231.21 134.867 231.025 134.633C230.841 134.399 231.025 133.461 231.143 133.193C231.981 131.034 231.042 126.798 231.847 125.593C232.168 125.114 232.459 124.617 232.719 124.103C232.837 123.852 232.971 123.567 233.088 123.249C233.721 121.59 233.99 119.814 233.877 118.042C233.771 115.796 233.2 113.595 232.199 111.58C231.055 108.999 229.25 106.765 226.966 105.101C221.699 101.384 212.071 100.33 206.837 105.921C201.604 111.513 203.231 121.424 206.116 124.923C207.339 126.307 208.33 127.878 209.051 129.577C209.628 130.974 210.006 132.445 210.175 133.947Z" fill="#F3D0B5"/>
<path d="M230.27 133.663C230.589 133.475 230.943 133.355 231.31 133.311C231.797 133.311 231.965 133.311 232.401 133.311C232.718 133.229 233 133.047 233.206 132.792C233.432 132.511 233.562 132.165 233.575 131.804C233.612 131.354 233.525 130.903 233.323 130.498C233.165 130.173 232.943 129.882 232.669 129.645C232.216 129.209 231.78 128.071 231.864 124.974C231.243 126.648 230.623 128.439 229.985 130.164C230.086 131.335 230.17 132.507 230.27 133.663Z" fill="#F3D0B5"/>
<path d="M213.077 125.492C212.574 127.886 213.597 130.146 215.375 130.514C217.153 130.883 218.998 129.242 219.518 126.831C220.038 124.42 218.981 122.177 217.203 121.809C215.425 121.44 213.58 123.081 213.077 125.492Z" fill="#F3D0B5"/>
<path d="M212.993 127.853C212.894 127.851 212.798 127.815 212.721 127.751C212.645 127.687 212.593 127.599 212.574 127.501C212.504 126.945 212.504 126.383 212.574 125.827C212.582 125.772 212.601 125.719 212.63 125.671C212.659 125.623 212.698 125.582 212.743 125.549C212.788 125.516 212.84 125.493 212.894 125.48C212.949 125.467 213.005 125.466 213.06 125.475C213.169 125.492 213.267 125.55 213.332 125.638C213.398 125.726 213.427 125.836 213.413 125.944C213.338 126.438 213.338 126.94 213.413 127.434C213.42 127.489 213.416 127.545 213.401 127.599C213.386 127.652 213.361 127.702 213.326 127.746C213.292 127.789 213.249 127.826 213.201 127.853C213.152 127.88 213.099 127.897 213.044 127.903L212.993 127.853Z" fill="#3A3937"/>
<path d="M213.194 125.442H213.077C213.023 125.428 212.972 125.404 212.928 125.37C212.883 125.336 212.847 125.293 212.82 125.245C212.793 125.196 212.777 125.142 212.772 125.087C212.767 125.031 212.774 124.975 212.792 124.923C213.496 122.528 215.408 121.022 217.287 121.407C217.722 121.509 218.133 121.697 218.495 121.959C218.573 122.04 218.616 122.148 218.616 122.261C218.616 122.373 218.573 122.481 218.495 122.562C218.414 122.635 218.31 122.675 218.201 122.675C218.093 122.675 217.988 122.635 217.908 122.562C217.658 122.362 217.365 122.224 217.052 122.16C215.626 121.876 214.1 123.114 213.53 125.09C213.515 125.175 213.475 125.254 213.415 125.317C213.356 125.379 213.279 125.423 213.194 125.442Z" fill="#3A3937"/>
<path d="M216.214 126.295C216.108 126.292 216.006 126.251 215.929 126.178C215.888 126.141 215.856 126.095 215.835 126.045C215.813 125.994 215.801 125.94 215.801 125.885C215.801 125.83 215.813 125.776 215.835 125.726C215.856 125.675 215.888 125.63 215.929 125.592L216.952 124.487C217.033 124.41 217.141 124.366 217.254 124.366C217.366 124.366 217.474 124.41 217.556 124.487C217.632 124.566 217.675 124.671 217.675 124.78C217.675 124.89 217.632 124.995 217.556 125.073L216.516 126.178C216.433 126.253 216.325 126.295 216.214 126.295Z" fill="#3A3937"/>
<path d="M231.31 125.994C231.31 126.815 230.824 127.434 230.32 127.367C229.817 127.3 229.431 126.597 229.482 125.777C229.532 124.956 229.968 124.354 230.471 124.421C230.975 124.488 231.344 125.191 231.31 125.994Z" fill="#3A3937"/>
<path d="M233.005 119.9C231.724 119.659 230.43 119.492 229.13 119.398C227.611 119.291 226.086 119.291 224.567 119.398L224.433 119.197C225.796 118.534 227.268 118.126 228.778 117.992C230.291 117.862 231.816 118.016 233.273 118.444C233.341 118.758 233.341 119.084 233.273 119.398C233.206 119.577 233.116 119.746 233.005 119.9Z" fill="white"/>
<path d="M198.45 221.153C207.349 222.568 216.469 221.291 224.634 217.487C229.381 215.218 233.678 212.109 237.315 208.313C235.684 196.653 233.183 185.13 229.834 173.842C227.211 164.996 224.063 156.314 220.407 147.842C221.481 146.168 222.588 143.874 221.749 142.099C220.911 140.325 218.713 140.526 214.822 138.852C209.035 136.34 207.257 132.975 205.529 133.829C204.757 134.197 203.851 135.503 204.204 139.638C200.427 142.646 197.155 146.235 194.508 150.269C176.309 177.977 196.035 216.6 198.45 221.153Z" fill="#FFD600"/>
<path d="M299.563 292.808L335.996 281.089C335.68 279.97 335.059 278.962 334.201 278.176C332.524 276.803 330.343 276.502 320.682 277.69C318.568 277.958 316.857 278.192 315.75 278.36C312.697 275.631 311.204 275.296 310.433 275.715C309.007 276.535 310.433 279.867 308.755 281.943C307.078 284.019 303.421 283.784 299.982 283.115C298.675 284.603 297.975 286.526 298.02 288.505C298.087 290.062 298.625 291.562 299.563 292.808Z" fill="#9EBECC"/>
<path d="M312.094 282.243L303.136 285.089C297.611 277.315 292.526 269.239 287.906 260.898C281.297 248.961 277.372 240.389 276.483 229.641C276.272 226.18 275.88 222.732 275.308 219.312C274.379 213.922 272.947 208.631 271.031 203.508L282.672 198.971C284.255 198.825 285.85 199.067 287.319 199.674C291.864 201.616 294.649 207.274 294.498 213.988C295.135 219.211 295.94 224.619 296.964 230.177C300.242 247.996 305.311 265.439 312.094 282.243Z" fill="#FFA255"/>
<path d="M198.081 241.226C204.958 241.606 211.886 241.963 218.864 242.298C234.654 243.023 250.225 243.581 265.579 243.972C272.289 257.214 275.979 264.664 277.489 268.163C278.337 270.205 279.359 272.171 280.541 274.04C281.512 275.605 282.594 277.099 283.779 278.51C285.362 282.344 288.122 285.58 291.663 287.751C301.224 293.326 316.488 289.425 328.565 276.97C311.523 242.984 299.764 218.776 296.225 209.166C295.092 205.679 292.935 202.611 290.036 200.36C284.433 196.275 277.438 197.162 275.392 197.346C267.642 198.05 252.646 195.923 220.524 182.647C207.189 195.455 204.522 203.306 204.757 208.212C204.757 209.4 205.159 212.715 203.079 214.557C200.999 216.398 196.689 215.829 193.602 214.858C195.123 223.642 196.616 232.431 198.081 241.226Z" fill="#FF90AD"/>
<path d="M257.175 190.584C267.911 193.698 277.874 191.889 280.927 192.358C281.363 193.363 281.917 194.568 282.605 195.941C283.292 197.314 283.661 198.084 284.517 198.469C285.293 198.784 286.144 198.865 286.966 198.703C286.92 196.63 286.518 194.58 285.775 192.643C284.7 189.9 283.06 187.414 280.961 185.344L260.614 184.54L257.175 190.584Z" fill="#F3D0B5"/>
<path d="M191.589 244.994H268.817C269.271 244.994 269.639 244.626 269.639 244.173V241.478C269.639 241.025 269.271 240.658 268.817 240.658H191.589C191.135 240.658 190.768 241.025 190.768 241.478V244.173C190.768 244.626 191.135 244.994 191.589 244.994Z" fill="#130C25"/>
<path d="M284.062 301.878L287.275 300.915C287.816 300.753 288.123 300.183 287.961 299.643L270.261 240.796C270.098 240.256 269.528 239.949 268.986 240.112L265.773 241.074C265.232 241.237 264.925 241.806 265.087 242.346L282.788 301.193C282.95 301.733 283.521 302.04 284.062 301.878Z" fill="#130C25"/>
<path d="M284.299 301.796L339.331 283.663C339.701 283.541 339.901 283.144 339.779 282.775L339.054 280.581C338.932 280.212 338.533 280.012 338.164 280.134L283.131 298.267C282.762 298.389 282.561 298.786 282.683 299.155L283.409 301.349C283.531 301.718 283.929 301.918 284.299 301.796Z" fill="#3A3937"/>
<path d="M195.114 243.721L197.86 243.19C198.323 243.1 198.625 242.653 198.535 242.191L180.34 148.524C180.251 148.062 179.803 147.76 179.34 147.85L176.594 148.381C176.131 148.471 175.829 148.918 175.919 149.38L194.113 243.046C194.203 243.508 194.651 243.81 195.114 243.721Z" fill="#130C25"/>
<path d="M155.19 150.588H179.965C180.484 150.588 180.904 150.168 180.904 149.65V146.553C180.904 146.035 180.484 145.616 179.965 145.616H155.19C154.671 145.616 154.25 146.035 154.25 146.553V149.65C154.25 150.168 154.671 150.588 155.19 150.588Z" fill="#130C25"/>
<path d="M186.674 197.313H282.303C283.09 197.313 283.729 196.676 283.729 195.89V191.253C283.729 190.467 283.09 189.83 282.303 189.83H186.674C185.887 189.83 185.249 190.467 185.249 191.253V195.89C185.249 196.676 185.887 197.313 186.674 197.313Z" fill="#130C25"/>
<path d="M230.186 314.153C218.826 314.153 207.721 310.791 198.276 304.491C188.831 298.192 181.469 289.238 177.123 278.763C172.776 268.287 171.64 256.761 173.857 245.641C176.075 234.52 181.546 224.306 189.58 216.29C197.614 208.274 207.85 202.816 218.992 200.606C230.134 198.396 241.683 199.534 252.177 203.875C262.672 208.216 271.64 215.566 277.949 224.995C284.258 234.424 287.624 245.508 287.62 256.847C287.603 272.043 281.545 286.611 270.778 297.355C260.01 308.098 245.412 314.14 230.186 314.153ZM230.186 204.378C219.789 204.378 209.625 207.456 200.98 213.221C192.335 218.986 185.597 227.181 181.619 236.768C177.64 246.355 176.599 256.905 178.627 267.083C180.655 277.26 185.662 286.609 193.014 293.947C200.366 301.285 209.733 306.282 219.931 308.307C230.128 310.331 240.698 309.292 250.304 305.321C259.91 301.35 268.12 294.625 273.896 285.996C279.673 277.368 282.756 267.224 282.756 256.847C282.743 242.935 277.2 229.597 267.344 219.761C257.488 209.924 244.125 204.392 230.186 204.378Z" fill="#E8E5F0"/>
<path d="M230.187 310.353C230.075 310.353 229.969 310.309 229.89 310.23C229.812 310.152 229.767 310.045 229.767 309.934V203.742C229.767 203.631 229.812 203.525 229.89 203.446C229.969 203.368 230.075 203.324 230.187 203.324C230.298 203.324 230.405 203.368 230.483 203.446C230.562 203.525 230.606 203.631 230.606 203.742V309.934C230.606 310.045 230.562 310.152 230.483 310.23C230.405 310.309 230.298 310.353 230.187 310.353Z" fill="#130C25"/>
<path d="M186.976 288.137C186.911 288.141 186.845 288.128 186.786 288.099C186.727 288.069 186.677 288.025 186.641 287.969C186.564 287.891 186.521 287.786 186.521 287.676C186.521 287.567 186.564 287.462 186.641 287.383L273.195 225.624C273.232 225.586 273.276 225.556 273.325 225.536C273.374 225.516 273.427 225.505 273.48 225.505C273.533 225.505 273.585 225.516 273.634 225.536C273.683 225.556 273.728 225.586 273.765 225.624C273.842 225.702 273.885 225.807 273.885 225.917C273.885 226.026 273.842 226.131 273.765 226.21L187.211 287.986C187.155 288.064 187.071 288.118 186.976 288.137Z" fill="#130C25"/>
<path d="M280.542 274.426H280.391L179.747 240.105C179.694 240.089 179.645 240.061 179.603 240.025C179.561 239.988 179.527 239.943 179.503 239.893C179.48 239.842 179.467 239.788 179.465 239.732C179.464 239.676 179.474 239.621 179.495 239.57C179.51 239.517 179.536 239.468 179.571 239.427C179.606 239.385 179.649 239.351 179.699 239.327C179.748 239.304 179.801 239.29 179.856 239.289C179.911 239.287 179.965 239.298 180.015 239.319L280.659 273.639C280.758 273.667 280.842 273.731 280.897 273.817C280.952 273.904 280.973 274.007 280.957 274.108C280.94 274.21 280.887 274.301 280.807 274.366C280.728 274.43 280.627 274.464 280.525 274.459L280.542 274.426Z" fill="#130C25"/>
<path d="M245.484 308.109C245.394 308.107 245.307 308.076 245.235 308.022C245.163 307.968 245.109 307.893 245.082 307.808L214.503 206.103C214.471 205.998 214.481 205.886 214.531 205.789C214.581 205.692 214.668 205.618 214.771 205.584C214.88 205.552 214.997 205.564 215.097 205.617C215.198 205.67 215.273 205.76 215.308 205.868L245.887 307.573C245.919 307.678 245.909 307.79 245.858 307.887C245.808 307.984 245.722 308.058 245.619 308.092L245.484 308.109Z" fill="#130C25"/>
<path d="M197.645 299.253C197.564 299.284 197.474 299.284 197.393 299.253C197.316 299.175 197.273 299.07 197.273 298.96C197.273 298.851 197.316 298.746 197.393 298.667L262.459 214.591C262.526 214.502 262.626 214.443 262.736 214.428C262.846 214.412 262.958 214.441 263.047 214.507C263.136 214.574 263.194 214.673 263.21 214.783C263.226 214.893 263.197 215.004 263.13 215.093L198.031 299.103C197.985 299.159 197.925 299.202 197.858 299.229C197.79 299.255 197.717 299.264 197.645 299.253Z" fill="#130C25"/>
<path d="M283.36 259.225L177.013 255.24C176.903 255.232 176.8 255.182 176.726 255.101C176.651 255.021 176.61 254.915 176.61 254.805C176.614 254.697 176.661 254.594 176.739 254.52C176.817 254.445 176.921 254.403 177.029 254.403L283.376 258.387C283.431 258.39 283.485 258.403 283.536 258.426C283.586 258.449 283.631 258.481 283.668 258.522C283.705 258.562 283.734 258.61 283.753 258.661C283.772 258.713 283.781 258.768 283.779 258.823C283.771 258.929 283.723 259.029 283.646 259.104C283.569 259.178 283.467 259.221 283.36 259.225Z" fill="#3A3937"/>
<path d="M259.491 301.58C259.42 301.579 259.35 301.56 259.289 301.525C259.227 301.49 259.175 301.44 259.138 301.379L200.547 212.749C200.516 212.705 200.494 212.654 200.484 212.601C200.473 212.548 200.473 212.493 200.484 212.439C200.495 212.386 200.516 212.336 200.547 212.291C200.578 212.247 200.618 212.209 200.664 212.18C200.711 212.149 200.762 212.127 200.817 212.116C200.872 212.105 200.928 212.105 200.983 212.116C201.037 212.126 201.089 212.148 201.135 212.179C201.182 212.21 201.221 212.251 201.252 212.297L259.843 300.927C259.874 300.972 259.895 301.022 259.906 301.076C259.917 301.129 259.917 301.184 259.906 301.237C259.895 301.29 259.874 301.341 259.842 301.385C259.811 301.43 259.772 301.468 259.725 301.496C259.658 301.548 259.576 301.578 259.491 301.58Z" fill="#130C25"/>
<path d="M211.114 306.821H210.963C210.861 306.776 210.779 306.694 210.735 306.591C210.692 306.488 210.689 306.373 210.729 306.268L248.872 207.141C248.913 207.037 248.992 206.953 249.095 206.907C249.197 206.862 249.313 206.858 249.418 206.898C249.522 206.938 249.607 207.018 249.652 207.12C249.698 207.222 249.701 207.338 249.661 207.442L211.517 306.569C211.483 306.647 211.427 306.713 211.355 306.757C211.283 306.802 211.199 306.824 211.114 306.821Z" fill="#130C25"/>
<path d="M178.707 270.608C178.615 270.605 178.526 270.572 178.454 270.515C178.382 270.458 178.329 270.379 178.304 270.29C178.289 270.238 178.285 270.182 178.293 270.128C178.3 270.073 178.318 270.021 178.347 269.974C178.375 269.927 178.412 269.886 178.457 269.854C178.502 269.822 178.553 269.8 178.606 269.788L281.582 243.085C281.691 243.059 281.806 243.076 281.902 243.134C281.998 243.192 282.067 243.286 282.093 243.395C282.12 243.504 282.102 243.619 282.044 243.714C281.986 243.81 281.892 243.879 281.783 243.906L178.808 270.592L178.707 270.608Z" fill="#130C25"/>
<path d="M271.014 291.301C270.916 291.297 270.822 291.262 270.746 291.201L189.09 223.129C189.004 223.058 188.949 222.956 188.938 222.844C188.927 222.733 188.961 222.621 189.032 222.535C189.103 222.448 189.206 222.393 189.317 222.382C189.429 222.371 189.54 222.405 189.627 222.476L271.283 290.548C271.361 290.629 271.404 290.737 271.404 290.849C271.404 290.961 271.361 291.069 271.283 291.15C271.216 291.233 271.12 291.287 271.014 291.301Z" fill="#130C25"/>
<path d="M237.298 191.906L245.199 181.493C235.449 173.769 225.315 166.538 214.838 159.829C211.293 157.597 207.793 155.437 204.338 153.35C202.958 152.6 201.394 152.252 199.825 152.346C198.267 152.447 196.769 152.98 195.498 153.886C197.349 157.144 198.002 160.946 197.343 164.634C208.141 174.735 220.303 183.278 233.474 190.014C234.749 190.667 236.024 191.303 237.298 191.906Z" fill="#F4CC2A"/>
<path d="M235.705 193.178L271.668 191.672L274.671 183.435L232.736 176.604C229.633 183.15 229.733 189.328 232.736 191.906C233.591 192.593 234.617 193.033 235.705 193.178Z" fill="#F4CC2A"/>
<path d="M220.34 182.43C220.269 182.452 220.193 182.452 220.122 182.43L200.698 170.711C200.642 170.688 200.592 170.652 200.551 170.608C200.51 170.563 200.48 170.51 200.461 170.453C200.443 170.395 200.437 170.334 200.445 170.274C200.452 170.214 200.472 170.156 200.504 170.105C200.536 170.054 200.579 170.01 200.629 169.976C200.68 169.943 200.737 169.921 200.797 169.912C200.857 169.902 200.918 169.906 200.976 169.923C201.034 169.939 201.088 169.968 201.134 170.008L220.558 181.727C220.654 181.783 220.723 181.874 220.751 181.981C220.779 182.087 220.764 182.201 220.709 182.296C220.663 182.347 220.606 182.386 220.541 182.409C220.477 182.432 220.408 182.44 220.34 182.43Z" fill="#F4CC2A"/>
<path d="M227.737 167.53C227.681 167.529 227.625 167.517 227.573 167.494C227.521 167.471 227.474 167.438 227.435 167.396L216.6 156.012C216.523 155.934 216.48 155.829 216.48 155.719C216.48 155.609 216.523 155.504 216.6 155.426C216.639 155.386 216.686 155.353 216.737 155.331C216.789 155.309 216.845 155.298 216.901 155.298C216.958 155.298 217.014 155.309 217.065 155.331C217.117 155.353 217.164 155.386 217.203 155.426L228.023 166.794C228.063 166.833 228.095 166.879 228.117 166.931C228.14 166.983 228.151 167.039 228.151 167.095C228.151 167.151 228.14 167.207 228.117 167.259C228.095 167.31 228.063 167.357 228.023 167.396C227.946 167.472 227.845 167.52 227.737 167.53Z" fill="#F4CC2A"/>
<path d="M216.734 111.362C216.734 114.71 220.558 117.573 225.288 117.573C230.019 117.573 233.944 114.794 233.944 111.362C233.944 107.93 230.019 105.201 225.288 105.201C220.558 105.201 216.734 107.93 216.734 111.362Z" fill="white"/>
<path d="M198.232 132.206C198.232 135.738 201.587 138.584 205.629 138.584C207.454 138.709 209.254 138.108 210.637 136.913C212.019 135.718 212.872 134.026 213.01 132.206C213.01 128.69 209.655 125.844 205.629 125.844C201.604 125.844 198.232 128.64 198.232 132.206Z" fill="white"/>
<path d="M198.584 121.089C199.759 124.437 203.365 126.999 205.881 128.74C207.961 130.18 208.984 130.883 210.41 130.933C215.442 131.067 219.233 123.299 219.703 122.277C222.018 117.422 220.642 115.581 223.058 112.032C226.11 107.511 230.187 107.411 230.019 105.854C229.75 103.108 216.6 98.7388 207.139 104.649C201.637 108.097 196.672 115.464 198.584 121.089Z" fill="white"/>
<path d="M75.7822 211.226L94.502 215.428C99.0066 207.716 102.931 199.68 106.244 191.387C112.07 176.688 115.934 161.288 117.734 145.582L81.3847 154.254C78.8708 159.671 77.0884 165.396 76.0842 171.281C75.3126 175.868 75.1951 179.651 75.6145 202.403C75.6816 206.019 75.7319 208.999 75.7822 211.226Z" fill="#FFA255"/>
<path d="M19.8074 266.741L25.7957 273.136C37.0125 261.757 49.0859 251.251 61.91 241.712C71.359 234.677 81.1925 228.171 91.3651 222.225L77.6105 208.832C72.8199 210.483 68.1698 212.515 63.7049 214.909C57.4872 217.974 51.7468 221.921 46.6625 226.628C37.2188 235.803 38.2756 242.282 25.6615 259.308C23.3132 262.572 21.2164 265.084 19.8074 266.741Z" fill="#FFA255"/>
<path d="M5.097 279.214L31.9353 304.544C32.3165 304.713 32.732 304.79 33.1486 304.77C33.5652 304.749 33.9712 304.632 34.334 304.427C34.8249 304.07 35.1813 303.559 35.3457 302.976C35.51 302.393 35.4727 301.772 35.2398 301.212C33.2778 298.98 31.5364 296.563 30.0399 293.996C27.796 290.59 26.2563 286.771 25.5109 282.763C25.0218 279.578 25.1356 276.33 25.8464 273.187L19.8581 266.791C15.3291 271.579 11.7059 273.304 9.18985 273.974C8.20019 274.225 5.68409 274.777 4.97959 276.585C4.68831 277.445 4.7302 278.383 5.097 279.214Z" fill="#F2C5A3"/>
<path d="M27.6243 277.841L94.7201 220.3L106.462 188.491L81.4854 142.736C75.1707 163.487 71.5736 184.966 70.7836 206.639C63.2195 209.798 56.373 214.451 50.6549 220.316C44.5156 226.678 41.8654 231.918 36.4474 241.712C31.2268 251.088 25.1453 259.96 18.2812 268.214C21.4235 271.417 24.5379 274.626 27.6243 277.841Z" fill="#7FC6D7"/>
<path d="M94.3512 110.374L82.3746 116.92C89.1848 128.505 95.9894 140.091 102.788 151.676C105.284 149.854 107.505 147.683 109.381 145.23C112 141.561 113.974 137.473 115.218 133.143C117.147 127.652 119.395 122.244 121.039 116.652C123.236 109.453 127.966 98.5044 139.876 82.8008L133.166 57.6884C131.323 54.4146 130.671 50.6055 131.321 46.9068C131.461 46.2366 131.646 45.5767 131.875 44.9313C132.783 42.1286 134.435 39.6237 136.655 37.6822C135.514 36.7948 134.391 35.8908 133.3 34.9868L128.05 30.8348L110.941 49.1502C107.332 52.4081 104.471 56.4056 102.554 60.8693C98.595 70.2613 101.228 76.9914 99.9369 89.33C99.1327 96.5827 97.2502 103.675 94.3512 110.374Z" fill="#F2C5A3"/>
<path d="M106.093 211.778L125.014 208.513C126.208 199.676 126.735 190.761 126.59 181.844C126.336 166.043 124.001 150.345 119.646 135.152L89.4362 157.1C89.2031 163.063 89.7672 169.031 91.1136 174.846C92.1703 179.383 93.5122 182.932 102.62 203.792C104.013 207.023 105.22 209.802 106.093 211.778Z" fill="#FFA255"/>
<path d="M102.201 291.87L110.957 292.422C111.554 264.639 115.823 237.056 123.655 210.389L104.466 210.104C102.124 214.594 100.144 219.263 98.5445 224.066C96.1238 230.518 94.6492 237.284 94.1665 244.156C93.6129 257.315 98.7793 261.333 101.363 282.327C101.849 286.412 102.084 289.694 102.201 291.87Z" fill="#FFA255"/>
<path d="M100.088 311.022H136.991C137.359 310.876 137.69 310.65 137.96 310.361C138.23 310.071 138.431 309.725 138.551 309.348C138.663 308.751 138.57 308.133 138.287 307.595C138.004 307.058 137.547 306.631 136.991 306.385C134.03 306.109 131.104 305.548 128.251 304.711C124.283 303.79 120.541 302.082 117.248 299.688C114.698 297.71 112.542 295.275 110.89 292.506L102.134 291.953C102.134 298.533 100.692 302.266 99.3162 304.476C98.7795 305.347 97.3201 307.473 98.0414 309.264C98.4805 310.084 99.2102 310.711 100.088 311.022Z" fill="#FFA255"/>
<path d="M131.052 43.1066C131.272 43.6895 131.547 44.2501 131.874 44.7808C132.807 42.0326 134.457 39.5823 136.655 37.6823C135.514 36.795 134.39 35.891 133.3 34.9869L132.948 35.0874C130.566 35.9579 129.727 39.5407 131.052 43.1066Z" fill="#F1C8A9"/>
<path d="M129.945 35.1375C132.583 36.762 135.317 38.2267 138.131 39.5238C140.393 40.5054 142.813 41.0725 145.277 41.198C145.76 41.2723 146.254 41.2468 146.727 41.123C147.2 40.9991 147.643 40.7796 148.028 40.4781C148.362 40.1444 148.615 39.7382 148.766 39.2909C148.918 38.8437 148.963 38.3676 148.9 37.8999C148.933 37.8013 148.986 37.7105 149.055 37.6328C149.124 37.5551 149.208 37.4922 149.302 37.4478C149.671 37.3139 150.057 37.699 150.56 37.4478C150.798 37.3331 150.996 37.1513 151.13 36.9251C151.264 36.6988 151.329 36.4381 151.315 36.1755C151.254 35.9303 151.105 35.716 150.896 35.5728C151.202 35.5152 151.492 35.3907 151.744 35.2084C151.996 35.0261 152.205 34.7903 152.355 34.5181C152.363 34.485 152.363 34.4507 152.355 34.4176C152.417 34.2809 152.449 34.1325 152.449 33.9823C152.449 33.8322 152.417 33.6838 152.355 33.5471C152.125 33.1224 151.928 32.6802 151.768 32.2245C150.781 29.648 150.781 26.7985 151.768 24.222C152.062 23.6815 152.32 23.1223 152.54 22.5478C152.64 22.2632 152.741 21.9619 152.842 21.6103C153.338 19.8115 153.441 17.9275 153.144 16.0856C152.842 13.7525 152.047 11.5099 150.812 9.50611C149.377 6.90953 147.268 4.74664 144.706 3.24475C138.836 -0.10357 128.67 -0.287729 123.739 6.05734C118.807 12.4024 121.558 22.732 124.913 26.097C126.331 27.4274 127.526 28.9761 128.452 30.6842C129.146 32.0957 129.648 33.5934 129.945 35.1375Z" fill="#F3D0B5"/>
<path d="M150.946 31.7054C151.267 31.4724 151.633 31.3072 152.02 31.2199C152.506 31.1195 152.708 31.2199 153.144 31.1027C153.468 30.9735 153.748 30.7524 153.949 30.4666C154.163 30.1521 154.264 29.7742 154.234 29.3951C154.117 28.8572 153.792 28.3875 153.328 28.0893C152.386 27.097 151.726 25.8718 151.416 24.54L150.309 28.039C150.527 29.2612 150.745 30.4833 150.946 31.7054Z" fill="#F3D0B5"/>
<path d="M145.578 24.1217C145.488 24.1217 145.399 24.0923 145.327 24.0379C145.25 23.9597 145.207 23.8545 145.207 23.745C145.207 23.6354 145.25 23.5302 145.327 23.452C146.004 22.5683 146.957 21.9343 148.035 21.6495C149.112 21.3647 150.255 21.4451 151.282 21.8783C151.337 21.8953 151.389 21.9238 151.433 21.9619C151.478 22 151.513 22.047 151.538 22.0997C151.563 22.1525 151.577 22.2099 151.579 22.2682C151.58 22.3265 151.569 22.3845 151.547 22.4384C151.525 22.4924 151.491 22.541 151.449 22.5813C151.407 22.6216 151.356 22.6527 151.301 22.6724C151.246 22.6922 151.188 22.7003 151.13 22.6961C151.071 22.692 151.014 22.6757 150.963 22.6484C150.142 22.2996 149.233 22.2175 148.363 22.414C147.42 22.6391 146.584 23.1834 145.998 23.9542C145.951 24.0192 145.887 24.0694 145.813 24.0991C145.738 24.1288 145.657 24.1366 145.578 24.1217Z" fill="#3A3937"/>
<path d="M148.279 23.3014C148.178 24.2724 148.615 25.1095 149.269 25.1764C149.923 25.2434 150.544 24.5403 150.661 23.5023C150.778 22.4643 150.326 21.7109 149.671 21.6272C149.017 21.5435 148.396 22.3471 148.279 23.3014Z" fill="#3A3937"/>
<path d="M134.223 24.2556C133.938 26.8171 135.229 29.0772 137.125 29.2781C139.02 29.479 140.798 27.604 141.083 25.0258C141.368 22.4475 140.077 20.2042 138.181 20.0033C136.286 19.8024 134.508 21.6942 134.223 24.2556Z" fill="#F3D0B5"/>
<path d="M96.3972 293.21L114.849 292.457C118.371 263.862 121.882 235.262 125.383 206.656C130.977 178.74 127.449 149.769 115.318 124.003C109.363 112.685 95.3907 109.186 86.098 115.012C78.1136 119.867 74.591 130.599 78.4826 140.359C85.6283 163.251 92.7628 186.131 99.8862 209C96.9827 216.378 95.0707 224.107 94.1998 231.986C92.7908 245.145 95.1056 252.545 96.0281 273.254C96.3972 281.96 96.3972 288.941 96.3972 293.21Z" fill="#7FC6D7"/>
<path d="M74.9266 127.184C79.4997 133.818 85.9796 138.914 93.5122 141.799C110.42 148.161 125.383 140.125 127.798 138.852C130.817 126.921 133.842 114.973 136.873 103.009C138.591 99.6939 139.725 96.1094 140.228 92.4113C141.268 84.8273 139.137 79.5872 136.269 69.3915C134.91 64.57 132.914 57.3041 131.237 48.113L121.558 37.7164C115.765 41.1809 110.59 45.5826 106.244 50.7414C97.3199 61.4058 95.0721 71.886 91.4993 83.9065C87.0824 98.7307 81.5422 113.198 74.9266 127.184Z" fill="#6FB6C8"/>
<path d="M74.9269 210.288C74.862 210.313 74.7905 210.313 74.7256 210.288L70.5824 208.011C70.4872 207.955 70.418 207.864 70.3897 207.758C70.3614 207.651 70.3764 207.538 70.4315 207.442C70.456 207.392 70.4907 207.347 70.5335 207.311C70.5762 207.275 70.626 207.249 70.6796 207.233C70.7333 207.217 70.7896 207.213 70.8451 207.22C70.9006 207.227 70.9539 207.246 71.0018 207.275L75.1282 209.568C75.2231 209.624 75.2931 209.714 75.3243 209.82C75.3554 209.926 75.3452 210.039 75.2959 210.137C75.25 210.189 75.1929 210.229 75.1289 210.256C75.0649 210.282 74.9958 210.293 74.9269 210.288Z" fill="#579BAB"/>
<path d="M70.9847 214.357C70.9083 214.381 70.8262 214.381 70.7498 214.357L67.546 212.197C67.5007 212.165 67.462 212.125 67.4324 212.078C67.4028 212.031 67.3827 211.979 67.3733 211.925C67.364 211.87 67.3655 211.815 67.3779 211.761C67.3903 211.707 67.4132 211.656 67.4454 211.611C67.4756 211.566 67.5145 211.528 67.5598 211.499C67.6052 211.469 67.6559 211.449 67.7092 211.44C67.7624 211.431 67.817 211.432 67.8696 211.444C67.9223 211.456 67.972 211.479 68.0157 211.511L71.2363 213.603C71.2811 213.633 71.3193 213.672 71.3488 213.717C71.3782 213.763 71.3982 213.813 71.4076 213.867C71.417 213.92 71.4156 213.974 71.4035 214.027C71.3913 214.079 71.3687 214.129 71.3369 214.172C71.3036 214.235 71.2522 214.286 71.1893 214.319C71.1265 214.352 71.0551 214.365 70.9847 214.357Z" fill="#579BAB"/>
<path d="M104.398 215.361C104.326 215.377 104.252 215.377 104.18 215.361L98.6784 212.197C98.6249 212.173 98.5771 212.138 98.5381 212.094C98.499 212.051 98.4696 211.999 98.4517 211.943C98.4338 211.888 98.4279 211.829 98.4342 211.771C98.4406 211.712 98.4591 211.656 98.4886 211.606C98.5181 211.555 98.5579 211.511 98.6054 211.477C98.653 211.442 98.7072 211.418 98.7646 211.406C98.8221 211.394 98.8814 211.394 98.9388 211.407C98.9961 211.419 99.0503 211.443 99.0978 211.477L104.6 214.625C104.695 214.681 104.765 214.771 104.796 214.876C104.827 214.982 104.817 215.096 104.767 215.194C104.723 215.249 104.667 215.292 104.603 215.321C104.539 215.35 104.469 215.364 104.398 215.361Z" fill="#579BAB"/>
<path d="M109.045 68.001C109.951 71.6339 111.091 75.4845 112.4 79.4522C112.517 79.7536 112.618 80.0884 112.719 80.3898C113.926 83.7381 115.235 87.0864 116.61 90.1166C119.208 96.0176 122.218 101.729 125.618 107.21L137.779 105.904C132.668 91.9192 127.541 77.9287 122.397 63.9328C121.106 58.3411 117.365 54.7416 114.547 55.0262C111.494 55.3108 107.72 60.7016 109.045 68.001Z" fill="#F3D0B5"/>
<path d="M112.45 79.4525C112.567 79.7539 112.668 80.0887 112.769 80.39C113.976 83.7384 115.285 87.0867 116.66 90.1169L129.257 82.9013L112.45 79.4525Z" fill="#F2C5A3"/>
<path d="M104.248 86.8692L131.086 82.5164L125.215 62.3427C124.309 55.8135 118.204 51.9462 113.171 53.3023C111.057 54.0386 109.25 55.4575 108.035 57.3344C106.819 59.2114 106.266 61.4392 106.462 63.6653C105.69 71.3999 104.952 79.1346 104.248 86.8692Z" fill="#7FC6D7"/>
<path d="M170.387 138.852C172.769 140.208 174.446 142.385 174.228 144.327C173.943 147.106 169.817 150.002 164.466 148.83L158.629 145.381C146.858 138.135 137.063 128.1 130.113 116.167C128.172 112.777 126.49 109.246 125.081 105.603L134.759 99.9446C136.638 102.043 138.517 104.219 140.395 106.474C148.803 116.698 156.112 127.774 162.201 139.522L163.879 136.893C164.44 136.888 165 136.922 165.556 136.994C167.283 137.254 168.932 137.888 170.387 138.852Z" fill="#F3D0B5"/>
<path d="M98.947 311.475H140.882C140.642 309.752 139.927 308.129 138.819 306.787C136.588 304.192 133.468 303.874 129.543 303.037C125.261 302.122 121.064 300.851 116.996 299.237C118.338 301.162 119.68 303.388 119.109 303.974C118.539 304.56 116.526 303.338 115.218 302.719C112.299 301.313 107.77 300.291 100.691 301.915C99.8158 302.473 99.0793 303.222 98.5386 304.107C97.9978 304.992 97.667 305.989 97.5715 307.021C97.4703 308.624 97.9595 310.207 98.947 311.475Z" fill="#3A3937"/>
<path d="M3 278.176L33.6963 306.637C34.6874 305.207 35.2674 303.534 35.3737 301.798C35.5079 298.299 33.277 295.889 31.1299 292.758C28.6954 289.189 26.7281 285.324 25.2758 281.256C24.7055 283.6 23.85 286.363 22.8268 286.363C21.8036 286.363 21.3842 284.102 20.9146 282.663C19.7404 279.666 17.1069 275.849 10.8502 272.216C9.00826 272.283 7.23973 272.954 5.81802 274.124C4.48533 275.155 3.5017 276.569 3 278.176Z" fill="#064058"/>
<path d="M100.356 37.8163C101.48 43.475 104.13 49.9372 105.942 49.7029C107.401 49.5354 107.619 45.0989 109.649 32.3753C112.249 15.935 113.809 11.0298 117.633 9.2384C120.686 7.78188 123.857 8.97054 124.209 7.73166C124.561 6.49278 120.972 3.34536 117.063 3.04401C114.718 2.95478 112.409 3.65007 110.505 5.01952C102.42 10.3099 97.7396 24.557 100.356 37.8163Z" fill="#064058"/>
<path d="M119.881 11.0465C116.241 21.3593 124.913 33.2124 129.274 32.6934C133.635 32.1744 135.028 19.3001 138.919 19.6517C139.674 19.6517 139.775 20.2209 140.68 20.472C144.74 21.644 152.758 14.646 152.12 9.1882C151.433 3.12774 139.926 -2.06216 130.767 0.817401C130.163 0.951333 122.397 3.47932 119.881 11.0465Z" fill="#064058"/>
<path d="M159.769 135.185C159.266 137.127 158.78 139.086 158.276 141.028C159.333 144.979 160.088 147.876 160.407 149.399C160.542 150.286 160.906 151.123 161.464 151.827C161.765 152.207 162.128 152.536 162.537 152.798C162.905 153.041 163.299 153.243 163.711 153.4C164.701 153.752 168.089 152.982 172.098 150.755L172.987 151.709C174.43 153.233 174.665 153.484 175.101 153.501C175.417 153.468 175.721 153.358 175.984 153.179C176.248 153.001 176.463 152.761 176.61 152.479C176.979 151.827 177.03 150.805 174.564 146.553C173.91 145.415 172.887 143.874 171.696 142.1C171.964 144.427 173.189 146.017 174.631 146.235C175.067 146.235 175.923 146.235 176.208 145.783C176.493 145.331 176.023 143.623 171.964 139.84L168.962 138.869L159.769 135.185Z" fill="#F3D0B5"/>
</svg>
