<svg width="217" height="312" viewBox="0 0 217 312" fill="none" xmlns="http://www.w3.org/2000/svg">
<circle cx="117" cy="156" r="100" fill="#60C0E2"/>
<path d="M34.8174 137.06L27.4406 141.375L33.5817 141.837L34.928 141.016C34.7919 139.702 34.7549 138.38 34.8174 137.06Z" fill="url(#paint0_linear_111_4)"/>
<path d="M187.24 264.189H185.064C183.45 269.427 182.574 270.543 182.131 272.212C181.615 274.167 180.758 275.799 180.564 276.988C180.37 278.178 177.346 282.198 177.346 283.157C177.348 283.651 177.492 284.134 177.761 284.549C177.918 284.803 178.137 285.013 178.397 285.158C178.71 285.331 179.063 285.417 179.42 285.407C179.653 285.402 179.885 285.374 180.112 285.324C180.174 285.309 180.233 285.284 180.287 285.25L180.435 285.176L180.582 285.103C180.778 285 180.963 284.88 181.136 284.743C181.317 284.614 181.487 284.469 181.643 284.31L181.818 284.107C181.887 284.029 181.94 283.938 181.975 283.839L182.113 283.563C182.205 283.369 182.307 283.175 182.408 282.982L182.712 282.401L182.989 281.866L183.127 281.617C183.753 280.482 184.307 279.308 184.787 278.104C184.855 277.926 184.962 277.765 185.101 277.634C185.101 277.541 185.193 277.449 185.248 277.357C185.41 277.091 185.558 276.818 185.691 276.536C185.827 276.217 185.938 275.887 186.023 275.55C186.115 275.199 186.299 274.877 186.355 274.526C186.355 274.342 186.917 273.954 186.917 273.954C187.021 273.906 187.129 273.869 187.24 273.844V264.189Z" fill="#FFBDBE"/>
<path d="M177.346 283.157V283.231C180.665 281.009 180.831 278.325 180.592 276.841V276.988C180.37 278.169 177.346 282.198 177.346 283.157Z" fill="#F7DAD1"/>
<path d="M185.986 272.793C185.931 275.559 185.248 275.891 184.013 279.091C182.408 283.24 180.26 284.706 179.07 285.324C179.181 285.324 179.273 285.398 179.384 285.398H179.458C179.669 285.397 179.879 285.372 180.085 285.324H180.168C180.211 285.318 180.252 285.302 180.287 285.278L180.435 285.204L180.583 285.131C180.778 285.028 180.963 284.908 181.136 284.771C181.316 284.644 181.483 284.499 181.634 284.338L181.818 284.135C181.887 284.057 181.941 283.966 181.975 283.867L182.113 283.591C182.134 283.54 182.159 283.49 182.187 283.443C182.491 282.816 182.851 282.115 183.109 281.599C183.735 280.463 184.289 279.29 184.769 278.086C184.837 277.908 184.944 277.747 185.082 277.616C185.082 277.523 185.175 277.431 185.23 277.339C185.392 277.073 185.54 276.799 185.672 276.518C185.809 276.199 185.92 275.869 186.004 275.532C186.097 275.181 186.281 274.858 186.336 274.508C186.336 274.379 186.604 274.176 186.761 274.047L186.871 273.964C186.975 273.916 187.083 273.879 187.194 273.853V269.483C187.102 269.621 186.982 269.75 186.899 269.888C186.34 270.757 186.024 271.76 185.986 272.793Z" fill="#ED8493"/>
<path d="M134.459 41.6508C134.459 41.6508 115.823 14.5873 116.598 4.61945C116.773 2.31421 125.819 1.05094 127.479 1.09704C136.128 1.32757 140.139 8.39082 142.61 20.2305C145.082 32.0703 143.182 48.5389 134.459 41.6508Z" fill="white"/>
<g style="mix-blend-mode:multiply">
<path d="M130.715 19.6033C132.984 19.8245 135.195 20.449 137.244 21.4475C139.251 22.4507 140.918 24.023 142.036 25.968C143.155 27.913 143.675 30.1445 143.533 32.3836C143.072 40.3228 140.296 46.215 134.45 41.6046C129.817 34.7845 125.581 27.7033 121.762 20.3963C124.7 19.7467 127.709 19.4801 130.715 19.6033Z" fill="#F4F4F4"/>
</g>
<path d="M85.3112 50.0879C85.3112 50.0879 93.8222 18.3586 89.7649 9.22061C88.8428 7.10901 79.8432 8.96242 78.3309 9.54334C70.2534 12.6508 68.8334 20.6085 70.4655 32.5958C72.0976 44.583 79.4006 59.521 85.3112 50.0879Z" fill="white"/>
<g style="mix-blend-mode:multiply">
<path d="M81.4938 28.1882C79.431 29.1428 77.5569 30.4609 75.9612 32.0795C74.4016 33.6923 73.3541 35.7304 72.9504 37.9373C72.5468 40.1443 72.8051 42.4213 73.6928 44.4817C76.7726 51.8584 81.3555 56.4136 85.3205 50.1065C87.3962 42.1292 89.0065 34.038 90.143 25.8738C87.1731 26.2736 84.2665 27.0514 81.4938 28.1882Z" fill="#E0E9E9"/>
</g>
<path d="M133.131 83.4495C123.495 72.8085 121.356 50.42 121.356 50.42H99.5666C99.5666 50.42 97.4274 72.8085 87.7915 83.4495C82.7568 88.9821 92.6417 105.801 110.457 105.884C128.281 105.801 138.156 89.0098 133.131 83.4495Z" fill="#E2B897"/>
<path d="M66.4638 151.952V91.9142C64.8962 89.0003 73.2135 83.1082 72.2453 82.3889C72.2453 82.3889 47.8282 83.8827 42.1389 99.2909C37.178 112.79 29.8197 147.83 25.661 170.468L66.4638 151.952Z" fill="#043B52"/>
<path d="M141.55 31.3418C141.402 35.2238 140.019 38.7186 137.529 39.1796C135.04 39.6407 132.486 36.8467 131.831 33.0108C131.176 29.1749 134.597 25.3851 137.096 24.9609C139.595 24.5367 141.707 27.0356 141.55 31.3418Z" fill="#F3D0B5"/>
<path d="M138.581 28.6676C137.761 29.1888 137.08 29.9021 136.598 30.7457C136.116 31.5892 135.847 32.5376 135.814 33.5086C135.814 36.7544 138.959 35.6848 138.977 34.1817C138.996 32.6787 136.866 32.3929 138.581 28.6676Z" fill="#E2B897"/>
<path d="M75.2511 42.7574C76.6895 46.372 79.17 49.212 81.7057 48.7971C84.2415 48.3821 85.68 44.9151 85.0161 41.0791C84.3521 37.2432 79.8523 34.8273 77.3627 35.2515C74.873 35.6757 73.6466 38.7186 75.2511 42.7574Z" fill="#F3D0B5"/>
<path d="M77.1599 39.2441C78.1069 39.462 78.9866 39.9077 79.7225 40.5423C80.4584 41.177 81.0284 41.9816 81.3831 42.8864C82.4804 45.9386 79.1424 45.9847 78.6168 44.5739C78.0912 43.163 79.9999 42.1764 77.1599 39.2441Z" fill="#E2B897"/>
<path d="M171.195 164.317C171.103 133.759 164.39 88.226 158.166 85.3582C151.518 82.2877 133.73 74.8095 127.534 74.2931C127.619 74.8825 127.662 75.4772 127.663 76.0727C127.663 84.2609 119.964 90.9 110.457 90.9C100.95 90.9 93.2504 84.2609 93.2504 76.0727C93.2545 75.477 93.3007 74.8823 93.3887 74.2931C87.1922 74.8463 72.0606 81.2272 64.4533 83.3204C57.8419 85.1646 49.8196 133.796 49.6998 164.354L171.195 164.317Z" fill="#064058"/>
<path d="M123.707 4.68393C116.487 -2.60985 101.9 0.792684 101.9 0.792684C101.9 0.792684 87.0079 2.4709 82.6372 11.7564C78.2665 21.0419 76.9386 41.9643 83.0521 53.1678C87.3122 60.9779 96.4502 71.748 113.601 68.7973C130.752 65.8466 135.731 52.6329 137.17 43.8454C139.18 31.2403 130.937 11.9685 123.707 4.68393Z" fill="#F3D0B5"/>
<path d="M122.287 32.7986C122.349 33.2809 122.268 33.7707 122.053 34.2072C121.839 34.6436 121.501 35.0074 121.082 35.2534C120.662 35.4994 120.18 35.6167 119.694 35.5907C119.209 35.5647 118.742 35.3966 118.351 35.1073C117.96 34.818 117.663 34.4202 117.496 33.9634C117.33 33.5066 117.301 33.0109 117.414 32.538C117.527 32.065 117.776 31.6357 118.131 31.3034C118.486 30.971 118.931 30.7503 119.41 30.6686C119.739 30.6189 120.074 30.6347 120.397 30.7149C120.72 30.7952 121.024 30.9383 121.291 31.1362C121.558 31.3341 121.784 31.5828 121.955 31.8681C122.126 32.1534 122.239 32.4696 122.287 32.7986Z" fill="#2F1205"/>
<path d="M98.7645 36.8466C98.8298 37.1705 98.8295 37.5042 98.7636 37.828C98.6977 38.1517 98.5676 38.459 98.3808 38.7316C98.1941 39.0042 97.9546 39.2366 97.6765 39.4151C97.3984 39.5935 97.0874 39.7144 96.7617 39.7705C96.4361 39.8266 96.1026 39.8168 95.7808 39.7418C95.459 39.6667 95.1555 39.5279 94.8883 39.3336C94.6211 39.1392 94.3956 38.8932 94.2251 38.6102C94.0546 38.3271 93.9427 38.0127 93.8958 37.6857C93.8305 37.3618 93.8308 37.028 93.8966 36.7043C93.9625 36.3805 94.0927 36.0732 94.2794 35.8006C94.4661 35.528 94.7056 35.2956 94.9837 35.1171C95.2618 34.9387 95.5729 34.8179 95.8985 34.7617C96.2241 34.7056 96.5577 34.7154 96.8795 34.7904C97.2013 34.8655 97.5047 35.0043 97.772 35.1987C98.0392 35.393 98.2647 35.639 98.4351 35.9221C98.6056 36.2051 98.7176 36.5195 98.7645 36.8466Z" fill="#2F1205"/>
<path d="M115.04 18.5431C113.586 18.6728 112.202 19.2312 111.066 20.1475C110.024 21.1618 109.683 23.0337 110.734 24.0295C111.171 24.3509 111.672 24.5769 112.202 24.6928C112.733 24.8088 113.282 24.8121 113.813 24.7027C115.369 24.5743 116.912 24.3152 118.424 23.9281C120.37 23.4302 122.334 22.7294 124.316 23.006C125.064 23.224 125.851 23.2744 126.621 23.1535C127.091 22.9804 127.482 22.6433 127.723 22.2044C127.963 21.7655 128.037 21.2544 127.931 20.7653C127.027 16.7173 117.751 18.0636 115.04 18.5431Z" fill="#F4F4F4"/>
<path d="M95.9894 21.8164C97.4024 21.4535 98.8913 21.5176 100.268 22.0008C101.587 22.6094 102.536 24.2508 101.882 25.5509C101.576 25.9989 101.181 26.3781 100.72 26.664C100.26 26.9498 99.7444 27.1361 99.2075 27.2107C97.6961 27.6098 96.1539 27.8813 94.597 28.0221C92.6053 28.2066 90.5121 28.2066 88.7417 29.1379C88.1099 29.5952 87.3863 29.9098 86.6209 30.06C86.1153 30.0521 85.6298 29.8607 85.2549 29.5214C84.8799 29.1821 84.6412 28.7181 84.5831 28.2158C84.0667 24.1124 93.2415 22.2867 95.9894 21.8164Z" fill="#F4F4F4"/>
<path d="M133.897 26.8051C133.897 26.9987 133.897 27.1647 133.897 27.3584C133.777 38.7463 133.251 42.8035 130.402 48.3637C128.89 51.3144 124.787 48.917 119.946 48.7326C113.454 48.6765 107.005 49.7852 100.904 52.006C96.3952 53.8041 93.3339 57.4371 90.9272 55.1596C86.3812 50.8718 84.5278 47.2203 80.6089 36.5332C80.5444 36.3488 80.4983 36.192 80.4337 36.0076L78.9676 35.7863C78.9676 43.117 81.7339 51.462 83.5227 54.6432C86.455 59.7608 96.6442 80.6187 115.086 77.4374C133.528 74.2562 136.156 51.2038 137.216 45.4038C137.853 41.8445 137.733 34.394 135.492 26.215L133.897 26.8051Z" fill="white"/>
<g style="mix-blend-mode:multiply">
<path d="M119.752 48.7693C116.585 48.7323 113.422 48.9822 110.3 49.5162C107.182 50.062 104.118 50.8827 101.144 51.969C97.7046 53.3429 95.1135 55.7773 93.0019 55.8418C93.1034 56.8561 94.3666 58.5251 96.7733 59.272C101.458 60.7197 110.402 59.1337 111.997 59.3827C113.426 58.6173 122.389 57.1143 126.317 54.182C128.327 52.679 128.964 50.6873 128.724 49.6822C126.714 50.3277 123.45 48.9077 119.752 48.7693Z" fill="#F4F4F4"/>
</g>
<path d="M110.65 51.6372C106.316 52.3841 103.107 54.8 103.495 57.0407C103.882 59.2814 107.709 60.4801 112.043 59.7332C116.376 58.9863 119.585 56.5704 119.198 54.3297C118.811 52.089 114.984 50.8903 110.65 51.6372Z" fill="#442D43"/>
<path d="M106.252 59.4841C108.136 60.0195 110.12 60.1048 112.043 59.733C113.982 59.4382 115.825 58.6963 117.428 57.5661C115.536 57.0709 113.56 56.9858 111.633 57.3166C109.705 57.6474 107.871 58.3864 106.252 59.4841Z" fill="#CD5A6B"/>
<path d="M110.429 90.863C105.964 94.263 101.866 98.1199 98.2022 102.371C94.5138 106.806 83.3288 91.4716 88.4556 75.2796C88.4556 75.2796 91.1389 72.9374 93.8776 73.2971C93.9052 73.2971 96.5978 84.3807 110.429 90.863Z" fill="#043B52"/>
<path d="M110.429 90.863C114.908 94.26 119.018 98.117 122.693 102.371C126.382 106.806 137.567 91.4716 132.44 75.2796C132.44 75.2796 129.756 72.9374 127.018 73.2971C127.027 73.2971 124.261 84.3807 110.429 90.863Z" fill="#043B52"/>
<path d="M110.429 90.863C110.429 90.863 99.493 95.87 97.409 101.264C95.3251 106.659 83.3286 91.4716 88.4555 75.2796C88.4555 75.2796 91.1388 72.9374 93.8774 73.2971C93.9051 73.2971 96.5976 84.3807 110.429 90.863Z" fill="#ECF4F6"/>
<g style="mix-blend-mode:multiply">
<path d="M97.9163 97.1149C94.9471 101.393 86.1596 91.5823 87.9577 77.3544C84.3984 92.7442 95.4359 106.447 97.4368 101.283C99.5207 95.8885 110.457 90.8815 110.457 90.8815L110.254 90.7801C106.381 92.0065 100.498 93.3712 97.9163 97.1149Z" fill="#E0E9E9"/>
</g>
<path d="M110.429 90.863C110.429 90.863 121.365 95.87 123.459 101.264C125.552 106.659 137.539 91.4716 132.412 75.2796C132.412 75.2796 129.729 72.9374 126.99 73.2971C127.027 73.2971 124.261 84.3807 110.429 90.863Z" fill="#ECF4F6"/>
<g style="mix-blend-mode:multiply">
<path d="M123.025 97.1149C125.791 101.55 134.782 91.5823 132.975 77.3544C136.534 92.7442 125.506 106.447 123.505 101.283C121.421 95.8885 110.475 90.8815 110.475 90.8815L110.688 90.7801C114.551 92.0065 120.572 93.03 123.025 97.1149Z" fill="#E0E9E9"/>
</g>
<path d="M126.63 48.5942C122.942 50.3277 121.098 47.9395 116.561 46.5194C115.426 46.1238 114.197 46.0887 113.042 46.4188C111.886 46.7489 110.861 47.4282 110.107 48.3636C109.084 47.7254 107.888 47.4215 106.685 47.4943C105.482 47.567 104.332 48.0127 103.394 48.7694C99.5762 51.6186 98.6264 54.4864 94.5877 54.0899C90.5489 53.6934 92.4207 58.7003 99.5577 58.3868C105.883 58.1194 110.07 56.9483 111.139 54.348C112.983 56.4412 117.354 56.1461 123.412 54.2743C130.217 52.1996 130.31 46.8606 126.63 48.5942Z" fill="white"/>
<path d="M109.867 47.0542C108.871 47.2784 107.829 47.1856 106.889 46.7888C105.948 46.392 105.155 45.711 104.62 44.8411C104.565 45.2049 104.565 45.5747 104.62 45.9384C105.007 48.1884 107.515 49.6268 110.226 49.1658C112.937 48.7047 114.837 46.5009 114.431 44.2418C114.361 43.8838 114.237 43.5386 114.062 43.2183C113.848 44.2141 113.329 45.1185 112.577 45.8059C111.825 46.4933 110.878 46.9296 109.867 47.0542Z" fill="#E2B897"/>
<path d="M128.051 39.1888C128.183 39.9671 128.082 40.7673 127.76 41.4882C127.438 42.209 126.91 42.8183 126.242 43.2389C125.573 43.6594 124.796 43.8725 124.006 43.8511C123.217 43.8297 122.452 43.5747 121.808 43.1185C121.163 42.6623 120.669 42.0253 120.386 41.288C120.104 40.5507 120.046 39.7462 120.221 38.9763C120.396 38.2063 120.795 37.5055 121.368 36.9623C121.941 36.4191 122.662 36.058 123.44 35.9246C123.957 35.836 124.487 35.8501 124.998 35.9662C125.51 36.0823 125.994 36.2981 126.422 36.6012C126.85 36.9044 127.214 37.2889 127.494 37.7329C127.773 38.1769 127.962 38.6716 128.051 39.1888Z" fill="#E2B897"/>
<path d="M98.1562 44.334C98.2911 45.1146 98.1914 45.9176 97.8696 46.6414C97.5478 47.3653 97.0184 47.9773 96.3485 48.4001C95.6786 48.8228 94.8983 49.0372 94.1065 49.0162C93.3146 48.9952 92.5468 48.7396 91.9003 48.2819C91.2538 47.8241 90.7577 47.1849 90.4748 46.445C90.1919 45.7051 90.1349 44.8979 90.3111 44.1256C90.4873 43.3533 90.8887 42.6507 91.4645 42.1067C92.0403 41.5627 92.7646 41.2018 93.5457 41.0698C94.5897 40.8933 95.661 41.1377 96.5252 41.7496C97.3893 42.3614 97.9758 43.2907 98.1562 44.334Z" fill="#E2B897"/>
<g style="mix-blend-mode:screen" opacity="0.12">
<path d="M127.81 31.1574C128.382 34.4677 125.164 37.778 120.627 38.5341C116.091 39.2903 111.96 37.2616 111.406 33.9237C110.853 30.5857 114.044 27.303 118.58 26.5469C123.117 25.7908 127.239 27.8563 127.81 31.1574Z" fill="#EFF5F5"/>
</g>
<g style="mix-blend-mode:screen" opacity="0.12">
<path d="M104.426 35.1868C104.989 38.4879 101.78 41.8074 97.2433 42.5636C92.7066 43.3197 88.5756 41.3003 88.0223 37.9531C87.4691 34.6059 90.6688 31.3324 95.2055 30.5763C99.7422 29.8202 103.855 31.8857 104.426 35.1868Z" fill="#EFF5F5"/>
</g>
<g style="mix-blend-mode:screen" opacity="0.23">
<path d="M88.8984 39.9447C89.4027 40.5076 89.9905 40.9897 90.6412 41.374C91.886 38.9304 95.0027 32.5956 96.1738 30.189L94.6708 30.3549H94.3019H94.1175H94.0529L93.638 30.5578C92.3655 33.1028 90.1617 37.3629 88.8615 39.7327L88.8984 39.9447Z" fill="#EFF5F5"/>
</g>
<g style="mix-blend-mode:screen" opacity="0.23">
<path d="M92.1164 42.1948L92.6327 42.453C92.7434 42.5083 92.8356 42.536 92.9462 42.5821C93.4715 42.576 93.9956 42.5298 94.5138 42.4438L94.772 42.3792C96.7342 38.7336 98.4411 34.9563 99.8804 31.0743C99.4351 30.7498 98.9595 30.4688 98.4604 30.2352C98.1008 30.9729 93.2782 39.6498 91.9412 42.1026L92.1164 42.1948Z" fill="#EFF5F5"/>
</g>
<g style="mix-blend-mode:screen" opacity="0.23">
<path d="M111.6 36.0168C112.103 36.5814 112.691 37.0636 113.343 37.446C114.579 35.0024 117.695 28.6677 118.876 26.261C118.369 26.3071 117.871 26.3901 117.363 26.427H116.995H116.819H116.755L116.331 26.6298C115.049 29.1748 112.845 33.4349 111.554 35.8047L111.6 36.0168Z" fill="#EFF5F5"/>
</g>
<g style="mix-blend-mode:screen" opacity="0.23">
<path d="M114.809 38.2852L115.335 38.5433C115.436 38.5987 115.538 38.6263 115.639 38.6724C116.164 38.6668 116.689 38.6205 117.207 38.5341L117.474 38.4696C119.436 34.824 121.143 31.0466 122.582 27.1647C122.135 26.838 121.656 26.5569 121.153 26.3256C120.794 27.0632 115.971 35.7402 114.634 38.193L114.809 38.2852Z" fill="#EFF5F5"/>
</g>
<path d="M118.811 39.9449C117.176 39.9624 115.561 39.5894 114.099 38.8569C113.159 38.429 112.334 37.7835 111.693 36.9738C111.052 36.1641 110.612 35.2134 110.411 34.2003C109.729 30.2537 113.306 26.3348 118.396 25.468C120.693 25.0342 123.068 25.3578 125.164 26.3901C126.102 26.8211 126.925 27.4675 127.566 28.2767C128.207 29.0859 128.648 30.035 128.853 31.0467C129.526 34.9933 125.948 38.9122 120.867 39.779C120.188 39.8928 119.5 39.9483 118.811 39.9449ZM120.462 27.0356C119.871 27.0382 119.282 27.0907 118.701 27.1923C114.597 27.9024 111.674 30.8807 112.181 33.8591C112.343 34.6004 112.677 35.2928 113.158 35.8795C113.639 36.4661 114.252 36.9304 114.948 37.234C116.706 38.0744 118.686 38.3297 120.6 37.9624C124.703 37.2616 127.636 34.274 127.119 31.2957C126.959 30.5552 126.624 29.8637 126.143 29.2784C125.662 28.6931 125.048 28.2308 124.353 27.93C123.146 27.3265 121.811 27.0199 120.462 27.0356Z" fill="#2F363C"/>
<path d="M95.4913 43.9099C93.8576 43.926 92.2432 43.5564 90.7793 42.8311C89.8294 42.422 88.9966 41.7823 88.3563 40.9701C87.7161 40.1578 87.2887 39.1986 87.1129 38.1794C86.9371 37.1602 87.0184 36.1132 87.3495 35.1334C87.6806 34.1535 88.2509 33.2718 89.0089 32.5681C90.6696 30.9348 92.7896 29.8477 95.0851 29.4522C97.3806 29.0567 99.7422 29.3717 101.854 30.3551C102.807 30.763 103.643 31.403 104.286 32.2168C104.929 33.0307 105.358 33.9924 105.534 35.0145C105.71 36.0365 105.628 37.0863 105.294 38.0683C104.96 39.0503 104.386 39.9331 103.624 40.6365C101.986 42.3017 99.8555 43.3946 97.5475 43.7532C96.8679 43.8644 96.1799 43.9168 95.4913 43.9099ZM97.1418 31.0006C96.5547 30.9997 95.9685 31.049 95.3898 31.1481C93.4635 31.4426 91.6826 32.3476 90.3091 33.73C89.7372 34.2302 89.3034 34.869 89.0494 35.5851C88.7953 36.3011 88.7294 37.0704 88.8581 37.8193C88.9868 38.5681 89.3056 39.2713 89.7841 39.8615C90.2626 40.4517 90.8847 40.909 91.5908 41.1897C93.3557 41.9999 95.3244 42.2573 97.2383 41.9282C99.1522 41.599 100.922 40.6987 102.315 39.3455C102.889 38.8466 103.325 38.208 103.581 37.4915C103.836 36.7749 103.903 36.0046 103.774 35.2548C103.645 34.505 103.325 33.8011 102.845 33.2109C102.365 32.6208 101.741 32.1644 101.033 31.8858C99.8213 31.3001 98.4872 31.0124 97.1418 31.0467V31.0006Z" fill="#2F363C"/>
<path d="M105.192 34.4584L103.513 33.8313C103.878 33.0869 104.415 32.4396 105.078 31.9425C105.741 31.4453 106.513 31.1125 107.33 30.9712C108.147 30.83 108.986 30.8843 109.778 31.1298C110.57 31.3754 111.292 31.805 111.886 32.3836L110.512 33.4902L111.194 32.9185L110.521 33.4994C110.13 33.1606 109.668 32.913 109.17 32.7744C108.671 32.6358 108.148 32.6096 107.638 32.6979C107.128 32.7861 106.644 32.9865 106.221 33.2846C105.798 33.5826 105.446 33.9709 105.192 34.4215V34.4584Z" fill="#2F363C"/>
<path d="M127.949 30.392L126.926 28.9166C129.421 27.217 132.108 25.8151 134.929 24.7395L135.529 26.4269C132.858 27.4536 130.315 28.784 127.949 30.392Z" fill="#2F363C"/>
<path d="M87.3768 37.3816C84.6082 36.6546 81.7644 36.2523 78.9027 36.1829V34.4125C81.9236 34.4784 84.9261 34.9025 87.8471 35.6757L87.3768 37.3816Z" fill="#2F363C"/>
<path d="M112.273 13.4991C109.835 13.476 107.398 13.5776 104.97 13.8034C102.071 14.1841 99.213 14.8292 96.4315 15.7306C98.3772 14.0708 101.632 13.6467 104.214 13.2963C106.894 12.9292 109.615 12.9977 112.273 13.4991Z" fill="#E2B897"/>
<path d="M113.629 15.6108L109.24 15.9243C107.93 16.0165 106.621 16.1087 105.321 16.3116C102.203 16.9183 99.149 17.8199 96.2013 19.0041C100.257 16.7485 104.795 15.4994 109.433 15.3618C110.836 15.3328 112.239 15.4161 113.629 15.6108Z" fill="#E2B897"/>
<path d="M105.514 18.1741C107.964 17.9092 110.43 17.8352 112.891 17.9528C107.737 18.5245 102.582 19.1516 97.7318 20.9404C100.082 19.4389 102.744 18.4928 105.514 18.1741Z" fill="#E2B897"/>
<path d="M108.954 311.963C109.074 307.057 109.166 303.424 109.24 301.645C109.424 296.988 109.784 268.864 110.162 256.001C110.586 268.864 110.946 296.988 111.13 301.645C111.204 303.424 111.296 307.057 111.416 311.963H168.54C171.454 272.811 171.306 243.977 170.974 237.587C170.153 222.427 160.37 222.639 158.12 207.618H62.222C59.9721 222.639 50.1887 222.427 49.368 237.587C49.0176 243.977 48.8885 272.811 51.8023 311.963H108.954Z" fill="#064058"/>
<path d="M63.9279 311.963C63.5406 304.706 62.8675 297.209 63.8173 289.999C65.3479 278.279 58.7088 257.615 68.9718 251.501C72.0885 249.657 80.8853 252.81 88.7876 255.319C92.0615 256.38 94.9214 258.439 96.9667 261.207C99.0121 263.975 100.141 267.313 100.194 270.754C100.378 279.367 100.858 287.979 101.199 296.573C101.408 301.718 101.586 306.861 101.734 312H108.954C109.074 307.094 109.166 303.461 109.24 301.682C109.424 297.025 109.784 268.901 110.162 256.038C110.586 268.901 110.946 297.025 111.13 301.682C111.204 303.461 111.296 307.094 111.416 312H119.143C119.401 307.629 119.825 303.249 120.471 298.869C121.679 290.616 120.526 276.822 121.227 268.495C121.292 267.675 121.356 266.854 121.402 266.033C121.569 263.214 122.683 260.535 124.565 258.429C126.446 256.323 128.984 254.915 131.767 254.433C142.223 252.589 154.303 249.823 158.148 254.313C166.096 263.534 160.997 285.665 160.518 297.578C160.316 302.415 159.792 307.233 158.95 312H168.54C171.454 272.848 171.306 244.014 170.974 237.624C170.153 222.464 160.37 222.676 158.12 207.655H62.222C59.9721 222.676 50.1887 222.464 49.368 237.624C49.0176 244.014 48.8885 272.848 51.8023 312L63.9279 311.963Z" fill="#064058"/>
<path d="M164.833 99.8812L111.093 106.852L57.3165 99.8812C49.7553 125.257 27.9293 184.391 49.5617 239.284C49.5617 239.284 72.319 250.856 111.056 250.294C146.096 251.603 172.551 239.284 172.551 239.284C194.183 184.428 172.357 125.294 164.833 99.8812Z" fill="#064058"/>
<path d="M181.864 170.246C181.858 169.839 181.824 169.432 181.763 169.029C181.403 166.715 180.601 164.465 180.112 162.178C179.623 159.891 179.19 157.438 178.812 155.059C177.318 145.682 176.304 135.898 171.712 127.396C171.169 128.292 170.568 129.151 169.914 129.969C169.333 130.891 168.789 131.813 168.272 132.735C167.26 134.645 166.375 136.619 165.626 138.646C164.154 142.724 163.058 146.928 162.352 151.205C161.381 156.132 160.822 161.132 160.683 166.152C160.683 168.817 160.61 171.482 160.499 174.147C160.335 179.468 159.733 184.766 158.701 189.988C156.774 199.265 152.8 208.366 145.939 214.885C143.659 217.049 141.108 218.909 138.35 220.418C134.514 222.548 129.876 224.549 125.441 224.899C119.995 225.469 114.521 225.721 109.046 225.655C103.836 225.447 98.65 224.831 93.5364 223.811C90.973 223.301 88.4372 222.686 85.9291 221.967C84.6996 221.616 83.4548 221.238 82.1946 220.833C79.2162 219.864 76.662 217.909 74.2646 215.918C69.2765 211.764 65.2549 206.571 62.4802 200.703C60.583 196.695 59.2874 192.429 58.635 188.043C58.4691 186.955 58.3492 185.857 58.2662 184.751C58.312 183.683 58.2409 182.613 58.0541 181.56C55.0481 171.888 55.546 161.403 52.0052 151.841C50.2347 147.056 48.1232 142.417 46.5187 137.669C39.7505 166.457 35.5365 203.774 49.5432 239.321C49.5432 239.321 72.3005 250.893 111.038 250.33C146.077 251.64 172.532 239.321 172.532 239.321C172.772 239.21 173.076 237.919 173.178 237.642C173.408 237.034 173.63 236.425 173.851 235.798C174.294 234.581 174.709 233.355 175.114 232.11C175.889 229.731 176.593 227.327 177.226 224.899C178.486 220.095 179.481 215.225 180.204 210.311C181.643 200.329 182.14 190.234 181.689 180.159C181.508 177.941 181.483 175.713 181.615 173.492C181.765 172.416 181.848 171.332 181.864 170.246Z" fill="#043B52"/>
<path d="M184.031 286.624C184.842 287.657 185.036 289.602 185.064 290.986V292.452C185.066 292.492 185.066 292.532 185.064 292.572V311.936H189.951V291.087C190.098 289.123 190.698 285.637 193.003 283.24C194.376 281.915 196.088 280.994 197.951 280.579C199.814 280.164 201.755 280.271 203.561 280.889C205.682 281.811 205.184 284.909 206.401 285.582C207.618 286.255 209.25 286.08 209.564 281.654C209.877 277.228 205.138 274.757 200.721 275.245C196.177 275.964 191.719 277.145 187.415 278.768C185.432 279.579 181.006 276.693 179.43 275.882C177.853 275.07 176.986 279.127 177.982 281.525C178.978 283.922 182.675 284.909 184.031 286.624Z" fill="#25334D"/>
<path d="M177.687 280.428C177.745 280.788 177.844 281.141 177.982 281.479C178.978 283.867 182.675 284.909 184.031 286.624C184.842 287.657 185.036 289.603 185.064 290.986V292.452C185.064 292.507 185.064 292.572 185.064 292.572V311.936H186.963V291.594C186.969 291.449 186.985 291.304 187.009 291.161C187.009 291.161 187.009 291.078 187.009 291.041C187.023 290.857 187.023 290.672 187.009 290.488C187.006 290.034 186.975 289.582 186.917 289.132C186.819 288.242 186.546 287.381 186.115 286.597C185.597 285.791 184.977 285.057 184.271 284.411L180.518 280.723L180.278 280.492C179.962 280.185 179.683 279.842 179.448 279.469C179.383 279.291 179.293 279.123 179.181 278.971C179.057 278.831 178.943 278.683 178.84 278.528C178.655 278.261 178.48 278.003 178.314 277.726L178.083 277.348C178.083 277.302 177.881 277.071 177.89 277.025C177.785 277.347 177.708 277.677 177.659 278.012C177.659 278.012 177.659 278.058 177.659 278.076C177.614 278.406 177.592 278.739 177.595 279.072C177.595 279.137 177.595 279.201 177.595 279.266C177.603 279.575 177.631 279.883 177.678 280.188C177.659 280.243 177.668 280.335 177.687 280.428Z" fill="#0E152D"/>
<path d="M206.263 282.982C206.477 283.186 206.759 283.304 207.056 283.314C207.185 283.314 207.314 283.314 207.443 283.314C207.516 283.313 207.589 283.295 207.654 283.261C207.72 283.228 207.777 283.179 207.821 283.12C207.911 282.999 207.977 282.861 208.015 282.714C208.118 282.33 208.171 281.933 208.171 281.534C208.187 280.961 208.09 280.391 207.885 279.856C207.797 279.584 207.67 279.326 207.507 279.091C207.473 279.048 207.436 279.008 207.397 278.971C207.27 278.819 207.153 278.658 207.046 278.491C206.619 277.959 206.093 277.514 205.497 277.182L205.156 277.007C204.572 276.732 203.951 276.546 203.312 276.453C202.702 276.361 202.083 276.34 201.468 276.389C201.163 276.389 200.85 276.444 200.546 276.49C200.426 276.504 200.305 276.504 200.186 276.49C200.131 276.481 200.075 276.481 200.02 276.49C199.661 276.515 199.304 276.558 198.95 276.619C197.687 276.819 196.437 277.093 195.207 277.44C193.962 277.781 192.735 278.169 191.518 278.556C191.242 278.639 190.965 278.713 190.688 278.814C190.631 278.838 190.576 278.866 190.522 278.897C190.446 278.945 190.375 279 190.31 279.063C190.049 279.216 189.771 279.337 189.48 279.423C188.882 279.632 188.264 279.78 187.636 279.865C187.383 279.901 187.127 279.922 186.871 279.93C186.503 279.962 186.133 279.962 185.764 279.93C185.675 279.921 185.586 279.921 185.497 279.93C185.405 279.939 185.312 279.939 185.22 279.93C184.891 279.855 184.567 279.757 184.252 279.635L182.297 279.017C181.98 278.893 181.641 278.837 181.301 278.851C181.132 278.863 180.971 278.926 180.837 279.031C180.704 279.137 180.606 279.279 180.555 279.441C180.472 279.865 180.831 280.234 181.163 280.501C181.495 280.769 182.085 281.193 182.555 281.507C183.508 282.057 184.432 282.658 185.322 283.305C186.268 284.075 187.033 285.045 187.562 286.145C187.719 286.458 187.959 286.845 188.309 286.79C188.437 286.761 188.553 286.693 188.641 286.596C189.054 286.186 189.386 285.701 189.619 285.167C189.877 284.632 190.186 284.122 190.541 283.646C190.679 283.443 190.836 283.249 190.993 283.056C191.149 282.862 191.352 282.65 191.546 282.466C191.647 282.35 191.765 282.251 191.896 282.17C192 282.124 192.098 282.069 192.191 282.004C193.187 281.301 194.264 280.722 195.4 280.28C196.195 279.972 197.008 279.713 197.835 279.506C199.207 279.099 200.65 278.992 202.067 279.192C202.774 279.302 203.446 279.571 204.032 279.981C204.619 280.39 205.104 280.927 205.451 281.553C205.604 281.955 205.786 282.347 205.995 282.724C206.077 282.817 206.166 282.904 206.263 282.982Z" fill="#0E152D"/>
<path d="M39.6399 74.3945C39.6399 74.3945 46.5648 63.2556 48.0863 60.563C49.6078 57.8705 55.4631 48.8801 56.3852 44.9612C57.3073 41.0423 59.6033 31.5631 60.5807 30.89C61.5581 30.2168 68.188 24.5552 69.0824 23.6792C69.9769 22.8032 76.9295 19.9908 78.7368 19.7142C80.5441 19.4375 86.049 18.8935 86.1136 20.498C86.1781 22.1024 85.2745 22.2407 81.835 22.5634C81.835 22.5634 87.1279 21.6414 88.972 21.9549C90.8162 22.2684 90.8163 25.007 89.5438 24.924C89.5438 24.924 91.7199 27.9854 87.6996 28.3081C87.6996 28.3081 88.1237 30.2814 85.5787 30.4197C83.0338 30.558 81.7336 32.854 79.8525 33.7485C77.9714 34.6429 75.8875 37.6489 75.4357 39.1335C74.9839 40.6181 72.5403 48.1793 71.1295 52.0429C69.7187 55.9064 67.2106 57.5109 64.4627 59.6317C61.7149 61.7525 57.6484 75.5563 56.4774 79.8533C55.3063 84.1502 38.8192 86.8335 39.6399 74.3945Z" fill="#F3D0B5"/>
<path d="M70.5484 50.4198C69.156 54.0437 68.3077 54.643 66.5188 56.1368C64.73 57.6306 62.102 57.981 60.6174 59.7053C59.1328 61.4297 57.261 66.3168 55.7119 68.6128C56.2928 69.0277 56.846 69.4703 57.3716 69.913C57.8972 70.3556 58.515 70.8996 59.0498 71.4529C60.7373 66.3537 62.8489 60.9041 64.4994 59.6316C67.2657 57.5108 69.7554 55.9432 71.1662 52.0427C72.033 49.6637 73.2962 45.8831 74.2368 42.9785C72.6822 45.2841 71.4418 47.7866 70.5484 50.4198Z" fill="#E2B897"/>
<path d="M82.9877 19.3914C82.831 19.9077 82.6926 20.7376 83.4764 20.8298C84.5922 20.9681 85.8278 20.627 85.9015 20.0368C85.4497 19.5481 84.3063 19.4098 82.9877 19.3914Z" fill="#FED7CC"/>
<path d="M88.9809 21.9548C88.471 21.8821 87.9552 21.8605 87.441 21.8902C87.4008 21.9453 87.3725 22.0081 87.358 22.0747C87.3202 22.2237 87.3147 22.3792 87.3419 22.5306C87.3691 22.682 87.4283 22.8258 87.5156 22.9525C87.6029 23.0791 87.7163 23.1856 87.8482 23.2648C87.98 23.344 88.1273 23.3941 88.2801 23.4117C88.955 23.587 89.6702 23.5185 90.2995 23.2181C90.223 22.9037 90.0583 22.6177 89.8246 22.3939C89.591 22.1701 89.2983 22.0177 88.9809 21.9548Z" fill="#FED7CC"/>
<path d="M87.1461 24.6934C87.1058 24.7485 87.0776 24.8113 87.0631 24.8779C87.0058 25.0202 86.9812 25.1735 86.9911 25.3266C87.0011 25.4797 87.0453 25.6286 87.1206 25.7623C87.1958 25.8959 87.3002 26.011 87.4259 26.0989C87.5516 26.1869 87.6955 26.2454 87.8469 26.2702C88.5859 26.4294 89.3568 26.3419 90.0414 26.0213C90.0414 26.0213 90.0414 26.0213 90.0414 25.9752C89.9296 25.6032 89.765 25.2492 89.5527 24.924C88.7797 24.6595 87.9553 24.5805 87.1461 24.6934Z" fill="#FED7CC"/>
<path d="M85.3115 28.2712C85.1547 28.7876 86.0584 29.3409 87.377 29.2947C87.4599 29.2891 87.543 29.2891 87.6259 29.2947C87.7528 28.9726 87.791 28.6224 87.7366 28.2804C86.9773 28.0253 86.1686 27.9527 85.376 28.0684C85.3407 28.1308 85.3187 28.1998 85.3115 28.2712Z" fill="#FED7CC"/>
<path d="M67.0905 28.3541C67.0905 28.3541 71.6456 25.0807 72.623 24.2508C73.6005 23.4209 81.844 22.5634 81.844 22.5634C81.844 22.5634 74.6516 23.9188 73.4437 24.6196C72.2358 25.3204 68.3998 27.7732 67.0905 28.3541Z" fill="#E2B897"/>
<path d="M69.6172 30.0323C69.6172 30.0323 74.3014 25.9751 75.4448 25.5694C76.5882 25.1637 86.8788 24.0203 89.5529 24.9239C89.5529 24.9239 84.9424 25.4218 83.716 25.4034C82.4896 25.385 76.5237 25.7446 75.9704 26.0858C75.4171 26.4269 70.8251 29.2209 69.6172 30.0323Z" fill="#E2B897"/>
<path d="M71.2123 33.767C71.2123 33.767 75.4171 30.3644 75.9058 29.7005C76.3945 29.0366 82.4158 27.1924 83.8727 27.091C85.3296 26.9896 87.4873 27.8102 87.7363 28.3082C87.7363 28.3082 84.1678 27.3307 82.7385 27.7549C81.3093 28.1791 77.2797 28.9167 76.2838 29.8849C75.288 30.8531 72.6231 33.4903 71.2123 33.767Z" fill="#E2B897"/>
<path d="M9.74547 170.099C14.4758 173.234 24.5728 171.427 26.0481 170.237C41.0138 158.139 49.7921 113.814 53.8586 102.15C55.9609 96.1375 58.0725 90.1623 60.2487 84.1503C61.8255 79.8164 63.4115 75.4734 65.1727 71.2409L42.3139 59.9545C33.5632 75.335 11.2577 116.58 3.18936 139.522C2.11973 142.584 -0.775653 151.26 0.921005 157.964C2.24974 162.966 5.39625 167.293 9.74547 170.099Z" fill="#064058"/>
<path d="M204.317 272.811C203.69 271.105 200.887 265.674 200.269 263.903C199.651 262.133 198.95 260.621 199.153 258.657C199.356 256.693 199.43 256.379 199.817 255.89C200.114 255.304 200.284 254.662 200.316 254.006C200.348 253.35 200.241 252.694 200.002 252.082C199.439 250.616 197.549 229.777 196.94 222.022L179.236 224.788C180.361 231.399 183.745 248.283 184.391 250.782C185.399 254.977 185.188 259.373 183.782 263.452C182.067 268.597 181.182 270.828 180.794 273.235C180.615 274.235 180.366 275.221 180.047 276.186C181.395 277.001 182.812 277.698 184.28 278.27C184.295 278.24 184.314 278.212 184.335 278.187C184.38 278.122 184.432 278.063 184.492 278.011C184.557 277.956 184.63 277.919 184.695 277.873H184.769C184.994 277.796 185.232 277.765 185.469 277.781C185.609 277.786 185.748 277.804 185.884 277.836L186.373 277.947C186.708 278.003 187.024 278.139 187.295 278.343C187.417 278.412 187.531 278.492 187.636 278.583C189.527 280.197 189.61 282.373 189.849 284.687C189.951 285.61 190.043 286.532 190.052 287.38C190.139 288.012 190.179 288.65 190.172 289.289C190.264 289.299 190.357 289.299 190.449 289.289C191.952 288.975 193.501 285.305 194.395 284.208C194.644 283.904 194.967 283.655 195.225 283.378C195.483 283.101 196.249 283.378 196.682 283.378C197.399 283.298 198.089 283.058 198.701 282.677C199.541 282.244 199.946 280.584 200.029 279.911C200.112 279.238 200.592 279.478 201.228 279.321C201.864 279.164 203.247 277.753 203.174 277.108C203.1 276.462 203.072 276.259 203.552 275.928C204.018 275.575 204.348 275.073 204.488 274.505C204.627 273.937 204.567 273.339 204.317 272.811Z" fill="#FFBDBE"/>
<path d="M190.771 284.936C190.485 283.848 190.771 282.65 190.098 281.718C189.766 281.255 189.396 280.82 188.992 280.418C189.502 281.786 189.785 283.228 189.831 284.687C189.932 285.609 190.024 286.532 190.034 287.38C190.12 288.012 190.16 288.65 190.153 289.289C190.245 289.299 190.338 289.299 190.43 289.289C191.103 289.15 191.776 288.367 192.403 287.389C191.568 286.808 190.985 285.931 190.771 284.936Z" fill="#ED8493"/>
<path d="M191.076 286.449C190.816 287.17 190.508 287.872 190.154 288.551C190.168 288.797 190.168 289.043 190.154 289.289C190.246 289.295 190.338 289.295 190.43 289.289C191.519 289.059 192.616 287.095 193.492 285.601C193.204 285.948 192.827 286.211 192.402 286.361C191.976 286.51 191.518 286.541 191.076 286.449Z" fill="#ED8493"/>
<path d="M201.209 279.293C201.273 279.278 201.335 279.256 201.394 279.228C201.071 278.781 200.813 278.291 200.628 277.772C200.427 277.02 200.165 276.286 199.844 275.577C199.688 275.429 199.623 276.01 199.761 277.366C199.872 278.371 199.927 279.339 199.964 280.132C199.964 280.021 199.964 279.92 199.964 279.837C200.084 279.238 200.573 279.45 201.209 279.293Z" fill="#ED8493"/>
<path d="M194.441 281.073C194.441 282.161 194.358 283.268 194.266 284.319L194.377 284.181C194.625 283.876 194.948 283.627 195.206 283.351C195.28 283.28 195.369 283.228 195.467 283.199C195.565 283.17 195.669 283.165 195.769 283.185C195.704 282.834 195.769 281.617 195.695 281.34C195.465 279.45 195.603 277.56 195.4 277.007C195.197 276.453 194.542 278.03 194.441 281.073Z" fill="#ED8493"/>
<path d="M203.561 275.9C203.69 275.804 203.811 275.696 203.92 275.578C203.409 274.911 202.864 274.271 202.288 273.66C202.067 273.577 202.961 275.642 203.146 276.426C203.146 276.242 203.256 276.094 203.561 275.9Z" fill="#ED8493"/>
<path d="M157.539 85.1277C149.738 102.712 174.948 214.738 176.645 226.974C177.521 233.281 178.378 236.766 179.171 243.083C179.743 247.693 180.315 252.239 180.693 256.84L206.17 256.435C206.576 247.066 205.193 185.332 200.546 161.911C193.842 128.051 192.44 124.879 189.204 113.897C187.018 106.465 182.657 100.849 177.678 96.0084C171.453 89.9687 157.539 85.1277 157.539 85.1277Z" fill="#064058"/>
<defs>
<linearGradient id="paint0_linear_111_4" x1="60.27" y1="68.2461" x2="46.27" y2="180.265" gradientUnits="userSpaceOnUse">
<stop stop-color="#F9D4DD"/>
<stop offset="1" stop-color="#FAD9E1"/>
</linearGradient>
</defs>
</svg>
